<?xml version="1.0" encoding="UTF-8" standalone="no"?>
<!DOCTYPE svg PUBLIC "-//W3C//DTD SVG 1.1//EN"
 "http://www.w3.org/Graphics/SVG/1.1/DTD/svg11.dtd">
<!-- Generated by graphviz version 2.38.0 (20140413.2041)
 -->
<!-- Title: generation Pages: 1 -->
<svg width="753pt" height="277pt"
 viewBox="0.00 0.00 752.93 277.00" xmlns="http://www.w3.org/2000/svg" xmlns:xlink="http://www.w3.org/1999/xlink">
<g id="graph0" class="graph" transform="scale(1 1) rotate(0) translate(4 273)">
<title>generation</title>
<polygon fill="white" stroke="none" points="-4,4 -4,-273 748.926,-273 748.926,4 -4,4"/>
<!-- RevisionCreationFailed -->
<g id="node1" class="node"><title>RevisionCreationFailed</title>
<g id="a_node1"><a xlink:href="https://github.com/knative/serving/blob/111ca70cf6c9b6cc5b80e3d1944a64e4fbca7e5f/pkg/apis/serving/v1alpha1/configuration_lifecycle.go#L101" xlink:title="RevisionCreationFailed">
<ellipse fill="none" stroke="black" cx="240.39" cy="-18" rx="118.879" ry="18"/>
<text text-anchor="middle" x="240.39" y="-14.3" font-family="Times,serif" font-size="14.00">RevisionCreationFailed</text>
</a>
</g>
</g>
<!-- SetLatestCreatedRevisionName -->
<g id="node2" class="node"><title>SetLatestCreatedRevisionName</title>
<g id="a_node2"><a xlink:href="https://github.com/knative/serving/blob/111ca70cf6c9b6cc5b80e3d1944a64e4fbca7e5f/pkg/apis/serving/v1alpha1/configuration_lifecycle.go#L79:32" xlink:title="SetLatestCreatedRevisionName">
<ellipse fill="none" stroke="black" cx="584.39" cy="-105" rx="160.572" ry="18"/>
<text text-anchor="middle" x="584.39" y="-101.3" font-family="Times,serif" font-size="14.00">SetLatestCreatedRevisionName</text>
</a>
</g>
</g>
<!-- Reconcile -->
<g id="node3" class="node"><title>Reconcile</title>
<g id="a_node3"><a xlink:href="https://github.com/knative/serving/blob/03b04365f0c9f552298436012a911ce3a32cc3bf/pkg/reconciler/configuration/configuration.go#L61" xlink:title="Reconcile">
<ellipse fill="none" stroke="black" cx="326.39" cy="-251" rx="55.7903" ry="18"/>
<text text-anchor="middle" x="326.39" y="-247.3" font-family="Times,serif" font-size="14.00">Reconcile</text>
</a>
</g>
</g>
<!-- reconcile -->
<g id="node4" class="node"><title>reconcile</title>
<g id="a_node4"><a xlink:href="https://github.com/knative/serving/blob/03b04365f0c9f552298436012a911ce3a32cc3bf/pkg/reconciler/configuration/configuration.go#L116" xlink:title="reconcile">
<ellipse fill="none" stroke="black" cx="326.39" cy="-178" rx="53.8905" ry="18"/>
<text text-anchor="middle" x="326.39" y="-174.3" font-family="Times,serif" font-size="14.00">reconcile</text>
</a>
</g>
</g>
<!-- Reconcile&#45;&gt;reconcile -->
<g id="edge2" class="edge"><title>Reconcile&#45;&gt;reconcile</title>
<path fill="none" stroke="black" d="M326.39,-232.813C326.39,-224.789 326.39,-215.047 326.39,-206.069"/>
<polygon fill="black" stroke="black" points="329.89,-206.029 326.39,-196.029 322.89,-206.029 329.89,-206.029"/>
</g>
<!-- updateStatus -->
<g id="node6" class="node"><title>updateStatus</title>
<g id="a_node6"><a xlink:href="https://github.com/knative/serving/blob/03b04365f0c9f552298436012a911ce3a32cc3bf///pkg/reconciler/configuration/configuration.go#L281" xlink:title="updateStatus">
<ellipse fill="none" stroke="black" cx="471.39" cy="-178" rx="72.5877" ry="18"/>
<text text-anchor="middle" x="471.39" y="-174.3" font-family="Times,serif" font-size="14.00">updateStatus</text>
</a>
</g>
</g>
<!-- Reconcile&#45;&gt;updateStatus -->
<g id="edge3" class="edge"><title>Reconcile&#45;&gt;updateStatus</title>
<path fill="none" stroke="black" d="M355.733,-235.632C377.357,-225.044 407.035,-210.512 430.913,-198.82"/>
<polygon fill="black" stroke="black" points="432.641,-201.871 440.083,-194.329 429.563,-195.584 432.641,-201.871"/>
</g>
<!-- updateGeneration -->
<g id="node8" class="node"><title>updateGeneration</title>
<ellipse fill="none" stroke="black" stroke-width="2" cx="159.39" cy="-178" rx="94.7833" ry="18"/>
<text text-anchor="middle" x="159.39" y="-174.3" font-family="Times,serif" font-size="14.00">updateGeneration</text>
</g>
<!-- Reconcile&#45;&gt;updateGeneration -->
<g id="edge1" class="edge"><title>Reconcile&#45;&gt;updateGeneration</title>
<path fill="none" stroke="black" d="M293.794,-236.142C268.636,-225.446 233.509,-210.512 205.475,-198.593"/>
<polygon fill="black" stroke="black" points="206.836,-195.369 196.264,-194.677 204.097,-201.811 206.836,-195.369"/>
</g>
<!-- reconcile&#45;&gt;SetLatestCreatedRevisionName -->
<g id="edge6" class="edge"><title>reconcile&#45;&gt;SetLatestCreatedRevisionName</title>
<path fill="none" stroke="black" d="M366.702,-165.906C406.793,-154.874 469.034,-137.745 516.711,-124.625"/>
<polygon fill="black" stroke="black" points="517.937,-127.918 526.65,-121.89 516.08,-121.168 517.937,-127.918"/>
</g>
<!-- createRevision -->
<g id="node5" class="node"><title>createRevision</title>
<g id="a_node5"><a xlink:href="https://github.com/knative/serving/blob/03b04365f0c9f552298436012a911ce3a32cc3bf/pkg/reconciler/configuration/configuration.go#L267" xlink:title="createRevision">
<ellipse fill="none" stroke="black" cx="326.39" cy="-105" rx="79.8859" ry="18"/>
<text text-anchor="middle" x="326.39" y="-101.3" font-family="Times,serif" font-size="14.00">createRevision</text>
</a>
</g>
</g>
<!-- reconcile&#45;&gt;createRevision -->
<g id="edge5" class="edge"><title>reconcile&#45;&gt;createRevision</title>
<path fill="none" stroke="black" d="M326.39,-159.813C326.39,-151.789 326.39,-142.047 326.39,-133.069"/>
<polygon fill="black" stroke="black" points="329.89,-133.029 326.39,-123.029 322.89,-133.029 329.89,-133.029"/>
</g>
<!-- latestCreatedRevision -->
<g id="node7" class="node"><title>latestCreatedRevision</title>
<g id="a_node7"><a xlink:href="https://github.com/knative/serving/blob/03b04365f0c9f552298436012a911ce3a32cc3bf/pkg/reconciler/configuration/configuration.go#L247" xlink:title="latestCreatedRevision">
<ellipse fill="none" stroke="black" cx="114.39" cy="-105" rx="114.28" ry="18"/>
<text text-anchor="middle" x="114.39" y="-101.3" font-family="Times,serif" font-size="14.00">latestCreatedRevision</text>
</a>
</g>
</g>
<!-- reconcile&#45;&gt;latestCreatedRevision -->
<g id="edge4" class="edge"><title>reconcile&#45;&gt;latestCreatedRevision</title>
<path fill="none" stroke="black" d="M289.462,-164.633C256.683,-153.655 208.296,-137.45 170.693,-124.856"/>
<polygon fill="black" stroke="black" points="171.483,-121.43 160.89,-121.573 169.26,-128.068 171.483,-121.43"/>
</g>
<!-- createRevision&#45;&gt;RevisionCreationFailed -->
<g id="edge8" class="edge"><title>createRevision&#45;&gt;RevisionCreationFailed</title>
<path fill="none" stroke="black" d="M309.399,-87.2067C296.76,-74.7151 279.32,-57.4775 265.135,-43.457"/>
<polygon fill="black" stroke="black" points="267.212,-40.5896 257.64,-36.0493 262.292,-45.5683 267.212,-40.5896"/>
<text text-anchor="middle" x="300.39" y="-57.8" font-family="Times,serif" font-size="14.00">err</text>
</g>
<!-- latestCreatedRevision&#45;&gt;RevisionCreationFailed -->
<g id="edge7" class="edge"><title>latestCreatedRevision&#45;&gt;RevisionCreationFailed</title>
<path fill="none" stroke="black" d="M138.983,-87.4094C158.37,-74.3307 185.604,-55.9586 206.968,-41.5466"/>
<polygon fill="black" stroke="black" points="209.095,-44.3333 215.428,-35.8393 205.181,-38.5303 209.095,-44.3333"/>
<text text-anchor="middle" x="196.39" y="-57.8" font-family="Times,serif" font-size="14.00">err</text>
</g>
</g>
</svg>
