<?xml version="1.0" encoding="UTF-8" standalone="no"?>
<!DOCTYPE svg PUBLIC "-//W3C//DTD SVG 1.1//EN"
 "http://www.w3.org/Graphics/SVG/1.1/DTD/svg11.dtd">
<!-- Generated by graphviz version 2.38.0 (20140413.2041)
 -->
<!-- Title: CreationGraph Pages: 1 -->
<svg width="970pt" height="548pt"
 viewBox="0.00 0.00 969.74 548.00" xmlns="http://www.w3.org/2000/svg" xmlns:xlink="http://www.w3.org/1999/xlink">
<g id="graph0" class="graph" transform="scale(1 1) rotate(0) translate(4 544)">
<title>CreationGraph</title>
<polygon fill="white" stroke="none" points="-4,4 -4,-544 965.735,-544 965.735,4 -4,4"/>
<!-- KSVC -->
<g id="node1" class="node"><title>KSVC</title>
<ellipse fill="none" stroke="black" cx="504.293" cy="-522" rx="37.8943" ry="18"/>
<text text-anchor="middle" x="504.293" y="-518.3" font-family="Times,serif" font-size="14.00">KSVC</text>
</g>
<!-- Configuration -->
<g id="node2" class="node"><title>Configuration</title>
<ellipse fill="none" stroke="black" cx="429.293" cy="-450" rx="74.9875" ry="18"/>
<text text-anchor="middle" x="429.293" y="-446.3" font-family="Times,serif" font-size="14.00">Configuration</text>
</g>
<!-- KSVC&#45;&gt;Configuration -->
<g id="edge1" class="edge"><title>KSVC&#45;&gt;Configuration</title>
<path fill="none" stroke="black" d="M487.648,-505.465C477.994,-496.454 465.636,-484.92 454.78,-474.788"/>
<polygon fill="black" stroke="black" points="456.899,-471.978 447.201,-467.714 452.123,-477.096 456.899,-471.978"/>
</g>
<!-- Route -->
<g id="node3" class="node"><title>Route</title>
<ellipse fill="none" stroke="black" cx="579.293" cy="-450" rx="38.1938" ry="18"/>
<text text-anchor="middle" x="579.293" y="-446.3" font-family="Times,serif" font-size="14.00">Route</text>
</g>
<!-- KSVC&#45;&gt;Route -->
<g id="edge2" class="edge"><title>KSVC&#45;&gt;Route</title>
<path fill="none" stroke="black" d="M520.938,-505.465C531.036,-496.04 544.093,-483.853 555.295,-473.398"/>
<polygon fill="black" stroke="black" points="557.772,-475.874 562.695,-466.492 552.996,-470.756 557.772,-475.874"/>
</g>
<!-- Revision -->
<g id="node4" class="node"><title>Revision</title>
<ellipse fill="none" stroke="black" cx="321.293" cy="-378" rx="50.0912" ry="18"/>
<text text-anchor="middle" x="321.293" y="-374.3" font-family="Times,serif" font-size="14.00">Revision</text>
</g>
<!-- Configuration&#45;&gt;Revision -->
<g id="edge16" class="edge"><title>Configuration&#45;&gt;Revision</title>
<path fill="none" stroke="black" d="M404.516,-432.941C389.277,-423.064 369.597,-410.308 353.2,-399.68"/>
<polygon fill="black" stroke="black" points="354.772,-396.529 344.477,-394.027 350.965,-402.403 354.772,-396.529"/>
</g>
<!-- ClusterIngress -->
<g id="node10" class="node"><title>ClusterIngress</title>
<ellipse fill="none" stroke="black" cx="828.293" cy="-378" rx="80.6858" ry="18"/>
<text text-anchor="middle" x="828.293" y="-374.3" font-family="Times,serif" font-size="14.00">ClusterIngress</text>
</g>
<!-- Route&#45;&gt;ClusterIngress -->
<g id="edge9" class="edge"><title>Route&#45;&gt;ClusterIngress</title>
<path fill="none" stroke="black" d="M611.336,-439.992C651.396,-428.73 720.714,-409.243 770.218,-395.326"/>
<polygon fill="black" stroke="black" points="771.472,-398.609 780.152,-392.534 769.578,-391.871 771.472,-398.609"/>
</g>
<!-- PlaceholderService -->
<g id="node11" class="node"><title>PlaceholderService</title>
<ellipse fill="none" stroke="blue" cx="490.293" cy="-378" rx="100.983" ry="18"/>
<text text-anchor="middle" x="490.293" y="-374.3" font-family="Times,serif" font-size="14.00">PlaceholderService</text>
</g>
<!-- Route&#45;&gt;PlaceholderService -->
<g id="edge10" class="edge"><title>Route&#45;&gt;PlaceholderService</title>
<path fill="none" stroke="black" d="M560.418,-434.155C548.587,-424.849 533.089,-412.66 519.672,-402.107"/>
<polygon fill="black" stroke="black" points="521.663,-399.22 511.639,-395.789 517.335,-404.722 521.663,-399.22"/>
</g>
<!-- Certificate -->
<g id="node12" class="node"><title>Certificate</title>
<ellipse fill="none" stroke="black" cx="669.293" cy="-378" rx="60.3893" ry="18"/>
<text text-anchor="middle" x="669.293" y="-374.3" font-family="Times,serif" font-size="14.00">Certificate</text>
</g>
<!-- Route&#45;&gt;Certificate -->
<g id="edge11" class="edge"><title>Route&#45;&gt;Certificate</title>
<path fill="none" stroke="black" d="M598.38,-434.155C610.601,-424.65 626.689,-412.136 640.453,-401.431"/>
<polygon fill="black" stroke="black" points="642.922,-403.945 648.666,-395.043 638.624,-398.42 642.922,-403.945"/>
</g>
<!-- Deployment -->
<g id="node5" class="node"><title>Deployment</title>
<ellipse fill="none" stroke="blue" cx="182.293" cy="-234" rx="66.8882" ry="18"/>
<text text-anchor="middle" x="182.293" y="-230.3" font-family="Times,serif" font-size="14.00">Deployment</text>
</g>
<!-- Revision&#45;&gt;Deployment -->
<g id="edge3" class="edge"><title>Revision&#45;&gt;Deployment</title>
<path fill="none" stroke="black" d="M305.348,-360.711C280.866,-335.7 233.887,-287.707 205.589,-258.799"/>
<polygon fill="black" stroke="black" points="207.977,-256.234 198.48,-251.537 202.974,-261.131 207.977,-256.234"/>
</g>
<!-- KPA -->
<g id="node6" class="node"><title>KPA</title>
<ellipse fill="none" stroke="black" cx="321.293" cy="-306" rx="29.795" ry="18"/>
<text text-anchor="middle" x="321.293" y="-302.3" font-family="Times,serif" font-size="14.00">KPA</text>
</g>
<!-- Revision&#45;&gt;KPA -->
<g id="edge4" class="edge"><title>Revision&#45;&gt;KPA</title>
<path fill="none" stroke="black" d="M321.293,-359.697C321.293,-351.983 321.293,-342.712 321.293,-334.112"/>
<polygon fill="black" stroke="black" points="324.793,-334.104 321.293,-324.104 317.793,-334.104 324.793,-334.104"/>
</g>
<!-- ImageCache -->
<g id="node7" class="node"><title>ImageCache</title>
<ellipse fill="none" stroke="black" cx="438.293" cy="-306" rx="69.5877" ry="18"/>
<text text-anchor="middle" x="438.293" y="-302.3" font-family="Times,serif" font-size="14.00">ImageCache</text>
</g>
<!-- Revision&#45;&gt;ImageCache -->
<g id="edge5" class="edge"><title>Revision&#45;&gt;ImageCache</title>
<path fill="none" stroke="black" d="M346.106,-362.155C362.708,-352.222 384.801,-339.004 403.197,-327.998"/>
<polygon fill="black" stroke="black" points="405.106,-330.934 411.89,-322.797 401.512,-324.927 405.106,-330.934"/>
</g>
<!-- ReplicaSet -->
<g id="node19" class="node"><title>ReplicaSet</title>
<ellipse fill="none" stroke="blue" cx="161.293" cy="-162" rx="60.3893" ry="18"/>
<text text-anchor="middle" x="161.293" y="-158.3" font-family="Times,serif" font-size="14.00">ReplicaSet</text>
</g>
<!-- Deployment&#45;&gt;ReplicaSet -->
<g id="edge20" class="edge"><title>Deployment&#45;&gt;ReplicaSet</title>
<path fill="none" stroke="black" d="M177.102,-215.697C174.762,-207.898 171.946,-198.509 169.342,-189.829"/>
<polygon fill="black" stroke="black" points="172.65,-188.677 166.424,-180.104 165.945,-190.688 172.65,-188.677"/>
</g>
<!-- KPA&#45;&gt;Deployment -->
<g id="edge8" class="edge"><title>KPA&#45;&gt;Deployment</title>
<path fill="none" stroke="black" stroke-dasharray="5,2" d="M298.96,-293.753C278.137,-283.267 246.619,-267.394 221.589,-254.789"/>
<polygon fill="black" stroke="black" points="222.855,-251.508 212.35,-250.136 219.707,-257.76 222.855,-251.508"/>
</g>
<!-- SKS -->
<g id="node8" class="node"><title>SKS</title>
<ellipse fill="none" stroke="black" cx="489.293" cy="-234" rx="29.4969" ry="18"/>
<text text-anchor="middle" x="489.293" y="-230.3" font-family="Times,serif" font-size="14.00">SKS</text>
</g>
<!-- KPA&#45;&gt;SKS -->
<g id="edge6" class="edge"><title>KPA&#45;&gt;SKS</title>
<path fill="none" stroke="black" d="M344.55,-294.447C349.409,-292.284 354.508,-290.045 359.293,-288 391.885,-274.071 429.398,-258.864 455.724,-248.326"/>
<polygon fill="black" stroke="black" points="457.244,-251.488 465.233,-244.529 454.648,-244.988 457.244,-251.488"/>
</g>
<!-- MetricsService -->
<g id="node9" class="node"><title>MetricsService</title>
<ellipse fill="none" stroke="blue" cx="349.293" cy="-234" rx="81.7856" ry="18"/>
<text text-anchor="middle" x="349.293" y="-230.3" font-family="Times,serif" font-size="14.00">MetricsService</text>
</g>
<!-- KPA&#45;&gt;MetricsService -->
<g id="edge7" class="edge"><title>KPA&#45;&gt;MetricsService</title>
<path fill="none" stroke="black" d="M327.929,-288.411C331.159,-280.335 335.12,-270.431 338.751,-261.355"/>
<polygon fill="black" stroke="black" points="342.046,-262.541 342.51,-251.956 335.547,-259.941 342.046,-262.541"/>
</g>
<!-- PublicService -->
<g id="node16" class="node"><title>PublicService</title>
<ellipse fill="none" stroke="blue" cx="683.293" cy="-162" rx="74.9875" ry="18"/>
<text text-anchor="middle" x="683.293" y="-158.3" font-family="Times,serif" font-size="14.00">PublicService</text>
</g>
<!-- SKS&#45;&gt;PublicService -->
<g id="edge17" class="edge"><title>SKS&#45;&gt;PublicService</title>
<path fill="none" stroke="black" d="M513.863,-224.134C543.941,-213.282 595.605,-194.64 633.996,-180.788"/>
<polygon fill="black" stroke="black" points="635.23,-184.063 643.449,-177.377 632.854,-177.479 635.23,-184.063"/>
</g>
<!-- PublicEndpoints -->
<g id="node17" class="node"><title>PublicEndpoints</title>
<ellipse fill="none" stroke="blue" cx="327.293" cy="-162" rx="87.1846" ry="18"/>
<text text-anchor="middle" x="327.293" y="-158.3" font-family="Times,serif" font-size="14.00">PublicEndpoints</text>
</g>
<!-- SKS&#45;&gt;PublicEndpoints -->
<g id="edge18" class="edge"><title>SKS&#45;&gt;PublicEndpoints</title>
<path fill="none" stroke="black" d="M466.082,-222.971C441.767,-212.464 402.955,-195.694 372.549,-182.555"/>
<polygon fill="black" stroke="black" points="373.569,-179.183 363.001,-178.429 370.793,-185.609 373.569,-179.183"/>
</g>
<!-- PrivateService -->
<g id="node18" class="node"><title>PrivateService</title>
<ellipse fill="none" stroke="blue" cx="511.293" cy="-162" rx="79.0865" ry="18"/>
<text text-anchor="middle" x="511.293" y="-158.3" font-family="Times,serif" font-size="14.00">PrivateService</text>
</g>
<!-- SKS&#45;&gt;PrivateService -->
<g id="edge19" class="edge"><title>SKS&#45;&gt;PrivateService</title>
<path fill="none" stroke="black" d="M494.619,-216.055C497.068,-208.261 500.035,-198.822 502.782,-190.079"/>
<polygon fill="black" stroke="black" points="506.204,-190.865 505.864,-180.275 499.526,-188.766 506.204,-190.865"/>
</g>
<!-- Secret -->
<g id="node14" class="node"><title>Secret</title>
<ellipse fill="none" stroke="blue" cx="699.293" cy="-234" rx="40.8928" ry="18"/>
<text text-anchor="middle" x="699.293" y="-230.3" font-family="Times,serif" font-size="14.00">Secret</text>
</g>
<!-- ClusterIngress&#45;&gt;Secret -->
<g id="edge15" class="edge"><title>ClusterIngress&#45;&gt;Secret</title>
<path fill="none" stroke="black" d="M814.126,-359.994C798.907,-341.876 773.861,-312.491 751.293,-288 742.148,-278.076 731.787,-267.406 722.733,-258.259"/>
<polygon fill="black" stroke="black" points="725.027,-255.601 715.491,-250.983 720.065,-260.54 725.027,-255.601"/>
</g>
<!-- VirtualService -->
<g id="node15" class="node"><title>VirtualService</title>
<ellipse fill="none" stroke="green" cx="875.293" cy="-306" rx="77.1866" ry="18"/>
<text text-anchor="middle" x="875.293" y="-302.3" font-family="Times,serif" font-size="14.00">VirtualService</text>
</g>
<!-- ClusterIngress&#45;&gt;VirtualService -->
<g id="edge14" class="edge"><title>ClusterIngress&#45;&gt;VirtualService</title>
<path fill="none" stroke="black" d="M839.67,-360.055C845.188,-351.837 851.933,-341.791 858.064,-332.66"/>
<polygon fill="black" stroke="black" points="861.025,-334.529 863.694,-324.275 855.214,-330.626 861.025,-334.529"/>
</g>
<!-- CertManager -->
<g id="node13" class="node"><title>CertManager</title>
<ellipse fill="none" stroke="orange" cx="669.293" cy="-306" rx="73.387" ry="18"/>
<text text-anchor="middle" x="669.293" y="-302.3" font-family="Times,serif" font-size="14.00">CertManager</text>
</g>
<!-- Certificate&#45;&gt;CertManager -->
<g id="edge12" class="edge"><title>Certificate&#45;&gt;CertManager</title>
<path fill="none" stroke="black" d="M669.293,-359.697C669.293,-351.983 669.293,-342.712 669.293,-334.112"/>
<polygon fill="black" stroke="black" points="672.793,-334.104 669.293,-324.104 665.793,-334.104 672.793,-334.104"/>
</g>
<!-- CertManager&#45;&gt;Secret -->
<g id="edge13" class="edge"><title>CertManager&#45;&gt;Secret</title>
<path fill="none" stroke="black" stroke-dasharray="5,2" d="M676.555,-288.055C680.019,-279.973 684.241,-270.121 688.102,-261.112"/>
<polygon fill="black" stroke="black" points="691.375,-262.359 692.098,-251.789 684.941,-259.602 691.375,-262.359"/>
</g>
<!-- IngressGateway -->
<g id="node23" class="node"><title>IngressGateway</title>
<ellipse fill="none" stroke="green" cx="875.293" cy="-234" rx="86.3847" ry="18"/>
<text text-anchor="middle" x="875.293" y="-230.3" font-family="Times,serif" font-size="14.00">IngressGateway</text>
</g>
<!-- VirtualService&#45;&gt;IngressGateway -->
<g id="edge24" class="edge"><title>VirtualService&#45;&gt;IngressGateway</title>
<path fill="none" stroke="black" stroke-dasharray="5,2" d="M875.293,-287.697C875.293,-279.983 875.293,-270.712 875.293,-262.112"/>
<polygon fill="black" stroke="black" points="878.793,-262.104 875.293,-252.104 871.793,-262.104 878.793,-262.104"/>
</g>
<!-- Pod -->
<g id="node20" class="node"><title>Pod</title>
<ellipse fill="none" stroke="blue" cx="161.293" cy="-90" rx="27.8951" ry="18"/>
<text text-anchor="middle" x="161.293" y="-86.3" font-family="Times,serif" font-size="14.00">Pod</text>
</g>
<!-- ReplicaSet&#45;&gt;Pod -->
<g id="edge21" class="edge"><title>ReplicaSet&#45;&gt;Pod</title>
<path fill="none" stroke="black" d="M161.293,-143.697C161.293,-135.983 161.293,-126.712 161.293,-118.112"/>
<polygon fill="black" stroke="black" points="164.793,-118.104 161.293,-108.104 157.793,-118.104 164.793,-118.104"/>
</g>
<!-- UserContainer -->
<g id="node21" class="node"><title>UserContainer</title>
<ellipse fill="none" stroke="blue" cx="79.293" cy="-18" rx="79.0865" ry="18"/>
<text text-anchor="middle" x="79.293" y="-14.3" font-family="Times,serif" font-size="14.00">UserContainer</text>
</g>
<!-- Pod&#45;&gt;UserContainer -->
<g id="edge22" class="edge"><title>Pod&#45;&gt;UserContainer</title>
<path fill="none" stroke="black" d="M145.092,-75.1703C134.038,-65.7334 119.131,-53.0077 106.3,-42.0552"/>
<polygon fill="black" stroke="black" points="108.511,-39.3407 98.6333,-35.5101 103.967,-44.6647 108.511,-39.3407"/>
</g>
<!-- QueueProxy -->
<g id="node22" class="node"><title>QueueProxy</title>
<ellipse fill="none" stroke="blue" cx="244.293" cy="-18" rx="67.6881" ry="18"/>
<text text-anchor="middle" x="244.293" y="-14.3" font-family="Times,serif" font-size="14.00">QueueProxy</text>
</g>
<!-- Pod&#45;&gt;QueueProxy -->
<g id="edge23" class="edge"><title>Pod&#45;&gt;QueueProxy</title>
<path fill="none" stroke="black" d="M177.691,-75.1703C188.959,-65.6675 204.181,-52.8295 217.228,-41.8256"/>
<polygon fill="black" stroke="black" points="219.628,-44.38 225.016,-35.2574 215.116,-39.0289 219.628,-44.38"/>
</g>
</g>
</svg>
