<?xml version="1.0" encoding="UTF-8" standalone="no"?>
<!DOCTYPE svg PUBLIC "-//W3C//DTD SVG 1.1//EN"
 "http://www.w3.org/Graphics/SVG/1.1/DTD/svg11.dtd">
<!-- Generated by graphviz version 2.38.0 (20140413.2041)
 -->
<!-- Title: CreationGraph Pages: 1 -->
<svg width="1189pt" height="548pt"
 viewBox="0.00 0.00 1188.74 548.00" xmlns="http://www.w3.org/2000/svg" xmlns:xlink="http://www.w3.org/1999/xlink">
<g id="graph0" class="graph" transform="scale(1 1) rotate(0) translate(4 544)">
<title>CreationGraph</title>
<polygon fill="white" stroke="none" points="-4,4 -4,-544 1184.74,-544 1184.74,4 -4,4"/>
<!-- Service -->
<g id="node1" class="node"><title>Service</title>
<ellipse fill="none" stroke="black" cx="746.293" cy="-522" rx="45.4919" ry="18"/>
<text text-anchor="middle" x="746.293" y="-518.3" font-family="Times,serif" font-size="14.00">Service</text>
</g>
<!-- Configuration -->
<g id="node2" class="node"><title>Configuration</title>
<ellipse fill="none" stroke="black" cx="616.293" cy="-450" rx="74.9875" ry="18"/>
<text text-anchor="middle" x="616.293" y="-446.3" font-family="Times,serif" font-size="14.00">Configuration</text>
</g>
<!-- Service&#45;&gt;Configuration -->
<g id="edge1" class="edge"><title>Service&#45;&gt;Configuration</title>
<path fill="none" stroke="black" d="M720.298,-507.003C701.451,-496.854 675.661,-482.967 654.478,-471.561"/>
<polygon fill="black" stroke="black" points="655.878,-468.34 645.414,-466.681 652.56,-474.503 655.878,-468.34"/>
</g>
<!-- Route -->
<g id="node3" class="node"><title>Route</title>
<ellipse fill="none" stroke="black" cx="876.293" cy="-450" rx="38.1938" ry="18"/>
<text text-anchor="middle" x="876.293" y="-446.3" font-family="Times,serif" font-size="14.00">Route</text>
</g>
<!-- Service&#45;&gt;Route -->
<g id="edge2" class="edge"><title>Service&#45;&gt;Route</title>
<path fill="none" stroke="black" d="M772.288,-507.003C792.646,-496.041 821.104,-480.717 843.107,-468.869"/>
<polygon fill="black" stroke="black" points="844.954,-471.85 852.099,-464.027 841.635,-465.687 844.954,-471.85"/>
</g>
<!-- Revision -->
<g id="node4" class="node"><title>Revision</title>
<ellipse fill="none" stroke="black" cx="545.293" cy="-378" rx="50.0912" ry="18"/>
<text text-anchor="middle" x="545.293" y="-374.3" font-family="Times,serif" font-size="14.00">Revision</text>
</g>
<!-- Configuration&#45;&gt;Revision -->
<g id="edge18" class="edge"><title>Configuration&#45;&gt;Revision</title>
<path fill="none" stroke="black" d="M599.467,-432.411C590.448,-423.519 579.181,-412.411 569.261,-402.631"/>
<polygon fill="black" stroke="black" points="571.577,-399.998 561.998,-395.47 566.662,-404.983 571.577,-399.998"/>
</g>
<!-- ClusterIngress -->
<g id="node12" class="node"><title>ClusterIngress</title>
<ellipse fill="none" stroke="black" cx="936.293" cy="-162" rx="80.6858" ry="18"/>
<text text-anchor="middle" x="936.293" y="-158.3" font-family="Times,serif" font-size="14.00">ClusterIngress</text>
</g>
<!-- Route&#45;&gt;ClusterIngress -->
<g id="edge11" class="edge"><title>Route&#45;&gt;ClusterIngress</title>
<path fill="none" stroke="black" d="M858.252,-433.826C848.223,-424.167 836.703,-410.73 831.293,-396 825.777,-380.981 827.414,-375.523 831.293,-360 847.965,-293.274 891.979,-224.393 917.416,-188.408"/>
<polygon fill="black" stroke="black" points="920.47,-190.155 923.455,-179.989 914.782,-186.075 920.47,-190.155"/>
</g>
<!-- PlaceholderService -->
<g id="node13" class="node"><title>PlaceholderService</title>
<ellipse fill="none" stroke="blue" cx="941.293" cy="-378" rx="100.983" ry="18"/>
<text text-anchor="middle" x="941.293" y="-374.3" font-family="Times,serif" font-size="14.00">PlaceholderService</text>
</g>
<!-- Route&#45;&gt;PlaceholderService -->
<g id="edge12" class="edge"><title>Route&#45;&gt;PlaceholderService</title>
<path fill="none" stroke="black" d="M891.042,-433.116C899.2,-424.331 909.509,-413.229 918.664,-403.37"/>
<polygon fill="black" stroke="black" points="921.456,-405.507 925.695,-395.797 916.326,-400.744 921.456,-405.507"/>
</g>
<!-- Certificate -->
<g id="node14" class="node"><title>Certificate</title>
<ellipse fill="none" stroke="black" cx="1120.29" cy="-378" rx="60.3893" ry="18"/>
<text text-anchor="middle" x="1120.29" y="-374.3" font-family="Times,serif" font-size="14.00">Certificate</text>
</g>
<!-- Route&#45;&gt;Certificate -->
<g id="edge13" class="edge"><title>Route&#45;&gt;Certificate</title>
<path fill="none" stroke="black" d="M908.192,-439.849C948.919,-428.165 1019.91,-407.797 1068.46,-393.871"/>
<polygon fill="black" stroke="black" points="1069.51,-397.211 1078.15,-391.089 1067.58,-390.483 1069.51,-397.211"/>
</g>
<!-- Deployment -->
<g id="node5" class="node"><title>Deployment</title>
<ellipse fill="none" stroke="blue" cx="244.293" cy="-234" rx="66.8882" ry="18"/>
<text text-anchor="middle" x="244.293" y="-230.3" font-family="Times,serif" font-size="14.00">Deployment</text>
</g>
<!-- Revision&#45;&gt;Deployment -->
<g id="edge3" class="edge"><title>Revision&#45;&gt;Deployment</title>
<path fill="none" stroke="black" d="M516.158,-363.255C462.27,-337.833 346.912,-283.412 285.212,-254.304"/>
<polygon fill="black" stroke="black" points="286.687,-251.13 276.149,-250.029 283.7,-257.461 286.687,-251.13"/>
</g>
<!-- KPA -->
<g id="node6" class="node"><title>KPA</title>
<ellipse fill="none" stroke="black" cx="487.293" cy="-306" rx="29.795" ry="18"/>
<text text-anchor="middle" x="487.293" y="-302.3" font-family="Times,serif" font-size="14.00">KPA</text>
</g>
<!-- Revision&#45;&gt;KPA -->
<g id="edge4" class="edge"><title>Revision&#45;&gt;KPA</title>
<path fill="none" stroke="black" d="M531.548,-360.411C524.115,-351.441 514.814,-340.215 506.659,-330.373"/>
<polygon fill="black" stroke="black" points="509.22,-327.978 500.145,-322.511 503.83,-332.444 509.22,-327.978"/>
</g>
<!-- ImageCache -->
<g id="node7" class="node"><title>ImageCache</title>
<ellipse fill="none" stroke="black" cx="604.293" cy="-306" rx="69.5877" ry="18"/>
<text text-anchor="middle" x="604.293" y="-302.3" font-family="Times,serif" font-size="14.00">ImageCache</text>
</g>
<!-- Revision&#45;&gt;ImageCache -->
<g id="edge5" class="edge"><title>Revision&#45;&gt;ImageCache</title>
<path fill="none" stroke="black" d="M559.275,-360.411C566.516,-351.82 575.501,-341.159 583.536,-331.627"/>
<polygon fill="black" stroke="black" points="586.233,-333.858 590.001,-323.956 580.88,-329.347 586.233,-333.858"/>
</g>
<!-- ReplicaSet -->
<g id="node21" class="node"><title>ReplicaSet</title>
<ellipse fill="none" stroke="blue" cx="161.293" cy="-162" rx="60.3893" ry="18"/>
<text text-anchor="middle" x="161.293" y="-158.3" font-family="Times,serif" font-size="14.00">ReplicaSet</text>
</g>
<!-- Deployment&#45;&gt;ReplicaSet -->
<g id="edge22" class="edge"><title>Deployment&#45;&gt;ReplicaSet</title>
<path fill="none" stroke="black" d="M224.623,-216.411C213.795,-207.279 200.195,-195.809 188.377,-185.842"/>
<polygon fill="black" stroke="black" points="190.436,-183 180.535,-179.228 185.923,-188.351 190.436,-183"/>
</g>
<!-- KPA&#45;&gt;Deployment -->
<g id="edge8" class="edge"><title>KPA&#45;&gt;Deployment</title>
<path fill="none" stroke="black" stroke-dasharray="5,2" d="M460.825,-297.376C421.962,-286.18 348.612,-265.051 298.135,-250.51"/>
<polygon fill="black" stroke="black" points="298.939,-247.099 288.361,-247.695 297.002,-253.826 298.939,-247.099"/>
</g>
<!-- SKS -->
<g id="node8" class="node"><title>SKS</title>
<ellipse fill="none" stroke="black" cx="358.293" cy="-234" rx="29.4969" ry="18"/>
<text text-anchor="middle" x="358.293" y="-230.3" font-family="Times,serif" font-size="14.00">SKS</text>
</g>
<!-- KPA&#45;&gt;SKS -->
<g id="edge6" class="edge"><title>KPA&#45;&gt;SKS</title>
<path fill="none" stroke="black" d="M465.701,-293.284C444.553,-281.808 412.14,-264.219 388.451,-251.365"/>
<polygon fill="black" stroke="black" points="389.984,-248.215 379.526,-246.522 386.646,-254.367 389.984,-248.215"/>
</g>
<!-- MetricsService -->
<g id="node9" class="node"><title>MetricsService</title>
<ellipse fill="none" stroke="blue" cx="487.293" cy="-234" rx="81.7856" ry="18"/>
<text text-anchor="middle" x="487.293" y="-230.3" font-family="Times,serif" font-size="14.00">MetricsService</text>
</g>
<!-- KPA&#45;&gt;MetricsService -->
<g id="edge7" class="edge"><title>KPA&#45;&gt;MetricsService</title>
<path fill="none" stroke="black" d="M487.293,-287.697C487.293,-279.983 487.293,-270.712 487.293,-262.112"/>
<polygon fill="black" stroke="black" points="490.793,-262.104 487.293,-252.104 483.793,-262.104 490.793,-262.104"/>
</g>
<!-- Metric -->
<g id="node10" class="node"><title>Metric</title>
<ellipse fill="none" stroke="black" cx="629.293" cy="-234" rx="42.4939" ry="18"/>
<text text-anchor="middle" x="629.293" y="-230.3" font-family="Times,serif" font-size="14.00">Metric</text>
</g>
<!-- KPA&#45;&gt;Metric -->
<g id="edge9" class="edge"><title>KPA&#45;&gt;Metric</title>
<path fill="none" stroke="black" d="M509.793,-293.908C532.221,-282.853 567.015,-265.7 593.286,-252.75"/>
<polygon fill="black" stroke="black" points="595.119,-255.749 602.541,-248.188 592.024,-249.47 595.119,-255.749"/>
</g>
<!-- Decider -->
<g id="node11" class="node"><title>Decider</title>
<ellipse fill="none" stroke="black" cx="737.293" cy="-234" rx="47.3916" ry="18"/>
<text text-anchor="middle" x="737.293" y="-230.3" font-family="Times,serif" font-size="14.00">Decider</text>
</g>
<!-- KPA&#45;&gt;Decider -->
<g id="edge10" class="edge"><title>KPA&#45;&gt;Decider</title>
<path fill="none" stroke="black" d="M509.917,-294.025C514.91,-291.845 520.224,-289.705 525.293,-288 592.326,-265.455 611.93,-270.115 680.293,-252 684.06,-251.002 687.954,-249.929 691.857,-248.824"/>
<polygon fill="black" stroke="black" points="692.871,-252.175 701.509,-246.039 690.93,-245.449 692.871,-252.175"/>
</g>
<!-- PublicService -->
<g id="node18" class="node"><title>PublicService</title>
<ellipse fill="none" stroke="blue" cx="314.293" cy="-162" rx="74.9875" ry="18"/>
<text text-anchor="middle" x="314.293" y="-158.3" font-family="Times,serif" font-size="14.00">PublicService</text>
</g>
<!-- SKS&#45;&gt;PublicService -->
<g id="edge19" class="edge"><title>SKS&#45;&gt;PublicService</title>
<path fill="none" stroke="black" d="M348.088,-216.765C342.855,-208.44 336.358,-198.104 330.463,-188.725"/>
<polygon fill="black" stroke="black" points="333.342,-186.728 325.057,-180.124 327.415,-190.453 333.342,-186.728"/>
</g>
<!-- PublicEndpoints -->
<g id="node19" class="node"><title>PublicEndpoints</title>
<ellipse fill="none" stroke="blue" cx="494.293" cy="-162" rx="87.1846" ry="18"/>
<text text-anchor="middle" x="494.293" y="-158.3" font-family="Times,serif" font-size="14.00">PublicEndpoints</text>
</g>
<!-- SKS&#45;&gt;PublicEndpoints -->
<g id="edge20" class="edge"><title>SKS&#45;&gt;PublicEndpoints</title>
<path fill="none" stroke="black" d="M380.144,-221.753C400.118,-211.473 430.15,-196.015 454.397,-183.535"/>
<polygon fill="black" stroke="black" points="456.084,-186.603 463.374,-178.914 452.881,-180.379 456.084,-186.603"/>
</g>
<!-- PrivateService -->
<g id="node20" class="node"><title>PrivateService</title>
<ellipse fill="none" stroke="blue" cx="678.293" cy="-162" rx="79.0865" ry="18"/>
<text text-anchor="middle" x="678.293" y="-158.3" font-family="Times,serif" font-size="14.00">PrivateService</text>
</g>
<!-- SKS&#45;&gt;PrivateService -->
<g id="edge21" class="edge"><title>SKS&#45;&gt;PrivateService</title>
<path fill="none" stroke="black" d="M380.456,-222.029C385.569,-219.796 391.049,-217.634 396.293,-216 480.017,-189.911 504.13,-196.317 590.293,-180 596.764,-178.775 603.501,-177.49 610.24,-176.198"/>
<polygon fill="black" stroke="black" points="610.921,-179.631 620.082,-174.308 609.601,-172.757 610.921,-179.631"/>
</g>
<!-- VirtualService -->
<g id="node17" class="node"><title>VirtualService</title>
<ellipse fill="none" stroke="green" cx="936.293" cy="-90" rx="77.1866" ry="18"/>
<text text-anchor="middle" x="936.293" y="-86.3" font-family="Times,serif" font-size="14.00">VirtualService</text>
</g>
<!-- ClusterIngress&#45;&gt;VirtualService -->
<g id="edge17" class="edge"><title>ClusterIngress&#45;&gt;VirtualService</title>
<path fill="none" stroke="black" d="M936.293,-143.697C936.293,-135.983 936.293,-126.712 936.293,-118.112"/>
<polygon fill="black" stroke="black" points="939.793,-118.104 936.293,-108.104 932.793,-118.104 939.793,-118.104"/>
</g>
<!-- CertManager -->
<g id="node15" class="node"><title>CertManager</title>
<ellipse fill="none" stroke="orange" cx="1016.29" cy="-306" rx="73.387" ry="18"/>
<text text-anchor="middle" x="1016.29" y="-302.3" font-family="Times,serif" font-size="14.00">CertManager</text>
</g>
<!-- Certificate&#45;&gt;CertManager -->
<g id="edge14" class="edge"><title>Certificate&#45;&gt;CertManager</title>
<path fill="none" stroke="black" d="M1096.95,-361.291C1082.7,-351.7 1064.28,-339.298 1048.64,-328.769"/>
<polygon fill="black" stroke="black" points="1050.53,-325.823 1040.28,-323.142 1046.62,-331.63 1050.53,-325.823"/>
</g>
<!-- Secret -->
<g id="node16" class="node"><title>Secret</title>
<ellipse fill="none" stroke="blue" cx="976.293" cy="-234" rx="40.8928" ry="18"/>
<text text-anchor="middle" x="976.293" y="-230.3" font-family="Times,serif" font-size="14.00">Secret</text>
</g>
<!-- CertManager&#45;&gt;Secret -->
<g id="edge15" class="edge"><title>CertManager&#45;&gt;Secret</title>
<path fill="none" stroke="black" d="M1006.61,-288.055C1001.89,-279.801 996.122,-269.701 990.886,-260.538"/>
<polygon fill="black" stroke="black" points="993.887,-258.735 985.887,-251.789 987.809,-262.208 993.887,-258.735"/>
</g>
<!-- Secret&#45;&gt;ClusterIngress -->
<g id="edge16" class="edge"><title>Secret&#45;&gt;ClusterIngress</title>
<path fill="none" stroke="black" stroke-dasharray="5,2" d="M966.814,-216.411C962.101,-208.163 956.298,-198.009 951.022,-188.777"/>
<polygon fill="black" stroke="black" points="953.983,-186.902 945.982,-179.956 947.905,-190.375 953.983,-186.902"/>
</g>
<!-- IngressGateway -->
<g id="node25" class="node"><title>IngressGateway</title>
<ellipse fill="none" stroke="green" cx="936.293" cy="-18" rx="86.3847" ry="18"/>
<text text-anchor="middle" x="936.293" y="-14.3" font-family="Times,serif" font-size="14.00">IngressGateway</text>
</g>
<!-- VirtualService&#45;&gt;IngressGateway -->
<g id="edge26" class="edge"><title>VirtualService&#45;&gt;IngressGateway</title>
<path fill="none" stroke="black" stroke-dasharray="5,2" d="M936.293,-71.6966C936.293,-63.9827 936.293,-54.7125 936.293,-46.1124"/>
<polygon fill="black" stroke="black" points="939.793,-46.1043 936.293,-36.1043 932.793,-46.1044 939.793,-46.1043"/>
</g>
<!-- Pod -->
<g id="node22" class="node"><title>Pod</title>
<ellipse fill="none" stroke="blue" cx="161.293" cy="-90" rx="27.8951" ry="18"/>
<text text-anchor="middle" x="161.293" y="-86.3" font-family="Times,serif" font-size="14.00">Pod</text>
</g>
<!-- ReplicaSet&#45;&gt;Pod -->
<g id="edge23" class="edge"><title>ReplicaSet&#45;&gt;Pod</title>
<path fill="none" stroke="black" d="M161.293,-143.697C161.293,-135.983 161.293,-126.712 161.293,-118.112"/>
<polygon fill="black" stroke="black" points="164.793,-118.104 161.293,-108.104 157.793,-118.104 164.793,-118.104"/>
</g>
<!-- UserContainer -->
<g id="node23" class="node"><title>UserContainer</title>
<ellipse fill="none" stroke="blue" cx="79.293" cy="-18" rx="79.0865" ry="18"/>
<text text-anchor="middle" x="79.293" y="-14.3" font-family="Times,serif" font-size="14.00">UserContainer</text>
</g>
<!-- Pod&#45;&gt;UserContainer -->
<g id="edge24" class="edge"><title>Pod&#45;&gt;UserContainer</title>
<path fill="none" stroke="black" d="M145.092,-75.1703C134.038,-65.7334 119.131,-53.0077 106.3,-42.0552"/>
<polygon fill="black" stroke="black" points="108.511,-39.3407 98.6333,-35.5101 103.967,-44.6647 108.511,-39.3407"/>
</g>
<!-- QueueProxy -->
<g id="node24" class="node"><title>QueueProxy</title>
<ellipse fill="none" stroke="blue" cx="244.293" cy="-18" rx="67.6881" ry="18"/>
<text text-anchor="middle" x="244.293" y="-14.3" font-family="Times,serif" font-size="14.00">QueueProxy</text>
</g>
<!-- Pod&#45;&gt;QueueProxy -->
<g id="edge25" class="edge"><title>Pod&#45;&gt;QueueProxy</title>
<path fill="none" stroke="black" d="M177.691,-75.1703C188.959,-65.6675 204.181,-52.8295 217.228,-41.8256"/>
<polygon fill="black" stroke="black" points="219.628,-44.38 225.016,-35.2574 215.116,-39.0289 219.628,-44.38"/>
</g>
</g>
</svg>
