<?xml version="1.0" encoding="UTF-8" standalone="no"?>
<!DOCTYPE svg PUBLIC "-//W3C//DTD SVG 1.1//EN"
 "http://www.w3.org/Graphics/SVG/1.1/DTD/svg11.dtd">
<!-- Generated by graphviz version 2.38.0 (20140413.2041)
 -->
<!-- Title: CreationGraph Pages: 1 -->
<svg width="1020pt" height="548pt"
 viewBox="0.00 0.00 1019.74 548.00" xmlns="http://www.w3.org/2000/svg" xmlns:xlink="http://www.w3.org/1999/xlink">
<g id="graph0" class="graph" transform="scale(1 1) rotate(0) translate(4 544)">
<title>CreationGraph</title>
<polygon fill="white" stroke="none" points="-4,4 -4,-544 1015.74,-544 1015.74,4 -4,4"/>
<!-- Service -->
<g id="node1" class="node"><title>Service</title>
<ellipse fill="none" stroke="black" cx="598.293" cy="-522" rx="45.4919" ry="18"/>
<text text-anchor="middle" x="598.293" y="-518.3" font-family="Times,serif" font-size="14.00">Service</text>
</g>
<!-- Configuration -->
<g id="node2" class="node"><title>Configuration</title>
<ellipse fill="none" stroke="black" cx="490.293" cy="-450" rx="74.9875" ry="18"/>
<text text-anchor="middle" x="490.293" y="-446.3" font-family="Times,serif" font-size="14.00">Configuration</text>
</g>
<!-- Service&#45;&gt;Configuration -->
<g id="edge1" class="edge"><title>Service&#45;&gt;Configuration</title>
<path fill="none" stroke="black" d="M575.653,-506.326C560.588,-496.562 540.541,-483.568 523.66,-472.627"/>
<polygon fill="black" stroke="black" points="525.46,-469.622 515.165,-467.121 521.653,-475.497 525.46,-469.622"/>
</g>
<!-- Route -->
<g id="node3" class="node"><title>Route</title>
<ellipse fill="none" stroke="black" cx="707.293" cy="-450" rx="38.1938" ry="18"/>
<text text-anchor="middle" x="707.293" y="-446.3" font-family="Times,serif" font-size="14.00">Route</text>
</g>
<!-- Service&#45;&gt;Route -->
<g id="edge2" class="edge"><title>Service&#45;&gt;Route</title>
<path fill="none" stroke="black" d="M621.143,-506.326C637.304,-495.947 659.146,-481.92 676.793,-470.587"/>
<polygon fill="black" stroke="black" points="679.064,-473.288 685.587,-464.94 675.281,-467.398 679.064,-473.288"/>
</g>
<!-- Revision -->
<g id="node4" class="node"><title>Revision</title>
<ellipse fill="none" stroke="black" cx="447.293" cy="-378" rx="50.0912" ry="18"/>
<text text-anchor="middle" x="447.293" y="-374.3" font-family="Times,serif" font-size="14.00">Revision</text>
</g>
<!-- Configuration&#45;&gt;Revision -->
<g id="edge16" class="edge"><title>Configuration&#45;&gt;Revision</title>
<path fill="none" stroke="black" d="M479.884,-432.055C474.813,-423.801 468.61,-413.701 462.98,-404.538"/>
<polygon fill="black" stroke="black" points="465.823,-402.478 457.606,-395.789 459.858,-406.142 465.823,-402.478"/>
</g>
<!-- ClusterIngress -->
<g id="node10" class="node"><title>ClusterIngress</title>
<ellipse fill="none" stroke="black" cx="902.293" cy="-162" rx="80.6858" ry="18"/>
<text text-anchor="middle" x="902.293" y="-158.3" font-family="Times,serif" font-size="14.00">ClusterIngress</text>
</g>
<!-- Route&#45;&gt;ClusterIngress -->
<g id="edge9" class="edge"><title>Route&#45;&gt;ClusterIngress</title>
<path fill="none" stroke="black" d="M689.252,-433.826C679.223,-424.167 667.703,-410.73 662.293,-396 656.777,-380.981 655.453,-374.464 662.293,-360 703.006,-273.909 801.824,-212.822 859.161,-183.228"/>
<polygon fill="black" stroke="black" points="860.996,-186.222 868.334,-178.58 857.832,-179.978 860.996,-186.222"/>
</g>
<!-- PlaceholderService -->
<g id="node11" class="node"><title>PlaceholderService</title>
<ellipse fill="none" stroke="blue" cx="772.293" cy="-378" rx="100.983" ry="18"/>
<text text-anchor="middle" x="772.293" y="-374.3" font-family="Times,serif" font-size="14.00">PlaceholderService</text>
</g>
<!-- Route&#45;&gt;PlaceholderService -->
<g id="edge10" class="edge"><title>Route&#45;&gt;PlaceholderService</title>
<path fill="none" stroke="black" d="M722.042,-433.116C730.2,-424.331 740.509,-413.229 749.664,-403.37"/>
<polygon fill="black" stroke="black" points="752.456,-405.507 756.695,-395.797 747.326,-400.744 752.456,-405.507"/>
</g>
<!-- Certificate -->
<g id="node12" class="node"><title>Certificate</title>
<ellipse fill="none" stroke="black" cx="951.293" cy="-378" rx="60.3893" ry="18"/>
<text text-anchor="middle" x="951.293" y="-374.3" font-family="Times,serif" font-size="14.00">Certificate</text>
</g>
<!-- Route&#45;&gt;Certificate -->
<g id="edge11" class="edge"><title>Route&#45;&gt;Certificate</title>
<path fill="none" stroke="black" d="M739.192,-439.849C779.919,-428.165 850.914,-407.797 899.457,-393.871"/>
<polygon fill="black" stroke="black" points="900.505,-397.211 909.153,-391.089 898.575,-390.483 900.505,-397.211"/>
</g>
<!-- Deployment -->
<g id="node5" class="node"><title>Deployment</title>
<ellipse fill="none" stroke="blue" cx="290.293" cy="-234" rx="66.8882" ry="18"/>
<text text-anchor="middle" x="290.293" y="-230.3" font-family="Times,serif" font-size="14.00">Deployment</text>
</g>
<!-- Revision&#45;&gt;Deployment -->
<g id="edge3" class="edge"><title>Revision&#45;&gt;Deployment</title>
<path fill="none" stroke="black" d="M420.786,-362.592C404.005,-352.832 382.337,-339.015 365.293,-324 343.467,-304.773 322.472,-279.027 308.275,-260.174"/>
<polygon fill="black" stroke="black" points="311.017,-257.996 302.252,-252.045 305.393,-262.163 311.017,-257.996"/>
</g>
<!-- KPA -->
<g id="node6" class="node"><title>KPA</title>
<ellipse fill="none" stroke="black" cx="404.293" cy="-306" rx="29.795" ry="18"/>
<text text-anchor="middle" x="404.293" y="-302.3" font-family="Times,serif" font-size="14.00">KPA</text>
</g>
<!-- Revision&#45;&gt;KPA -->
<g id="edge4" class="edge"><title>Revision&#45;&gt;KPA</title>
<path fill="none" stroke="black" d="M436.884,-360.055C431.685,-351.592 425.295,-341.19 419.555,-331.845"/>
<polygon fill="black" stroke="black" points="422.527,-329.996 414.31,-323.307 416.562,-333.66 422.527,-329.996"/>
</g>
<!-- ImageCache -->
<g id="node7" class="node"><title>ImageCache</title>
<ellipse fill="none" stroke="black" cx="521.293" cy="-306" rx="69.5877" ry="18"/>
<text text-anchor="middle" x="521.293" y="-302.3" font-family="Times,serif" font-size="14.00">ImageCache</text>
</g>
<!-- Revision&#45;&gt;ImageCache -->
<g id="edge5" class="edge"><title>Revision&#45;&gt;ImageCache</title>
<path fill="none" stroke="black" d="M464.456,-360.765C473.939,-351.795 485.889,-340.49 496.382,-330.564"/>
<polygon fill="black" stroke="black" points="498.85,-333.048 503.709,-323.633 494.039,-327.963 498.85,-333.048"/>
</g>
<!-- ReplicaSet -->
<g id="node19" class="node"><title>ReplicaSet</title>
<ellipse fill="none" stroke="blue" cx="161.293" cy="-162" rx="60.3893" ry="18"/>
<text text-anchor="middle" x="161.293" y="-158.3" font-family="Times,serif" font-size="14.00">ReplicaSet</text>
</g>
<!-- Deployment&#45;&gt;ReplicaSet -->
<g id="edge20" class="edge"><title>Deployment&#45;&gt;ReplicaSet</title>
<path fill="none" stroke="black" d="M261.983,-217.638C243.203,-207.447 218.37,-193.972 198.066,-182.954"/>
<polygon fill="black" stroke="black" points="199.552,-179.778 189.093,-178.085 196.213,-185.931 199.552,-179.778"/>
</g>
<!-- KPA&#45;&gt;Deployment -->
<g id="edge8" class="edge"><title>KPA&#45;&gt;Deployment</title>
<path fill="none" stroke="black" stroke-dasharray="5,2" d="M384.174,-292.647C367.656,-282.504 343.896,-267.914 324.412,-255.95"/>
<polygon fill="black" stroke="black" points="326.156,-252.914 315.802,-250.664 322.493,-258.879 326.156,-252.914"/>
</g>
<!-- SKS -->
<g id="node8" class="node"><title>SKS</title>
<ellipse fill="none" stroke="black" cx="404.293" cy="-234" rx="29.4969" ry="18"/>
<text text-anchor="middle" x="404.293" y="-230.3" font-family="Times,serif" font-size="14.00">SKS</text>
</g>
<!-- KPA&#45;&gt;SKS -->
<g id="edge6" class="edge"><title>KPA&#45;&gt;SKS</title>
<path fill="none" stroke="black" d="M404.293,-287.697C404.293,-279.983 404.293,-270.712 404.293,-262.112"/>
<polygon fill="black" stroke="black" points="407.793,-262.104 404.293,-252.104 400.793,-262.104 407.793,-262.104"/>
</g>
<!-- MetricsService -->
<g id="node9" class="node"><title>MetricsService</title>
<ellipse fill="none" stroke="blue" cx="533.293" cy="-234" rx="81.7856" ry="18"/>
<text text-anchor="middle" x="533.293" y="-230.3" font-family="Times,serif" font-size="14.00">MetricsService</text>
</g>
<!-- KPA&#45;&gt;MetricsService -->
<g id="edge7" class="edge"><title>KPA&#45;&gt;MetricsService</title>
<path fill="none" stroke="black" d="M425.885,-293.284C444.67,-283.09 472.344,-268.073 494.895,-255.836"/>
<polygon fill="black" stroke="black" points="496.768,-258.802 503.888,-250.956 493.43,-252.649 496.768,-258.802"/>
</g>
<!-- PublicService -->
<g id="node16" class="node"><title>PublicService</title>
<ellipse fill="none" stroke="blue" cx="314.293" cy="-162" rx="74.9875" ry="18"/>
<text text-anchor="middle" x="314.293" y="-158.3" font-family="Times,serif" font-size="14.00">PublicService</text>
</g>
<!-- SKS&#45;&gt;PublicService -->
<g id="edge17" class="edge"><title>SKS&#45;&gt;PublicService</title>
<path fill="none" stroke="black" d="M386.94,-219.503C374.643,-209.939 357.848,-196.876 343.504,-185.719"/>
<polygon fill="black" stroke="black" points="345.436,-182.789 335.394,-179.412 341.139,-188.314 345.436,-182.789"/>
</g>
<!-- PublicEndpoints -->
<g id="node17" class="node"><title>PublicEndpoints</title>
<ellipse fill="none" stroke="blue" cx="494.293" cy="-162" rx="87.1846" ry="18"/>
<text text-anchor="middle" x="494.293" y="-158.3" font-family="Times,serif" font-size="14.00">PublicEndpoints</text>
</g>
<!-- SKS&#45;&gt;PublicEndpoints -->
<g id="edge18" class="edge"><title>SKS&#45;&gt;PublicEndpoints</title>
<path fill="none" stroke="black" d="M421.646,-219.503C433.858,-210.005 450.505,-197.057 464.783,-185.952"/>
<polygon fill="black" stroke="black" points="467.12,-188.569 472.864,-179.667 462.822,-183.043 467.12,-188.569"/>
</g>
<!-- PrivateService -->
<g id="node18" class="node"><title>PrivateService</title>
<ellipse fill="none" stroke="blue" cx="678.293" cy="-162" rx="79.0865" ry="18"/>
<text text-anchor="middle" x="678.293" y="-158.3" font-family="Times,serif" font-size="14.00">PrivateService</text>
</g>
<!-- SKS&#45;&gt;PrivateService -->
<g id="edge19" class="edge"><title>SKS&#45;&gt;PrivateService</title>
<path fill="none" stroke="black" d="M426.503,-222.174C431.614,-219.934 437.08,-217.732 442.293,-216 473.089,-205.768 552.723,-188.572 610.998,-176.551"/>
<polygon fill="black" stroke="black" points="611.794,-179.96 620.884,-174.519 610.384,-173.104 611.794,-179.96"/>
</g>
<!-- VirtualService -->
<g id="node15" class="node"><title>VirtualService</title>
<ellipse fill="none" stroke="green" cx="902.293" cy="-90" rx="77.1866" ry="18"/>
<text text-anchor="middle" x="902.293" y="-86.3" font-family="Times,serif" font-size="14.00">VirtualService</text>
</g>
<!-- ClusterIngress&#45;&gt;VirtualService -->
<g id="edge15" class="edge"><title>ClusterIngress&#45;&gt;VirtualService</title>
<path fill="none" stroke="black" d="M902.293,-143.697C902.293,-135.983 902.293,-126.712 902.293,-118.112"/>
<polygon fill="black" stroke="black" points="905.793,-118.104 902.293,-108.104 898.793,-118.104 905.793,-118.104"/>
</g>
<!-- CertManager -->
<g id="node13" class="node"><title>CertManager</title>
<ellipse fill="none" stroke="orange" cx="927.293" cy="-306" rx="73.387" ry="18"/>
<text text-anchor="middle" x="927.293" y="-302.3" font-family="Times,serif" font-size="14.00">CertManager</text>
</g>
<!-- Certificate&#45;&gt;CertManager -->
<g id="edge12" class="edge"><title>Certificate&#45;&gt;CertManager</title>
<path fill="none" stroke="black" d="M945.483,-360.055C942.782,-352.176 939.504,-342.617 936.479,-333.794"/>
<polygon fill="black" stroke="black" points="939.77,-332.6 933.216,-324.275 933.148,-334.87 939.77,-332.6"/>
</g>
<!-- Secret -->
<g id="node14" class="node"><title>Secret</title>
<ellipse fill="none" stroke="blue" cx="904.293" cy="-234" rx="40.8928" ry="18"/>
<text text-anchor="middle" x="904.293" y="-230.3" font-family="Times,serif" font-size="14.00">Secret</text>
</g>
<!-- CertManager&#45;&gt;Secret -->
<g id="edge13" class="edge"><title>CertManager&#45;&gt;Secret</title>
<path fill="none" stroke="black" d="M921.608,-287.697C919.045,-279.898 915.96,-270.509 913.108,-261.829"/>
<polygon fill="black" stroke="black" points="916.36,-260.512 909.913,-252.104 909.709,-262.697 916.36,-260.512"/>
</g>
<!-- Secret&#45;&gt;ClusterIngress -->
<g id="edge14" class="edge"><title>Secret&#45;&gt;ClusterIngress</title>
<path fill="none" stroke="black" stroke-dasharray="5,2" d="M903.799,-215.697C903.578,-207.983 903.313,-198.712 903.068,-190.112"/>
<polygon fill="black" stroke="black" points="906.566,-190 902.782,-180.104 899.569,-190.2 906.566,-190"/>
</g>
<!-- IngressGateway -->
<g id="node23" class="node"><title>IngressGateway</title>
<ellipse fill="none" stroke="green" cx="902.293" cy="-18" rx="86.3847" ry="18"/>
<text text-anchor="middle" x="902.293" y="-14.3" font-family="Times,serif" font-size="14.00">IngressGateway</text>
</g>
<!-- VirtualService&#45;&gt;IngressGateway -->
<g id="edge24" class="edge"><title>VirtualService&#45;&gt;IngressGateway</title>
<path fill="none" stroke="black" stroke-dasharray="5,2" d="M902.293,-71.6966C902.293,-63.9827 902.293,-54.7125 902.293,-46.1124"/>
<polygon fill="black" stroke="black" points="905.793,-46.1043 902.293,-36.1043 898.793,-46.1044 905.793,-46.1043"/>
</g>
<!-- Pod -->
<g id="node20" class="node"><title>Pod</title>
<ellipse fill="none" stroke="blue" cx="161.293" cy="-90" rx="27.8951" ry="18"/>
<text text-anchor="middle" x="161.293" y="-86.3" font-family="Times,serif" font-size="14.00">Pod</text>
</g>
<!-- ReplicaSet&#45;&gt;Pod -->
<g id="edge21" class="edge"><title>ReplicaSet&#45;&gt;Pod</title>
<path fill="none" stroke="black" d="M161.293,-143.697C161.293,-135.983 161.293,-126.712 161.293,-118.112"/>
<polygon fill="black" stroke="black" points="164.793,-118.104 161.293,-108.104 157.793,-118.104 164.793,-118.104"/>
</g>
<!-- UserContainer -->
<g id="node21" class="node"><title>UserContainer</title>
<ellipse fill="none" stroke="blue" cx="79.293" cy="-18" rx="79.0865" ry="18"/>
<text text-anchor="middle" x="79.293" y="-14.3" font-family="Times,serif" font-size="14.00">UserContainer</text>
</g>
<!-- Pod&#45;&gt;UserContainer -->
<g id="edge22" class="edge"><title>Pod&#45;&gt;UserContainer</title>
<path fill="none" stroke="black" d="M145.092,-75.1703C134.038,-65.7334 119.131,-53.0077 106.3,-42.0552"/>
<polygon fill="black" stroke="black" points="108.511,-39.3407 98.6333,-35.5101 103.967,-44.6647 108.511,-39.3407"/>
</g>
<!-- QueueProxy -->
<g id="node22" class="node"><title>QueueProxy</title>
<ellipse fill="none" stroke="blue" cx="244.293" cy="-18" rx="67.6881" ry="18"/>
<text text-anchor="middle" x="244.293" y="-14.3" font-family="Times,serif" font-size="14.00">QueueProxy</text>
</g>
<!-- Pod&#45;&gt;QueueProxy -->
<g id="edge23" class="edge"><title>Pod&#45;&gt;QueueProxy</title>
<path fill="none" stroke="black" d="M177.691,-75.1703C188.959,-65.6675 204.181,-52.8295 217.228,-41.8256"/>
<polygon fill="black" stroke="black" points="219.628,-44.38 225.016,-35.2574 215.116,-39.0289 219.628,-44.38"/>
</g>
</g>
</svg>
