<?xml version="1.0" encoding="UTF-8" standalone="no"?>
<!DOCTYPE svg PUBLIC "-//W3C//DTD SVG 1.1//EN"
 "http://www.w3.org/Graphics/SVG/1.1/DTD/svg11.dtd">
<!-- Generated by graphviz version 2.38.0 (20140413.2041)
 -->
<!-- Title: lifecycle Pages: 1 -->
<svg width="700pt" height="470pt"
 viewBox="0.00 0.00 700.00 470.00" xmlns="http://www.w3.org/2000/svg" xmlns:xlink="http://www.w3.org/1999/xlink">
<g id="graph0" class="graph" transform="scale(1 1) rotate(0) translate(4 466)">
<title>lifecycle</title>
<polygon fill="white" stroke="none" points="-4,4 -4,-466 696,-466 696,4 -4,4"/>
<g id="clust1" class="cluster"><title>cluster_deployment</title>
<polygon fill="lightblue" stroke="lightblue" points="8,-235 8,-454 684,-454 684,-235 8,-235"/>
<text text-anchor="middle" x="346" y="-438.8" font-family="Times,serif" font-size="14.00">Deployment (approximate)</text>
</g>
<g id="clust2" class="cluster"><title>cluster_pods</title>
<polygon fill="lightblue" stroke="lightblue" points="204,-8 204,-227 536,-227 536,-8 204,-8"/>
<text text-anchor="middle" x="370" y="-211.8" font-family="Times,serif" font-size="14.00">Pod (approximate)</text>
</g>
<!-- DeploymentAvailable -->
<g id="node1" class="node"><title>DeploymentAvailable</title>
<g id="a_node1"><a xlink:href="https://godoc.org/k8s.io/api/apps/v1#DeploymentAvailable" xlink:title="Available">
<ellipse fill="white" stroke="white" cx="623" cy="-405" rx="53.0913" ry="18"/>
<text text-anchor="middle" x="623" y="-401.3" font-family="Times,serif" font-size="14.00">Available</text>
</a>
</g>
</g>
<!-- DeploymentReplicas -->
<g id="node4" class="node"><title>DeploymentReplicas</title>
<g id="a_node4"><a xlink:href="https://godoc.org/k8s.io/kubernetes/pkg/apis/apps#DeploymentStatus" xlink:title="Replicas">
<ellipse fill="white" stroke="white" cx="626" cy="-333" rx="50.0912" ry="18"/>
<text text-anchor="middle" x="626" y="-329.3" font-family="Times,serif" font-size="14.00">Replicas</text>
</a>
</g>
</g>
<!-- DeploymentAvailable&#45;&gt;DeploymentReplicas -->
<g id="edge5" class="edge"><title>DeploymentAvailable&#45;&gt;DeploymentReplicas</title>
<path fill="none" stroke="black" d="M623.742,-386.697C624.072,-378.983 624.469,-369.712 624.838,-361.112"/>
<polygon fill="black" stroke="black" points="628.335,-361.245 625.267,-351.104 621.342,-360.945 628.335,-361.245"/>
</g>
<!-- DeploymentAvailableReplicas -->
<g id="node6" class="node"><title>DeploymentAvailableReplicas</title>
<g id="a_node6"><a xlink:href="https://godoc.org/k8s.io/kubernetes/pkg/apis/apps#DeploymentStatus" xlink:title="AvailableReplicas">
<ellipse fill="white" stroke="white" cx="465" cy="-333" rx="92.8835" ry="18"/>
<text text-anchor="middle" x="465" y="-329.3" font-family="Times,serif" font-size="14.00">AvailableReplicas</text>
</a>
</g>
</g>
<!-- DeploymentAvailable&#45;&gt;DeploymentAvailableReplicas -->
<g id="edge4" class="edge"><title>DeploymentAvailable&#45;&gt;DeploymentAvailableReplicas</title>
<path fill="none" stroke="black" d="M591.784,-390.17C568.396,-379.808 536.057,-365.481 509.894,-353.89"/>
<polygon fill="black" stroke="black" points="511.124,-350.606 500.563,-349.756 508.288,-357.006 511.124,-350.606"/>
</g>
<!-- DeploymentProgressing -->
<g id="node2" class="node"><title>DeploymentProgressing</title>
<g id="a_node2"><a xlink:href="https://godoc.org/k8s.io/api/apps/v1#DeploymentProgressing" xlink:title="Progressing">
<ellipse fill="white" stroke="white" cx="485" cy="-405" rx="66.8882" ry="18"/>
<text text-anchor="middle" x="485" y="-401.3" font-family="Times,serif" font-size="14.00">Progressing</text>
</a>
</g>
</g>
<!-- DeploymentProgressing&#45;&gt;DeploymentReplicas -->
<g id="edge1" class="edge"><title>DeploymentProgressing&#45;&gt;DeploymentReplicas</title>
<path fill="none" stroke="black" d="M515.595,-388.811C537.093,-378.138 565.973,-363.8 588.804,-352.466"/>
<polygon fill="black" stroke="black" points="590.46,-355.551 597.861,-347.97 587.348,-349.282 590.46,-355.551"/>
</g>
<!-- DeploymentReadyReplicas -->
<g id="node5" class="node"><title>DeploymentReadyReplicas</title>
<g id="a_node5"><a xlink:href="https://godoc.org/k8s.io/kubernetes/pkg/apis/apps#DeploymentStatus" xlink:title="ReadyReplicas">
<ellipse fill="white" stroke="white" cx="353" cy="-261" rx="79.0865" ry="18"/>
<text text-anchor="middle" x="353" y="-257.3" font-family="Times,serif" font-size="14.00">ReadyReplicas</text>
</a>
</g>
</g>
<!-- DeploymentProgressing&#45;&gt;DeploymentReadyReplicas -->
<g id="edge2" class="edge"><title>DeploymentProgressing&#45;&gt;DeploymentReadyReplicas</title>
<path fill="none" stroke="black" d="M432.233,-393.888C407.306,-386.325 379.47,-373.286 363,-351 350.039,-333.462 348.278,-308.427 349.336,-289.374"/>
<polygon fill="black" stroke="black" points="352.839,-289.478 350.19,-279.22 345.864,-288.891 352.839,-289.478"/>
</g>
<!-- DeploymentProgressing&#45;&gt;DeploymentAvailableReplicas -->
<g id="edge3" class="edge"><title>DeploymentProgressing&#45;&gt;DeploymentAvailableReplicas</title>
<path fill="none" stroke="black" d="M480.056,-386.697C477.828,-378.898 475.145,-369.509 472.665,-360.829"/>
<polygon fill="black" stroke="black" points="476,-359.758 469.887,-351.104 469.269,-361.681 476,-359.758"/>
</g>
<!-- DeploymentReplicaFailure -->
<g id="node3" class="node"><title>DeploymentReplicaFailure</title>
<g id="a_node3"><a xlink:href="https://godoc.org/k8s.io/api/apps/v1#DeploymentReplicaFailure" xlink:title="ReplicaFailure">
<ellipse fill="white" stroke="white" cx="322" cy="-405" rx="77.9862" ry="18"/>
<text text-anchor="middle" x="322" y="-401.3" font-family="Times,serif" font-size="14.00">ReplicaFailure</text>
</a>
</g>
</g>
<!-- PodReady -->
<g id="node9" class="node"><title>PodReady</title>
<g id="a_node9"><a xlink:href="https://godoc.org/k8s.io/api/core/v1#PodReady" xlink:title="Ready">
<ellipse fill="white" stroke="white" cx="353" cy="-178" rx="39.7935" ry="18"/>
<text text-anchor="middle" x="353" y="-174.3" font-family="Times,serif" font-size="14.00">Ready</text>
</a>
</g>
</g>
<!-- DeploymentReadyReplicas&#45;&gt;PodReady -->
<g id="edge12" class="edge"><title>DeploymentReadyReplicas&#45;&gt;PodReady</title>
<path fill="none" stroke="black" d="M353,-242.822C353,-232.19 353,-218.306 353,-206.204"/>
<polygon fill="black" stroke="black" points="356.5,-206.153 353,-196.153 349.5,-206.153 356.5,-206.153"/>
</g>
<!-- DeploymentAvailableReplicas&#45;&gt;DeploymentReadyReplicas -->
<g id="edge11" class="edge"><title>DeploymentAvailableReplicas&#45;&gt;DeploymentReadyReplicas</title>
<path fill="none" stroke="black" d="M438.741,-315.588C423.466,-306.041 404.032,-293.895 387.53,-283.581"/>
<polygon fill="black" stroke="black" points="389.043,-280.4 378.708,-278.068 385.333,-286.336 389.043,-280.4"/>
</g>
<!-- DeploymentMinReadySeconds -->
<g id="node8" class="node"><title>DeploymentMinReadySeconds</title>
<g id="a_node8"><a xlink:href="https://godoc.org/k8s.io/api/apps/v1#DeploymentSpec" xlink:title="MinReadySeconds">
<ellipse fill="white" stroke="white" cx="547" cy="-261" rx="96.6831" ry="18"/>
<text text-anchor="middle" x="547" y="-257.3" font-family="Times,serif" font-size="14.00">MinReadySeconds</text>
</a>
</g>
</g>
<!-- DeploymentAvailableReplicas&#45;&gt;DeploymentMinReadySeconds -->
<g id="edge6" class="edge"><title>DeploymentAvailableReplicas&#45;&gt;DeploymentMinReadySeconds</title>
<path fill="none" stroke="black" d="M484.85,-315.055C495.224,-306.199 508.087,-295.219 519.414,-285.549"/>
<polygon fill="black" stroke="black" points="522,-287.944 527.333,-278.789 517.455,-282.62 522,-287.944"/>
</g>
<!-- DeploymentUnavailableReplicas -->
<g id="node7" class="node"><title>DeploymentUnavailableReplicas</title>
<g id="a_node7"><a xlink:href="https://godoc.org/k8s.io/kubernetes/pkg/apis/apps#DeploymentStatus" xlink:title="UnavailableReplicas">
<ellipse fill="white" stroke="white" cx="121" cy="-405" rx="104.782" ry="18"/>
<text text-anchor="middle" x="121" y="-401.3" font-family="Times,serif" font-size="14.00">UnavailableReplicas</text>
</a>
</g>
</g>
<!-- PodInitialized -->
<g id="node11" class="node"><title>PodInitialized</title>
<g id="a_node11"><a xlink:href="https://godoc.org/k8s.io/api/core/v1#PodInitialized" xlink:title="Initialized">
<ellipse fill="white" stroke="white" cx="270" cy="-106" rx="57.6901" ry="18"/>
<text text-anchor="middle" x="270" y="-102.3" font-family="Times,serif" font-size="14.00">Initialized</text>
</a>
</g>
</g>
<!-- PodReady&#45;&gt;PodInitialized -->
<g id="edge8" class="edge"><title>PodReady&#45;&gt;PodInitialized</title>
<path fill="none" stroke="black" d="M334.99,-161.811C323.883,-152.443 309.428,-140.252 296.972,-129.747"/>
<polygon fill="black" stroke="black" points="299.031,-126.905 289.13,-123.134 294.518,-132.256 299.031,-126.905"/>
</g>
<!-- ContainersReady -->
<g id="node12" class="node"><title>ContainersReady</title>
<g id="a_node12"><a xlink:href="https://godoc.org/k8s.io/api/core/v1#ContainersReady" xlink:title="ContainersReady">
<ellipse fill="white" stroke="white" cx="437" cy="-106" rx="90.9839" ry="18"/>
<text text-anchor="middle" x="437" y="-102.3" font-family="Times,serif" font-size="14.00">ContainersReady</text>
</a>
</g>
</g>
<!-- PodReady&#45;&gt;ContainersReady -->
<g id="edge7" class="edge"><title>PodReady&#45;&gt;ContainersReady</title>
<path fill="none" stroke="black" d="M371.227,-161.811C382.31,-152.575 396.686,-140.595 409.17,-130.192"/>
<polygon fill="black" stroke="black" points="411.605,-132.719 417.047,-123.628 407.124,-127.341 411.605,-132.719"/>
</g>
<!-- PodScheduled -->
<g id="node10" class="node"><title>PodScheduled</title>
<g id="a_node10"><a xlink:href="https://godoc.org/k8s.io/api/core/v1#PodScheduled" xlink:title="Scheduled">
<ellipse fill="white" stroke="white" cx="271" cy="-34" rx="59.2899" ry="18"/>
<text text-anchor="middle" x="271" y="-30.3" font-family="Times,serif" font-size="14.00">Scheduled</text>
</a>
</g>
</g>
<!-- PodInitialized&#45;&gt;PodScheduled -->
<g id="edge9" class="edge"><title>PodInitialized&#45;&gt;PodScheduled</title>
<path fill="none" stroke="black" d="M270.247,-87.6966C270.357,-79.9827 270.49,-70.7125 270.613,-62.1124"/>
<polygon fill="black" stroke="black" points="274.112,-62.1533 270.756,-52.1043 267.113,-62.0533 274.112,-62.1533"/>
</g>
<!-- ContainerStatus -->
<g id="node13" class="node"><title>ContainerStatus</title>
<g id="a_node13"><a xlink:href="https://godoc.org/k8s.io/api/core/v1#ContainerStatus" xlink:title="ContainerStatus">
<ellipse fill="white" stroke="white" cx="437" cy="-34" rx="87.1846" ry="18"/>
<text text-anchor="middle" x="437" y="-30.3" font-family="Times,serif" font-size="14.00">ContainerStatus</text>
</a>
</g>
</g>
<!-- ContainersReady&#45;&gt;ContainerStatus -->
<g id="edge10" class="edge"><title>ContainersReady&#45;&gt;ContainerStatus</title>
<path fill="none" stroke="black" d="M437,-87.6966C437,-79.9827 437,-70.7125 437,-62.1124"/>
<polygon fill="black" stroke="black" points="440.5,-62.1043 437,-52.1043 433.5,-62.1044 440.5,-62.1043"/>
</g>
</g>
</svg>
