<?xml version="1.0" encoding="UTF-8" standalone="no"?>
<!DOCTYPE svg PUBLIC "-//W3C//DTD SVG 1.1//EN"
 "http://www.w3.org/Graphics/SVG/1.1/DTD/svg11.dtd">
<!-- Generated by graphviz version 2.38.0 (20140413.2041)
 -->
<!-- Title: DeploymentLifecycle Pages: 1 -->
<svg width="1122pt" height="553pt"
 viewBox="0.00 0.00 1122.29 553.00" xmlns="http://www.w3.org/2000/svg" xmlns:xlink="http://www.w3.org/1999/xlink">
<g id="graph0" class="graph" transform="scale(1 1) rotate(0) translate(4 549)">
<title>DeploymentLifecycle</title>
<polygon fill="white" stroke="none" points="-4,4 -4,-549 1118.29,-549 1118.29,4 -4,4"/>
<g id="clust1" class="cluster"><title>cluster_deployment</title>
<polygon fill="lightblue" stroke="lightblue" points="8,-390 8,-537 896,-537 896,-390 8,-390"/>
<text text-anchor="middle" x="452" y="-521.8" font-family="Times,serif" font-size="14.00">Deployment</text>
</g>
<g id="clust2" class="cluster"><title>cluster_rs</title>
<polygon fill="lightblue" stroke="lightblue" points="332,-235 332,-382 826,-382 826,-235 332,-235"/>
<text text-anchor="middle" x="579" y="-366.8" font-family="Times,serif" font-size="14.00">ReplicaSet</text>
</g>
<g id="clust3" class="cluster"><title>cluster_pods</title>
<polygon fill="lightblue" stroke="lightblue" points="331,-8 331,-227 663,-227 663,-8 331,-8"/>
<text text-anchor="middle" x="497" y="-211.8" font-family="Times,serif" font-size="14.00">Pod</text>
</g>
<!-- DeploymentAvailable -->
<g id="node1" class="node"><title>DeploymentAvailable</title>
<g id="a_node1"><a xlink:href="https://godoc.org/k8s.io/api/apps/v1#DeploymentAvailable" xlink:title="Available">
<ellipse fill="white" stroke="white" cx="433" cy="-488" rx="53.0913" ry="18"/>
<text text-anchor="middle" x="433" y="-484.3" font-family="Times,serif" font-size="14.00">Available</text>
</a>
</g>
</g>
<!-- DeploymentReplicas -->
<g id="node4" class="node"><title>DeploymentReplicas</title>
<g id="a_node4"><a xlink:href="https://godoc.org/k8s.io/kubernetes/pkg/apis/apps#DeploymentStatus" xlink:title="Replicas">
<ellipse fill="white" stroke="white" cx="594" cy="-416" rx="50.0912" ry="18"/>
<text text-anchor="middle" x="594" y="-412.3" font-family="Times,serif" font-size="14.00">Replicas</text>
</a>
</g>
</g>
<!-- DeploymentAvailable&#45;&gt;DeploymentReplicas -->
<g id="edge5" class="edge"><title>DeploymentAvailable&#45;&gt;DeploymentReplicas</title>
<path fill="none" stroke="black" d="M464.425,-473.337C490.047,-462.197 526.395,-446.393 554.076,-434.358"/>
<polygon fill="black" stroke="black" points="555.699,-437.469 563.474,-430.272 552.908,-431.05 555.699,-437.469"/>
</g>
<!-- DeploymentAvailableReplicas -->
<g id="node6" class="node"><title>DeploymentAvailableReplicas</title>
<g id="a_node6"><a xlink:href="https://godoc.org/k8s.io/kubernetes/pkg/apis/apps#DeploymentStatus" xlink:title="AvailableReplicas">
<ellipse fill="white" stroke="white" cx="433" cy="-416" rx="92.8835" ry="18"/>
<text text-anchor="middle" x="433" y="-412.3" font-family="Times,serif" font-size="14.00">AvailableReplicas</text>
</a>
</g>
</g>
<!-- DeploymentAvailable&#45;&gt;DeploymentAvailableReplicas -->
<g id="edge4" class="edge"><title>DeploymentAvailable&#45;&gt;DeploymentAvailableReplicas</title>
<path fill="none" stroke="black" d="M433,-469.697C433,-461.983 433,-452.712 433,-444.112"/>
<polygon fill="black" stroke="black" points="436.5,-444.104 433,-434.104 429.5,-444.104 436.5,-444.104"/>
</g>
<!-- DeploymentProgressing -->
<g id="node2" class="node"><title>DeploymentProgressing</title>
<g id="a_node2"><a xlink:href="https://godoc.org/k8s.io/api/apps/v1#DeploymentProgressing" xlink:title="Progressing">
<ellipse fill="white" stroke="white" cx="295" cy="-488" rx="66.8882" ry="18"/>
<text text-anchor="middle" x="295" y="-484.3" font-family="Times,serif" font-size="14.00">Progressing</text>
</a>
</g>
</g>
<!-- DeploymentProgressing&#45;&gt;DeploymentReplicas -->
<g id="edge1" class="edge"><title>DeploymentProgressing&#45;&gt;DeploymentReplicas</title>
<path fill="none" stroke="black" d="M344.869,-475.815C353.578,-473.871 362.552,-471.872 371,-470 443.857,-453.855 462.664,-452.34 535,-434 538.843,-433.026 542.814,-431.976 546.795,-430.893"/>
<polygon fill="black" stroke="black" points="547.947,-434.205 556.645,-428.157 546.073,-427.461 547.947,-434.205"/>
</g>
<!-- DeploymentReadyReplicas -->
<g id="node5" class="node"><title>DeploymentReadyReplicas</title>
<g id="a_node5"><a xlink:href="https://godoc.org/k8s.io/kubernetes/pkg/apis/apps#DeploymentStatus" xlink:title="ReadyReplicas">
<ellipse fill="white" stroke="white" cx="243" cy="-416" rx="79.0865" ry="18"/>
<text text-anchor="middle" x="243" y="-412.3" font-family="Times,serif" font-size="14.00">ReadyReplicas</text>
</a>
</g>
</g>
<!-- DeploymentProgressing&#45;&gt;DeploymentReadyReplicas -->
<g id="edge2" class="edge"><title>DeploymentProgressing&#45;&gt;DeploymentReadyReplicas</title>
<path fill="none" stroke="black" d="M282.412,-470.055C276.153,-461.629 268.465,-451.28 261.546,-441.966"/>
<polygon fill="black" stroke="black" points="264.245,-439.729 255.472,-433.789 258.625,-443.904 264.245,-439.729"/>
</g>
<!-- DeploymentProgressing&#45;&gt;DeploymentAvailableReplicas -->
<g id="edge3" class="edge"><title>DeploymentProgressing&#45;&gt;DeploymentAvailableReplicas</title>
<path fill="none" stroke="black" d="M324.944,-471.811C344.643,-461.819 370.674,-448.614 392.251,-437.67"/>
<polygon fill="black" stroke="black" points="393.859,-440.779 401.194,-433.134 390.692,-434.536 393.859,-440.779"/>
</g>
<!-- DeploymentReplicaFailure -->
<g id="node3" class="node"><title>DeploymentReplicaFailure</title>
<g id="a_node3"><a xlink:href="https://godoc.org/k8s.io/api/apps/v1#DeploymentReplicaFailure" xlink:title="ReplicaFailure">
<ellipse fill="white" stroke="white" cx="810" cy="-488" rx="77.9862" ry="18"/>
<text text-anchor="middle" x="810" y="-484.3" font-family="Times,serif" font-size="14.00">ReplicaFailure</text>
</a>
</g>
</g>
<!-- ReplicaSetReplicaFailure -->
<g id="node9" class="node"><title>ReplicaSetReplicaFailure</title>
<g id="a_node9"><a xlink:href="https://godoc.org/k8s.io/api/apps/v1#ReplicaSetReplicaFailure" xlink:title="ReplicaFailure">
<ellipse fill="white" stroke="white" cx="740" cy="-333" rx="77.9862" ry="18"/>
<text text-anchor="middle" x="740" y="-329.3" font-family="Times,serif" font-size="14.00">ReplicaFailure</text>
</a>
</g>
</g>
<!-- DeploymentReplicaFailure&#45;&gt;ReplicaSetReplicaFailure -->
<g id="edge20" class="edge"><title>DeploymentReplicaFailure&#45;&gt;ReplicaSetReplicaFailure</title>
<path fill="none" stroke="black" d="M802.241,-470.042C790.1,-443.504 766.513,-391.949 752.118,-360.486"/>
<polygon fill="black" stroke="black" points="755.137,-358.672 747.793,-351.034 748.771,-361.584 755.137,-358.672"/>
</g>
<!-- ReplicaSetReplicas -->
<g id="node10" class="node"><title>ReplicaSetReplicas</title>
<g id="a_node10"><a xlink:href="https://godoc.org/k8s.io/kubernetes/pkg/apis/apps#ReplicaSetStatus" xlink:title="Replicas">
<ellipse fill="white" stroke="white" cx="594" cy="-333" rx="50.0912" ry="18"/>
<text text-anchor="middle" x="594" y="-329.3" font-family="Times,serif" font-size="14.00">Replicas</text>
</a>
</g>
</g>
<!-- DeploymentReplicas&#45;&gt;ReplicaSetReplicas -->
<g id="edge17" class="edge"><title>DeploymentReplicas&#45;&gt;ReplicaSetReplicas</title>
<path fill="none" stroke="black" d="M594,-397.822C594,-387.19 594,-373.306 594,-361.204"/>
<polygon fill="black" stroke="black" points="597.5,-361.153 594,-351.153 590.5,-361.153 597.5,-361.153"/>
</g>
<!-- ReplicaSetReadyReplicas -->
<g id="node11" class="node"><title>ReplicaSetReadyReplicas</title>
<g id="a_node11"><a xlink:href="https://godoc.org/k8s.io/kubernetes/pkg/apis/apps#ReplicaSetStatus" xlink:title="ReadyReplicas">
<ellipse fill="white" stroke="white" cx="631" cy="-261" rx="79.0865" ry="18"/>
<text text-anchor="middle" x="631" y="-257.3" font-family="Times,serif" font-size="14.00">ReadyReplicas</text>
</a>
</g>
</g>
<!-- DeploymentReadyReplicas&#45;&gt;ReplicaSetReadyReplicas -->
<g id="edge18" class="edge"><title>DeploymentReadyReplicas&#45;&gt;ReplicaSetReadyReplicas</title>
<path fill="none" stroke="black" d="M252.755,-398.004C266.867,-375.108 295.249,-334.935 331,-315 414.471,-268.455 448.965,-296.065 543,-279 549.583,-277.805 556.438,-276.532 563.287,-275.241"/>
<polygon fill="black" stroke="black" points="564.113,-278.647 573.285,-273.343 562.808,-271.77 564.113,-278.647"/>
</g>
<!-- ReplicaSetAvailableReplicas -->
<g id="node12" class="node"><title>ReplicaSetAvailableReplicas</title>
<g id="a_node12"><a xlink:href="https://godoc.org/k8s.io/kubernetes/pkg/apis/apps#ReplicaSetStatus" xlink:title="AvailableReplicas">
<ellipse fill="white" stroke="white" cx="433" cy="-333" rx="92.8835" ry="18"/>
<text text-anchor="middle" x="433" y="-329.3" font-family="Times,serif" font-size="14.00">AvailableReplicas</text>
</a>
</g>
</g>
<!-- DeploymentAvailableReplicas&#45;&gt;ReplicaSetAvailableReplicas -->
<g id="edge19" class="edge"><title>DeploymentAvailableReplicas&#45;&gt;ReplicaSetAvailableReplicas</title>
<path fill="none" stroke="black" d="M433,-397.822C433,-387.19 433,-373.306 433,-361.204"/>
<polygon fill="black" stroke="black" points="436.5,-361.153 433,-351.153 429.5,-361.153 436.5,-361.153"/>
</g>
<!-- DeploymentUnavailableReplicas -->
<g id="node7" class="node"><title>DeploymentUnavailableReplicas</title>
<g id="a_node7"><a xlink:href="https://godoc.org/k8s.io/kubernetes/pkg/apis/apps#DeploymentStatus" xlink:title="UnavailableReplicas">
<ellipse fill="white" stroke="white" cx="609" cy="-488" rx="104.782" ry="18"/>
<text text-anchor="middle" x="609" y="-484.3" font-family="Times,serif" font-size="14.00">UnavailableReplicas</text>
</a>
</g>
</g>
<!-- DeploymentUnavailableReplicas&#45;&gt;DeploymentReplicas -->
<g id="edge6" class="edge"><title>DeploymentUnavailableReplicas&#45;&gt;DeploymentReplicas</title>
<path fill="none" stroke="black" d="M605.292,-469.697C603.639,-461.983 601.653,-452.712 599.81,-444.112"/>
<polygon fill="black" stroke="black" points="603.183,-443.149 597.665,-434.104 596.338,-444.616 603.183,-443.149"/>
</g>
<!-- DeploymentUnavailableReplicas&#45;&gt;DeploymentAvailableReplicas -->
<g id="edge7" class="edge"><title>DeploymentUnavailableReplicas&#45;&gt;DeploymentAvailableReplicas</title>
<path fill="none" stroke="black" d="M569.502,-471.291C543.392,-460.906 508.998,-447.226 481.267,-436.197"/>
<polygon fill="black" stroke="black" points="482.346,-432.859 471.76,-432.416 479.759,-439.364 482.346,-432.859"/>
</g>
<!-- DeploymentMinReadySeconds -->
<g id="node8" class="node"><title>DeploymentMinReadySeconds</title>
<g id="a_node8"><a xlink:href="https://godoc.org/k8s.io/api/apps/v1#DeploymentSpec" xlink:title="MinReadySeconds">
<ellipse fill="white" stroke="white" cx="113" cy="-488" rx="96.6831" ry="18"/>
<text text-anchor="middle" x="113" y="-484.3" font-family="Times,serif" font-size="14.00">MinReadySeconds</text>
</a>
</g>
</g>
<!-- CreatePod -->
<g id="node20" class="node"><title>CreatePod</title>
<g id="a_node20"><a xlink:href="https://github.com/kubernetes/kubernetes/blob/de8fb1c9f81b1bd48a0d25f866492acca2c199f0/pkg/controller/replicaset/replica_set.go#L466-L511" xlink:title="CreatePod()">
<ellipse fill="none" stroke="black" cx="1048" cy="-261" rx="66.0889" ry="18"/>
<text text-anchor="middle" x="1048" y="-257.3" font-family="Times,serif" font-size="14.00">CreatePod()</text>
</a>
</g>
</g>
<!-- ReplicaSetReplicaFailure&#45;&gt;CreatePod -->
<g id="edge21" class="edge"><title>ReplicaSetReplicaFailure&#45;&gt;CreatePod</title>
<path fill="none" stroke="black" d="M793.65,-319.807C848.198,-307.409 932.5,-288.25 988.926,-275.426"/>
<polygon fill="black" stroke="black" points="989.8,-278.817 998.776,-273.187 988.249,-271.991 989.8,-278.817"/>
</g>
<!-- DeletePod -->
<g id="node21" class="node"><title>DeletePod</title>
<g id="a_node21"><a xlink:href="https://github.com/kubernetes/kubernetes/blob/de8fb1c9f81b1bd48a0d25f866492acca2c199f0/pkg/controller/replicaset/replica_set.go#L512-L554" xlink:title="DeletePod()">
<ellipse fill="none" stroke="black" cx="899" cy="-261" rx="64.9885" ry="18"/>
<text text-anchor="middle" x="899" y="-257.3" font-family="Times,serif" font-size="14.00">DeletePod()</text>
</a>
</g>
</g>
<!-- ReplicaSetReplicaFailure&#45;&gt;DeletePod -->
<g id="edge22" class="edge"><title>ReplicaSetReplicaFailure&#45;&gt;DeletePod</title>
<path fill="none" stroke="black" d="M774.501,-316.811C798.554,-306.221 830.802,-292.024 856.451,-280.732"/>
<polygon fill="black" stroke="black" points="858.185,-283.793 865.927,-276.56 855.364,-277.387 858.185,-283.793"/>
</g>
<!-- ClaimPods -->
<g id="node19" class="node"><title>ClaimPods</title>
<g id="a_node19"><a xlink:href="https://github.com/kubernetes/kubernetes/blob/de8fb1c9f81b1bd48a0d25f866492acca2c199f0/pkg/controller/replicaset/replica_set.go#L590-L612" xlink:title="ClaimPods()">
<ellipse fill="none" stroke="black" cx="738" cy="-178" rx="66.8882" ry="18"/>
<text text-anchor="middle" x="738" y="-174.3" font-family="Times,serif" font-size="14.00">ClaimPods()</text>
</a>
</g>
</g>
<!-- ReplicaSetReplicas&#45;&gt;ClaimPods -->
<g id="edge14" class="edge"><title>ReplicaSetReplicas&#45;&gt;ClaimPods</title>
<path fill="none" stroke="black" d="M630.723,-320.711C663.283,-309.967 707.42,-293.356 719,-279 735.42,-258.644 739.205,-228.403 739.476,-206.509"/>
<polygon fill="black" stroke="black" points="742.972,-206.174 739.356,-196.215 735.973,-206.255 742.972,-206.174"/>
</g>
<!-- PodReady -->
<g id="node14" class="node"><title>PodReady</title>
<g id="a_node14"><a xlink:href="https://godoc.org/k8s.io/api/core/v1#PodReady" xlink:title="Ready">
<ellipse fill="white" stroke="white" cx="564" cy="-178" rx="39.7935" ry="18"/>
<text text-anchor="middle" x="564" y="-174.3" font-family="Times,serif" font-size="14.00">Ready</text>
</a>
</g>
</g>
<!-- ReplicaSetReadyReplicas&#45;&gt;PodReady -->
<g id="edge16" class="edge"><title>ReplicaSetReadyReplicas&#45;&gt;PodReady</title>
<path fill="none" stroke="black" d="M617.118,-243.217C607.559,-231.661 594.711,-216.128 584.045,-203.233"/>
<polygon fill="black" stroke="black" points="586.478,-200.684 577.407,-195.209 581.084,-205.145 586.478,-200.684"/>
</g>
<!-- ReplicaSetReadyReplicas&#45;&gt;ClaimPods -->
<g id="edge15" class="edge"><title>ReplicaSetReadyReplicas&#45;&gt;ClaimPods</title>
<path fill="none" stroke="black" d="M652.653,-243.608C668.711,-231.452 690.789,-214.74 708.466,-201.358"/>
<polygon fill="black" stroke="black" points="710.884,-203.917 716.744,-195.091 706.659,-198.336 710.884,-203.917"/>
</g>
<!-- ReplicaSetAvailableReplicas&#45;&gt;ReplicaSetReadyReplicas -->
<g id="edge9" class="edge"><title>ReplicaSetAvailableReplicas&#45;&gt;ReplicaSetReadyReplicas</title>
<path fill="none" stroke="black" d="M475.476,-316.983C506.163,-306.134 547.748,-291.433 580.195,-279.961"/>
<polygon fill="black" stroke="black" points="581.688,-283.146 589.95,-276.513 579.355,-276.546 581.688,-283.146"/>
</g>
<!-- ReplicaSetMinReadySeconds -->
<g id="node13" class="node"><title>ReplicaSetMinReadySeconds</title>
<g id="a_node13"><a xlink:href="https://godoc.org/k8s.io/api/apps/v1#ReplicaSetSpec" xlink:title="MinReadySeconds">
<ellipse fill="white" stroke="white" cx="437" cy="-261" rx="96.6831" ry="18"/>
<text text-anchor="middle" x="437" y="-257.3" font-family="Times,serif" font-size="14.00">MinReadySeconds</text>
</a>
</g>
</g>
<!-- ReplicaSetAvailableReplicas&#45;&gt;ReplicaSetMinReadySeconds -->
<g id="edge8" class="edge"><title>ReplicaSetAvailableReplicas&#45;&gt;ReplicaSetMinReadySeconds</title>
<path fill="none" stroke="black" d="M433.989,-314.697C434.43,-306.983 434.959,-297.712 435.451,-289.112"/>
<polygon fill="black" stroke="black" points="438.946,-289.288 436.023,-279.104 431.958,-288.888 438.946,-289.288"/>
</g>
<!-- ReplicaSetMinReadySeconds&#45;&gt;DeploymentMinReadySeconds -->
<g id="edge23" class="edge"><title>ReplicaSetMinReadySeconds&#45;&gt;DeploymentMinReadySeconds</title>
<path fill="none" stroke="black" stroke-dasharray="5,2" d="M370.948,-274.249C306.118,-289.802 209.298,-323.104 155,-390 138.181,-410.721 126.917,-439.204 120.324,-459.942"/>
<polygon fill="black" stroke="black" points="116.913,-459.13 117.379,-469.715 123.616,-461.151 116.913,-459.13"/>
</g>
<!-- PodInitialized -->
<g id="node16" class="node"><title>PodInitialized</title>
<g id="a_node16"><a xlink:href="https://godoc.org/k8s.io/api/core/v1#PodInitialized" xlink:title="Initialized">
<ellipse fill="white" stroke="white" cx="397" cy="-106" rx="57.6901" ry="18"/>
<text text-anchor="middle" x="397" y="-102.3" font-family="Times,serif" font-size="14.00">Initialized</text>
</a>
</g>
</g>
<!-- PodReady&#45;&gt;PodInitialized -->
<g id="edge11" class="edge"><title>PodReady&#45;&gt;PodInitialized</title>
<path fill="none" stroke="black" d="M535.671,-165.125C509.304,-154.074 469.653,-137.453 439.495,-124.812"/>
<polygon fill="black" stroke="black" points="440.641,-121.498 430.066,-120.86 437.935,-127.954 440.641,-121.498"/>
</g>
<!-- ContainersReady -->
<g id="node17" class="node"><title>ContainersReady</title>
<g id="a_node17"><a xlink:href="https://godoc.org/k8s.io/api/core/v1#ContainersReady" xlink:title="ContainersReady">
<ellipse fill="white" stroke="white" cx="564" cy="-106" rx="90.9839" ry="18"/>
<text text-anchor="middle" x="564" y="-102.3" font-family="Times,serif" font-size="14.00">ContainersReady</text>
</a>
</g>
</g>
<!-- PodReady&#45;&gt;ContainersReady -->
<g id="edge10" class="edge"><title>PodReady&#45;&gt;ContainersReady</title>
<path fill="none" stroke="black" d="M564,-159.697C564,-151.983 564,-142.712 564,-134.112"/>
<polygon fill="black" stroke="black" points="567.5,-134.104 564,-124.104 560.5,-134.104 567.5,-134.104"/>
</g>
<!-- PodScheduled -->
<g id="node15" class="node"><title>PodScheduled</title>
<g id="a_node15"><a xlink:href="https://godoc.org/k8s.io/api/core/v1#PodScheduled" xlink:title="Scheduled">
<ellipse fill="white" stroke="white" cx="398" cy="-34" rx="59.2899" ry="18"/>
<text text-anchor="middle" x="398" y="-30.3" font-family="Times,serif" font-size="14.00">Scheduled</text>
</a>
</g>
</g>
<!-- PodInitialized&#45;&gt;PodScheduled -->
<g id="edge12" class="edge"><title>PodInitialized&#45;&gt;PodScheduled</title>
<path fill="none" stroke="black" d="M397.247,-87.6966C397.357,-79.9827 397.49,-70.7125 397.613,-62.1124"/>
<polygon fill="black" stroke="black" points="401.112,-62.1533 397.756,-52.1043 394.113,-62.0533 401.112,-62.1533"/>
</g>
<!-- ContainerStatus -->
<g id="node18" class="node"><title>ContainerStatus</title>
<g id="a_node18"><a xlink:href="https://godoc.org/k8s.io/api/core/v1#ContainerStatus" xlink:title="ContainerStatus">
<ellipse fill="white" stroke="white" cx="564" cy="-34" rx="87.1846" ry="18"/>
<text text-anchor="middle" x="564" y="-30.3" font-family="Times,serif" font-size="14.00">ContainerStatus</text>
</a>
</g>
</g>
<!-- ContainersReady&#45;&gt;ContainerStatus -->
<g id="edge13" class="edge"><title>ContainersReady&#45;&gt;ContainerStatus</title>
<path fill="none" stroke="black" d="M564,-87.6966C564,-79.9827 564,-70.7125 564,-62.1124"/>
<polygon fill="black" stroke="black" points="567.5,-62.1043 564,-52.1043 560.5,-62.1044 567.5,-62.1043"/>
</g>
</g>
</svg>
