<?xml version="1.0" encoding="UTF-8" standalone="no"?>
<!DOCTYPE svg PUBLIC "-//W3C//DTD SVG 1.1//EN"
 "http://www.w3.org/Graphics/SVG/1.1/DTD/svg11.dtd">
<!-- Generated by graphviz version 2.38.0 (20140413.2041)
 -->
<!-- Title: DeploymentLifecycle Pages: 1 -->
<svg width="1077pt" height="553pt"
 viewBox="0.00 0.00 1077.29 553.00" xmlns="http://www.w3.org/2000/svg" xmlns:xlink="http://www.w3.org/1999/xlink">
<g id="graph0" class="graph" transform="scale(1 1) rotate(0) translate(4 549)">
<title>DeploymentLifecycle</title>
<polygon fill="white" stroke="none" points="-4,4 -4,-549 1073.29,-549 1073.29,4 -4,4"/>
<g id="clust1" class="cluster"><title>cluster_deployment</title>
<polygon fill="lightblue" stroke="lightblue" points="8,-390 8,-537 847,-537 847,-390 8,-390"/>
<text text-anchor="middle" x="427.5" y="-521.8" font-family="Times,serif" font-size="14.00">Deployment</text>
</g>
<g id="clust2" class="cluster"><title>cluster_rs</title>
<polygon fill="lightblue" stroke="lightblue" points="353,-235 353,-382 781,-382 781,-235 353,-235"/>
<text text-anchor="middle" x="567" y="-366.8" font-family="Times,serif" font-size="14.00">ReplicaSet</text>
</g>
<g id="clust3" class="cluster"><title>cluster_pods</title>
<polygon fill="lightblue" stroke="lightblue" points="316,-8 316,-227 648,-227 648,-8 316,-8"/>
<text text-anchor="middle" x="482" y="-211.8" font-family="Times,serif" font-size="14.00">Pod</text>
</g>
<!-- DeploymentAvailable -->
<g id="node1" class="node"><title>DeploymentAvailable</title>
<g id="a_node1"><a xlink:href="https://godoc.org/k8s.io/api/apps/v1#DeploymentAvailable" xlink:title="Available">
<ellipse fill="white" stroke="white" cx="433" cy="-488" rx="53.0913" ry="18"/>
<text text-anchor="middle" x="433" y="-484.3" font-family="Times,serif" font-size="14.00">Available</text>
</a>
</g>
</g>
<!-- DeploymentReplicas -->
<g id="node4" class="node"><title>DeploymentReplicas</title>
<g id="a_node4"><a xlink:href="https://godoc.org/k8s.io/kubernetes/pkg/apis/apps#DeploymentStatus" xlink:title="Replicas">
<polygon fill="white" stroke="white" points="599.5,-434 522.5,-434 522.5,-398 599.5,-398 599.5,-434"/>
<text text-anchor="middle" x="561" y="-412.3" font-family="Times,serif" font-size="14.00">Replicas</text>
</a>
</g>
</g>
<!-- DeploymentAvailable&#45;&gt;DeploymentReplicas -->
<g id="edge5" class="edge"><title>DeploymentAvailable&#45;&gt;DeploymentReplicas</title>
<path fill="none" stroke="black" d="M459.833,-472.326C477.506,-462.661 500.965,-449.831 520.844,-438.96"/>
<polygon fill="black" stroke="black" points="522.597,-441.991 529.692,-434.122 519.238,-435.849 522.597,-441.991"/>
</g>
<!-- DeploymentAvailableReplicas -->
<g id="node6" class="node"><title>DeploymentAvailableReplicas</title>
<g id="a_node6"><a xlink:href="https://godoc.org/k8s.io/kubernetes/pkg/apis/apps#DeploymentStatus" xlink:title="AvailableReplicas">
<polygon fill="white" stroke="white" points="504.5,-434 361.5,-434 361.5,-398 504.5,-398 504.5,-434"/>
<text text-anchor="middle" x="433" y="-412.3" font-family="Times,serif" font-size="14.00">AvailableReplicas</text>
</a>
</g>
</g>
<!-- DeploymentAvailable&#45;&gt;DeploymentAvailableReplicas -->
<g id="edge4" class="edge"><title>DeploymentAvailable&#45;&gt;DeploymentAvailableReplicas</title>
<path fill="none" stroke="black" d="M433,-469.697C433,-461.983 433,-452.712 433,-444.112"/>
<polygon fill="black" stroke="black" points="436.5,-444.104 433,-434.104 429.5,-444.104 436.5,-444.104"/>
</g>
<!-- DeploymentProgressing -->
<g id="node2" class="node"><title>DeploymentProgressing</title>
<g id="a_node2"><a xlink:href="https://godoc.org/k8s.io/api/apps/v1#DeploymentProgressing" xlink:title="Progressing">
<ellipse fill="white" stroke="white" cx="295" cy="-488" rx="66.8882" ry="18"/>
<text text-anchor="middle" x="295" y="-484.3" font-family="Times,serif" font-size="14.00">Progressing</text>
</a>
</g>
</g>
<!-- DeploymentProgressing&#45;&gt;DeploymentReplicas -->
<g id="edge1" class="edge"><title>DeploymentProgressing&#45;&gt;DeploymentReplicas</title>
<path fill="none" stroke="black" d="M344.174,-475.761C394.412,-464.171 469.992,-446.41 512.56,-434.238"/>
<polygon fill="black" stroke="black" points="513.778,-437.528 522.384,-431.347 511.802,-430.812 513.778,-437.528"/>
</g>
<!-- DeploymentReadyReplicas -->
<g id="node5" class="node"><title>DeploymentReadyReplicas</title>
<g id="a_node5"><a xlink:href="https://godoc.org/k8s.io/kubernetes/pkg/apis/apps#DeploymentStatus" xlink:title="ReadyReplicas">
<polygon fill="white" stroke="white" points="343,-434 221,-434 221,-398 343,-398 343,-434"/>
<text text-anchor="middle" x="282" y="-412.3" font-family="Times,serif" font-size="14.00">ReadyReplicas</text>
</a>
</g>
</g>
<!-- DeploymentProgressing&#45;&gt;DeploymentReadyReplicas -->
<g id="edge2" class="edge"><title>DeploymentProgressing&#45;&gt;DeploymentReadyReplicas</title>
<path fill="none" stroke="black" d="M291.787,-469.697C290.354,-461.983 288.632,-452.712 287.035,-444.112"/>
<polygon fill="black" stroke="black" points="290.444,-443.297 285.177,-434.104 283.561,-444.575 290.444,-443.297"/>
</g>
<!-- DeploymentProgressing&#45;&gt;DeploymentAvailableReplicas -->
<g id="edge3" class="edge"><title>DeploymentProgressing&#45;&gt;DeploymentAvailableReplicas</title>
<path fill="none" stroke="black" d="M324.944,-471.811C344.003,-462.144 368.989,-449.47 390.133,-438.744"/>
<polygon fill="black" stroke="black" points="391.901,-441.772 399.236,-434.127 388.734,-435.529 391.901,-441.772"/>
</g>
<!-- DeploymentReplicaFailure -->
<g id="node3" class="node"><title>DeploymentReplicaFailure</title>
<g id="a_node3"><a xlink:href="https://godoc.org/k8s.io/api/apps/v1#DeploymentReplicaFailure" xlink:title="ReplicaFailure">
<ellipse fill="white" stroke="white" cx="761" cy="-488" rx="77.9862" ry="18"/>
<text text-anchor="middle" x="761" y="-484.3" font-family="Times,serif" font-size="14.00">ReplicaFailure</text>
</a>
</g>
</g>
<!-- ReplicaSetReplicaFailure -->
<g id="node9" class="node"><title>ReplicaSetReplicaFailure</title>
<g id="a_node9"><a xlink:href="https://godoc.org/k8s.io/api/apps/v1#ReplicaSetReplicaFailure" xlink:title="ReplicaFailure">
<ellipse fill="white" stroke="white" cx="695" cy="-333" rx="77.9862" ry="18"/>
<text text-anchor="middle" x="695" y="-329.3" font-family="Times,serif" font-size="14.00">ReplicaFailure</text>
</a>
</g>
</g>
<!-- DeploymentReplicaFailure&#45;&gt;ReplicaSetReplicaFailure -->
<g id="edge23" class="edge"><title>DeploymentReplicaFailure&#45;&gt;ReplicaSetReplicaFailure</title>
<path fill="none" stroke="black" d="M753.685,-470.042C742.237,-443.504 719.998,-391.949 706.425,-360.486"/>
<polygon fill="black" stroke="black" points="709.523,-358.83 702.348,-351.034 703.095,-361.603 709.523,-358.83"/>
</g>
<!-- ReplicaSetReplicas -->
<g id="node10" class="node"><title>ReplicaSetReplicas</title>
<g id="a_node10"><a xlink:href="https://godoc.org/k8s.io/kubernetes/pkg/apis/apps#ReplicaSetStatus" xlink:title="Replicas">
<polygon fill="white" stroke="white" points="599.5,-351 522.5,-351 522.5,-315 599.5,-315 599.5,-351"/>
<text text-anchor="middle" x="561" y="-329.3" font-family="Times,serif" font-size="14.00">Replicas</text>
</a>
</g>
</g>
<!-- DeploymentReplicas&#45;&gt;ReplicaSetReplicas -->
<g id="edge20" class="edge"><title>DeploymentReplicas&#45;&gt;ReplicaSetReplicas</title>
<path fill="none" stroke="black" d="M561,-397.822C561,-387.19 561,-373.306 561,-361.204"/>
<polygon fill="black" stroke="black" points="564.5,-361.153 561,-351.153 557.5,-361.153 564.5,-361.153"/>
</g>
<!-- ReplicaSetReadyReplicas -->
<g id="node11" class="node"><title>ReplicaSetReadyReplicas</title>
<g id="a_node11"><a xlink:href="https://godoc.org/k8s.io/kubernetes/pkg/apis/apps#ReplicaSetStatus" xlink:title="ReadyReplicas">
<polygon fill="white" stroke="white" points="695,-279 573,-279 573,-243 695,-243 695,-279"/>
<text text-anchor="middle" x="634" y="-257.3" font-family="Times,serif" font-size="14.00">ReadyReplicas</text>
</a>
</g>
</g>
<!-- DeploymentReadyReplicas&#45;&gt;ReplicaSetReadyReplicas -->
<g id="edge21" class="edge"><title>DeploymentReadyReplicas&#45;&gt;ReplicaSetReadyReplicas</title>
<path fill="none" stroke="black" d="M289.001,-397.649C299.215,-374.73 320.482,-334.943 352,-315 430.081,-265.596 467.849,-296.1 562.966,-279.02"/>
<polygon fill="black" stroke="black" points="563.819,-282.421 572.973,-277.087 562.491,-275.548 563.819,-282.421"/>
</g>
<!-- ReplicaSetAvailableReplicas -->
<g id="node12" class="node"><title>ReplicaSetAvailableReplicas</title>
<g id="a_node12"><a xlink:href="https://godoc.org/k8s.io/kubernetes/pkg/apis/apps#ReplicaSetStatus" xlink:title="AvailableReplicas">
<polygon fill="white" stroke="white" points="504.5,-351 361.5,-351 361.5,-315 504.5,-315 504.5,-351"/>
<text text-anchor="middle" x="433" y="-329.3" font-family="Times,serif" font-size="14.00">AvailableReplicas</text>
</a>
</g>
</g>
<!-- DeploymentAvailableReplicas&#45;&gt;ReplicaSetAvailableReplicas -->
<g id="edge22" class="edge"><title>DeploymentAvailableReplicas&#45;&gt;ReplicaSetAvailableReplicas</title>
<path fill="none" stroke="black" d="M433,-397.822C433,-387.19 433,-373.306 433,-361.204"/>
<polygon fill="black" stroke="black" points="436.5,-361.153 433,-351.153 429.5,-361.153 436.5,-361.153"/>
</g>
<!-- DeploymentUnavailableReplicas -->
<g id="node7" class="node"><title>DeploymentUnavailableReplicas</title>
<g id="a_node7"><a xlink:href="https://godoc.org/k8s.io/kubernetes/pkg/apis/apps#DeploymentStatus" xlink:title="UnavailableReplicas">
<polygon fill="white" stroke="white" points="665.5,-506 504.5,-506 504.5,-470 665.5,-470 665.5,-506"/>
<text text-anchor="middle" x="585" y="-484.3" font-family="Times,serif" font-size="14.00">UnavailableReplicas</text>
</a>
</g>
</g>
<!-- DeploymentUnavailableReplicas&#45;&gt;DeploymentReplicas -->
<g id="edge6" class="edge"><title>DeploymentUnavailableReplicas&#45;&gt;DeploymentReplicas</title>
<path fill="none" stroke="black" d="M579.067,-469.697C576.394,-461.898 573.174,-452.509 570.199,-443.829"/>
<polygon fill="black" stroke="black" points="573.418,-442.429 566.864,-434.104 566.797,-444.699 573.418,-442.429"/>
</g>
<!-- DeploymentUnavailableReplicas&#45;&gt;DeploymentAvailableReplicas -->
<g id="edge7" class="edge"><title>DeploymentUnavailableReplicas&#45;&gt;DeploymentAvailableReplicas</title>
<path fill="none" stroke="black" d="M547.817,-469.876C527.13,-460.349 501.198,-448.407 479.215,-438.283"/>
<polygon fill="black" stroke="black" points="480.61,-435.072 470.063,-434.068 477.682,-441.43 480.61,-435.072"/>
</g>
<!-- DeploymentMinReadySeconds -->
<g id="node8" class="node"><title>DeploymentMinReadySeconds</title>
<g id="a_node8"><a xlink:href="https://godoc.org/k8s.io/api/apps/v1#DeploymentSpec" xlink:title="MinReadySeconds">
<ellipse fill="white" stroke="white" cx="113" cy="-488" rx="96.6831" ry="18"/>
<text text-anchor="middle" x="113" y="-484.3" font-family="Times,serif" font-size="14.00">MinReadySeconds</text>
</a>
</g>
</g>
<!-- CreatePod -->
<g id="node19" class="node"><title>CreatePod</title>
<g id="a_node19"><a xlink:href="https://github.com/kubernetes/kubernetes/blob/de8fb1c9f81b1bd48a0d25f866492acca2c199f0/pkg/controller/replicaset/replica_set.go#L466-L511" xlink:title="CreatePod()">
<ellipse fill="none" stroke="black" cx="1003" cy="-261" rx="66.0889" ry="18"/>
<text text-anchor="middle" x="1003" y="-257.3" font-family="Times,serif" font-size="14.00">CreatePod()</text>
</a>
</g>
</g>
<!-- ReplicaSetReplicaFailure&#45;&gt;CreatePod -->
<g id="edge17" class="edge"><title>ReplicaSetReplicaFailure&#45;&gt;CreatePod</title>
<path fill="none" stroke="black" d="M748.65,-319.807C803.198,-307.409 887.5,-288.25 943.926,-275.426"/>
<polygon fill="black" stroke="black" points="944.8,-278.817 953.776,-273.187 943.249,-271.991 944.8,-278.817"/>
</g>
<!-- DeletePod -->
<g id="node20" class="node"><title>DeletePod</title>
<g id="a_node20"><a xlink:href="https://github.com/kubernetes/kubernetes/blob/de8fb1c9f81b1bd48a0d25f866492acca2c199f0/pkg/controller/replicaset/replica_set.go#L512-L554" xlink:title="DeletePod()">
<ellipse fill="none" stroke="black" cx="854" cy="-261" rx="64.9885" ry="18"/>
<text text-anchor="middle" x="854" y="-257.3" font-family="Times,serif" font-size="14.00">DeletePod()</text>
</a>
</g>
</g>
<!-- ReplicaSetReplicaFailure&#45;&gt;DeletePod -->
<g id="edge18" class="edge"><title>ReplicaSetReplicaFailure&#45;&gt;DeletePod</title>
<path fill="none" stroke="black" d="M729.501,-316.811C753.554,-306.221 785.802,-292.024 811.451,-280.732"/>
<polygon fill="black" stroke="black" points="813.185,-283.793 820.927,-276.56 810.364,-277.387 813.185,-283.793"/>
</g>
<!-- ClaimPods -->
<g id="node21" class="node"><title>ClaimPods</title>
<g id="a_node21"><a xlink:href="https://github.com/kubernetes/kubernetes/blob/de8fb1c9f81b1bd48a0d25f866492acca2c199f0/pkg/controller/replicaset/replica_set.go#L590-L612" xlink:title="ClaimPods()">
<ellipse fill="none" stroke="black" cx="723" cy="-178" rx="66.8882" ry="18"/>
<text text-anchor="middle" x="723" y="-174.3" font-family="Times,serif" font-size="14.00">ClaimPods()</text>
</a>
</g>
</g>
<!-- ReplicaSetReplicas&#45;&gt;ClaimPods -->
<g id="edge14" class="edge"><title>ReplicaSetReplicas&#45;&gt;ClaimPods</title>
<path fill="none" stroke="black" d="M599.757,-317.894C641.798,-302.555 703.103,-280.062 704,-279 720.962,-258.936 724.631,-228.449 724.726,-206.413"/>
<polygon fill="black" stroke="black" points="728.224,-206.286 724.528,-196.357 721.225,-206.424 728.224,-206.286"/>
</g>
<!-- PodReady -->
<g id="node14" class="node"><title>PodReady</title>
<g id="a_node14"><a xlink:href="https://godoc.org/k8s.io/api/core/v1#PodReady" xlink:title="Ready">
<ellipse fill="white" stroke="white" cx="549" cy="-178" rx="39.7935" ry="18"/>
<text text-anchor="middle" x="549" y="-174.3" font-family="Times,serif" font-size="14.00">Ready</text>
</a>
</g>
</g>
<!-- ReplicaSetReadyReplicas&#45;&gt;PodReady -->
<g id="edge16" class="edge"><title>ReplicaSetReadyReplicas&#45;&gt;PodReady</title>
<path fill="none" stroke="black" d="M615.974,-242.822C603.427,-230.865 586.563,-214.795 572.896,-201.772"/>
<polygon fill="black" stroke="black" points="574.93,-198.875 565.276,-194.51 570.101,-203.942 574.93,-198.875"/>
</g>
<!-- ReplicaSetReadyReplicas&#45;&gt;ClaimPods -->
<g id="edge15" class="edge"><title>ReplicaSetReadyReplicas&#45;&gt;ClaimPods</title>
<path fill="none" stroke="black" d="M652.875,-242.822C665.79,-231.067 683.075,-215.336 697.252,-202.433"/>
<polygon fill="black" stroke="black" points="699.721,-204.919 704.761,-195.599 695.01,-199.742 699.721,-204.919"/>
</g>
<!-- ReplicaSetAvailableReplicas&#45;&gt;ReplicaSetReadyReplicas -->
<g id="edge9" class="edge"><title>ReplicaSetAvailableReplicas&#45;&gt;ReplicaSetReadyReplicas</title>
<path fill="none" stroke="black" d="M481.913,-314.966C509.997,-305.185 545.455,-292.836 575.068,-282.524"/>
<polygon fill="black" stroke="black" points="576.575,-285.705 584.868,-279.111 574.273,-279.094 576.575,-285.705"/>
</g>
<!-- ReplicaSetMinReadySeconds -->
<g id="node13" class="node"><title>ReplicaSetMinReadySeconds</title>
<g id="a_node13"><a xlink:href="https://godoc.org/k8s.io/api/apps/v1#ReplicaSetSpec" xlink:title="MinReadySeconds">
<ellipse fill="white" stroke="white" cx="458" cy="-261" rx="96.6831" ry="18"/>
<text text-anchor="middle" x="458" y="-257.3" font-family="Times,serif" font-size="14.00">MinReadySeconds</text>
</a>
</g>
</g>
<!-- ReplicaSetAvailableReplicas&#45;&gt;ReplicaSetMinReadySeconds -->
<g id="edge8" class="edge"><title>ReplicaSetAvailableReplicas&#45;&gt;ReplicaSetMinReadySeconds</title>
<path fill="none" stroke="black" d="M439.18,-314.697C441.995,-306.813 445.391,-297.304 448.519,-288.546"/>
<polygon fill="black" stroke="black" points="451.824,-289.699 451.891,-279.104 445.232,-287.345 451.824,-289.699"/>
</g>
<!-- ReplicaSetMinReadySeconds&#45;&gt;DeploymentMinReadySeconds -->
<g id="edge19" class="edge"><title>ReplicaSetMinReadySeconds&#45;&gt;DeploymentMinReadySeconds</title>
<path fill="none" stroke="black" stroke-dasharray="5,2" d="M396.96,-275.071C364.918,-283.541 325.816,-296.499 294,-315 225.716,-354.708 162.937,-425.031 132.422,-462.269"/>
<polygon fill="black" stroke="black" points="129.636,-460.148 126.063,-470.123 135.076,-464.553 129.636,-460.148"/>
</g>
<!-- PodInitialized -->
<g id="node16" class="node"><title>PodInitialized</title>
<g id="a_node16"><a xlink:href="https://godoc.org/k8s.io/api/core/v1#PodInitialized" xlink:title="Initialized">
<ellipse fill="white" stroke="white" cx="382" cy="-106" rx="57.6901" ry="18"/>
<text text-anchor="middle" x="382" y="-102.3" font-family="Times,serif" font-size="14.00">Initialized</text>
</a>
</g>
</g>
<!-- PodReady&#45;&gt;PodInitialized -->
<g id="edge11" class="edge"><title>PodReady&#45;&gt;PodInitialized</title>
<path fill="none" stroke="black" d="M520.671,-165.125C494.304,-154.074 454.653,-137.453 424.495,-124.812"/>
<polygon fill="black" stroke="black" points="425.641,-121.498 415.066,-120.86 422.935,-127.954 425.641,-121.498"/>
</g>
<!-- ContainersReady -->
<g id="node17" class="node"><title>ContainersReady</title>
<g id="a_node17"><a xlink:href="https://godoc.org/k8s.io/api/core/v1#ContainersReady" xlink:title="ContainersReady">
<ellipse fill="white" stroke="white" cx="549" cy="-106" rx="90.9839" ry="18"/>
<text text-anchor="middle" x="549" y="-102.3" font-family="Times,serif" font-size="14.00">ContainersReady</text>
</a>
</g>
</g>
<!-- PodReady&#45;&gt;ContainersReady -->
<g id="edge10" class="edge"><title>PodReady&#45;&gt;ContainersReady</title>
<path fill="none" stroke="black" d="M549,-159.697C549,-151.983 549,-142.712 549,-134.112"/>
<polygon fill="black" stroke="black" points="552.5,-134.104 549,-124.104 545.5,-134.104 552.5,-134.104"/>
</g>
<!-- PodScheduled -->
<g id="node15" class="node"><title>PodScheduled</title>
<g id="a_node15"><a xlink:href="https://godoc.org/k8s.io/api/core/v1#PodScheduled" xlink:title="Scheduled">
<ellipse fill="white" stroke="white" cx="383" cy="-34" rx="59.2899" ry="18"/>
<text text-anchor="middle" x="383" y="-30.3" font-family="Times,serif" font-size="14.00">Scheduled</text>
</a>
</g>
</g>
<!-- PodInitialized&#45;&gt;PodScheduled -->
<g id="edge12" class="edge"><title>PodInitialized&#45;&gt;PodScheduled</title>
<path fill="none" stroke="black" d="M382.247,-87.6966C382.357,-79.9827 382.49,-70.7125 382.613,-62.1124"/>
<polygon fill="black" stroke="black" points="386.112,-62.1533 382.756,-52.1043 379.113,-62.0533 386.112,-62.1533"/>
</g>
<!-- ContainerStatus -->
<g id="node18" class="node"><title>ContainerStatus</title>
<g id="a_node18"><a xlink:href="https://godoc.org/k8s.io/api/core/v1#ContainerStatus" xlink:title="ContainerStatus">
<polygon fill="white" stroke="white" points="616,-52 482,-52 482,-16 616,-16 616,-52"/>
<text text-anchor="middle" x="549" y="-30.3" font-family="Times,serif" font-size="14.00">ContainerStatus</text>
</a>
</g>
</g>
<!-- ContainersReady&#45;&gt;ContainerStatus -->
<g id="edge13" class="edge"><title>ContainersReady&#45;&gt;ContainerStatus</title>
<path fill="none" stroke="black" d="M549,-87.6966C549,-79.9827 549,-70.7125 549,-62.1124"/>
<polygon fill="black" stroke="black" points="552.5,-62.1043 549,-52.1043 545.5,-62.1044 552.5,-62.1043"/>
</g>
</g>
</svg>
