<?xml version="1.0" encoding="UTF-8" standalone="no"?>
<!DOCTYPE svg PUBLIC "-//W3C//DTD SVG 1.1//EN"
 "http://www.w3.org/Graphics/SVG/1.1/DTD/svg11.dtd">
<!-- Generated by graphviz version 2.38.0 (20140413.2041)
 -->
<!-- Title: DeploymentLifecycle Pages: 1 -->
<svg width="1093pt" height="609pt"
 viewBox="0.00 0.00 1093.29 609.00" xmlns="http://www.w3.org/2000/svg" xmlns:xlink="http://www.w3.org/1999/xlink">
<g id="graph0" class="graph" transform="scale(1 1) rotate(0) translate(4 605)">
<title>DeploymentLifecycle</title>
<polygon fill="white" stroke="none" points="-4,4 -4,-605 1089.29,-605 1089.29,4 -4,4"/>
<g id="clust1" class="cluster"><title>cluster_deployment</title>
<polygon fill="lightblue" stroke="lightblue" points="24,-446 24,-593 863,-593 863,-446 24,-446"/>
<text text-anchor="middle" x="443.5" y="-577.8" font-family="Times,serif" font-size="14.00">Deployment</text>
</g>
<g id="clust2" class="cluster"><title>cluster_rs</title>
<polygon fill="lightblue" stroke="lightblue" points="369,-291 369,-438 797,-438 797,-291 369,-291"/>
<text text-anchor="middle" x="583" y="-422.8" font-family="Times,serif" font-size="14.00">ReplicaSet</text>
</g>
<g id="clust3" class="cluster"><title>cluster_pods</title>
<polygon fill="lightblue" stroke="lightblue" points="8,-64 8,-283 664,-283 664,-64 8,-64"/>
<text text-anchor="middle" x="336" y="-267.8" font-family="Times,serif" font-size="14.00">Pod</text>
</g>
<!-- DeploymentAvailable -->
<g id="node1" class="node"><title>DeploymentAvailable</title>
<g id="a_node1"><a xlink:href="https://godoc.org/k8s.io/api/apps/v1#DeploymentAvailable" xlink:title="Available">
<ellipse fill="white" stroke="white" cx="449" cy="-544" rx="53.0913" ry="18"/>
<text text-anchor="middle" x="449" y="-540.3" font-family="Times,serif" font-size="14.00">Available</text>
</a>
</g>
</g>
<!-- DeploymentReplicas -->
<g id="node4" class="node"><title>DeploymentReplicas</title>
<g id="a_node4"><a xlink:href="https://godoc.org/k8s.io/kubernetes/pkg/apis/apps#DeploymentStatus" xlink:title="Replicas">
<polygon fill="white" stroke="white" points="615.5,-490 538.5,-490 538.5,-454 615.5,-454 615.5,-490"/>
<text text-anchor="middle" x="577" y="-468.3" font-family="Times,serif" font-size="14.00">Replicas</text>
</a>
</g>
</g>
<!-- DeploymentAvailable&#45;&gt;DeploymentReplicas -->
<g id="edge5" class="edge"><title>DeploymentAvailable&#45;&gt;DeploymentReplicas</title>
<path fill="none" stroke="black" d="M475.833,-528.326C493.506,-518.661 516.965,-505.831 536.844,-494.96"/>
<polygon fill="black" stroke="black" points="538.597,-497.991 545.692,-490.122 535.238,-491.849 538.597,-497.991"/>
</g>
<!-- DeploymentAvailableReplicas -->
<g id="node6" class="node"><title>DeploymentAvailableReplicas</title>
<g id="a_node6"><a xlink:href="https://godoc.org/k8s.io/kubernetes/pkg/apis/apps#DeploymentStatus" xlink:title="AvailableReplicas">
<polygon fill="white" stroke="white" points="520.5,-490 377.5,-490 377.5,-454 520.5,-454 520.5,-490"/>
<text text-anchor="middle" x="449" y="-468.3" font-family="Times,serif" font-size="14.00">AvailableReplicas</text>
</a>
</g>
</g>
<!-- DeploymentAvailable&#45;&gt;DeploymentAvailableReplicas -->
<g id="edge4" class="edge"><title>DeploymentAvailable&#45;&gt;DeploymentAvailableReplicas</title>
<path fill="none" stroke="black" d="M449,-525.697C449,-517.983 449,-508.712 449,-500.112"/>
<polygon fill="black" stroke="black" points="452.5,-500.104 449,-490.104 445.5,-500.104 452.5,-500.104"/>
</g>
<!-- DeploymentProgressing -->
<g id="node2" class="node"><title>DeploymentProgressing</title>
<g id="a_node2"><a xlink:href="https://godoc.org/k8s.io/api/apps/v1#DeploymentProgressing" xlink:title="Progressing">
<ellipse fill="white" stroke="white" cx="311" cy="-544" rx="66.8882" ry="18"/>
<text text-anchor="middle" x="311" y="-540.3" font-family="Times,serif" font-size="14.00">Progressing</text>
</a>
</g>
</g>
<!-- DeploymentProgressing&#45;&gt;DeploymentReplicas -->
<g id="edge1" class="edge"><title>DeploymentProgressing&#45;&gt;DeploymentReplicas</title>
<path fill="none" stroke="black" d="M360.174,-531.761C410.412,-520.171 485.992,-502.41 528.56,-490.238"/>
<polygon fill="black" stroke="black" points="529.778,-493.528 538.384,-487.347 527.802,-486.812 529.778,-493.528"/>
</g>
<!-- DeploymentReadyReplicas -->
<g id="node5" class="node"><title>DeploymentReadyReplicas</title>
<g id="a_node5"><a xlink:href="https://godoc.org/k8s.io/kubernetes/pkg/apis/apps#DeploymentStatus" xlink:title="ReadyReplicas">
<polygon fill="white" stroke="white" points="359,-490 237,-490 237,-454 359,-454 359,-490"/>
<text text-anchor="middle" x="298" y="-468.3" font-family="Times,serif" font-size="14.00">ReadyReplicas</text>
</a>
</g>
</g>
<!-- DeploymentProgressing&#45;&gt;DeploymentReadyReplicas -->
<g id="edge2" class="edge"><title>DeploymentProgressing&#45;&gt;DeploymentReadyReplicas</title>
<path fill="none" stroke="black" d="M307.787,-525.697C306.354,-517.983 304.632,-508.712 303.035,-500.112"/>
<polygon fill="black" stroke="black" points="306.444,-499.297 301.177,-490.104 299.561,-500.575 306.444,-499.297"/>
</g>
<!-- DeploymentProgressing&#45;&gt;DeploymentAvailableReplicas -->
<g id="edge3" class="edge"><title>DeploymentProgressing&#45;&gt;DeploymentAvailableReplicas</title>
<path fill="none" stroke="black" d="M340.944,-527.811C360.003,-518.144 384.989,-505.47 406.133,-494.744"/>
<polygon fill="black" stroke="black" points="407.901,-497.772 415.236,-490.127 404.734,-491.529 407.901,-497.772"/>
</g>
<!-- DeploymentReplicaFailure -->
<g id="node3" class="node"><title>DeploymentReplicaFailure</title>
<g id="a_node3"><a xlink:href="https://godoc.org/k8s.io/api/apps/v1#DeploymentReplicaFailure" xlink:title="ReplicaFailure">
<ellipse fill="white" stroke="white" cx="777" cy="-544" rx="77.9862" ry="18"/>
<text text-anchor="middle" x="777" y="-540.3" font-family="Times,serif" font-size="14.00">ReplicaFailure</text>
</a>
</g>
</g>
<!-- ReplicaSetReplicaFailure -->
<g id="node9" class="node"><title>ReplicaSetReplicaFailure</title>
<g id="a_node9"><a xlink:href="https://godoc.org/k8s.io/api/apps/v1#ReplicaSetReplicaFailure" xlink:title="ReplicaFailure">
<ellipse fill="white" stroke="white" cx="711" cy="-389" rx="77.9862" ry="18"/>
<text text-anchor="middle" x="711" y="-385.3" font-family="Times,serif" font-size="14.00">ReplicaFailure</text>
</a>
</g>
</g>
<!-- DeploymentReplicaFailure&#45;&gt;ReplicaSetReplicaFailure -->
<g id="edge25" class="edge"><title>DeploymentReplicaFailure&#45;&gt;ReplicaSetReplicaFailure</title>
<path fill="none" stroke="black" d="M769.685,-526.042C758.237,-499.504 735.998,-447.949 722.425,-416.486"/>
<polygon fill="black" stroke="black" points="725.523,-414.83 718.348,-407.034 719.095,-417.603 725.523,-414.83"/>
</g>
<!-- ReplicaSetReplicas -->
<g id="node10" class="node"><title>ReplicaSetReplicas</title>
<g id="a_node10"><a xlink:href="https://godoc.org/k8s.io/kubernetes/pkg/apis/apps#ReplicaSetStatus" xlink:title="Replicas">
<polygon fill="white" stroke="white" points="615.5,-407 538.5,-407 538.5,-371 615.5,-371 615.5,-407"/>
<text text-anchor="middle" x="577" y="-385.3" font-family="Times,serif" font-size="14.00">Replicas</text>
</a>
</g>
</g>
<!-- DeploymentReplicas&#45;&gt;ReplicaSetReplicas -->
<g id="edge22" class="edge"><title>DeploymentReplicas&#45;&gt;ReplicaSetReplicas</title>
<path fill="none" stroke="black" d="M577,-453.822C577,-443.19 577,-429.306 577,-417.204"/>
<polygon fill="black" stroke="black" points="580.5,-417.153 577,-407.153 573.5,-417.153 580.5,-417.153"/>
</g>
<!-- ReplicaSetReadyReplicas -->
<g id="node11" class="node"><title>ReplicaSetReadyReplicas</title>
<g id="a_node11"><a xlink:href="https://godoc.org/k8s.io/kubernetes/pkg/apis/apps#ReplicaSetStatus" xlink:title="ReadyReplicas">
<polygon fill="white" stroke="white" points="711,-335 589,-335 589,-299 711,-299 711,-335"/>
<text text-anchor="middle" x="650" y="-313.3" font-family="Times,serif" font-size="14.00">ReadyReplicas</text>
</a>
</g>
</g>
<!-- DeploymentReadyReplicas&#45;&gt;ReplicaSetReadyReplicas -->
<g id="edge23" class="edge"><title>DeploymentReadyReplicas&#45;&gt;ReplicaSetReadyReplicas</title>
<path fill="none" stroke="black" d="M305.001,-453.649C315.215,-430.73 336.482,-390.943 368,-371 446.081,-321.596 483.849,-352.1 578.966,-335.02"/>
<polygon fill="black" stroke="black" points="579.819,-338.421 588.973,-333.087 578.491,-331.548 579.819,-338.421"/>
</g>
<!-- ReplicaSetAvailableReplicas -->
<g id="node12" class="node"><title>ReplicaSetAvailableReplicas</title>
<g id="a_node12"><a xlink:href="https://godoc.org/k8s.io/kubernetes/pkg/apis/apps#ReplicaSetStatus" xlink:title="AvailableReplicas">
<polygon fill="white" stroke="white" points="520.5,-407 377.5,-407 377.5,-371 520.5,-371 520.5,-407"/>
<text text-anchor="middle" x="449" y="-385.3" font-family="Times,serif" font-size="14.00">AvailableReplicas</text>
</a>
</g>
</g>
<!-- DeploymentAvailableReplicas&#45;&gt;ReplicaSetAvailableReplicas -->
<g id="edge24" class="edge"><title>DeploymentAvailableReplicas&#45;&gt;ReplicaSetAvailableReplicas</title>
<path fill="none" stroke="black" d="M449,-453.822C449,-443.19 449,-429.306 449,-417.204"/>
<polygon fill="black" stroke="black" points="452.5,-417.153 449,-407.153 445.5,-417.153 452.5,-417.153"/>
</g>
<!-- DeploymentUnavailableReplicas -->
<g id="node7" class="node"><title>DeploymentUnavailableReplicas</title>
<g id="a_node7"><a xlink:href="https://godoc.org/k8s.io/kubernetes/pkg/apis/apps#DeploymentStatus" xlink:title="UnavailableReplicas">
<polygon fill="white" stroke="white" points="681.5,-562 520.5,-562 520.5,-526 681.5,-526 681.5,-562"/>
<text text-anchor="middle" x="601" y="-540.3" font-family="Times,serif" font-size="14.00">UnavailableReplicas</text>
</a>
</g>
</g>
<!-- DeploymentUnavailableReplicas&#45;&gt;DeploymentReplicas -->
<g id="edge6" class="edge"><title>DeploymentUnavailableReplicas&#45;&gt;DeploymentReplicas</title>
<path fill="none" stroke="black" d="M595.067,-525.697C592.394,-517.898 589.174,-508.509 586.199,-499.829"/>
<polygon fill="black" stroke="black" points="589.418,-498.429 582.864,-490.104 582.797,-500.699 589.418,-498.429"/>
</g>
<!-- DeploymentUnavailableReplicas&#45;&gt;DeploymentAvailableReplicas -->
<g id="edge7" class="edge"><title>DeploymentUnavailableReplicas&#45;&gt;DeploymentAvailableReplicas</title>
<path fill="none" stroke="black" d="M563.817,-525.876C543.13,-516.349 517.198,-504.407 495.215,-494.283"/>
<polygon fill="black" stroke="black" points="496.61,-491.072 486.063,-490.068 493.682,-497.43 496.61,-491.072"/>
</g>
<!-- DeploymentMinReadySeconds -->
<g id="node8" class="node"><title>DeploymentMinReadySeconds</title>
<g id="a_node8"><a xlink:href="https://godoc.org/k8s.io/api/apps/v1#DeploymentSpec" xlink:title="MinReadySeconds">
<ellipse fill="white" stroke="white" cx="129" cy="-544" rx="96.6831" ry="18"/>
<text text-anchor="middle" x="129" y="-540.3" font-family="Times,serif" font-size="14.00">MinReadySeconds</text>
</a>
</g>
</g>
<!-- CreatePod -->
<g id="node20" class="node"><title>CreatePod</title>
<g id="a_node20"><a xlink:href="https://github.com/kubernetes/kubernetes/blob/de8fb1c9f81b1bd48a0d25f866492acca2c199f0/pkg/controller/replicaset/replica_set.go#L466-L511" xlink:title="CreatePod()">
<ellipse fill="none" stroke="black" cx="1019" cy="-317" rx="66.0889" ry="18"/>
<text text-anchor="middle" x="1019" y="-313.3" font-family="Times,serif" font-size="14.00">CreatePod()</text>
</a>
</g>
</g>
<!-- ReplicaSetReplicaFailure&#45;&gt;CreatePod -->
<g id="edge19" class="edge"><title>ReplicaSetReplicaFailure&#45;&gt;CreatePod</title>
<path fill="none" stroke="black" d="M764.65,-375.807C819.198,-363.409 903.5,-344.25 959.926,-331.426"/>
<polygon fill="black" stroke="black" points="960.8,-334.817 969.776,-329.187 959.249,-327.991 960.8,-334.817"/>
</g>
<!-- DeletePod -->
<g id="node21" class="node"><title>DeletePod</title>
<g id="a_node21"><a xlink:href="https://github.com/kubernetes/kubernetes/blob/de8fb1c9f81b1bd48a0d25f866492acca2c199f0/pkg/controller/replicaset/replica_set.go#L512-L554" xlink:title="DeletePod()">
<ellipse fill="none" stroke="black" cx="870" cy="-317" rx="64.9885" ry="18"/>
<text text-anchor="middle" x="870" y="-313.3" font-family="Times,serif" font-size="14.00">DeletePod()</text>
</a>
</g>
</g>
<!-- ReplicaSetReplicaFailure&#45;&gt;DeletePod -->
<g id="edge20" class="edge"><title>ReplicaSetReplicaFailure&#45;&gt;DeletePod</title>
<path fill="none" stroke="black" d="M745.501,-372.811C769.554,-362.221 801.802,-348.024 827.451,-336.732"/>
<polygon fill="black" stroke="black" points="829.185,-339.793 836.927,-332.56 826.364,-333.387 829.185,-339.793"/>
</g>
<!-- ClaimPods -->
<g id="node22" class="node"><title>ClaimPods</title>
<g id="a_node22"><a xlink:href="https://github.com/kubernetes/kubernetes/blob/de8fb1c9f81b1bd48a0d25f866492acca2c199f0/pkg/controller/replicaset/replica_set.go#L590-L612" xlink:title="ClaimPods()">
<ellipse fill="none" stroke="black" cx="739" cy="-234" rx="66.8882" ry="18"/>
<text text-anchor="middle" x="739" y="-230.3" font-family="Times,serif" font-size="14.00">ClaimPods()</text>
</a>
</g>
</g>
<!-- ReplicaSetReplicas&#45;&gt;ClaimPods -->
<g id="edge16" class="edge"><title>ReplicaSetReplicas&#45;&gt;ClaimPods</title>
<path fill="none" stroke="black" d="M615.757,-373.894C657.798,-358.555 719.103,-336.062 720,-335 736.962,-314.936 740.631,-284.449 740.726,-262.413"/>
<polygon fill="black" stroke="black" points="744.224,-262.286 740.528,-252.357 737.225,-262.424 744.224,-262.286"/>
</g>
<!-- PodReady -->
<g id="node14" class="node"><title>PodReady</title>
<g id="a_node14"><a xlink:href="https://godoc.org/k8s.io/api/core/v1#PodReady" xlink:title="Ready">
<ellipse fill="white" stroke="white" cx="409" cy="-234" rx="39.7935" ry="18"/>
<text text-anchor="middle" x="409" y="-230.3" font-family="Times,serif" font-size="14.00">Ready</text>
</a>
</g>
</g>
<!-- ReplicaSetReadyReplicas&#45;&gt;PodReady -->
<g id="edge18" class="edge"><title>ReplicaSetReadyReplicas&#45;&gt;PodReady</title>
<path fill="none" stroke="black" d="M602.616,-298.885C595.063,-296.212 587.326,-293.507 580,-291 535.883,-275.901 485.078,-259.371 450.382,-248.212"/>
<polygon fill="black" stroke="black" points="451.192,-244.796 440.6,-245.071 449.051,-251.461 451.192,-244.796"/>
</g>
<!-- ReplicaSetReadyReplicas&#45;&gt;ClaimPods -->
<g id="edge17" class="edge"><title>ReplicaSetReadyReplicas&#45;&gt;ClaimPods</title>
<path fill="none" stroke="black" d="M668.875,-298.822C681.79,-287.067 699.075,-271.336 713.252,-258.433"/>
<polygon fill="black" stroke="black" points="715.721,-260.919 720.761,-251.599 711.01,-255.742 715.721,-260.919"/>
</g>
<!-- ReplicaSetAvailableReplicas&#45;&gt;ReplicaSetReadyReplicas -->
<g id="edge9" class="edge"><title>ReplicaSetAvailableReplicas&#45;&gt;ReplicaSetReadyReplicas</title>
<path fill="none" stroke="black" d="M497.913,-370.966C525.997,-361.185 561.455,-348.836 591.068,-338.524"/>
<polygon fill="black" stroke="black" points="592.575,-341.705 600.868,-335.111 590.273,-335.094 592.575,-341.705"/>
</g>
<!-- ReplicaSetMinReadySeconds -->
<g id="node13" class="node"><title>ReplicaSetMinReadySeconds</title>
<g id="a_node13"><a xlink:href="https://godoc.org/k8s.io/api/apps/v1#ReplicaSetSpec" xlink:title="MinReadySeconds">
<ellipse fill="white" stroke="white" cx="474" cy="-317" rx="96.6831" ry="18"/>
<text text-anchor="middle" x="474" y="-313.3" font-family="Times,serif" font-size="14.00">MinReadySeconds</text>
</a>
</g>
</g>
<!-- ReplicaSetAvailableReplicas&#45;&gt;ReplicaSetMinReadySeconds -->
<g id="edge8" class="edge"><title>ReplicaSetAvailableReplicas&#45;&gt;ReplicaSetMinReadySeconds</title>
<path fill="none" stroke="black" d="M455.18,-370.697C457.995,-362.813 461.391,-353.304 464.519,-344.546"/>
<polygon fill="black" stroke="black" points="467.824,-345.699 467.891,-335.104 461.232,-343.345 467.824,-345.699"/>
</g>
<!-- ReplicaSetMinReadySeconds&#45;&gt;DeploymentMinReadySeconds -->
<g id="edge21" class="edge"><title>ReplicaSetMinReadySeconds&#45;&gt;DeploymentMinReadySeconds</title>
<path fill="none" stroke="black" stroke-dasharray="5,2" d="M412.96,-331.071C380.918,-339.541 341.816,-352.499 310,-371 241.716,-410.708 178.937,-481.031 148.422,-518.269"/>
<polygon fill="black" stroke="black" points="145.636,-516.148 142.063,-526.123 151.076,-520.553 145.636,-516.148"/>
</g>
<!-- PodScheduled -->
<g id="node15" class="node"><title>PodScheduled</title>
<g id="a_node15"><a xlink:href="https://godoc.org/k8s.io/api/core/v1#PodScheduled" xlink:title="Scheduled">
<ellipse fill="white" stroke="white" cx="409" cy="-162" rx="59.2899" ry="18"/>
<text text-anchor="middle" x="409" y="-158.3" font-family="Times,serif" font-size="14.00">Scheduled</text>
</a>
</g>
</g>
<!-- PodReady&#45;&gt;PodScheduled -->
<g id="edge13" class="edge"><title>PodReady&#45;&gt;PodScheduled</title>
<path fill="none" stroke="black" d="M409,-215.697C409,-207.983 409,-198.712 409,-190.112"/>
<polygon fill="black" stroke="black" points="412.5,-190.104 409,-180.104 405.5,-190.104 412.5,-190.104"/>
</g>
<!-- PodInitialized -->
<g id="node16" class="node"><title>PodInitialized</title>
<g id="a_node16"><a xlink:href="https://godoc.org/k8s.io/api/core/v1#PodInitialized" xlink:title="Initialized">
<ellipse fill="white" stroke="white" cx="74" cy="-162" rx="57.6901" ry="18"/>
<text text-anchor="middle" x="74" y="-158.3" font-family="Times,serif" font-size="14.00">Initialized</text>
</a>
</g>
</g>
<!-- PodReady&#45;&gt;PodInitialized -->
<g id="edge12" class="edge"><title>PodReady&#45;&gt;PodInitialized</title>
<path fill="none" stroke="black" d="M372.893,-226.491C321.299,-217.047 223.585,-198.629 141,-180 136.343,-178.949 131.516,-177.815 126.683,-176.648"/>
<polygon fill="black" stroke="black" points="127.355,-173.209 116.809,-174.223 125.686,-180.007 127.355,-173.209"/>
</g>
<!-- ContainersReady -->
<g id="node17" class="node"><title>ContainersReady</title>
<g id="a_node17"><a xlink:href="https://godoc.org/k8s.io/api/core/v1#ContainersReady" xlink:title="ContainersReady">
<ellipse fill="white" stroke="white" cx="241" cy="-162" rx="90.9839" ry="18"/>
<text text-anchor="middle" x="241" y="-158.3" font-family="Times,serif" font-size="14.00">ContainersReady</text>
</a>
</g>
</g>
<!-- PodReady&#45;&gt;ContainersReady -->
<g id="edge11" class="edge"><title>PodReady&#45;&gt;ContainersReady</title>
<path fill="none" stroke="black" d="M380.881,-221.284C355.51,-210.713 317.693,-194.955 287.774,-182.489"/>
<polygon fill="black" stroke="black" points="288.941,-179.184 278.364,-178.568 286.248,-185.645 288.941,-179.184"/>
</g>
<!-- PodReadinessGates -->
<g id="node18" class="node"><title>PodReadinessGates</title>
<g id="a_node18"><a xlink:href="https://godoc.org/k8s.io/api/core/v1#PodSpec.ReadinessGates" xlink:title="ReadinessGates">
<ellipse fill="white" stroke="white" cx="571" cy="-162" rx="85.2851" ry="18"/>
<text text-anchor="middle" x="571" y="-158.3" font-family="Times,serif" font-size="14.00">ReadinessGates</text>
</a>
</g>
</g>
<!-- PodReady&#45;&gt;PodReadinessGates -->
<g id="edge10" class="edge"><title>PodReady&#45;&gt;PodReadinessGates</title>
<path fill="none" stroke="black" d="M436.849,-220.967C461.313,-210.395 497.359,-194.82 525.928,-182.476"/>
<polygon fill="black" stroke="black" points="527.511,-185.605 535.302,-178.425 524.734,-179.179 527.511,-185.605"/>
</g>
<!-- SchedulePod -->
<g id="node24" class="node"><title>SchedulePod</title>
<g id="a_node24"><a xlink:href="https://github.com/kubernetes/kubernetes/blob/619a3985d0d43e0049d795fce223319bd06cbf07/pkg/scheduler/scheduler.go#L459-L612" xlink:title="Schedule()">
<ellipse fill="none" stroke="black" cx="732" cy="-90" rx="59.5901" ry="18"/>
<text text-anchor="middle" x="732" y="-86.3" font-family="Times,serif" font-size="14.00">Schedule()</text>
</a>
</g>
</g>
<!-- PodScheduled&#45;&gt;SchedulePod -->
<g id="edge26" class="edge"><title>PodScheduled&#45;&gt;SchedulePod</title>
<path fill="none" stroke="black" d="M452.442,-149.736C460.582,-147.74 469.036,-145.745 477,-144 561.383,-125.516 583.755,-127.101 668,-108 671.802,-107.138 675.719,-106.206 679.654,-105.238"/>
<polygon fill="black" stroke="black" points="680.579,-108.615 689.419,-102.776 678.867,-101.827 680.579,-108.615"/>
</g>
<!-- ContainerStatus -->
<g id="node19" class="node"><title>ContainerStatus</title>
<g id="a_node19"><a xlink:href="https://godoc.org/k8s.io/api/core/v1#ContainerStatus" xlink:title="ContainerStatus">
<polygon fill="white" stroke="white" points="229,-108 95,-108 95,-72 229,-72 229,-108"/>
<text text-anchor="middle" x="162" y="-86.3" font-family="Times,serif" font-size="14.00">ContainerStatus</text>
</a>
</g>
</g>
<!-- PodInitialized&#45;&gt;ContainerStatus -->
<g id="edge14" class="edge"><title>PodInitialized&#45;&gt;ContainerStatus</title>
<path fill="none" stroke="black" d="M94.4102,-144.765C105.739,-135.753 120.03,-124.385 132.55,-114.426"/>
<polygon fill="black" stroke="black" points="134.826,-117.088 140.473,-108.124 130.468,-111.61 134.826,-117.088"/>
</g>
<!-- ContainersReady&#45;&gt;ContainerStatus -->
<g id="edge15" class="edge"><title>ContainersReady&#45;&gt;ContainerStatus</title>
<path fill="none" stroke="black" d="M221.876,-144.055C211.955,-135.264 199.672,-124.38 188.818,-114.763"/>
<polygon fill="black" stroke="black" points="191.027,-112.044 181.221,-108.032 186.385,-117.283 191.027,-112.044"/>
</g>
<!-- ProbePod -->
<g id="node23" class="node"><title>ProbePod</title>
<g id="a_node23"><a xlink:href="https://github.com/kubernetes/kubernetes/blob/619a3985d0d43e0049d795fce223319bd06cbf07/pkg/kubelet/prober/prober.go#L155-L197" xlink:title="Probe()">
<ellipse fill="none" stroke="black" cx="162" cy="-18" rx="44.6926" ry="18"/>
<text text-anchor="middle" x="162" y="-14.3" font-family="Times,serif" font-size="14.00">Probe()</text>
</a>
</g>
</g>
<!-- ContainerStatus&#45;&gt;ProbePod -->
<g id="edge27" class="edge"><title>ContainerStatus&#45;&gt;ProbePod</title>
<path fill="none" stroke="black" d="M162,-71.6966C162,-63.9827 162,-54.7125 162,-46.1124"/>
<polygon fill="black" stroke="black" points="165.5,-46.1043 162,-36.1043 158.5,-46.1044 165.5,-46.1043"/>
</g>
</g>
</svg>
