<?xml version="1.0" encoding="UTF-8" standalone="no"?>
<!DOCTYPE svg PUBLIC "-//W3C//DTD SVG 1.1//EN"
 "http://www.w3.org/Graphics/SVG/1.1/DTD/svg11.dtd">
<!-- Generated by graphviz version 2.38.0 (20140413.2041)
 -->
<!-- Title: lifecycle Pages: 1 -->
<svg width="2132pt" height="730pt"
 viewBox="0.00 0.00 2132.00 730.00" xmlns="http://www.w3.org/2000/svg" xmlns:xlink="http://www.w3.org/1999/xlink">
<g id="graph0" class="graph" transform="scale(1 1) rotate(0) translate(4 726)">
<title>lifecycle</title>
<polygon fill="white" stroke="none" points="-4,4 -4,-726 2128,-726 2128,4 -4,4"/>
<g id="clust1" class="cluster"><title>cluster_service</title>
<g id="a_clust1"><a xlink:href="https://godoc.org/github.com/knative/serving/pkg/apis/serving/v1alpha1#ServiceStatus" xlink:title="Service">
<polygon fill="lightgrey" stroke="lightgrey" points="1239,-567 1239,-714 1633,-714 1633,-567 1239,-567"/>
<text text-anchor="middle" x="1436" y="-698.8" font-family="Times,serif" font-size="14.00">Service</text>
</a>
</g>
</g>
<g id="clust2" class="cluster"><title>cluster_route</title>
<g id="a_clust2"><a xlink:href="https://godoc.org/github.com/knative/serving/pkg/apis/serving/v1alpha1#RouteStatus" xlink:title="Route">
<polygon fill="lightgrey" stroke="lightgrey" points="1476,-401 1476,-559 1854,-559 1854,-401 1476,-401"/>
<text text-anchor="middle" x="1665" y="-543.8" font-family="Times,serif" font-size="14.00">Route</text>
</a>
</g>
</g>
<g id="clust3" class="cluster"><title>cluster_configuration</title>
<g id="a_clust3"><a xlink:href="https://godoc.org/github.com/knative/serving/pkg/apis/serving/v1alpha1#ConfigurationStatus" xlink:title="Configuration">
<polygon fill="lightgrey" stroke="lightgrey" points="1291,-484 1291,-559 1406,-559 1406,-484 1291,-484"/>
<text text-anchor="middle" x="1348.5" y="-543.8" font-family="Times,serif" font-size="14.00">Configuration</text>
</a>
</g>
</g>
<g id="clust4" class="cluster"><title>cluster_revision</title>
<g id="a_clust4"><a xlink:href="https://godoc.org/github.com/knative/serving/pkg/apis/serving/v1alpha1#RevisionStatus" xlink:title="Revision">
<polygon fill="lightgrey" stroke="lightgrey" points="1028,-318 1028,-476 1453,-476 1453,-318 1028,-318"/>
<text text-anchor="middle" x="1240.5" y="-460.8" font-family="Times,serif" font-size="14.00">Revision</text>
</a>
</g>
</g>
<g id="clust5" class="cluster"><title>cluster_ingress</title>
<g id="a_clust5"><a xlink:href="https://godoc.org/github.com/knative/serving/pkg/apis/networking/v1alpha1#IngressStatus" xlink:title="Ingress">
<polygon fill="lightgrey" stroke="lightgrey" points="1668,-235 1668,-393 2116,-393 2116,-235 1668,-235"/>
<text text-anchor="middle" x="1892" y="-377.8" font-family="Times,serif" font-size="14.00">Ingress</text>
</a>
</g>
</g>
<g id="clust6" class="cluster"><title>cluster_certificate</title>
<g id="a_clust6"><a xlink:href="https://godoc.org/github.com/knative/serving/pkg/apis/networking/v1alpha1#CertificateStatus" xlink:title="Certificate">
<polygon fill="lightgrey" stroke="lightgrey" points="1862,-401 1862,-476 1958,-476 1958,-401 1862,-401"/>
<text text-anchor="middle" x="1910" y="-460.8" font-family="Times,serif" font-size="14.00">Certificate</text>
</a>
</g>
</g>
<g id="clust7" class="cluster"><title>cluster_kpa</title>
<g id="a_clust7"><a xlink:href="https://godoc.org/github.com/knative/serving/pkg/apis/autoscaling/v1alpha1#PodAutoscalerStatus" xlink:title="PodAutoscaler">
<polygon fill="lightgrey" stroke="lightgrey" points="532,-235 532,-393 884,-393 884,-235 532,-235"/>
<text text-anchor="middle" x="708" y="-377.8" font-family="Times,serif" font-size="14.00">PodAutoscaler</text>
</a>
</g>
</g>
<g id="clust8" class="cluster"><title>cluster_decider</title>
<g id="a_clust8"><a xlink:href="https://godoc.org/github.com/knative/serving/pkg/autoscaler#DeciderStatus" xlink:title="Decider">
<polygon fill="linen" stroke="linen" points="210,-235 210,-310 524,-310 524,-235 210,-235"/>
<text text-anchor="middle" x="367" y="-294.8" font-family="Times,serif" font-size="14.00">Decider</text>
</a>
</g>
</g>
<g id="clust9" class="cluster"><title>cluster_metric</title>
<g id="a_clust9"><a xlink:href="https://godoc.org/github.com/knative/serving/pkg/apis/autoscaling/v1alpha1#MetricStatus" xlink:title="Metric">
<polygon fill="linen" stroke="linen" points="326,-80 326,-227 690,-227 690,-80 326,-80"/>
<text text-anchor="middle" x="508" y="-211.8" font-family="Times,serif" font-size="14.00">Metric</text>
</a>
</g>
</g>
<g id="clust10" class="cluster"><title>cluster_sks</title>
<g id="a_clust10"><a xlink:href="https://godoc.org/github.com/knative/serving/pkg/apis/networking/v1alpha1#ServerlessServiceStatus" xlink:title="ServerlessService">
<polygon fill="lightgrey" stroke="lightgrey" points="71,-318 71,-476 433,-476 433,-318 71,-318"/>
<text text-anchor="middle" x="252" y="-460.8" font-family="Times,serif" font-size="14.00">ServerlessService</text>
</a>
</g>
</g>
<g id="clust11" class="cluster"><title>cluster_pods</title>
<g id="a_clust11"><a xlink:href="https://godoc.org/k8s.io/api/core/v1#PodStatus" xlink:title="Pod (approximate)">
<polygon fill="lightblue" stroke="lightblue" points="1238,-8 1238,-227 1570,-227 1570,-8 1238,-8"/>
<text text-anchor="middle" x="1404" y="-211.8" font-family="Times,serif" font-size="14.00">Pod (approximate)</text>
</a>
</g>
</g>
<g id="clust12" class="cluster"><title>cluster_deployment</title>
<g id="a_clust12"><a xlink:href="https://godoc.org/k8s.io/api/apps/v1#DeploymentStatus" xlink:title="Deployment (approximate)">
<polygon fill="lightblue" stroke="lightblue" points="1180,-235 1180,-310 1628,-310 1628,-235 1180,-235"/>
<text text-anchor="middle" x="1404" y="-294.8" font-family="Times,serif" font-size="14.00">Deployment (approximate)</text>
</a>
</g>
</g>
<g id="clust13" class="cluster"><title>cluster_endpoints</title>
<g id="a_clust13"><a xlink:href="https://godoc.org/k8s.io/api/apps/v1#Endpoints" xlink:title="Endpoints (approximate)">
<polygon fill="lightblue" stroke="lightblue" points="8,-235 8,-310 202,-310 202,-235 8,-235"/>
<text text-anchor="middle" x="105" y="-294.8" font-family="Times,serif" font-size="14.00">Endpoints (approximate)</text>
</a>
</g>
</g>
<!-- EnableScaleToZero -->
<g id="node1" class="node"><title>EnableScaleToZero</title>
<g id="a_node1"><a xlink:href="https://godoc.org/github.com/knative/serving/pkg/autoscaler#Config.EnableScaleToZero" xlink:title="EnableScaleToZero">
<ellipse fill="white" stroke="black" cx="994" cy="-261" rx="100.182" ry="18"/>
<text text-anchor="middle" x="994" y="-257.3" font-family="Times,serif" font-size="14.00">EnableScaleToZero</text>
</a>
</g>
</g>
<!-- ServiceConditionReady -->
<g id="node2" class="node"><title>ServiceConditionReady</title>
<g id="a_node2"><a xlink:href="https://godoc.org/github.com/knative/serving/pkg/apis/serving/v1alpha1#ServiceConditionReady" xlink:title="Ready">
<ellipse fill="white" stroke="white" cx="1455" cy="-665" rx="39.7935" ry="18"/>
<text text-anchor="middle" x="1455" y="-661.3" font-family="Times,serif" font-size="14.00">Ready</text>
</a>
</g>
</g>
<!-- ServiceConditionConfigurationsReady -->
<g id="node3" class="node"><title>ServiceConditionConfigurationsReady</title>
<g id="a_node3"><a xlink:href="https://godoc.org/github.com/knative/serving/pkg/apis/serving/v1alpha1#ServiceConditionConfigurationsReady" xlink:title="ConfigurationsReady">
<ellipse fill="white" stroke="white" cx="1356" cy="-593" rx="108.581" ry="18"/>
<text text-anchor="middle" x="1356" y="-589.3" font-family="Times,serif" font-size="14.00">ConfigurationsReady</text>
</a>
</g>
</g>
<!-- ServiceConditionReady&#45;&gt;ServiceConditionConfigurationsReady -->
<g id="edge1" class="edge"><title>ServiceConditionReady&#45;&gt;ServiceConditionConfigurationsReady</title>
<path fill="none" stroke="black" d="M1434.49,-649.496C1421.01,-639.968 1403.11,-627.31 1387.81,-616.49"/>
<polygon fill="black" stroke="black" points="1389.8,-613.614 1379.62,-610.699 1385.76,-619.33 1389.8,-613.614"/>
</g>
<!-- ServiceConditionRoutesReady -->
<g id="node4" class="node"><title>ServiceConditionRoutesReady</title>
<g id="a_node4"><a xlink:href="https://godoc.org/github.com/knative/serving/pkg/apis/serving/v1alpha1#ServiceConditionRoutesReady" xlink:title="RoutesReady">
<ellipse fill="white" stroke="white" cx="1554" cy="-593" rx="71.4873" ry="18"/>
<text text-anchor="middle" x="1554" y="-589.3" font-family="Times,serif" font-size="14.00">RoutesReady</text>
</a>
</g>
</g>
<!-- ServiceConditionReady&#45;&gt;ServiceConditionRoutesReady -->
<g id="edge2" class="edge"><title>ServiceConditionReady&#45;&gt;ServiceConditionRoutesReady</title>
<path fill="none" stroke="black" d="M1475.51,-649.496C1489.18,-639.832 1507.4,-626.95 1522.84,-616.03"/>
<polygon fill="black" stroke="black" points="1524.95,-618.829 1531.09,-610.198 1520.91,-613.114 1524.95,-618.829"/>
</g>
<!-- ConfigurationConditionReady -->
<g id="node9" class="node"><title>ConfigurationConditionReady</title>
<g id="a_node9"><a xlink:href="https://godoc.org/github.com/knative/serving/pkg/apis/serving/v1alpha1#ConfigurationConditionReady" xlink:title="Ready">
<ellipse fill="white" stroke="white" cx="1348" cy="-510" rx="39.7935" ry="18"/>
<text text-anchor="middle" x="1348" y="-506.3" font-family="Times,serif" font-size="14.00">Ready</text>
</a>
</g>
</g>
<!-- ServiceConditionConfigurationsReady&#45;&gt;ConfigurationConditionReady -->
<g id="edge19" class="edge"><title>ServiceConditionConfigurationsReady&#45;&gt;ConfigurationConditionReady</title>
<path fill="none" stroke="black" d="M1354.3,-574.822C1353.25,-564.19 1351.88,-550.306 1350.69,-538.204"/>
<polygon fill="black" stroke="black" points="1354.16,-537.761 1349.69,-528.153 1347.19,-538.449 1354.16,-537.761"/>
</g>
<!-- RouteConditionReady -->
<g id="node5" class="node"><title>RouteConditionReady</title>
<g id="a_node5"><a xlink:href="https://godoc.org/github.com/knative/serving/pkg/apis/serving/v1alpha1#RouteConditionReady" xlink:title="Ready">
<ellipse fill="white" stroke="white" cx="1558" cy="-510" rx="39.7935" ry="18"/>
<text text-anchor="middle" x="1558" y="-506.3" font-family="Times,serif" font-size="14.00">Ready</text>
</a>
</g>
</g>
<!-- ServiceConditionRoutesReady&#45;&gt;RouteConditionReady -->
<g id="edge20" class="edge"><title>ServiceConditionRoutesReady&#45;&gt;RouteConditionReady</title>
<path fill="none" stroke="black" d="M1554.85,-574.822C1555.37,-564.19 1556.06,-550.306 1556.66,-538.204"/>
<polygon fill="black" stroke="black" points="1560.16,-538.314 1557.15,-528.153 1553.16,-537.968 1560.16,-538.314"/>
</g>
<!-- RouteConditionAllTrafficAssigned -->
<g id="node6" class="node"><title>RouteConditionAllTrafficAssigned</title>
<g id="a_node6"><a xlink:href="https://godoc.org/github.com/knative/serving/pkg/apis/serving/v1alpha1#RouteConditionAllTrafficAssigned" xlink:title="AllTrafficAssigned">
<ellipse fill="white" stroke="white" cx="1581" cy="-427" rx="96.6831" ry="18"/>
<text text-anchor="middle" x="1581" y="-423.3" font-family="Times,serif" font-size="14.00">AllTrafficAssigned</text>
</a>
</g>
</g>
<!-- RouteConditionReady&#45;&gt;RouteConditionAllTrafficAssigned -->
<g id="edge3" class="edge"><title>RouteConditionReady&#45;&gt;RouteConditionAllTrafficAssigned</title>
<path fill="none" stroke="black" d="M1562.88,-491.822C1565.93,-481.083 1569.92,-467.025 1573.38,-454.837"/>
<polygon fill="black" stroke="black" points="1576.76,-455.729 1576.13,-445.153 1570.03,-453.817 1576.76,-455.729"/>
</g>
<!-- RouteConditionIngressReady -->
<g id="node7" class="node"><title>RouteConditionIngressReady</title>
<g id="a_node7"><a xlink:href="https://godoc.org/github.com/knative/serving/pkg/apis/serving/v1alpha1#RouteConditionIngressReady" xlink:title="IngressReady">
<ellipse fill="white" stroke="white" cx="1771" cy="-427" rx="74.9875" ry="18"/>
<text text-anchor="middle" x="1771" y="-423.3" font-family="Times,serif" font-size="14.00">IngressReady</text>
</a>
</g>
</g>
<!-- RouteConditionReady&#45;&gt;RouteConditionIngressReady -->
<g id="edge4" class="edge"><title>RouteConditionReady&#45;&gt;RouteConditionIngressReady</title>
<path fill="none" stroke="black" d="M1580.69,-495.2C1588.73,-490.92 1598.02,-486.638 1607,-484 1641.28,-473.929 1652.96,-486.88 1687,-476 1705.72,-470.015 1724.88,-459.47 1740.17,-449.786"/>
<polygon fill="black" stroke="black" points="1742.23,-452.622 1748.69,-444.224 1738.4,-446.761 1742.23,-452.622"/>
</g>
<!-- IngressConditionReady -->
<g id="node14" class="node"><title>IngressConditionReady</title>
<g id="a_node14"><a xlink:href="https://godoc.org/github.com/knative/serving/pkg/apis/networking/v1alpha1#IngressConditionReady" xlink:title="Ready">
<ellipse fill="white" stroke="white" cx="1779" cy="-344" rx="39.7935" ry="18"/>
<text text-anchor="middle" x="1779" y="-340.3" font-family="Times,serif" font-size="14.00">Ready</text>
</a>
</g>
</g>
<!-- RouteConditionIngressReady&#45;&gt;IngressConditionReady -->
<g id="edge22" class="edge"><title>RouteConditionIngressReady&#45;&gt;IngressConditionReady</title>
<path fill="none" stroke="black" d="M1772.7,-408.822C1773.75,-398.19 1775.12,-384.306 1776.31,-372.204"/>
<polygon fill="black" stroke="black" points="1779.81,-372.449 1777.31,-362.153 1772.84,-371.761 1779.81,-372.449"/>
</g>
<!-- RouteConditionCertificateProvisioned -->
<g id="node8" class="node"><title>RouteConditionCertificateProvisioned</title>
<g id="a_node8"><a xlink:href="https://godoc.org/github.com/knative/serving/pkg/apis/serving/v1alpha1#RouteConditionCertificateProvisioned" xlink:title="CertificateProvisioned">
<ellipse fill="white" stroke="black" stroke-dasharray="5,2" cx="1731" cy="-510" rx="115.08" ry="18"/>
<text text-anchor="middle" x="1731" y="-506.3" font-family="Times,serif" font-size="14.00">CertificateProvisioned</text>
</a>
</g>
</g>
<!-- CertificateConditionReady -->
<g id="node17" class="node"><title>CertificateConditionReady</title>
<g id="a_node17"><a xlink:href="https://godoc.org/github.com/knative/serving/pkg/apis/networking/v1alpha1#CertificateConditionReady" xlink:title="Ready">
<ellipse fill="white" stroke="white" cx="1910" cy="-427" rx="39.7935" ry="18"/>
<text text-anchor="middle" x="1910" y="-423.3" font-family="Times,serif" font-size="14.00">Ready</text>
</a>
</g>
</g>
<!-- RouteConditionCertificateProvisioned&#45;&gt;CertificateConditionReady -->
<g id="edge21" class="edge"><title>RouteConditionCertificateProvisioned&#45;&gt;CertificateConditionReady</title>
<path fill="none" stroke="black" d="M1805.2,-496.218C1823.14,-491.395 1841.8,-484.844 1858,-476 1869.63,-469.652 1880.68,-460.137 1889.59,-451.249"/>
<polygon fill="black" stroke="black" points="1892.13,-453.654 1896.53,-444.014 1887.08,-448.809 1892.13,-453.654"/>
</g>
<!-- RevisionConditionReady -->
<g id="node10" class="node"><title>RevisionConditionReady</title>
<g id="a_node10"><a xlink:href="https://godoc.org/github.com/knative/serving/pkg/apis/serving/v1alpha1#RevisionConditionReady" xlink:title="Ready">
<ellipse fill="white" stroke="white" cx="1344" cy="-427" rx="39.7935" ry="18"/>
<text text-anchor="middle" x="1344" y="-423.3" font-family="Times,serif" font-size="14.00">Ready</text>
</a>
</g>
</g>
<!-- ConfigurationConditionReady&#45;&gt;RevisionConditionReady -->
<g id="edge23" class="edge"><title>ConfigurationConditionReady&#45;&gt;RevisionConditionReady</title>
<path fill="none" stroke="black" d="M1347.15,-491.822C1346.63,-481.19 1345.94,-467.306 1345.34,-455.204"/>
<polygon fill="black" stroke="black" points="1348.84,-454.968 1344.85,-445.153 1341.84,-455.314 1348.84,-454.968"/>
</g>
<!-- RevisionConditionResourcesAvailable -->
<g id="node11" class="node"><title>RevisionConditionResourcesAvailable</title>
<g id="a_node11"><a xlink:href="https://godoc.org/github.com/knative/serving/pkg/apis/serving/v1alpha1#RevisionConditionResourcesAvailable" xlink:title="ResourcesAvailable">
<ellipse fill="white" stroke="white" cx="1344" cy="-344" rx="101.282" ry="18"/>
<text text-anchor="middle" x="1344" y="-340.3" font-family="Times,serif" font-size="14.00">ResourcesAvailable</text>
</a>
</g>
</g>
<!-- RevisionConditionReady&#45;&gt;RevisionConditionResourcesAvailable -->
<g id="edge5" class="edge"><title>RevisionConditionReady&#45;&gt;RevisionConditionResourcesAvailable</title>
<path fill="none" stroke="black" d="M1344,-408.822C1344,-398.19 1344,-384.306 1344,-372.204"/>
<polygon fill="black" stroke="black" points="1347.5,-372.153 1344,-362.153 1340.5,-372.153 1347.5,-372.153"/>
</g>
<!-- RevisionConditionContainerHealthy -->
<g id="node12" class="node"><title>RevisionConditionContainerHealthy</title>
<g id="a_node12"><a xlink:href="https://godoc.org/github.com/knative/serving/pkg/apis/serving/v1alpha1#RevisionConditionContainerHealthy" xlink:title="ContainerHealthy">
<ellipse fill="white" stroke="white" cx="1130" cy="-344" rx="94.4839" ry="18"/>
<text text-anchor="middle" x="1130" y="-340.3" font-family="Times,serif" font-size="14.00">ContainerHealthy</text>
</a>
</g>
</g>
<!-- RevisionConditionReady&#45;&gt;RevisionConditionContainerHealthy -->
<g id="edge6" class="edge"><title>RevisionConditionReady&#45;&gt;RevisionConditionContainerHealthy</title>
<path fill="none" stroke="black" d="M1310.38,-417.24C1288.39,-411.186 1259.17,-402.531 1234,-393 1212.84,-384.989 1189.95,-374.617 1171.04,-365.566"/>
<polygon fill="black" stroke="black" points="1172.35,-362.312 1161.82,-361.109 1169.3,-368.614 1172.35,-362.312"/>
</g>
<!-- PodScheduled -->
<g id="node33" class="node"><title>PodScheduled</title>
<g id="a_node33"><a xlink:href="https://godoc.org/k8s.io/api/core/v1#PodScheduled" xlink:title="Scheduled">
<ellipse fill="white" stroke="white" cx="1503" cy="-34" rx="59.2899" ry="18"/>
<text text-anchor="middle" x="1503" y="-30.3" font-family="Times,serif" font-size="14.00">Scheduled</text>
</a>
</g>
</g>
<!-- RevisionConditionResourcesAvailable&#45;&gt;PodScheduled -->
<g id="edge27" class="edge"><title>RevisionConditionResourcesAvailable&#45;&gt;PodScheduled</title>
<path fill="none" stroke="black" d="M1440.13,-338.249C1518.82,-333.347 1619.19,-324.366 1632,-310 1682.52,-253.363 1589.66,-103.044 1571,-80 1563.07,-70.2007 1552.42,-61.7732 1541.91,-54.9491"/>
<polygon fill="black" stroke="black" points="1543.54,-51.8389 1533.18,-49.599 1539.88,-57.8077 1543.54,-51.8389"/>
</g>
<!-- ContainerStatus -->
<g id="node36" class="node"><title>ContainerStatus</title>
<g id="a_node36"><a xlink:href="https://godoc.org/k8s.io/api/core/v1#ContainerStatus" xlink:title="ContainerStatus">
<ellipse fill="white" stroke="white" cx="1333" cy="-34" rx="87.1846" ry="18"/>
<text text-anchor="middle" x="1333" y="-30.3" font-family="Times,serif" font-size="14.00">ContainerStatus</text>
</a>
</g>
</g>
<!-- RevisionConditionResourcesAvailable&#45;&gt;ContainerStatus -->
<g id="edge26" class="edge"><title>RevisionConditionResourcesAvailable&#45;&gt;ContainerStatus</title>
<path fill="none" stroke="black" d="M1286.57,-329.123C1269.4,-325.229 1250.49,-321.191 1233,-318 1220.42,-315.704 1184.39,-319.653 1176,-310 1125.5,-251.918 1218.38,-99.835 1237,-80 1247.64,-68.6598 1261.72,-59.9033 1275.8,-53.2603"/>
<polygon fill="black" stroke="black" points="1277.28,-56.432 1285.02,-49.1942 1274.46,-50.0273 1277.28,-56.432"/>
</g>
<!-- DeploymentProgressing -->
<g id="node38" class="node"><title>DeploymentProgressing</title>
<g id="a_node38"><a xlink:href="https://godoc.org/k8s.io/api/apps/v1#DeploymentProgressing" xlink:title="Progressing">
<ellipse fill="white" stroke="white" cx="1429" cy="-261" rx="66.8882" ry="18"/>
<text text-anchor="middle" x="1429" y="-257.3" font-family="Times,serif" font-size="14.00">Progressing</text>
</a>
</g>
</g>
<!-- RevisionConditionResourcesAvailable&#45;&gt;DeploymentProgressing -->
<g id="edge28" class="edge"><title>RevisionConditionResourcesAvailable&#45;&gt;DeploymentProgressing</title>
<path fill="none" stroke="black" d="M1361.61,-326.217C1374,-314.409 1390.75,-298.449 1404.45,-285.394"/>
<polygon fill="black" stroke="black" points="1406.88,-287.917 1411.7,-278.485 1402.05,-282.85 1406.88,-287.917"/>
</g>
<!-- RevisionConditionContainerHealthy&#45;&gt;ContainerStatus -->
<g id="edge25" class="edge"><title>RevisionConditionContainerHealthy&#45;&gt;ContainerStatus</title>
<path fill="none" stroke="black" d="M1129.02,-325.845C1127.34,-278.343 1129.79,-144.366 1205,-80 1221.07,-66.2459 1241.62,-56.604 1261.53,-49.8817"/>
<polygon fill="black" stroke="black" points="1262.75,-53.1665 1271.22,-46.811 1260.63,-46.493 1262.75,-53.1665"/>
</g>
<!-- RevisionConditionActive -->
<g id="node13" class="node"><title>RevisionConditionActive</title>
<g id="a_node13"><a xlink:href="https://godoc.org/github.com/knative/serving/pkg/apis/serving/v1alpha1#RevisionConditionActive" xlink:title="Active">
<ellipse fill="white" stroke="black" stroke-dasharray="5,2" cx="1076" cy="-427" rx="40.0939" ry="18"/>
<text text-anchor="middle" x="1076" y="-423.3" font-family="Times,serif" font-size="14.00">Active</text>
</a>
</g>
</g>
<!-- PodAutoscalerConditionReady -->
<g id="node18" class="node"><title>PodAutoscalerConditionReady</title>
<g id="a_node18"><a xlink:href="https://godoc.org/github.com/knative/serving/pkg/apis/autoscaling/v1alpha1#PodAutoscalerConditionReady" xlink:title="Ready">
<ellipse fill="white" stroke="white" cx="580" cy="-344" rx="39.7935" ry="18"/>
<text text-anchor="middle" x="580" y="-340.3" font-family="Times,serif" font-size="14.00">Ready</text>
</a>
</g>
</g>
<!-- RevisionConditionActive&#45;&gt;PodAutoscalerConditionReady -->
<g id="edge24" class="edge"><title>RevisionConditionActive&#45;&gt;PodAutoscalerConditionReady</title>
<path fill="none" stroke="black" d="M1035.71,-426.524C939.876,-427.217 700.976,-425.522 629,-393 617.249,-387.69 606.673,-378.285 598.379,-369.198"/>
<polygon fill="black" stroke="black" points="600.869,-366.725 591.706,-361.406 595.552,-371.278 600.869,-366.725"/>
</g>
<!-- IngressConditionNetworkConfigured -->
<g id="node15" class="node"><title>IngressConditionNetworkConfigured</title>
<g id="a_node15"><a xlink:href="https://godoc.org/github.com/knative/serving/pkg/apis/networking/v1alpha1#IngressConditionNetworkConfigured" xlink:title="NetworkConfigured">
<ellipse fill="white" stroke="white" cx="1779" cy="-261" rx="103.182" ry="18"/>
<text text-anchor="middle" x="1779" y="-257.3" font-family="Times,serif" font-size="14.00">NetworkConfigured</text>
</a>
</g>
</g>
<!-- IngressConditionReady&#45;&gt;IngressConditionNetworkConfigured -->
<g id="edge7" class="edge"><title>IngressConditionReady&#45;&gt;IngressConditionNetworkConfigured</title>
<path fill="none" stroke="black" d="M1779,-325.822C1779,-315.19 1779,-301.306 1779,-289.204"/>
<polygon fill="black" stroke="black" points="1782.5,-289.153 1779,-279.153 1775.5,-289.153 1782.5,-289.153"/>
</g>
<!-- IngressConditionLoadBalancerReady -->
<g id="node16" class="node"><title>IngressConditionLoadBalancerReady</title>
<g id="a_node16"><a xlink:href="https://godoc.org/github.com/knative/serving/pkg/apis/networking/v1alpha1#IngressConditionLoadBalancerReady" xlink:title="LoadBalancerReady">
<ellipse fill="white" stroke="white" cx="2004" cy="-261" rx="103.982" ry="18"/>
<text text-anchor="middle" x="2004" y="-257.3" font-family="Times,serif" font-size="14.00">LoadBalancerReady</text>
</a>
</g>
</g>
<!-- IngressConditionReady&#45;&gt;IngressConditionLoadBalancerReady -->
<g id="edge8" class="edge"><title>IngressConditionReady&#45;&gt;IngressConditionLoadBalancerReady</title>
<path fill="none" stroke="black" d="M1812.65,-334.176C1835.06,-328.033 1865.05,-319.3 1891,-310 1914.14,-301.707 1939.37,-291.143 1960.1,-282.038"/>
<polygon fill="black" stroke="black" points="1961.56,-285.22 1969.29,-277.971 1958.73,-278.819 1961.56,-285.22"/>
</g>
<!-- PodAutoscalerConditionActive -->
<g id="node19" class="node"><title>PodAutoscalerConditionActive</title>
<g id="a_node19"><a xlink:href="https://godoc.org/github.com/knative/serving/pkg/apis/autoscaling/v1alpha1#PodAutoscalerConditionActive" xlink:title="Active">
<ellipse fill="white" stroke="black" stroke-dasharray="5,2" cx="580" cy="-261" rx="40.0939" ry="18"/>
<text text-anchor="middle" x="580" y="-257.3" font-family="Times,serif" font-size="14.00">Active</text>
</a>
</g>
</g>
<!-- PodAutoscalerConditionReady&#45;&gt;PodAutoscalerConditionActive -->
<g id="edge11" class="edge"><title>PodAutoscalerConditionReady&#45;&gt;PodAutoscalerConditionActive</title>
<path fill="none" stroke="black" d="M580,-325.822C580,-315.19 580,-301.306 580,-289.204"/>
<polygon fill="black" stroke="black" points="583.5,-289.153 580,-279.153 576.5,-289.153 583.5,-289.153"/>
</g>
<!-- ServerlessServiceConditionReady -->
<g id="node29" class="node"><title>ServerlessServiceConditionReady</title>
<g id="a_node29"><a xlink:href="https://godoc.org/github.com/knative/serving/pkg/apis/networking/v1alpha1#ServerlessServiceConditionReady" xlink:title="Ready">
<ellipse fill="white" stroke="white" cx="385" cy="-427" rx="39.7935" ry="18"/>
<text text-anchor="middle" x="385" y="-423.3" font-family="Times,serif" font-size="14.00">Ready</text>
</a>
</g>
</g>
<!-- PodAutoscalerConditionActive&#45;&gt;ServerlessServiceConditionReady -->
<g id="edge29" class="edge"><title>PodAutoscalerConditionActive&#45;&gt;ServerlessServiceConditionReady</title>
<path fill="none" stroke="black" d="M564.041,-277.749C537.895,-303.216 483.847,-354.472 434,-393 428.33,-397.383 422.104,-401.831 416.049,-405.984"/>
<polygon fill="black" stroke="black" points="413.728,-403.327 407.384,-411.813 417.635,-409.135 413.728,-403.327"/>
</g>
<!-- PodAutoscalerMinScale -->
<g id="node20" class="node"><title>PodAutoscalerMinScale</title>
<g id="a_node20"><a xlink:href="https://godoc.org/github.com/knative/serving/pkg/apis/autoscaling#MinScaleAnnotationKey" xlink:title="MinScale">
<ellipse fill="white" stroke="white" cx="822" cy="-261" rx="53.8905" ry="18"/>
<text text-anchor="middle" x="822" y="-257.3" font-family="Times,serif" font-size="14.00">MinScale</text>
</a>
</g>
</g>
<!-- PodAutoscalerMaxScale -->
<g id="node21" class="node"><title>PodAutoscalerMaxScale</title>
<g id="a_node21"><a xlink:href="https://godoc.org/github.com/knative/serving/pkg/apis/autoscaling#MaxScaleAnnotationKey" xlink:title="MaxScale">
<ellipse fill="white" stroke="white" cx="694" cy="-261" rx="55.7903" ry="18"/>
<text text-anchor="middle" x="694" y="-257.3" font-family="Times,serif" font-size="14.00">MaxScale</text>
</a>
</g>
</g>
<!-- PodAutoscalerDesiredScale -->
<g id="node22" class="node"><title>PodAutoscalerDesiredScale</title>
<ellipse fill="white" stroke="white" cx="709" cy="-344" rx="71.4873" ry="18"/>
<text text-anchor="middle" x="709" y="-340.3" font-family="Times,serif" font-size="14.00">DesiredScale</text>
</g>
<!-- PodAutoscalerDesiredScale&#45;&gt;EnableScaleToZero -->
<g id="edge31" class="edge"><title>PodAutoscalerDesiredScale&#45;&gt;EnableScaleToZero</title>
<path fill="none" stroke="black" d="M771.62,-335.264C806.399,-330.025 850.157,-321.862 888,-310 910.53,-302.938 934.582,-292.319 954.07,-282.864"/>
<polygon fill="black" stroke="black" points="955.825,-285.9 963.244,-278.336 952.727,-279.623 955.825,-285.9"/>
</g>
<!-- PodAutoscalerDesiredScale&#45;&gt;PodAutoscalerMinScale -->
<g id="edge9" class="edge"><title>PodAutoscalerDesiredScale&#45;&gt;PodAutoscalerMinScale</title>
<path fill="none" stroke="black" d="M733.893,-327.046C741.98,-321.737 750.942,-315.719 759,-310 770.502,-301.836 782.902,-292.508 793.633,-284.26"/>
<polygon fill="black" stroke="black" points="796.063,-286.805 801.832,-277.919 791.781,-281.268 796.063,-286.805"/>
</g>
<!-- PodAutoscalerDesiredScale&#45;&gt;PodAutoscalerMaxScale -->
<g id="edge10" class="edge"><title>PodAutoscalerDesiredScale&#45;&gt;PodAutoscalerMaxScale</title>
<path fill="none" stroke="black" d="M705.819,-325.822C703.85,-315.19 701.279,-301.306 699.038,-289.204"/>
<polygon fill="black" stroke="black" points="702.439,-288.349 697.177,-279.153 695.556,-289.623 702.439,-288.349"/>
</g>
<!-- DeciderDesiredScale -->
<g id="node23" class="node"><title>DeciderDesiredScale</title>
<g id="a_node23"><a xlink:href="https://godoc.org/github.com/knative/serving/pkg/autoscaler#DeciderStatus.DesiredScale" xlink:title="DesiredScale">
<polygon fill="white" stroke="white" points="516,-279 406,-279 406,-243 516,-243 516,-279"/>
<text text-anchor="middle" x="461" y="-257.3" font-family="Times,serif" font-size="14.00">DesiredScale</text>
</a>
</g>
</g>
<!-- PodAutoscalerDesiredScale&#45;&gt;DeciderDesiredScale -->
<g id="edge30" class="edge"><title>PodAutoscalerDesiredScale&#45;&gt;DeciderDesiredScale</title>
<path fill="none" stroke="black" d="M669.979,-328.886C657.088,-324.743 642.572,-320.624 629,-318 584.789,-309.453 570.294,-325.455 528,-310 513.184,-304.586 498.703,-294.933 487.017,-285.697"/>
<polygon fill="black" stroke="black" points="488.978,-282.777 479.037,-279.111 484.522,-288.176 488.978,-282.777"/>
</g>
<!-- MetricStableWindow -->
<g id="node27" class="node"><title>MetricStableWindow</title>
<g id="a_node27"><a xlink:href="https://godoc.org/github.com/knative/serving/pkg/apis/autoscaling/v1alpha1#MetricStableWindow" xlink:title="StableWindow">
<polygon fill="white" stroke="white" points="453.5,-196 334.5,-196 334.5,-160 453.5,-160 453.5,-196"/>
<text text-anchor="middle" x="394" y="-174.3" font-family="Times,serif" font-size="14.00">StableWindow</text>
</a>
</g>
</g>
<!-- DeciderDesiredScale&#45;&gt;MetricStableWindow -->
<g id="edge32" class="edge"><title>DeciderDesiredScale&#45;&gt;MetricStableWindow</title>
<path fill="none" stroke="black" d="M446.791,-242.822C437.464,-231.546 425.11,-216.611 414.699,-204.024"/>
<polygon fill="black" stroke="black" points="417.259,-201.628 408.188,-196.153 411.865,-206.09 417.259,-201.628"/>
</g>
<!-- MetricPanicWindow -->
<g id="node28" class="node"><title>MetricPanicWindow</title>
<g id="a_node28"><a xlink:href="https://godoc.org/github.com/knative/serving/pkg/apis/autoscaling/v1alpha1#MetricPanicWindow" xlink:title="PanicWindow">
<polygon fill="white" stroke="white" points="584.5,-196 471.5,-196 471.5,-160 584.5,-160 584.5,-196"/>
<text text-anchor="middle" x="528" y="-174.3" font-family="Times,serif" font-size="14.00">PanicWindow</text>
</a>
</g>
</g>
<!-- DeciderDesiredScale&#45;&gt;MetricPanicWindow -->
<g id="edge33" class="edge"><title>DeciderDesiredScale&#45;&gt;MetricPanicWindow</title>
<path fill="none" stroke="black" d="M475.209,-242.822C484.536,-231.546 496.89,-216.611 507.301,-204.024"/>
<polygon fill="black" stroke="black" points="510.135,-206.09 513.812,-196.153 504.741,-201.628 510.135,-206.09"/>
</g>
<!-- DeciderExcessBurstCapacity -->
<g id="node24" class="node"><title>DeciderExcessBurstCapacity</title>
<g id="a_node24"><a xlink:href="https://godoc.org/github.com/knative/serving/pkg/autoscaler#DeciderStatus.ExcessBurstCapacity" xlink:title="ExcessBurstCapacity">
<polygon fill="white" stroke="white" points="388,-279 218,-279 218,-243 388,-243 388,-279"/>
<text text-anchor="middle" x="303" y="-257.3" font-family="Times,serif" font-size="14.00">ExcessBurstCapacity</text>
</a>
</g>
</g>
<!-- MetricConditionReady -->
<g id="node25" class="node"><title>MetricConditionReady</title>
<g id="a_node25"><a xlink:href="https://godoc.org/github.com/knative/serving/pkg/apis/autoscaling/v1alpha1#MetricConditionReady" xlink:title="Ready">
<ellipse fill="white" stroke="white" cx="642" cy="-178" rx="39.7935" ry="18"/>
<text text-anchor="middle" x="642" y="-174.3" font-family="Times,serif" font-size="14.00">Ready</text>
</a>
</g>
</g>
<!-- MetricConditionActive -->
<g id="node26" class="node"><title>MetricConditionActive</title>
<g id="a_node26"><a xlink:href="https://godoc.org/github.com/knative/serving/pkg/apis/autoscaling/v1alpha1#MetricConditionActive" xlink:title="Active">
<ellipse fill="white" stroke="white" cx="642" cy="-106" rx="40.0939" ry="18"/>
<text text-anchor="middle" x="642" y="-102.3" font-family="Times,serif" font-size="14.00">Active</text>
</a>
</g>
</g>
<!-- MetricConditionReady&#45;&gt;MetricConditionActive -->
<g id="edge12" class="edge"><title>MetricConditionReady&#45;&gt;MetricConditionActive</title>
<path fill="none" stroke="black" d="M642,-159.697C642,-151.983 642,-142.712 642,-134.112"/>
<polygon fill="black" stroke="black" points="645.5,-134.104 642,-124.104 638.5,-134.104 645.5,-134.104"/>
</g>
<!-- ServerlessServiceConditionEndspointsPopulated -->
<g id="node30" class="node"><title>ServerlessServiceConditionEndspointsPopulated</title>
<g id="a_node30"><a xlink:href="https://godoc.org/github.com/knative/serving/pkg/apis/networking/v1alpha1#ServerlessServiceConditionEndspointsPopulated" xlink:title="EndpointsPopulated (int)">
<ellipse fill="white" stroke="white" cx="206" cy="-344" rx="126.978" ry="18"/>
<text text-anchor="middle" x="206" y="-340.3" font-family="Times,serif" font-size="14.00">EndpointsPopulated (int)</text>
</a>
</g>
</g>
<!-- ServerlessServiceConditionReady&#45;&gt;ServerlessServiceConditionEndspointsPopulated -->
<g id="edge13" class="edge"><title>ServerlessServiceConditionReady&#45;&gt;ServerlessServiceConditionEndspointsPopulated</title>
<path fill="none" stroke="black" d="M357.814,-413.698C329.564,-400.915 284.872,-380.691 251.28,-365.49"/>
<polygon fill="black" stroke="black" points="252.676,-362.28 242.122,-361.346 249.79,-368.657 252.676,-362.28"/>
</g>
<!-- ServerlessServiceMode -->
<g id="node31" class="node"><title>ServerlessServiceMode</title>
<g id="a_node31"><a xlink:href="https://godoc.org/github.com/knative/serving/pkg/apis/networking/v1alpha1#ServerlessServiceSpec.Mode" xlink:title="Mode">
<ellipse fill="white" stroke="white" cx="388" cy="-344" rx="37.0935" ry="18"/>
<text text-anchor="middle" x="388" y="-340.3" font-family="Times,serif" font-size="14.00">Mode</text>
</a>
</g>
</g>
<!-- ServerlessServiceConditionReady&#45;&gt;ServerlessServiceMode -->
<g id="edge14" class="edge"><title>ServerlessServiceConditionReady&#45;&gt;ServerlessServiceMode</title>
<path fill="none" stroke="black" d="M385.636,-408.822C386.03,-398.19 386.544,-384.306 386.992,-372.204"/>
<polygon fill="black" stroke="black" points="390.492,-372.276 387.365,-362.153 383.497,-372.017 390.492,-372.276"/>
</g>
<!-- EndpointsSubsets -->
<g id="node40" class="node"><title>EndpointsSubsets</title>
<g id="a_node40"><a xlink:href="https://godoc.org/k8s.io/api/apps/v1#Endpoints.Subsets" xlink:title="Subsets">
<ellipse fill="white" stroke="white" cx="147" cy="-261" rx="47.3916" ry="18"/>
<text text-anchor="middle" x="147" y="-257.3" font-family="Times,serif" font-size="14.00">Subsets</text>
</a>
</g>
</g>
<!-- ServerlessServiceConditionEndspointsPopulated&#45;&gt;EndpointsSubsets -->
<g id="edge34" class="edge"><title>ServerlessServiceConditionEndspointsPopulated&#45;&gt;EndpointsSubsets</title>
<path fill="none" stroke="black" d="M193.488,-325.822C185.243,-314.502 174.312,-299.496 165.121,-286.878"/>
<polygon fill="black" stroke="black" points="167.808,-284.622 159.091,-278.599 162.149,-288.743 167.808,-284.622"/>
</g>
<!-- ServerlessServiceMode&#45;&gt;PodAutoscalerDesiredScale -->
<g id="edge36" class="edge"><title>ServerlessServiceMode&#45;&gt;PodAutoscalerDesiredScale</title>
<path fill="none" stroke="black" d="M414.707,-356.649C443.958,-369.746 492.628,-389.343 537,-397 555.176,-400.136 601.957,-400.829 620,-397 642.171,-392.295 664.083,-379.377 680.617,-367.473"/>
<polygon fill="black" stroke="black" points="682.837,-370.183 688.746,-361.39 678.643,-364.579 682.837,-370.183"/>
</g>
<!-- ServerlessServiceMode&#45;&gt;DeciderExcessBurstCapacity -->
<g id="edge35" class="edge"><title>ServerlessServiceMode&#45;&gt;DeciderExcessBurstCapacity</title>
<path fill="none" stroke="black" d="M371.611,-327.382C359.4,-315.746 342.493,-299.635 328.518,-286.317"/>
<polygon fill="black" stroke="black" points="330.758,-283.617 321.104,-279.252 325.929,-288.685 330.758,-283.617"/>
</g>
<!-- PodReady -->
<g id="node32" class="node"><title>PodReady</title>
<g id="a_node32"><a xlink:href="https://godoc.org/k8s.io/api/core/v1#PodReady" xlink:title="Ready">
<ellipse fill="white" stroke="white" cx="1504" cy="-178" rx="39.7935" ry="18"/>
<text text-anchor="middle" x="1504" y="-174.3" font-family="Times,serif" font-size="14.00">Ready</text>
</a>
</g>
</g>
<!-- PodInitialized -->
<g id="node34" class="node"><title>PodInitialized</title>
<g id="a_node34"><a xlink:href="https://godoc.org/k8s.io/api/core/v1#PodInitialized" xlink:title="Initialized">
<ellipse fill="white" stroke="white" cx="1504" cy="-106" rx="57.6901" ry="18"/>
<text text-anchor="middle" x="1504" y="-102.3" font-family="Times,serif" font-size="14.00">Initialized</text>
</a>
</g>
</g>
<!-- PodReady&#45;&gt;PodInitialized -->
<g id="edge16" class="edge"><title>PodReady&#45;&gt;PodInitialized</title>
<path fill="none" stroke="black" d="M1504,-159.697C1504,-151.983 1504,-142.712 1504,-134.112"/>
<polygon fill="black" stroke="black" points="1507.5,-134.104 1504,-124.104 1500.5,-134.104 1507.5,-134.104"/>
</g>
<!-- ContainersReady -->
<g id="node35" class="node"><title>ContainersReady</title>
<g id="a_node35"><a xlink:href="https://godoc.org/k8s.io/api/core/v1#ContainersReady" xlink:title="ContainersReady">
<ellipse fill="white" stroke="white" cx="1337" cy="-106" rx="90.9839" ry="18"/>
<text text-anchor="middle" x="1337" y="-102.3" font-family="Times,serif" font-size="14.00">ContainersReady</text>
</a>
</g>
</g>
<!-- PodReady&#45;&gt;ContainersReady -->
<g id="edge15" class="edge"><title>PodReady&#45;&gt;ContainersReady</title>
<path fill="none" stroke="black" d="M1475.67,-165.125C1450.4,-154.531 1412.91,-138.82 1383.29,-126.402"/>
<polygon fill="black" stroke="black" points="1384.55,-123.134 1373.97,-122.497 1381.84,-129.59 1384.55,-123.134"/>
</g>
<!-- PodInitialized&#45;&gt;PodScheduled -->
<g id="edge17" class="edge"><title>PodInitialized&#45;&gt;PodScheduled</title>
<path fill="none" stroke="black" d="M1503.75,-87.6966C1503.64,-79.9827 1503.51,-70.7125 1503.39,-62.1124"/>
<polygon fill="black" stroke="black" points="1506.89,-62.0533 1503.24,-52.1043 1499.89,-62.1533 1506.89,-62.0533"/>
</g>
<!-- ContainersReady&#45;&gt;ContainerStatus -->
<g id="edge18" class="edge"><title>ContainersReady&#45;&gt;ContainerStatus</title>
<path fill="none" stroke="black" d="M1336.01,-87.6966C1335.57,-79.9827 1335.04,-70.7125 1334.55,-62.1124"/>
<polygon fill="black" stroke="black" points="1338.04,-61.8883 1333.98,-52.1043 1331.05,-62.2878 1338.04,-61.8883"/>
</g>
<!-- DeploymentAvailable -->
<g id="node37" class="node"><title>DeploymentAvailable</title>
<g id="a_node37"><a xlink:href="https://godoc.org/k8s.io/api/apps/v1#DeploymentAvailable" xlink:title="Available">
<ellipse fill="white" stroke="white" cx="1567" cy="-261" rx="53.0913" ry="18"/>
<text text-anchor="middle" x="1567" y="-257.3" font-family="Times,serif" font-size="14.00">Available</text>
</a>
</g>
</g>
<!-- DeploymentAvailable&#45;&gt;PodReady -->
<g id="edge37" class="edge"><title>DeploymentAvailable&#45;&gt;PodReady</title>
<path fill="none" stroke="black" d="M1553.95,-243.217C1544.96,-231.661 1532.88,-216.128 1522.85,-203.233"/>
<polygon fill="black" stroke="black" points="1525.51,-200.954 1516.61,-195.209 1519.98,-205.251 1525.51,-200.954"/>
</g>
<!-- DeploymentReplicaFailure -->
<g id="node39" class="node"><title>DeploymentReplicaFailure</title>
<g id="a_node39"><a xlink:href="https://godoc.org/k8s.io/api/apps/v1#DeploymentReplicaFailure" xlink:title="ReplicaFailure">
<ellipse fill="white" stroke="white" cx="1266" cy="-261" rx="77.9862" ry="18"/>
<text text-anchor="middle" x="1266" y="-257.3" font-family="Times,serif" font-size="14.00">ReplicaFailure</text>
</a>
</g>
</g>
</g>
</svg>
