<?xml version="1.0" encoding="UTF-8" standalone="no"?>
<!DOCTYPE svg PUBLIC "-//W3C//DTD SVG 1.1//EN"
 "http://www.w3.org/Graphics/SVG/1.1/DTD/svg11.dtd">
<!-- Generated by graphviz version 2.38.0 (20140413.2041)
 -->
<!-- Title: lifecycle Pages: 1 -->
<svg width="1055pt" height="337pt"
 viewBox="0.00 0.00 1055.09 337.00" xmlns="http://www.w3.org/2000/svg" xmlns:xlink="http://www.w3.org/1999/xlink">
<g id="graph0" class="graph" transform="scale(1 1) rotate(0) translate(4 333)">
<title>lifecycle</title>
<polygon fill="white" stroke="none" points="-4,4 -4,-333 1051.09,-333 1051.09,4 -4,4"/>
<g id="clust1" class="cluster"><title>cluster_kpa</title>
<g id="a_clust1"><a xlink:href="https://godoc.org/github.com/knative/serving/pkg/apis/autoscaling/v1alpha1#PodAutoscalerStatus" xlink:title="PodAutoscaler">
<polygon fill="lightgrey" stroke="lightgrey" points="208.091,-91 208.091,-321 432.091,-321 432.091,-91 208.091,-91"/>
<text text-anchor="middle" x="320.091" y="-305.8" font-family="Times,serif" font-size="14.00">PodAutoscaler</text>
</a>
</g>
</g>
<g id="clust2" class="cluster"><title>cluster_decider</title>
<g id="a_clust2"><a xlink:href="https://godoc.org/github.com/knative/serving/pkg/autoscaler#DeciderStatus" xlink:title="Decider">
<polygon fill="linen" stroke="linen" points="440.091,-91 440.091,-166 837.091,-166 837.091,-91 440.091,-91"/>
<text text-anchor="middle" x="638.591" y="-150.8" font-family="Times,serif" font-size="14.00">Decider</text>
</a>
</g>
</g>
<g id="clust3" class="cluster"><title>cluster_metric</title>
<g id="a_clust3"><a xlink:href="https://godoc.org/github.com/knative/serving/pkg/apis/autoscaling/v1alpha1#MetricStatus" xlink:title="Metric">
<polygon fill="linen" stroke="linen" points="353.091,-8 353.091,-83 688.091,-83 688.091,-8 353.091,-8"/>
<text text-anchor="middle" x="520.591" y="-67.8" font-family="Times,serif" font-size="14.00">Metric</text>
</a>
</g>
</g>
<g id="clust4" class="cluster"><title>cluster_sks</title>
<g id="a_clust4"><a xlink:href="https://godoc.org/github.com/knative/serving/pkg/apis/networking/v1alpha1#ServerlessServiceStatus" xlink:title="ServerlessService">
<polygon fill="lightgrey" stroke="lightgrey" points="440.091,-174 440.091,-321 693.091,-321 693.091,-174 440.091,-174"/>
<text text-anchor="middle" x="566.591" y="-305.8" font-family="Times,serif" font-size="14.00">ServerlessService</text>
</a>
</g>
</g>
<g id="clust5" class="cluster"><title>cluster_endpoints</title>
<g id="a_clust5"><a xlink:href="https://godoc.org/k8s.io/api/apps/v1#Endpoints" xlink:title="Endpoints (approximate)">
<polygon fill="lightblue" stroke="lightblue" points="845.091,-91 845.091,-166 1039.09,-166 1039.09,-91 845.091,-91"/>
<text text-anchor="middle" x="942.091" y="-150.8" font-family="Times,serif" font-size="14.00">Endpoints (approximate)</text>
</a>
</g>
</g>
<!-- EnableScaleToZero -->
<g id="node1" class="node"><title>EnableScaleToZero</title>
<g id="a_node1"><a xlink:href="https://godoc.org/github.com/knative/serving/pkg/autoscaler#Config.EnableScaleToZero" xlink:title="EnableScaleToZero">
<ellipse fill="white" stroke="black" cx="100.091" cy="-117" rx="100.182" ry="18"/>
<text text-anchor="middle" x="100.091" y="-113.3" font-family="Times,serif" font-size="14.00">EnableScaleToZero</text>
</a>
</g>
</g>
<!-- PodAutoscalerConditionReady -->
<g id="node2" class="node"><title>PodAutoscalerConditionReady</title>
<g id="a_node2"><a xlink:href="https://godoc.org/github.com/knative/serving/pkg/apis/autoscaling/v1alpha1#PodAutoscalerConditionReady" xlink:title="Ready">
<ellipse fill="white" stroke="white" cx="384.091" cy="-272" rx="39.7935" ry="18"/>
<text text-anchor="middle" x="384.091" y="-268.3" font-family="Times,serif" font-size="14.00">Ready</text>
</a>
</g>
</g>
<!-- PodAutoscalerConditionActive -->
<g id="node3" class="node"><title>PodAutoscalerConditionActive</title>
<g id="a_node3"><a xlink:href="https://godoc.org/github.com/knative/serving/pkg/apis/autoscaling/v1alpha1#PodAutoscalerConditionActive" xlink:title="Active">
<ellipse fill="white" stroke="black" stroke-dasharray="5,2" cx="384.091" cy="-200" rx="40.0939" ry="18"/>
<text text-anchor="middle" x="384.091" y="-196.3" font-family="Times,serif" font-size="14.00">Active</text>
</a>
</g>
</g>
<!-- PodAutoscalerConditionReady&#45;&gt;PodAutoscalerConditionActive -->
<g id="edge1" class="edge"><title>PodAutoscalerConditionReady&#45;&gt;PodAutoscalerConditionActive</title>
<path fill="none" stroke="black" d="M384.091,-253.697C384.091,-245.983 384.091,-236.712 384.091,-228.112"/>
<polygon fill="black" stroke="black" points="387.591,-228.104 384.091,-218.104 380.591,-228.104 387.591,-228.104"/>
</g>
<!-- PodAutoscalerMinScale -->
<g id="node4" class="node"><title>PodAutoscalerMinScale</title>
<g id="a_node4"><a xlink:href="https://godoc.org/github.com/knative/serving/pkg/apis/autoscaling#MinScaleAnnotationKey" xlink:title="MinScale">
<polygon fill="white" stroke="white" points="423.591,-135 340.591,-135 340.591,-99 423.591,-99 423.591,-135"/>
<text text-anchor="middle" x="382.091" y="-113.3" font-family="Times,serif" font-size="14.00">MinScale</text>
</a>
</g>
</g>
<!-- PodAutoscalerConditionActive&#45;&gt;PodAutoscalerMinScale -->
<g id="edge4" class="edge"><title>PodAutoscalerConditionActive&#45;&gt;PodAutoscalerMinScale</title>
<path fill="none" stroke="black" d="M383.667,-181.822C383.404,-171.19 383.062,-157.306 382.763,-145.204"/>
<polygon fill="black" stroke="black" points="386.261,-145.064 382.515,-135.153 379.263,-145.237 386.261,-145.064"/>
</g>
<!-- ServerlessServiceConditionReady -->
<g id="node11" class="node"><title>ServerlessServiceConditionReady</title>
<g id="a_node11"><a xlink:href="https://godoc.org/github.com/knative/serving/pkg/apis/networking/v1alpha1#ServerlessServiceConditionReady" xlink:title="Ready">
<ellipse fill="white" stroke="white" cx="488.091" cy="-272" rx="39.7935" ry="18"/>
<text text-anchor="middle" x="488.091" y="-268.3" font-family="Times,serif" font-size="14.00">Ready</text>
</a>
</g>
</g>
<!-- PodAutoscalerConditionActive&#45;&gt;ServerlessServiceConditionReady -->
<g id="edge7" class="edge"><title>PodAutoscalerConditionActive&#45;&gt;ServerlessServiceConditionReady</title>
<path fill="none" stroke="black" d="M405.36,-215.315C420.636,-225.597 441.43,-239.594 458.349,-250.982"/>
<polygon fill="black" stroke="black" points="456.544,-253.985 466.794,-256.666 460.453,-248.178 456.544,-253.985"/>
</g>
<!-- ServerlessServiceMode -->
<g id="node13" class="node"><title>ServerlessServiceMode</title>
<g id="a_node13"><a xlink:href="https://godoc.org/github.com/knative/serving/pkg/apis/networking/v1alpha1#ServerlessServiceSpec.Mode" xlink:title="Mode">
<polygon fill="white" stroke="white" points="505.591,-218 448.591,-218 448.591,-182 505.591,-182 505.591,-218"/>
<text text-anchor="middle" x="477.091" y="-196.3" font-family="Times,serif" font-size="14.00">Mode</text>
</a>
</g>
</g>
<!-- PodAutoscalerConditionActive&#45;&gt;ServerlessServiceMode -->
<g id="edge8" class="edge"><title>PodAutoscalerConditionActive&#45;&gt;ServerlessServiceMode</title>
<path fill="none" stroke="black" d="M424.415,-200C429.015,-200 433.615,-200 438.214,-200"/>
<polygon fill="black" stroke="black" points="438.284,-203.5 448.284,-200 438.284,-196.5 438.284,-203.5"/>
</g>
<!-- PodAutoscalerMaxScale -->
<g id="node5" class="node"><title>PodAutoscalerMaxScale</title>
<g id="a_node5"><a xlink:href="https://godoc.org/github.com/knative/serving/pkg/apis/autoscaling#MaxScaleAnnotationKey" xlink:title="MaxScale">
<polygon fill="white" stroke="white" points="314.091,-135 228.091,-135 228.091,-99 314.091,-99 314.091,-135"/>
<text text-anchor="middle" x="271.091" y="-113.3" font-family="Times,serif" font-size="14.00">MaxScale</text>
</a>
</g>
</g>
<!-- PodAutoscalerDesiredScale -->
<g id="node6" class="node"><title>PodAutoscalerDesiredScale</title>
<polygon fill="white" stroke="white" points="326.091,-218 216.091,-218 216.091,-182 326.091,-182 326.091,-218"/>
<text text-anchor="middle" x="271.091" y="-196.3" font-family="Times,serif" font-size="14.00">DesiredScale</text>
</g>
<!-- PodAutoscalerDesiredScale&#45;&gt;EnableScaleToZero -->
<g id="edge10" class="edge"><title>PodAutoscalerDesiredScale&#45;&gt;EnableScaleToZero</title>
<path fill="none" stroke="black" d="M234.826,-181.822C208.05,-169.138 171.5,-151.825 143.224,-138.431"/>
<polygon fill="black" stroke="black" points="144.513,-135.169 133.977,-134.051 141.516,-141.495 144.513,-135.169"/>
</g>
<!-- PodAutoscalerDesiredScale&#45;&gt;PodAutoscalerMinScale -->
<g id="edge2" class="edge"><title>PodAutoscalerDesiredScale&#45;&gt;PodAutoscalerMinScale</title>
<path fill="none" stroke="black" d="M299.288,-181.952C307.12,-176.99 315.543,-171.437 323.091,-166 333.638,-158.403 344.798,-149.551 354.539,-141.533"/>
<polygon fill="black" stroke="black" points="356.895,-144.126 362.344,-135.04 352.418,-138.745 356.895,-144.126"/>
</g>
<!-- PodAutoscalerDesiredScale&#45;&gt;PodAutoscalerMaxScale -->
<g id="edge3" class="edge"><title>PodAutoscalerDesiredScale&#45;&gt;PodAutoscalerMaxScale</title>
<path fill="none" stroke="black" d="M271.091,-181.822C271.091,-171.19 271.091,-157.306 271.091,-145.204"/>
<polygon fill="black" stroke="black" points="274.591,-145.153 271.091,-135.153 267.591,-145.153 274.591,-145.153"/>
</g>
<!-- DeciderDesiredScale -->
<g id="node7" class="node"><title>DeciderDesiredScale</title>
<g id="a_node7"><a xlink:href="https://godoc.org/github.com/knative/serving/pkg/autoscaler#DeciderStatus.DesiredScale" xlink:title="DesiredScale">
<ellipse fill="white" stroke="white" cx="519.091" cy="-117" rx="71.4873" ry="18"/>
<text text-anchor="middle" x="519.091" y="-113.3" font-family="Times,serif" font-size="14.00">DesiredScale</text>
</a>
</g>
</g>
<!-- PodAutoscalerDesiredScale&#45;&gt;DeciderDesiredScale -->
<g id="edge9" class="edge"><title>PodAutoscalerDesiredScale&#45;&gt;DeciderDesiredScale</title>
<path fill="none" stroke="black" d="M309.436,-181.927C317.753,-178.819 326.604,-175.949 335.091,-174 378.978,-163.922 393.095,-179.379 436.091,-166 454.692,-160.212 473.632,-149.684 488.714,-139.96"/>
<polygon fill="black" stroke="black" points="490.73,-142.823 497.116,-134.37 486.852,-136.995 490.73,-142.823"/>
</g>
<!-- MetricStableWindow -->
<g id="node9" class="node"><title>MetricStableWindow</title>
<g id="a_node9"><a xlink:href="https://godoc.org/github.com/knative/serving/pkg/apis/autoscaling/v1alpha1#MetricStableWindow" xlink:title="StableWindow">
<ellipse fill="white" stroke="white" cx="603.091" cy="-34" rx="77.1866" ry="18"/>
<text text-anchor="middle" x="603.091" y="-30.3" font-family="Times,serif" font-size="14.00">StableWindow</text>
</a>
</g>
</g>
<!-- DeciderDesiredScale&#45;&gt;MetricStableWindow -->
<g id="edge11" class="edge"><title>DeciderDesiredScale&#45;&gt;MetricStableWindow</title>
<path fill="none" stroke="black" d="M536.496,-99.2167C548.547,-87.5959 564.77,-71.9527 578.186,-59.0154"/>
<polygon fill="black" stroke="black" points="580.94,-61.2226 585.709,-51.7618 576.081,-56.1837 580.94,-61.2226"/>
</g>
<!-- MetricPanicWindow -->
<g id="node10" class="node"><title>MetricPanicWindow</title>
<g id="a_node10"><a xlink:href="https://godoc.org/github.com/knative/serving/pkg/apis/autoscaling/v1alpha1#MetricPanicWindow" xlink:title="PanicWindow">
<ellipse fill="white" stroke="white" cx="434.091" cy="-34" rx="73.387" ry="18"/>
<text text-anchor="middle" x="434.091" y="-30.3" font-family="Times,serif" font-size="14.00">PanicWindow</text>
</a>
</g>
</g>
<!-- DeciderDesiredScale&#45;&gt;MetricPanicWindow -->
<g id="edge12" class="edge"><title>DeciderDesiredScale&#45;&gt;MetricPanicWindow</title>
<path fill="none" stroke="black" d="M501.479,-99.2167C489.284,-87.5959 472.869,-71.9527 459.293,-59.0154"/>
<polygon fill="black" stroke="black" points="461.335,-56.1267 451.681,-51.7618 456.505,-61.1942 461.335,-56.1267"/>
</g>
<!-- DeciderExcessBurstCapacity -->
<g id="node8" class="node"><title>DeciderExcessBurstCapacity</title>
<g id="a_node8"><a xlink:href="https://godoc.org/github.com/knative/serving/pkg/autoscaler#DeciderStatus.ExcessBurstCapacity" xlink:title="ExcessBurstCapacity">
<ellipse fill="white" stroke="white" cx="719.091" cy="-117" rx="110.48" ry="18"/>
<text text-anchor="middle" x="719.091" y="-113.3" font-family="Times,serif" font-size="14.00">ExcessBurstCapacity</text>
</a>
</g>
</g>
<!-- ServerlessServiceConditionEndspointsPopulated -->
<g id="node12" class="node"><title>ServerlessServiceConditionEndspointsPopulated</title>
<g id="a_node12"><a xlink:href="https://godoc.org/github.com/knative/serving/pkg/apis/networking/v1alpha1#ServerlessServiceConditionEndspointsPopulated" xlink:title="Endpoints (int)">
<ellipse fill="white" stroke="white" cx="604.091" cy="-200" rx="80.6858" ry="18"/>
<text text-anchor="middle" x="604.091" y="-196.3" font-family="Times,serif" font-size="14.00">Endpoints (int)</text>
</a>
</g>
</g>
<!-- ServerlessServiceConditionReady&#45;&gt;ServerlessServiceConditionEndspointsPopulated -->
<g id="edge5" class="edge"><title>ServerlessServiceConditionReady&#45;&gt;ServerlessServiceConditionEndspointsPopulated</title>
<path fill="none" stroke="black" d="M511.009,-257.17C527.539,-247.195 550.159,-233.545 568.961,-222.199"/>
<polygon fill="black" stroke="black" points="570.813,-225.169 577.567,-217.006 567.197,-219.176 570.813,-225.169"/>
</g>
<!-- ServerlessServiceConditionReady&#45;&gt;ServerlessServiceMode -->
<g id="edge6" class="edge"><title>ServerlessServiceConditionReady&#45;&gt;ServerlessServiceMode</title>
<path fill="none" stroke="black" d="M485.372,-253.697C484.16,-245.983 482.703,-236.712 481.352,-228.112"/>
<polygon fill="black" stroke="black" points="484.789,-227.44 479.779,-218.104 477.874,-228.526 484.789,-227.44"/>
</g>
<!-- EndpointsSubsets -->
<g id="node14" class="node"><title>EndpointsSubsets</title>
<g id="a_node14"><a xlink:href="https://godoc.org/k8s.io/api/apps/v1#Endpoints.Subsets" xlink:title="Subsets">
<ellipse fill="white" stroke="white" cx="900.091" cy="-117" rx="47.3916" ry="18"/>
<text text-anchor="middle" x="900.091" y="-113.3" font-family="Times,serif" font-size="14.00">Subsets</text>
</a>
</g>
</g>
<!-- ServerlessServiceConditionEndspointsPopulated&#45;&gt;EndpointsSubsets -->
<g id="edge13" class="edge"><title>ServerlessServiceConditionEndspointsPopulated&#45;&gt;EndpointsSubsets</title>
<path fill="none" stroke="black" d="M684.65,-198.506C731.929,-195.638 791.861,-187.435 841.091,-166 854.598,-160.119 867.537,-150.248 877.839,-140.981"/>
<polygon fill="black" stroke="black" points="880.281,-143.489 885.168,-134.089 875.485,-138.39 880.281,-143.489"/>
</g>
<!-- ServerlessServiceMode&#45;&gt;PodAutoscalerMinScale -->
<g id="edge16" class="edge"><title>ServerlessServiceMode&#45;&gt;PodAutoscalerMinScale</title>
<path fill="none" stroke="black" d="M455.226,-181.727C448.993,-176.716 442.23,-171.193 436.091,-166 427,-158.309 417.225,-149.721 408.524,-141.959"/>
<polygon fill="black" stroke="black" points="410.668,-139.18 400.885,-135.112 405.996,-144.393 410.668,-139.18"/>
</g>
<!-- ServerlessServiceMode&#45;&gt;PodAutoscalerDesiredScale -->
<g id="edge15" class="edge"><title>ServerlessServiceMode&#45;&gt;PodAutoscalerDesiredScale</title>
<path fill="none" stroke="black" d="M457.779,-218.247C449.095,-225.233 438.289,-232.388 427.091,-236 391.983,-247.324 380.016,-244.377 344.091,-236 332.276,-233.245 320.176,-228.289 309.31,-222.919"/>
<polygon fill="black" stroke="black" points="310.605,-219.647 300.118,-218.137 307.374,-225.857 310.605,-219.647"/>
</g>
<!-- ServerlessServiceMode&#45;&gt;DeciderExcessBurstCapacity -->
<g id="edge14" class="edge"><title>ServerlessServiceMode&#45;&gt;DeciderExcessBurstCapacity</title>
<path fill="none" stroke="black" d="M498.415,-181.993C503.32,-178.84 508.69,-175.935 514.091,-174 549.812,-161.202 562.209,-174.915 599.091,-166 625.713,-159.565 654.229,-148.354 676.781,-138.384"/>
<polygon fill="black" stroke="black" points="678.378,-141.504 686.058,-134.205 675.503,-135.121 678.378,-141.504"/>
</g>
</g>
</svg>
