<?xml version="1.0" encoding="UTF-8" standalone="no"?>
<!DOCTYPE svg PUBLIC "-//W3C//DTD SVG 1.1//EN"
 "http://www.w3.org/Graphics/SVG/1.1/DTD/svg11.dtd">
<!-- Generated by graphviz version 2.38.0 (20140413.2041)
 -->
<!-- Title: lifecycle Pages: 1 -->
<svg width="709pt" height="412pt"
 viewBox="0.00 0.00 709.00 412.00" xmlns="http://www.w3.org/2000/svg" xmlns:xlink="http://www.w3.org/1999/xlink">
<g id="graph0" class="graph" transform="scale(1 1) rotate(0) translate(4 408)">
<title>lifecycle</title>
<polygon fill="white" stroke="none" points="-4,4 -4,-408 705,-408 705,4 -4,4"/>
<g id="clust1" class="cluster"><title>cluster_kpa</title>
<g id="a_clust1"><a xlink:href="https://godoc.org/github.com/knative/serving/pkg/apis/autoscaling/v1alpha1#PodAutoscalerStatus" xlink:title="PodAutoscaler">
<polygon fill="lightgrey" stroke="lightgrey" points="243,-174 243,-396 467,-396 467,-174 243,-174"/>
<text text-anchor="middle" x="355" y="-380.8" font-family="Times,serif" font-size="14.00">PodAutoscaler</text>
</a>
</g>
</g>
<g id="clust2" class="cluster"><title>cluster_decider</title>
<g id="a_clust2"><a xlink:href="https://godoc.org/github.com/knative/serving/pkg/autoscaler#DeciderStatus" xlink:title="Decider">
<polygon fill="linen" stroke="linen" points="307,-91 307,-166 621,-166 621,-91 307,-91"/>
<text text-anchor="middle" x="464" y="-150.8" font-family="Times,serif" font-size="14.00">Decider</text>
</a>
</g>
</g>
<g id="clust3" class="cluster"><title>cluster_metric</title>
<g id="a_clust3"><a xlink:href="https://godoc.org/github.com/knative/serving/pkg/apis/autoscaling/v1alpha1#MetricStatus" xlink:title="Metric">
<polygon fill="linen" stroke="linen" points="426,-8 426,-83 693,-83 693,-8 426,-8"/>
<text text-anchor="middle" x="559.5" y="-67.8" font-family="Times,serif" font-size="14.00">Metric</text>
</a>
</g>
</g>
<g id="clust4" class="cluster"><title>cluster_sks</title>
<g id="a_clust4"><a xlink:href="https://godoc.org/github.com/knative/serving/pkg/apis/networking/v1alpha1#ServerlessServiceStatus" xlink:title="ServerlessService">
<polygon fill="lightgrey" stroke="lightgrey" points="55,-174 55,-321 235,-321 235,-174 55,-174"/>
<text text-anchor="middle" x="145" y="-305.8" font-family="Times,serif" font-size="14.00">ServerlessService</text>
</a>
</g>
</g>
<g id="clust5" class="cluster"><title>cluster_endpoints</title>
<g id="a_clust5"><a xlink:href="https://godoc.org/k8s.io/kubernetes/pkg/apis/core#Endpoints" xlink:title="Endpoints (approximate)">
<polygon fill="lightblue" stroke="lightblue" points="8,-91 8,-166 202,-166 202,-91 8,-91"/>
<text text-anchor="middle" x="105" y="-150.8" font-family="Times,serif" font-size="14.00">Endpoints (approximate)</text>
</a>
</g>
</g>
<!-- EnableScaleToZero -->
<g id="node1" class="node"><title>EnableScaleToZero</title>
<g id="a_node1"><a xlink:href="https://godoc.org/github.com/knative/serving/pkg/autoscaler#Config.EnableScaleToZero" xlink:title="EnableScaleToZero">
<ellipse fill="white" stroke="black" cx="575" cy="-200" rx="100.182" ry="18"/>
<text text-anchor="middle" x="575" y="-196.3" font-family="Times,serif" font-size="14.00">EnableScaleToZero</text>
</a>
</g>
</g>
<!-- PodAutoscalerConditionReady -->
<g id="node2" class="node"><title>PodAutoscalerConditionReady</title>
<g id="a_node2"><a xlink:href="https://godoc.org/github.com/knative/serving/pkg/apis/autoscaling/v1alpha1#PodAutoscalerConditionReady" xlink:title="Ready">
<ellipse fill="white" stroke="white" cx="291" cy="-347" rx="39.7935" ry="18"/>
<text text-anchor="middle" x="291" y="-343.3" font-family="Times,serif" font-size="14.00">Ready</text>
</a>
</g>
</g>
<!-- PodAutoscalerConditionActive -->
<g id="node3" class="node"><title>PodAutoscalerConditionActive</title>
<g id="a_node3"><a xlink:href="https://godoc.org/github.com/knative/serving/pkg/apis/autoscaling/v1alpha1#PodAutoscalerConditionActive" xlink:title="Active">
<ellipse fill="white" stroke="black" stroke-dasharray="5,2" cx="291" cy="-272" rx="40.0939" ry="18"/>
<text text-anchor="middle" x="291" y="-268.3" font-family="Times,serif" font-size="14.00">Active</text>
</a>
</g>
</g>
<!-- PodAutoscalerConditionReady&#45;&gt;PodAutoscalerConditionActive -->
<g id="edge1" class="edge"><title>PodAutoscalerConditionReady&#45;&gt;PodAutoscalerConditionActive</title>
<path fill="none" stroke="black" d="M291,-328.7C291,-320.245 291,-309.869 291,-300.373"/>
<polygon fill="black" stroke="black" points="294.5,-300.176 291,-290.176 287.5,-300.176 294.5,-300.176"/>
</g>
<!-- PodAutoscalerMinScale -->
<g id="node4" class="node"><title>PodAutoscalerMinScale</title>
<g id="a_node4"><a xlink:href="https://godoc.org/github.com/knative/serving/pkg/apis/autoscaling#MinScaleAnnotationKey" xlink:title="MinScale">
<polygon fill="white" stroke="white" points="338.5,-218 255.5,-218 255.5,-182 338.5,-182 338.5,-218"/>
<text text-anchor="middle" x="297" y="-196.3" font-family="Times,serif" font-size="14.00">MinScale</text>
</a>
</g>
</g>
<!-- PodAutoscalerConditionActive&#45;&gt;PodAutoscalerMinScale -->
<g id="edge4" class="edge"><title>PodAutoscalerConditionActive&#45;&gt;PodAutoscalerMinScale</title>
<path fill="none" stroke="black" d="M292.483,-253.697C293.144,-245.983 293.939,-236.712 294.676,-228.112"/>
<polygon fill="black" stroke="black" points="298.167,-228.367 295.534,-218.104 291.193,-227.769 298.167,-228.367"/>
</g>
<!-- ServerlessServiceConditionReady -->
<g id="node11" class="node"><title>ServerlessServiceConditionReady</title>
<g id="a_node11"><a xlink:href="https://godoc.org/github.com/knative/serving/pkg/apis/networking/v1alpha1#ServerlessServiceConditionReady" xlink:title="Ready">
<ellipse fill="white" stroke="white" cx="187" cy="-272" rx="39.7935" ry="18"/>
<text text-anchor="middle" x="187" y="-268.3" font-family="Times,serif" font-size="14.00">Ready</text>
</a>
</g>
</g>
<!-- PodAutoscalerConditionActive&#45;&gt;ServerlessServiceConditionReady -->
<g id="edge7" class="edge"><title>PodAutoscalerConditionActive&#45;&gt;ServerlessServiceConditionReady</title>
<path fill="none" stroke="black" d="M250.632,-272C246.042,-272 241.452,-272 236.861,-272"/>
<polygon fill="black" stroke="black" points="236.813,-268.5 226.812,-272 236.812,-275.5 236.813,-268.5"/>
</g>
<!-- ServerlessServiceMode -->
<g id="node13" class="node"><title>ServerlessServiceMode</title>
<g id="a_node13"><a xlink:href="https://godoc.org/github.com/knative/serving/pkg/apis/networking/v1alpha1#ServerlessServiceSpec.Mode" xlink:title="Mode">
<polygon fill="white" stroke="white" points="226.5,-218 169.5,-218 169.5,-182 226.5,-182 226.5,-218"/>
<text text-anchor="middle" x="198" y="-196.3" font-family="Times,serif" font-size="14.00">Mode</text>
</a>
</g>
</g>
<!-- PodAutoscalerConditionActive&#45;&gt;ServerlessServiceMode -->
<g id="edge8" class="edge"><title>PodAutoscalerConditionActive&#45;&gt;ServerlessServiceMode</title>
<path fill="none" stroke="black" d="M271.277,-256.155C259.002,-246.916 242.951,-234.834 229.001,-224.334"/>
<polygon fill="black" stroke="black" points="230.733,-221.257 220.639,-218.04 226.524,-226.85 230.733,-221.257"/>
</g>
<!-- PodAutoscalerMaxScale -->
<g id="node5" class="node"><title>PodAutoscalerMaxScale</title>
<g id="a_node5"><a xlink:href="https://godoc.org/github.com/knative/serving/pkg/apis/autoscaling#MaxScaleAnnotationKey" xlink:title="MaxScale">
<polygon fill="white" stroke="white" points="447,-218 361,-218 361,-182 447,-182 447,-218"/>
<text text-anchor="middle" x="404" y="-196.3" font-family="Times,serif" font-size="14.00">MaxScale</text>
</a>
</g>
</g>
<!-- PodAutoscalerDesiredScale -->
<g id="node6" class="node"><title>PodAutoscalerDesiredScale</title>
<polygon fill="white" stroke="white" points="459,-290 349,-290 349,-254 459,-254 459,-290"/>
<text text-anchor="middle" x="404" y="-268.3" font-family="Times,serif" font-size="14.00">DesiredScale</text>
</g>
<!-- PodAutoscalerDesiredScale&#45;&gt;EnableScaleToZero -->
<g id="edge10" class="edge"><title>PodAutoscalerDesiredScale&#45;&gt;EnableScaleToZero</title>
<path fill="none" stroke="black" d="M445.831,-253.876C470.38,-243.827 501.495,-231.09 527.034,-220.635"/>
<polygon fill="black" stroke="black" points="528.596,-223.778 536.524,-216.75 525.944,-217.3 528.596,-223.778"/>
</g>
<!-- PodAutoscalerDesiredScale&#45;&gt;PodAutoscalerMinScale -->
<g id="edge2" class="edge"><title>PodAutoscalerDesiredScale&#45;&gt;PodAutoscalerMinScale</title>
<path fill="none" stroke="black" d="M377.825,-253.876C363.964,-244.808 346.759,-233.552 331.789,-223.759"/>
<polygon fill="black" stroke="black" points="333.56,-220.735 323.276,-218.19 329.728,-226.593 333.56,-220.735"/>
</g>
<!-- PodAutoscalerDesiredScale&#45;&gt;PodAutoscalerMaxScale -->
<g id="edge3" class="edge"><title>PodAutoscalerDesiredScale&#45;&gt;PodAutoscalerMaxScale</title>
<path fill="none" stroke="black" d="M404,-253.697C404,-245.983 404,-236.712 404,-228.112"/>
<polygon fill="black" stroke="black" points="407.5,-228.104 404,-218.104 400.5,-228.104 407.5,-228.104"/>
</g>
<!-- DeciderDesiredScale -->
<g id="node7" class="node"><title>DeciderDesiredScale</title>
<g id="a_node7"><a xlink:href="https://godoc.org/github.com/knative/serving/pkg/autoscaler#DeciderStatus.DesiredScale" xlink:title="DesiredScale">
<polygon fill="white" stroke="white" points="613,-135 503,-135 503,-99 613,-99 613,-135"/>
<text text-anchor="middle" x="558" y="-113.3" font-family="Times,serif" font-size="14.00">DesiredScale</text>
</a>
</g>
</g>
<!-- PodAutoscalerDesiredScale&#45;&gt;DeciderDesiredScale -->
<g id="edge9" class="edge"><title>PodAutoscalerDesiredScale&#45;&gt;DeciderDesiredScale</title>
<path fill="none" stroke="black" d="M459.246,-268.625C532.56,-264.181 656.027,-251.764 684,-218 696.476,-202.941 694.656,-190.397 684,-174 670.185,-152.742 646.236,-139.489 622.902,-131.255"/>
<polygon fill="black" stroke="black" points="623.912,-127.903 613.32,-128.13 621.742,-134.558 623.912,-127.903"/>
</g>
<!-- MetricStableWindow -->
<g id="node9" class="node"><title>MetricStableWindow</title>
<g id="a_node9"><a xlink:href="https://godoc.org/github.com/knative/serving/pkg/apis/autoscaling/v1alpha1#MetricStableWindow" xlink:title="StableWindow">
<polygon fill="white" stroke="white" points="684.5,-52 565.5,-52 565.5,-16 684.5,-16 684.5,-52"/>
<text text-anchor="middle" x="625" y="-30.3" font-family="Times,serif" font-size="14.00">StableWindow</text>
</a>
</g>
</g>
<!-- DeciderDesiredScale&#45;&gt;MetricStableWindow -->
<g id="edge11" class="edge"><title>DeciderDesiredScale&#45;&gt;MetricStableWindow</title>
<path fill="none" stroke="black" d="M572.209,-98.822C581.536,-87.546 593.89,-72.6111 604.301,-60.0239"/>
<polygon fill="black" stroke="black" points="607.135,-62.0896 610.812,-52.1533 601.741,-57.628 607.135,-62.0896"/>
</g>
<!-- MetricPanicWindow -->
<g id="node10" class="node"><title>MetricPanicWindow</title>
<g id="a_node10"><a xlink:href="https://godoc.org/github.com/knative/serving/pkg/apis/autoscaling/v1alpha1#MetricPanicWindow" xlink:title="PanicWindow">
<polygon fill="white" stroke="white" points="547.5,-52 434.5,-52 434.5,-16 547.5,-16 547.5,-52"/>
<text text-anchor="middle" x="491" y="-30.3" font-family="Times,serif" font-size="14.00">PanicWindow</text>
</a>
</g>
</g>
<!-- DeciderDesiredScale&#45;&gt;MetricPanicWindow -->
<g id="edge12" class="edge"><title>DeciderDesiredScale&#45;&gt;MetricPanicWindow</title>
<path fill="none" stroke="black" d="M543.791,-98.822C534.464,-87.546 522.11,-72.6111 511.699,-60.0239"/>
<polygon fill="black" stroke="black" points="514.259,-57.628 505.188,-52.1533 508.865,-62.0896 514.259,-57.628"/>
</g>
<!-- DeciderExcessBurstCapacity -->
<g id="node8" class="node"><title>DeciderExcessBurstCapacity</title>
<g id="a_node8"><a xlink:href="https://godoc.org/github.com/knative/serving/pkg/autoscaler#DeciderStatus.ExcessBurstCapacity" xlink:title="ExcessBurstCapacity">
<polygon fill="white" stroke="white" points="485,-135 315,-135 315,-99 485,-99 485,-135"/>
<text text-anchor="middle" x="400" y="-113.3" font-family="Times,serif" font-size="14.00">ExcessBurstCapacity</text>
</a>
</g>
</g>
<!-- ServerlessServiceConditionEndspointsPopulated -->
<g id="node12" class="node"><title>ServerlessServiceConditionEndspointsPopulated</title>
<g id="a_node12"><a xlink:href="https://godoc.org/github.com/knative/serving/pkg/apis/networking/v1alpha1#ServerlessServiceConditionEndspointsPopulated" xlink:title="Endpoints">
<polygon fill="white" stroke="white" points="151.5,-218 62.5,-218 62.5,-182 151.5,-182 151.5,-218"/>
<text text-anchor="middle" x="107" y="-196.3" font-family="Times,serif" font-size="14.00">Endpoints</text>
</a>
</g>
</g>
<!-- ServerlessServiceConditionReady&#45;&gt;ServerlessServiceConditionEndspointsPopulated -->
<g id="edge5" class="edge"><title>ServerlessServiceConditionReady&#45;&gt;ServerlessServiceConditionEndspointsPopulated</title>
<path fill="none" stroke="black" d="M169.641,-255.811C159.336,-246.794 146.041,-235.161 134.352,-224.933"/>
<polygon fill="black" stroke="black" points="136.404,-222.078 126.573,-218.127 131.794,-227.346 136.404,-222.078"/>
</g>
<!-- ServerlessServiceConditionReady&#45;&gt;ServerlessServiceMode -->
<g id="edge6" class="edge"><title>ServerlessServiceConditionReady&#45;&gt;ServerlessServiceMode</title>
<path fill="none" stroke="black" d="M189.719,-253.697C190.931,-245.983 192.388,-236.712 193.739,-228.112"/>
<polygon fill="black" stroke="black" points="197.217,-228.526 195.312,-218.104 190.302,-227.44 197.217,-228.526"/>
</g>
<!-- EndpointsSubsets -->
<g id="node14" class="node"><title>EndpointsSubsets</title>
<g id="a_node14"><a xlink:href="https://godoc.org/k8s.io/kubernetes/pkg/apis/core#Endpoints.Subsets" xlink:title="Subsets">
<polygon fill="white" stroke="white" points="143.5,-135 70.5,-135 70.5,-99 143.5,-99 143.5,-135"/>
<text text-anchor="middle" x="107" y="-113.3" font-family="Times,serif" font-size="14.00">Subsets</text>
</a>
</g>
</g>
<!-- ServerlessServiceConditionEndspointsPopulated&#45;&gt;EndpointsSubsets -->
<g id="edge13" class="edge"><title>ServerlessServiceConditionEndspointsPopulated&#45;&gt;EndpointsSubsets</title>
<path fill="none" stroke="black" d="M107,-181.822C107,-171.19 107,-157.306 107,-145.204"/>
<polygon fill="black" stroke="black" points="110.5,-145.153 107,-135.153 103.5,-145.153 110.5,-145.153"/>
</g>
<!-- ServerlessServiceMode&#45;&gt;PodAutoscalerDesiredScale -->
<g id="edge15" class="edge"><title>ServerlessServiceMode&#45;&gt;PodAutoscalerDesiredScale</title>
<path fill="none" stroke="black" d="M226.556,-213.192C230.709,-214.862 234.949,-216.513 239,-218 271.748,-230.026 308.681,-242.031 339.289,-251.567"/>
<polygon fill="black" stroke="black" points="338.403,-254.956 348.991,-254.573 340.475,-248.27 338.403,-254.956"/>
</g>
<!-- ServerlessServiceMode&#45;&gt;DeciderExcessBurstCapacity -->
<g id="edge14" class="edge"><title>ServerlessServiceMode&#45;&gt;DeciderExcessBurstCapacity</title>
<path fill="none" stroke="black" d="M224.452,-181.751C229.2,-178.98 234.175,-176.278 239,-174 268.573,-160.036 302.615,-147.693 331.757,-138.173"/>
<polygon fill="black" stroke="black" points="332.993,-141.452 341.439,-135.055 330.847,-134.789 332.993,-141.452"/>
</g>
</g>
</svg>
