<?xml version="1.0" encoding="UTF-8" standalone="no"?>
<!DOCTYPE svg PUBLIC "-//W3C//DTD SVG 1.1//EN"
 "http://www.w3.org/Graphics/SVG/1.1/DTD/svg11.dtd">
<!-- Generated by graphviz version 2.38.0 (20140413.2041)
 -->
<!-- Title: generation Pages: 1 -->
<svg width="1144pt" height="291pt"
 viewBox="0.00 0.00 1144.02 291.00" xmlns="http://www.w3.org/2000/svg" xmlns:xlink="http://www.w3.org/1999/xlink">
<g id="graph0" class="graph" transform="scale(1 1) rotate(0) translate(4 287)">
<title>generation</title>
<polygon fill="white" stroke="none" points="-4,4 -4,-287 1140.02,-287 1140.02,4 -4,4"/>
<!-- RouteUnknownErr -->
<g id="node1" class="node"><title>RouteUnknownErr</title>
<ellipse fill="none" stroke="black" cx="279.938" cy="-18" rx="74.9875" ry="18"/>
<text text-anchor="middle" x="279.938" y="-14.3" font-family="Times,serif" font-size="14.00">Unknown: err</text>
</g>
<!-- MarkRouteNotReconciled -->
<g id="node2" class="node"><title>MarkRouteNotReconciled</title>
<g id="a_node2"><a xlink:href="https://godoc.org/github.com/knative/serving/pkg/apis/serving/v1alpha1#MarkRouteNotReconciled" xlink:title="MarkRouteNotReconciled">
<ellipse fill="none" stroke="black" cx="131.938" cy="-105" rx="131.877" ry="18"/>
<text text-anchor="middle" x="131.938" y="-101.3" font-family="Times,serif" font-size="14.00">MarkRouteNotReconciled</text>
</a>
</g>
</g>
<!-- PropagateRouteStatus -->
<g id="node3" class="node"><title>PropagateRouteStatus</title>
<g id="a_node3"><a xlink:href="https://godoc.org/github.com/knative/serving/pkg/apis/serving/v1alpha1#PropagateRouteStatus" xlink:title="PropagateRouteStatus">
<ellipse fill="none" stroke="black" cx="487.938" cy="-18" rx="115.88" ry="18"/>
<text text-anchor="middle" x="487.938" y="-14.3" font-family="Times,serif" font-size="14.00">PropagateRouteStatus</text>
</a>
</g>
</g>
<!-- ConfigUnknownErr -->
<g id="node4" class="node"><title>ConfigUnknownErr</title>
<ellipse fill="none" stroke="black" cx="738.938" cy="-18" rx="74.9875" ry="18"/>
<text text-anchor="middle" x="738.938" y="-14.3" font-family="Times,serif" font-size="14.00">Unknown: err</text>
</g>
<!-- MarkConfigurationNotReconciled -->
<g id="node5" class="node"><title>MarkConfigurationNotReconciled</title>
<g id="a_node5"><a xlink:href="https://godoc.org/github.com/knative/serving/pkg/apis/serving/v1alpha1#MarkConfigurationNotReconciled" xlink:title="MarkConfigurationNotReconciled">
<ellipse fill="none" stroke="black" cx="630.938" cy="-105" rx="168.97" ry="18"/>
<text text-anchor="middle" x="630.938" y="-101.3" font-family="Times,serif" font-size="14.00">MarkConfigurationNotReconciled</text>
</a>
</g>
</g>
<!-- PropagateConfigurationStatus -->
<g id="node6" class="node"><title>PropagateConfigurationStatus</title>
<g id="a_node6"><a xlink:href="https://godoc.org/github.com/knative/serving/pkg/apis/serving/v1alpha1#PropagateConfigurationStatus" xlink:title="PropagateConfigurationStatus">
<ellipse fill="none" stroke="black" cx="983.938" cy="-18" rx="152.173" ry="18"/>
<text text-anchor="middle" x="983.938" y="-14.3" font-family="Times,serif" font-size="14.00">PropagateConfigurationStatus</text>
</a>
</g>
</g>
<!-- reconcile -->
<g id="node7" class="node"><title>reconcile</title>
<ellipse fill="none" stroke="black" cx="526.938" cy="-265" rx="53.8905" ry="18"/>
<text text-anchor="middle" x="526.938" y="-261.3" font-family="Times,serif" font-size="14.00">reconcile</text>
</g>
<!-- route -->
<g id="node8" class="node"><title>route</title>
<ellipse fill="none" stroke="black" cx="362.938" cy="-192" rx="35.9954" ry="18"/>
<text text-anchor="middle" x="362.938" y="-188.3" font-family="Times,serif" font-size="14.00">route</text>
</g>
<!-- reconcile&#45;&gt;route -->
<g id="edge1" class="edge"><title>reconcile&#45;&gt;route</title>
<path fill="none" stroke="black" d="M495.317,-250.31C467.554,-238.291 427.21,-220.825 398.366,-208.338"/>
<polygon fill="black" stroke="black" points="399.628,-205.07 389.061,-204.309 396.847,-211.494 399.628,-205.07"/>
</g>
<!-- config -->
<g id="node9" class="node"><title>config</title>
<ellipse fill="none" stroke="black" cx="630.938" cy="-192" rx="38.9931" ry="18"/>
<text text-anchor="middle" x="630.938" y="-188.3" font-family="Times,serif" font-size="14.00">config</text>
</g>
<!-- reconcile&#45;&gt;config -->
<g id="edge2" class="edge"><title>reconcile&#45;&gt;config</title>
<path fill="none" stroke="black" d="M549.505,-248.594C564.627,-238.27 584.7,-224.566 601.133,-213.348"/>
<polygon fill="black" stroke="black" points="603.548,-215.937 609.834,-207.408 599.601,-210.156 603.548,-215.937"/>
</g>
<!-- route&#45;&gt;MarkRouteNotReconciled -->
<g id="edge4" class="edge"><title>route&#45;&gt;MarkRouteNotReconciled</title>
<path fill="none" stroke="black" d="M327.363,-189.925C289.779,-187.488 229.733,-179.809 183.938,-156 171.958,-149.771 160.846,-139.921 151.995,-130.604"/>
<polygon fill="black" stroke="black" points="154.423,-128.071 145.124,-122.995 149.228,-132.762 154.423,-128.071"/>
<text text-anchor="middle" x="271.438" y="-144.8" font-family="Times,serif" font-size="14.00">Observed != Generation</text>
</g>
<!-- reconcileRoute -->
<g id="node10" class="node"><title>reconcileRoute</title>
<ellipse fill="none" stroke="black" cx="362.938" cy="-105" rx="81.4863" ry="18"/>
<text text-anchor="middle" x="362.938" y="-101.3" font-family="Times,serif" font-size="14.00">reconcileRoute</text>
</g>
<!-- route&#45;&gt;reconcileRoute -->
<g id="edge3" class="edge"><title>route&#45;&gt;reconcileRoute</title>
<path fill="none" stroke="black" d="M362.938,-173.799C362.938,-162.163 362.938,-146.548 362.938,-133.237"/>
<polygon fill="black" stroke="black" points="366.438,-133.175 362.938,-123.175 359.438,-133.175 366.438,-133.175"/>
</g>
<!-- config&#45;&gt;MarkConfigurationNotReconciled -->
<g id="edge8" class="edge"><title>config&#45;&gt;MarkConfigurationNotReconciled</title>
<path fill="none" stroke="black" d="M630.938,-173.799C630.938,-162.163 630.938,-146.548 630.938,-133.237"/>
<polygon fill="black" stroke="black" points="634.438,-133.175 630.938,-123.175 627.438,-133.175 634.438,-133.175"/>
<text text-anchor="middle" x="718.438" y="-144.8" font-family="Times,serif" font-size="14.00">Observed != Generation</text>
</g>
<!-- reconcileConfig -->
<g id="node11" class="node"><title>reconcileConfig</title>
<ellipse fill="none" stroke="black" cx="901.938" cy="-105" rx="83.6854" ry="18"/>
<text text-anchor="middle" x="901.938" y="-101.3" font-family="Times,serif" font-size="14.00">reconcileConfig</text>
</g>
<!-- config&#45;&gt;reconcileConfig -->
<g id="edge7" class="edge"><title>config&#45;&gt;reconcileConfig</title>
<path fill="none" stroke="black" d="M668.505,-187.032C705.35,-182.362 762.715,-172.995 809.938,-156 829.999,-148.78 850.988,-137.682 867.844,-127.773"/>
<polygon fill="black" stroke="black" points="869.981,-130.573 876.752,-122.423 866.377,-124.572 869.981,-130.573"/>
</g>
<!-- reconcileRoute&#45;&gt;RouteUnknownErr -->
<g id="edge5" class="edge"><title>reconcileRoute&#45;&gt;RouteUnknownErr</title>
<path fill="none" stroke="black" d="M346.54,-87.2067C334.263,-74.6335 317.29,-57.252 303.552,-43.1825"/>
<polygon fill="black" stroke="black" points="305.793,-40.4679 296.302,-35.7584 300.785,-45.3584 305.793,-40.4679"/>
<text text-anchor="middle" x="337.938" y="-57.8" font-family="Times,serif" font-size="14.00">err</text>
</g>
<!-- reconcileRoute&#45;&gt;PropagateRouteStatus -->
<g id="edge6" class="edge"><title>reconcileRoute&#45;&gt;PropagateRouteStatus</title>
<path fill="none" stroke="black" d="M387.04,-87.6111C406.369,-74.467 433.699,-55.8826 455.041,-41.3702"/>
<polygon fill="black" stroke="black" points="457.183,-44.146 463.485,-35.6286 453.247,-38.3575 457.183,-44.146"/>
</g>
<!-- reconcileConfig&#45;&gt;ConfigUnknownErr -->
<g id="edge9" class="edge"><title>reconcileConfig&#45;&gt;ConfigUnknownErr</title>
<path fill="none" stroke="black" d="M871.661,-88.2114C845.16,-74.3917 806.507,-54.2351 777.742,-39.235"/>
<polygon fill="black" stroke="black" points="779.263,-36.081 768.778,-34.5606 776.026,-42.2878 779.263,-36.081"/>
<text text-anchor="middle" x="841.938" y="-57.8" font-family="Times,serif" font-size="14.00">err</text>
</g>
<!-- reconcileConfig&#45;&gt;PropagateConfigurationStatus -->
<g id="edge10" class="edge"><title>reconcileConfig&#45;&gt;PropagateConfigurationStatus</title>
<path fill="none" stroke="black" d="M918.139,-87.2067C930.19,-74.7151 946.819,-57.4775 960.345,-43.457"/>
<polygon fill="black" stroke="black" points="963.067,-45.6763 967.491,-36.0493 958.029,-40.8162 963.067,-45.6763"/>
</g>
</g>
</svg>
