<?xml version="1.0" encoding="UTF-8" standalone="no"?>
<!DOCTYPE svg PUBLIC "-//W3C//DTD SVG 1.1//EN"
 "http://www.w3.org/Graphics/SVG/1.1/DTD/svg11.dtd">
<!-- Generated by graphviz version 2.38.0 (20140413.2041)
 -->
<!-- Title: generation Pages: 1 -->
<svg width="1218pt" height="382pt"
 viewBox="0.00 0.00 1218.34 381.74" xmlns="http://www.w3.org/2000/svg" xmlns:xlink="http://www.w3.org/1999/xlink">
<g id="graph0" class="graph" transform="scale(1 1) rotate(0) translate(4 377.74)">
<title>generation</title>
<polygon fill="white" stroke="none" points="-4,4 -4,-377.74 1214.34,-377.74 1214.34,4 -4,4"/>
<!-- RouteUnknownErr -->
<g id="node1" class="node"><title>RouteUnknownErr</title>
<ellipse fill="none" stroke="black" stroke-width="2" cx="134.35" cy="-26.8701" rx="134.201" ry="26.7407"/>
<text text-anchor="middle" x="134.35" y="-30.6701" font-family="Times,serif" font-size="14.00">RoutesReady=Unknown</text>
<text text-anchor="middle" x="134.35" y="-15.6701" font-family="Times,serif" font-size="14.00">Reason=err</text>
</g>
<!-- MarkRouteNotReconciled -->
<g id="node2" class="node"><title>MarkRouteNotReconciled</title>
<g id="a_node2"><a xlink:href="https://godoc.org/github.com/knative/serving/pkg/apis/serving/v1alpha1#MarkRouteNotReconciled" xlink:title="MarkRouteNotReconciled">
<ellipse fill="none" stroke="black" cx="536.35" cy="-122.74" rx="131.877" ry="18"/>
<text text-anchor="middle" x="536.35" y="-119.04" font-family="Times,serif" font-size="14.00">MarkRouteNotReconciled</text>
</a>
</g>
</g>
<!-- PropagateRouteStatus -->
<g id="node3" class="node"><title>PropagateRouteStatus</title>
<g id="a_node3"><a xlink:href="https://godoc.org/github.com/knative/serving/pkg/apis/serving/v1alpha1#PropagateRouteStatus" xlink:title="PropagateRouteStatus">
<ellipse fill="none" stroke="black" cx="402.35" cy="-26.8701" rx="115.88" ry="18"/>
<text text-anchor="middle" x="402.35" y="-23.1701" font-family="Times,serif" font-size="14.00">PropagateRouteStatus</text>
</a>
</g>
</g>
<!-- ConfigUnknownErr -->
<g id="node4" class="node"><title>ConfigUnknownErr</title>
<ellipse fill="none" stroke="black" stroke-width="2" cx="721.35" cy="-26.8701" rx="137.358" ry="26.7407"/>
<text text-anchor="middle" x="721.35" y="-30.6701" font-family="Times,serif" font-size="14.00">ConfigsReady=Unknown</text>
<text text-anchor="middle" x="721.35" y="-15.6701" font-family="Times,serif" font-size="14.00">Reason=err</text>
</g>
<!-- MarkConfigurationNotReconciled -->
<g id="node5" class="node"><title>MarkConfigurationNotReconciled</title>
<g id="a_node5"><a xlink:href="https://godoc.org/github.com/knative/serving/pkg/apis/serving/v1alpha1#MarkConfigurationNotReconciled" xlink:title="MarkConfigurationNotReconciled">
<ellipse fill="none" stroke="black" cx="1041.35" cy="-122.74" rx="168.97" ry="18"/>
<text text-anchor="middle" x="1041.35" y="-119.04" font-family="Times,serif" font-size="14.00">MarkConfigurationNotReconciled</text>
</a>
</g>
</g>
<!-- PropagateConfigurationStatus -->
<g id="node6" class="node"><title>PropagateConfigurationStatus</title>
<g id="a_node6"><a xlink:href="https://godoc.org/github.com/knative/serving/pkg/apis/serving/v1alpha1#PropagateConfigurationStatus" xlink:title="PropagateConfigurationStatus">
<ellipse fill="none" stroke="black" cx="1028.35" cy="-26.8701" rx="152.173" ry="18"/>
<text text-anchor="middle" x="1028.35" y="-23.1701" font-family="Times,serif" font-size="14.00">PropagateConfigurationStatus</text>
</a>
</g>
</g>
<!-- Reconcile -->
<g id="node7" class="node"><title>Reconcile</title>
<g id="a_node7"><a xlink:href="https://github.com/knative/serving/blob/03b04365f0c9f552298436012a911ce3a32cc3bf/pkg/reconciler/service/service.go#L66" xlink:title="Reconcile">
<ellipse fill="none" stroke="black" cx="600.35" cy="-355.74" rx="55.7903" ry="18"/>
<text text-anchor="middle" x="600.35" y="-352.04" font-family="Times,serif" font-size="14.00">Reconcile</text>
</a>
</g>
</g>
<!-- reconcile -->
<g id="node8" class="node"><title>reconcile</title>
<g id="a_node8"><a xlink:href="https://github.com/knative/serving/blob/03b04365f0c9f552298436012a911ce3a32cc3bf/pkg/reconciler/service/service.go#L127" xlink:title="reconcile">
<ellipse fill="none" stroke="black" cx="600.35" cy="-282.74" rx="53.8905" ry="18"/>
<text text-anchor="middle" x="600.35" y="-279.04" font-family="Times,serif" font-size="14.00">reconcile</text>
</a>
</g>
</g>
<!-- Reconcile&#45;&gt;reconcile -->
<g id="edge2" class="edge"><title>Reconcile&#45;&gt;reconcile</title>
<path fill="none" stroke="black" d="M600.35,-337.553C600.35,-329.53 600.35,-319.788 600.35,-310.809"/>
<polygon fill="black" stroke="black" points="603.85,-310.769 600.35,-300.769 596.85,-310.769 603.85,-310.769"/>
</g>
<!-- updateStatus -->
<g id="node13" class="node"><title>updateStatus</title>
<g id="a_node13"><a xlink:href="https://github.com/knative/serving/blob/03b04365f0c9f552298436012a911ce3a32cc3bf/pkg/reconciler/service/service.go#L277" xlink:title="updateStatus">
<ellipse fill="none" stroke="black" cx="745.35" cy="-282.74" rx="72.5877" ry="18"/>
<text text-anchor="middle" x="745.35" y="-279.04" font-family="Times,serif" font-size="14.00">updateStatus</text>
</a>
</g>
</g>
<!-- Reconcile&#45;&gt;updateStatus -->
<g id="edge3" class="edge"><title>Reconcile&#45;&gt;updateStatus</title>
<path fill="none" stroke="black" d="M629.693,-340.372C651.318,-329.784 680.996,-315.252 704.874,-303.56"/>
<polygon fill="black" stroke="black" points="706.602,-306.611 714.044,-299.07 703.523,-300.324 706.602,-306.611"/>
</g>
<!-- updateGeneration -->
<g id="node14" class="node"><title>updateGeneration</title>
<ellipse fill="none" stroke="black" stroke-width="2" cx="433.35" cy="-282.74" rx="94.7833" ry="18"/>
<text text-anchor="middle" x="433.35" y="-279.04" font-family="Times,serif" font-size="14.00">updateGeneration</text>
</g>
<!-- Reconcile&#45;&gt;updateGeneration -->
<g id="edge1" class="edge"><title>Reconcile&#45;&gt;updateGeneration</title>
<path fill="none" stroke="black" d="M567.755,-340.882C542.597,-330.186 507.469,-315.252 479.435,-303.333"/>
<polygon fill="black" stroke="black" points="480.797,-300.109 470.224,-299.417 478.058,-306.551 480.797,-300.109"/>
</g>
<!-- route -->
<g id="node9" class="node"><title>route</title>
<g id="a_node9"><a xlink:href="https://github.com/knative/serving/blob/03b04365f0c9f552298436012a911ce3a32cc3bf/pkg/reconciler/service/service.go#L220" xlink:title="route">
<ellipse fill="none" stroke="black" cx="536.35" cy="-209.74" rx="35.9954" ry="18"/>
<text text-anchor="middle" x="536.35" y="-206.04" font-family="Times,serif" font-size="14.00">route</text>
</a>
</g>
</g>
<!-- reconcile&#45;&gt;route -->
<g id="edge4" class="edge"><title>reconcile&#45;&gt;route</title>
<path fill="none" stroke="black" d="M585.507,-265.273C577.15,-256.002 566.576,-244.272 557.379,-234.069"/>
<polygon fill="black" stroke="black" points="559.968,-231.714 550.673,-226.63 554.769,-236.401 559.968,-231.714"/>
</g>
<!-- config -->
<g id="node10" class="node"><title>config</title>
<g id="a_node10"><a xlink:href="https://github.com/knative/serving/blob/03b04365f0c9f552298436012a911ce3a32cc3bf/pkg/reconciler/service/service.go#L191" xlink:title="config">
<ellipse fill="none" stroke="black" cx="770.35" cy="-209.74" rx="38.9931" ry="18"/>
<text text-anchor="middle" x="770.35" y="-206.04" font-family="Times,serif" font-size="14.00">config</text>
</a>
</g>
</g>
<!-- reconcile&#45;&gt;config -->
<g id="edge5" class="edge"><title>reconcile&#45;&gt;config</title>
<path fill="none" stroke="black" d="M632.726,-268.218C661.325,-256.274 703.029,-238.857 733.025,-226.329"/>
<polygon fill="black" stroke="black" points="734.442,-229.53 742.321,-222.447 731.744,-223.071 734.442,-229.53"/>
</g>
<!-- route&#45;&gt;MarkRouteNotReconciled -->
<g id="edge7" class="edge"><title>route&#45;&gt;MarkRouteNotReconciled</title>
<path fill="none" stroke="black" d="M536.35,-191.539C536.35,-179.903 536.35,-164.288 536.35,-150.977"/>
<polygon fill="black" stroke="black" points="539.85,-150.916 536.35,-140.916 532.85,-150.916 539.85,-150.916"/>
<text text-anchor="middle" x="623.85" y="-162.54" font-family="Times,serif" font-size="14.00">Observed != Generation</text>
</g>
<!-- reconcileRoute -->
<g id="node11" class="node"><title>reconcileRoute</title>
<g id="a_node11"><a xlink:href="https://github.com/knative/serving/blob/03b04365f0c9f552298436012a911ce3a32cc3bf/pkg/reconciler/service/service.go#L358" xlink:title="reconcileRoute">
<ellipse fill="none" stroke="black" cx="305.35" cy="-122.74" rx="81.4863" ry="18"/>
<text text-anchor="middle" x="305.35" y="-119.04" font-family="Times,serif" font-size="14.00">reconcileRoute</text>
</a>
</g>
</g>
<!-- route&#45;&gt;reconcileRoute -->
<g id="edge6" class="edge"><title>route&#45;&gt;reconcileRoute</title>
<path fill="none" stroke="black" d="M508.025,-198.317C470.008,-184.329 401.867,-159.255 355.174,-142.074"/>
<polygon fill="black" stroke="black" points="356.148,-138.703 345.554,-138.534 353.731,-145.272 356.148,-138.703"/>
</g>
<!-- config&#45;&gt;MarkConfigurationNotReconciled -->
<g id="edge11" class="edge"><title>config&#45;&gt;MarkConfigurationNotReconciled</title>
<path fill="none" stroke="black" d="M801.702,-198.906C845.142,-185.282 924.542,-160.377 979.998,-142.983"/>
<polygon fill="black" stroke="black" points="981.221,-146.268 989.715,-139.936 979.126,-139.589 981.221,-146.268"/>
<text text-anchor="middle" x="1016.85" y="-162.54" font-family="Times,serif" font-size="14.00">Observed != Generation</text>
</g>
<!-- reconcileConfig -->
<g id="node12" class="node"><title>reconcileConfig</title>
<g id="a_node12"><a xlink:href="https://github.com/knative/serving/blob/03b04365f0c9f552298436012a911ce3a32cc3bf/pkg/reconciler/service/service.go#L315" xlink:title="reconcileConfig">
<ellipse fill="none" stroke="black" cx="770.35" cy="-122.74" rx="83.6854" ry="18"/>
<text text-anchor="middle" x="770.35" y="-119.04" font-family="Times,serif" font-size="14.00">reconcileConfig</text>
</a>
</g>
</g>
<!-- config&#45;&gt;reconcileConfig -->
<g id="edge10" class="edge"><title>config&#45;&gt;reconcileConfig</title>
<path fill="none" stroke="black" d="M770.35,-191.539C770.35,-179.903 770.35,-164.288 770.35,-150.977"/>
<polygon fill="black" stroke="black" points="773.85,-150.916 770.35,-140.916 766.85,-150.916 773.85,-150.916"/>
</g>
<!-- reconcileRoute&#45;&gt;RouteUnknownErr -->
<g id="edge8" class="edge"><title>reconcileRoute&#45;&gt;RouteUnknownErr</title>
<path fill="none" stroke="black" d="M276.342,-105.816C252.163,-92.5433 217.074,-73.2811 187.828,-57.2264"/>
<polygon fill="black" stroke="black" points="189.408,-54.1011 178.958,-52.3571 186.039,-60.2374 189.408,-54.1011"/>
<text text-anchor="middle" x="251.35" y="-75.5401" font-family="Times,serif" font-size="14.00">err</text>
</g>
<!-- reconcileRoute&#45;&gt;PropagateRouteStatus -->
<g id="edge9" class="edge"><title>reconcileRoute&#45;&gt;PropagateRouteStatus</title>
<path fill="none" stroke="black" d="M322.692,-104.958C337.908,-90.2326 360.221,-68.6401 377.363,-52.0508"/>
<polygon fill="black" stroke="black" points="380.08,-54.2927 384.832,-44.8233 375.212,-49.2624 380.08,-54.2927"/>
</g>
<!-- reconcileConfig&#45;&gt;ConfigUnknownErr -->
<g id="edge12" class="edge"><title>reconcileConfig&#45;&gt;ConfigUnknownErr</title>
<path fill="none" stroke="black" d="M761.363,-104.523C755.289,-92.8869 747.054,-77.111 739.634,-62.8958"/>
<polygon fill="black" stroke="black" points="742.636,-61.0842 734.906,-53.839 736.431,-64.3235 742.636,-61.0842"/>
<text text-anchor="middle" x="763.35" y="-75.5401" font-family="Times,serif" font-size="14.00">err</text>
</g>
<!-- reconcileConfig&#45;&gt;PropagateConfigurationStatus -->
<g id="edge13" class="edge"><title>reconcileConfig&#45;&gt;PropagateConfigurationStatus</title>
<path fill="none" stroke="black" d="M810.947,-106.97C854.982,-90.9479 925.499,-65.2912 974.222,-47.564"/>
<polygon fill="black" stroke="black" points="975.461,-50.8377 983.662,-44.1295 973.068,-44.2596 975.461,-50.8377"/>
</g>
</g>
</svg>
