<?xml version="1.0" encoding="UTF-8" standalone="no"?>
<!DOCTYPE svg PUBLIC "-//W3C//DTD SVG 1.1//EN"
 "http://www.w3.org/Graphics/SVG/1.1/DTD/svg11.dtd">
<!-- Generated by graphviz version 2.38.0 (20140413.2041)
 -->
<!-- Title: generation Pages: 1 -->
<svg width="1012pt" height="152pt"
 viewBox="0.00 0.00 1011.84 152.00" xmlns="http://www.w3.org/2000/svg" xmlns:xlink="http://www.w3.org/1999/xlink">
<g id="graph0" class="graph" transform="scale(1 1) rotate(0) translate(4 148)">
<title>generation</title>
<polygon fill="white" stroke="none" points="-4,4 -4,-148 1007.84,-148 1007.84,4 -4,4"/>
<!-- MarkChildNotReconciled -->
<g id="node1" class="node"><title>MarkChildNotReconciled</title>
<ellipse fill="none" stroke="black" cx="873.848" cy="-126" rx="129.977" ry="18"/>
<text text-anchor="middle" x="873.848" y="-122.3" font-family="Times,serif" font-size="14.00">MarkChildNotReconciled</text>
</g>
<!-- PropagateChildStatus -->
<g id="node2" class="node"><title>PropagateChildStatus</title>
<ellipse fill="none" stroke="black" cx="873.848" cy="-18" rx="113.18" ry="18"/>
<text text-anchor="middle" x="873.848" y="-14.3" font-family="Times,serif" font-size="14.00">PropagateChildStatus</text>
</g>
<!-- Reconcile -->
<g id="node3" class="node"><title>Reconcile</title>
<ellipse fill="none" stroke="black" cx="55.895" cy="-72" rx="55.7903" ry="18"/>
<text text-anchor="middle" x="55.895" y="-68.3" font-family="Times,serif" font-size="14.00">Reconcile</text>
</g>
<!-- reconcile -->
<g id="node4" class="node"><title>reconcile</title>
<ellipse fill="none" stroke="black" cx="243.682" cy="-72" rx="53.8905" ry="18"/>
<text text-anchor="middle" x="243.682" y="-68.3" font-family="Times,serif" font-size="14.00">reconcile</text>
</g>
<!-- Reconcile&#45;&gt;reconcile -->
<g id="edge2" class="edge"><title>Reconcile&#45;&gt;reconcile</title>
<path fill="none" stroke="black" d="M111.883,-72C133.036,-72 157.354,-72 179.24,-72"/>
<polygon fill="black" stroke="black" points="179.433,-75.5001 189.432,-72 179.432,-68.5001 179.433,-75.5001"/>
</g>
<!-- updateStatus -->
<g id="node6" class="node"><title>updateStatus</title>
<ellipse fill="none" stroke="black" cx="243.682" cy="-18" rx="72.5877" ry="18"/>
<text text-anchor="middle" x="243.682" y="-14.3" font-family="Times,serif" font-size="14.00">updateStatus</text>
</g>
<!-- Reconcile&#45;&gt;updateStatus -->
<g id="edge3" class="edge"><title>Reconcile&#45;&gt;updateStatus</title>
<path fill="none" stroke="black" d="M97.5943,-59.9873C113.552,-55.2915 132.024,-49.8736 148.79,-45 160.742,-41.5257 173.557,-37.8247 185.758,-34.3124"/>
<polygon fill="black" stroke="black" points="186.74,-37.6719 195.383,-31.544 184.805,-30.9446 186.74,-37.6719"/>
</g>
<!-- updateGeneration -->
<g id="node7" class="node"><title>updateGeneration</title>
<ellipse fill="none" stroke="black" cx="243.682" cy="-126" rx="94.7833" ry="18"/>
<text text-anchor="middle" x="243.682" y="-122.3" font-family="Times,serif" font-size="14.00">updateGeneration</text>
</g>
<!-- Reconcile&#45;&gt;updateGeneration -->
<g id="edge1" class="edge"><title>Reconcile&#45;&gt;updateGeneration</title>
<path fill="none" stroke="black" d="M97.5943,-84.0127C113.552,-88.7085 132.024,-94.1264 148.79,-99 159.14,-102.009 170.137,-105.187 180.822,-108.266"/>
<polygon fill="black" stroke="black" points="179.942,-111.655 190.52,-111.058 181.878,-104.928 179.942,-111.655"/>
</g>
<!-- reconcileChild -->
<g id="node5" class="node"><title>reconcileChild</title>
<ellipse fill="none" stroke="black" cx="454.216" cy="-72" rx="78.7863" ry="18"/>
<text text-anchor="middle" x="454.216" y="-68.3" font-family="Times,serif" font-size="14.00">reconcileChild</text>
</g>
<!-- reconcile&#45;&gt;reconcileChild -->
<g id="edge4" class="edge"><title>reconcile&#45;&gt;reconcileChild</title>
<path fill="none" stroke="black" d="M297.843,-72C318.341,-72 342.339,-72 365.259,-72"/>
<polygon fill="black" stroke="black" points="365.349,-75.5001 375.349,-72 365.349,-68.5001 365.349,-75.5001"/>
</g>
<!-- reconcileChild&#45;&gt;MarkChildNotReconciled -->
<g id="edge5" class="edge"><title>reconcileChild&#45;&gt;MarkChildNotReconciled</title>
<path fill="none" stroke="black" d="M512.221,-84.1765C524.904,-86.6473 538.309,-89.0751 550.859,-91 617.592,-101.235 692.556,-109.568 753.35,-115.532"/>
<polygon fill="black" stroke="black" points="753.076,-119.022 763.368,-116.506 753.754,-112.055 753.076,-119.022"/>
<text text-anchor="middle" x="638.359" y="-116.8" font-family="Times,serif" font-size="14.00">Observed != Generation</text>
</g>
<!-- reconcileChild&#45;&gt;PropagateChildStatus -->
<g id="edge7" class="edge"><title>reconcileChild&#45;&gt;PropagateChildStatus</title>
<path fill="none" stroke="black" d="M512.221,-59.8235C524.904,-57.3527 538.309,-54.9249 550.859,-53 621.409,-42.1795 701.158,-33.4845 763.639,-27.4675"/>
<polygon fill="black" stroke="black" points="764.287,-30.9217 773.909,-26.4876 763.622,-23.9534 764.287,-30.9217"/>
<text text-anchor="middle" x="638.359" y="-56.8" font-family="Times,serif" font-size="14.00">success</text>
</g>
<!-- MarkReconcileError -->
<g id="node8" class="node"><title>MarkReconcileError</title>
<ellipse fill="none" stroke="black" cx="873.848" cy="-72" rx="106.681" ry="18"/>
<text text-anchor="middle" x="873.848" y="-68.3" font-family="Times,serif" font-size="14.00">MarkReconcileError</text>
</g>
<!-- reconcileChild&#45;&gt;MarkReconcileError -->
<g id="edge6" class="edge"><title>reconcileChild&#45;&gt;MarkReconcileError</title>
<path fill="none" stroke="black" d="M533.28,-72C596.173,-72 685.547,-72 756.819,-72"/>
<polygon fill="black" stroke="black" points="757.198,-75.5001 767.198,-72 757.198,-68.5001 757.198,-75.5001"/>
<text text-anchor="middle" x="638.359" y="-75.8" font-family="Times,serif" font-size="14.00">err</text>
</g>
</g>
</svg>
