<?xml version="1.0" encoding="UTF-8" standalone="no"?>
<!DOCTYPE svg PUBLIC "-//W3C//DTD SVG 1.1//EN"
 "http://www.w3.org/Graphics/SVG/1.1/DTD/svg11.dtd">
<!-- Generated by graphviz version 2.38.0 (20140413.2041)
 -->
<!-- Title: lifecycle Pages: 1 -->
<svg width="1159pt" height="730pt"
 viewBox="0.00 0.00 1158.64 730.00" xmlns="http://www.w3.org/2000/svg" xmlns:xlink="http://www.w3.org/1999/xlink">
<g id="graph0" class="graph" transform="scale(1 1) rotate(0) translate(4 726)">
<title>lifecycle</title>
<polygon fill="white" stroke="none" points="-4,4 -4,-726 1154.64,-726 1154.64,4 -4,4"/>
<g id="clust1" class="cluster"><title>cluster_service</title>
<g id="a_clust1"><a xlink:href="https://godoc.org/github.com/knative/serving/pkg/apis/serving/v1alpha1#ServiceStatus" xlink:title="Service">
<polygon fill="lightgrey" stroke="lightgrey" points="168,-567 168,-714 562,-714 562,-567 168,-567"/>
<text text-anchor="middle" x="365" y="-698.8" font-family="Times,serif" font-size="14.00">Service</text>
</a>
</g>
</g>
<g id="clust2" class="cluster"><title>cluster_route</title>
<g id="a_clust2"><a xlink:href="https://godoc.org/github.com/knative/serving/pkg/apis/serving/v1alpha1#RouteStatus" xlink:title="Route">
<polygon fill="lightgrey" stroke="lightgrey" points="88,-401 88,-559 466,-559 466,-401 88,-401"/>
<text text-anchor="middle" x="277" y="-543.8" font-family="Times,serif" font-size="14.00">Route</text>
</a>
</g>
</g>
<g id="clust3" class="cluster"><title>cluster_configuration</title>
<g id="a_clust3"><a xlink:href="https://godoc.org/github.com/knative/serving/pkg/apis/serving/v1alpha1#ConfigurationStatus" xlink:title="Configuration">
<polygon fill="lightgrey" stroke="lightgrey" points="595,-484 595,-559 710,-559 710,-484 595,-484"/>
<text text-anchor="middle" x="652.5" y="-543.8" font-family="Times,serif" font-size="14.00">Configuration</text>
</a>
</g>
</g>
<g id="clust4" class="cluster"><title>cluster_revision</title>
<g id="a_clust4"><a xlink:href="https://godoc.org/github.com/knative/serving/pkg/apis/serving/v1alpha1#RevisionStatus" xlink:title="Revision">
<polygon fill="lightgrey" stroke="lightgrey" points="618,-318 618,-476 1043,-476 1043,-318 618,-318"/>
<text text-anchor="middle" x="830.5" y="-460.8" font-family="Times,serif" font-size="14.00">Revision</text>
</a>
</g>
</g>
<g id="clust5" class="cluster"><title>cluster_ingress</title>
<g id="a_clust5"><a xlink:href="https://godoc.org/github.com/knative/serving/pkg/apis/networking/v1alpha1#IngressStatus" xlink:title="Ingress">
<polygon fill="lightgrey" stroke="lightgrey" points="8,-235 8,-393 456,-393 456,-235 8,-235"/>
<text text-anchor="middle" x="232" y="-377.8" font-family="Times,serif" font-size="14.00">Ingress</text>
</a>
</g>
</g>
<g id="clust6" class="cluster"><title>cluster_kpa</title>
<g id="a_clust6"><a xlink:href="https://godoc.org/github.com/knative/serving/pkg/apis/autoscaling/v1alpha1#PodAutoscalerStatus" xlink:title="PodAutoscaler">
<polygon fill="lightgrey" stroke="lightgrey" points="464,-235 464,-393 584,-393 584,-235 464,-235"/>
<text text-anchor="middle" x="524" y="-377.8" font-family="Times,serif" font-size="14.00">PodAutoscaler</text>
</a>
</g>
</g>
<g id="clust7" class="cluster"><title>cluster_certificate</title>
<g id="a_clust7"><a xlink:href="https://godoc.org/github.com/knative/serving/pkg/apis/networking/v1alpha1#CertificateStatus" xlink:title="Certificate">
<polygon fill="lightgrey" stroke="lightgrey" points="474,-401 474,-476 570,-476 570,-401 474,-401"/>
<text text-anchor="middle" x="522" y="-460.8" font-family="Times,serif" font-size="14.00">Certificate</text>
</a>
</g>
</g>
<g id="clust8" class="cluster"><title>cluster_sks</title>
<g id="a_clust8"><a xlink:href="https://godoc.org/github.com/knative/serving/pkg/apis/networking/v1alpha1#ServerlessServiceStatus" xlink:title="ServerlessService">
<polygon fill="lightgrey" stroke="lightgrey" points="356,-80 356,-227 582,-227 582,-80 356,-80"/>
<text text-anchor="middle" x="469" y="-211.8" font-family="Times,serif" font-size="14.00">ServerlessService</text>
</a>
</g>
</g>
<g id="clust9" class="cluster"><title>cluster_pods</title>
<g id="a_clust9"><a xlink:href="https://godoc.org/k8s.io/api/core/v1#PodStatus" xlink:title="Pod (approximate)">
<polygon fill="lightblue" stroke="lightblue" points="738,-8 738,-227 1070,-227 1070,-8 738,-8"/>
<text text-anchor="middle" x="904" y="-211.8" font-family="Times,serif" font-size="14.00">Pod (approximate)</text>
</a>
</g>
</g>
<g id="clust10" class="cluster"><title>cluster_deployment</title>
<g id="a_clust10"><a xlink:href="https://godoc.org/k8s.io/api/apps/v1#DeploymentStatus" xlink:title="Deployment (approximate)">
<polygon fill="lightblue" stroke="lightblue" points="622,-235 622,-310 1070,-310 1070,-235 622,-235"/>
<text text-anchor="middle" x="846" y="-294.8" font-family="Times,serif" font-size="14.00">Deployment (approximate)</text>
</a>
</g>
</g>
<!-- ServiceConditionReady -->
<g id="node1" class="node"><title>ServiceConditionReady</title>
<g id="a_node1"><a xlink:href="https://godoc.org/github.com/knative/serving/pkg/apis/serving/v1alpha1#ServiceConditionReady" xlink:title="Ready">
<ellipse fill="white" stroke="white" cx="346" cy="-665" rx="39.7935" ry="18"/>
<text text-anchor="middle" x="346" y="-661.3" font-family="Times,serif" font-size="14.00">Ready</text>
</a>
</g>
</g>
<!-- ServiceConditionConfigurationsReady -->
<g id="node2" class="node"><title>ServiceConditionConfigurationsReady</title>
<g id="a_node2"><a xlink:href="https://godoc.org/github.com/knative/serving/pkg/apis/serving/v1alpha1#ServiceConditionConfigurationsReady" xlink:title="ConfigurationsReady">
<ellipse fill="white" stroke="white" cx="445" cy="-593" rx="108.581" ry="18"/>
<text text-anchor="middle" x="445" y="-589.3" font-family="Times,serif" font-size="14.00">ConfigurationsReady</text>
</a>
</g>
</g>
<!-- ServiceConditionReady&#45;&gt;ServiceConditionConfigurationsReady -->
<g id="edge1" class="edge"><title>ServiceConditionReady&#45;&gt;ServiceConditionConfigurationsReady</title>
<path fill="none" stroke="black" d="M366.513,-649.496C379.989,-639.968 397.89,-627.31 413.193,-616.49"/>
<polygon fill="black" stroke="black" points="415.239,-619.33 421.383,-610.699 411.198,-613.614 415.239,-619.33"/>
</g>
<!-- ServiceConditionRoutesReady -->
<g id="node3" class="node"><title>ServiceConditionRoutesReady</title>
<g id="a_node3"><a xlink:href="https://godoc.org/github.com/knative/serving/pkg/apis/serving/v1alpha1#ServiceConditionRoutesReady" xlink:title="RoutesReady">
<ellipse fill="white" stroke="white" cx="247" cy="-593" rx="71.4873" ry="18"/>
<text text-anchor="middle" x="247" y="-589.3" font-family="Times,serif" font-size="14.00">RoutesReady</text>
</a>
</g>
</g>
<!-- ServiceConditionReady&#45;&gt;ServiceConditionRoutesReady -->
<g id="edge2" class="edge"><title>ServiceConditionReady&#45;&gt;ServiceConditionRoutesReady</title>
<path fill="none" stroke="black" d="M325.487,-649.496C311.82,-639.832 293.601,-626.95 278.157,-616.03"/>
<polygon fill="black" stroke="black" points="280.095,-613.114 269.909,-610.198 276.053,-618.829 280.095,-613.114"/>
</g>
<!-- ConfigurationConditionReady -->
<g id="node8" class="node"><title>ConfigurationConditionReady</title>
<g id="a_node8"><a xlink:href="https://godoc.org/github.com/knative/serving/pkg/apis/serving/v1alpha1#ConfigurationConditionReady" xlink:title="Ready">
<ellipse fill="white" stroke="white" cx="652" cy="-510" rx="39.7935" ry="18"/>
<text text-anchor="middle" x="652" y="-506.3" font-family="Times,serif" font-size="14.00">Ready</text>
</a>
</g>
</g>
<!-- ServiceConditionConfigurationsReady&#45;&gt;ConfigurationConditionReady -->
<g id="edge15" class="edge"><title>ServiceConditionConfigurationsReady&#45;&gt;ConfigurationConditionReady</title>
<path fill="none" stroke="black" d="M485.403,-576.19C522.557,-561.652 577.253,-540.249 613.72,-525.979"/>
<polygon fill="black" stroke="black" points="614.997,-529.238 623.034,-522.335 612.446,-522.719 614.997,-529.238"/>
</g>
<!-- RouteConditionReady -->
<g id="node4" class="node"><title>RouteConditionReady</title>
<g id="a_node4"><a xlink:href="https://godoc.org/github.com/knative/serving/pkg/apis/serving/v1alpha1#RouteConditionReady" xlink:title="Ready">
<ellipse fill="white" stroke="white" cx="170" cy="-510" rx="39.7935" ry="18"/>
<text text-anchor="middle" x="170" y="-506.3" font-family="Times,serif" font-size="14.00">Ready</text>
</a>
</g>
</g>
<!-- ServiceConditionRoutesReady&#45;&gt;RouteConditionReady -->
<g id="edge16" class="edge"><title>ServiceConditionRoutesReady&#45;&gt;RouteConditionReady</title>
<path fill="none" stroke="black" d="M231.046,-575.217C219.778,-563.363 204.531,-547.325 192.095,-534.243"/>
<polygon fill="black" stroke="black" points="194.575,-531.771 185.148,-526.935 189.501,-536.594 194.575,-531.771"/>
</g>
<!-- RouteConditionAllTrafficAssigned -->
<g id="node5" class="node"><title>RouteConditionAllTrafficAssigned</title>
<g id="a_node5"><a xlink:href="https://godoc.org/github.com/knative/serving/pkg/apis/serving/v1alpha1#RouteConditionAllTrafficAssigned" xlink:title="AllTrafficAssigned">
<ellipse fill="white" stroke="white" cx="193" cy="-427" rx="96.6831" ry="18"/>
<text text-anchor="middle" x="193" y="-423.3" font-family="Times,serif" font-size="14.00">AllTrafficAssigned</text>
</a>
</g>
</g>
<!-- RouteConditionReady&#45;&gt;RouteConditionAllTrafficAssigned -->
<g id="edge3" class="edge"><title>RouteConditionReady&#45;&gt;RouteConditionAllTrafficAssigned</title>
<path fill="none" stroke="black" d="M174.878,-491.822C177.927,-481.083 181.919,-467.025 185.38,-454.837"/>
<polygon fill="black" stroke="black" points="188.765,-455.729 188.129,-445.153 182.031,-453.817 188.765,-455.729"/>
</g>
<!-- RouteConditionIngressReady -->
<g id="node6" class="node"><title>RouteConditionIngressReady</title>
<g id="a_node6"><a xlink:href="https://godoc.org/github.com/knative/serving/pkg/apis/serving/v1alpha1#RouteConditionIngressReady" xlink:title="IngressReady">
<ellipse fill="white" stroke="white" cx="383" cy="-427" rx="74.9875" ry="18"/>
<text text-anchor="middle" x="383" y="-423.3" font-family="Times,serif" font-size="14.00">IngressReady</text>
</a>
</g>
</g>
<!-- RouteConditionReady&#45;&gt;RouteConditionIngressReady -->
<g id="edge4" class="edge"><title>RouteConditionReady&#45;&gt;RouteConditionIngressReady</title>
<path fill="none" stroke="black" d="M192.694,-495.2C200.735,-490.92 210.02,-486.638 219,-484 253.284,-473.929 264.964,-486.88 299,-476 317.724,-470.015 336.883,-459.47 352.167,-449.786"/>
<polygon fill="black" stroke="black" points="354.226,-452.622 360.686,-444.224 350.399,-446.761 354.226,-452.622"/>
</g>
<!-- IngressConditionReady -->
<g id="node13" class="node"><title>IngressConditionReady</title>
<g id="a_node13"><a xlink:href="https://godoc.org/github.com/knative/serving/pkg/apis/networking/v1alpha1#IngressConditionReady" xlink:title="Ready">
<ellipse fill="white" stroke="white" cx="344" cy="-344" rx="39.7935" ry="18"/>
<text text-anchor="middle" x="344" y="-340.3" font-family="Times,serif" font-size="14.00">Ready</text>
</a>
</g>
</g>
<!-- RouteConditionIngressReady&#45;&gt;IngressConditionReady -->
<g id="edge18" class="edge"><title>RouteConditionIngressReady&#45;&gt;IngressConditionReady</title>
<path fill="none" stroke="black" d="M374.729,-408.822C369.471,-397.902 362.562,-383.551 356.626,-371.224"/>
<polygon fill="black" stroke="black" points="359.617,-369.367 352.125,-361.876 353.31,-372.404 359.617,-369.367"/>
</g>
<!-- RouteConditionCertificateProvisioned -->
<g id="node7" class="node"><title>RouteConditionCertificateProvisioned</title>
<g id="a_node7"><a xlink:href="https://godoc.org/github.com/knative/serving/pkg/apis/serving/v1alpha1#RouteConditionCertificateProvisioned" xlink:title="CertificateProvisioned">
<ellipse fill="white" stroke="black" stroke-dasharray="5,2" cx="343" cy="-510" rx="115.08" ry="18"/>
<text text-anchor="middle" x="343" y="-506.3" font-family="Times,serif" font-size="14.00">CertificateProvisioned</text>
</a>
</g>
</g>
<!-- CertificateConditionReady -->
<g id="node18" class="node"><title>CertificateConditionReady</title>
<g id="a_node18"><a xlink:href="https://godoc.org/github.com/knative/serving/pkg/apis/networking/v1alpha1#CertificateConditionReady" xlink:title="Ready">
<ellipse fill="white" stroke="white" cx="522" cy="-427" rx="39.7935" ry="18"/>
<text text-anchor="middle" x="522" y="-423.3" font-family="Times,serif" font-size="14.00">Ready</text>
</a>
</g>
</g>
<!-- RouteConditionCertificateProvisioned&#45;&gt;CertificateConditionReady -->
<g id="edge17" class="edge"><title>RouteConditionCertificateProvisioned&#45;&gt;CertificateConditionReady</title>
<path fill="none" stroke="black" d="M417.199,-496.218C435.144,-491.395 453.805,-484.844 470,-476 481.625,-469.652 492.682,-460.137 501.586,-451.249"/>
<polygon fill="black" stroke="black" points="504.13,-453.654 508.525,-444.014 499.078,-448.809 504.13,-453.654"/>
</g>
<!-- RevisionConditionReady -->
<g id="node9" class="node"><title>RevisionConditionReady</title>
<g id="a_node9"><a xlink:href="https://godoc.org/github.com/knative/serving/pkg/apis/serving/v1alpha1#RevisionConditionReady" xlink:title="Ready">
<ellipse fill="white" stroke="white" cx="764" cy="-427" rx="39.7935" ry="18"/>
<text text-anchor="middle" x="764" y="-423.3" font-family="Times,serif" font-size="14.00">Ready</text>
</a>
</g>
</g>
<!-- ConfigurationConditionReady&#45;&gt;RevisionConditionReady -->
<g id="edge19" class="edge"><title>ConfigurationConditionReady&#45;&gt;RevisionConditionReady</title>
<path fill="none" stroke="black" d="M679.383,-496.837C690.839,-491.205 704.016,-483.989 715,-476 724.881,-468.814 734.711,-459.679 742.946,-451.31"/>
<polygon fill="black" stroke="black" points="745.632,-453.565 750.014,-443.919 740.573,-448.727 745.632,-453.565"/>
</g>
<!-- RevisionConditionResourcesAvailable -->
<g id="node10" class="node"><title>RevisionConditionResourcesAvailable</title>
<g id="a_node10"><a xlink:href="https://godoc.org/github.com/knative/serving/pkg/apis/serving/v1alpha1#RevisionConditionResourcesAvailable" xlink:title="ResourcesAvailable">
<ellipse fill="white" stroke="white" cx="727" cy="-344" rx="101.282" ry="18"/>
<text text-anchor="middle" x="727" y="-340.3" font-family="Times,serif" font-size="14.00">ResourcesAvailable</text>
</a>
</g>
</g>
<!-- RevisionConditionReady&#45;&gt;RevisionConditionResourcesAvailable -->
<g id="edge5" class="edge"><title>RevisionConditionReady&#45;&gt;RevisionConditionResourcesAvailable</title>
<path fill="none" stroke="black" d="M756.334,-409.217C751.356,-398.321 744.764,-383.888 739.089,-371.466"/>
<polygon fill="black" stroke="black" points="742.122,-369.682 734.784,-362.04 735.755,-372.591 742.122,-369.682"/>
</g>
<!-- RevisionConditionContainerHealthy -->
<g id="node11" class="node"><title>RevisionConditionContainerHealthy</title>
<g id="a_node11"><a xlink:href="https://godoc.org/github.com/knative/serving/pkg/apis/serving/v1alpha1#RevisionConditionContainerHealthy" xlink:title="ContainerHealthy">
<ellipse fill="white" stroke="white" cx="941" cy="-344" rx="94.4839" ry="18"/>
<text text-anchor="middle" x="941" y="-340.3" font-family="Times,serif" font-size="14.00">ContainerHealthy</text>
</a>
</g>
</g>
<!-- RevisionConditionReady&#45;&gt;RevisionConditionContainerHealthy -->
<g id="edge6" class="edge"><title>RevisionConditionReady&#45;&gt;RevisionConditionContainerHealthy</title>
<path fill="none" stroke="black" d="M791.064,-413.827C804.83,-407.619 821.819,-399.935 837,-393 856.961,-383.882 879.039,-373.705 897.699,-365.077"/>
<polygon fill="black" stroke="black" points="899.231,-368.225 906.837,-360.849 896.292,-361.872 899.231,-368.225"/>
</g>
<!-- PodScheduled -->
<g id="node22" class="node"><title>PodScheduled</title>
<g id="a_node22"><a xlink:href="https://godoc.org/k8s.io/api/core/v1#PodScheduled" xlink:title="Scheduled">
<ellipse fill="white" stroke="white" cx="805" cy="-34" rx="59.2899" ry="18"/>
<text text-anchor="middle" x="805" y="-30.3" font-family="Times,serif" font-size="14.00">Scheduled</text>
</a>
</g>
</g>
<!-- RevisionConditionResourcesAvailable&#45;&gt;PodScheduled -->
<g id="edge24" class="edge"><title>RevisionConditionResourcesAvailable&#45;&gt;PodScheduled</title>
<path fill="none" stroke="black" d="M648.302,-332.537C636.455,-327.528 625.659,-320.321 618,-310 598.136,-283.232 607.281,-266.563 618,-235 645.928,-152.763 673.472,-139.221 737,-80 746.642,-71.0122 758.265,-62.6095 769.153,-55.5553"/>
<polygon fill="black" stroke="black" points="771.07,-58.4847 777.676,-50.2016 767.346,-52.5572 771.07,-58.4847"/>
</g>
<!-- ContainerStatus -->
<g id="node25" class="node"><title>ContainerStatus</title>
<g id="a_node25"><a xlink:href="https://godoc.org/k8s.io/api/core/v1#ContainerStatus" xlink:title="ContainerStatus">
<ellipse fill="white" stroke="white" cx="975" cy="-34" rx="87.1846" ry="18"/>
<text text-anchor="middle" x="975" y="-30.3" font-family="Times,serif" font-size="14.00">ContainerStatus</text>
</a>
</g>
</g>
<!-- RevisionConditionResourcesAvailable&#45;&gt;ContainerStatus -->
<g id="edge23" class="edge"><title>RevisionConditionResourcesAvailable&#45;&gt;ContainerStatus</title>
<path fill="none" stroke="black" d="M780.837,-328.74C798.879,-324.535 819.191,-320.415 838,-318 851.012,-316.329 1064.88,-319.432 1074,-310 1095.85,-287.395 1111.52,-142.409 1071,-80 1063.1,-67.8331 1050.96,-58.8925 1037.95,-52.345"/>
<polygon fill="black" stroke="black" points="1039.39,-49.1559 1028.84,-48.1842 1036.49,-55.523 1039.39,-49.1559"/>
</g>
<!-- DeploymentProgressing -->
<g id="node27" class="node"><title>DeploymentProgressing</title>
<g id="a_node27"><a xlink:href="https://godoc.org/k8s.io/api/apps/v1#DeploymentProgressing" xlink:title="Progressing">
<ellipse fill="white" stroke="white" cx="871" cy="-261" rx="66.8882" ry="18"/>
<text text-anchor="middle" x="871" y="-257.3" font-family="Times,serif" font-size="14.00">Progressing</text>
</a>
</g>
</g>
<!-- RevisionConditionResourcesAvailable&#45;&gt;DeploymentProgressing -->
<g id="edge25" class="edge"><title>RevisionConditionResourcesAvailable&#45;&gt;DeploymentProgressing</title>
<path fill="none" stroke="black" d="M761.976,-326.947C772.7,-321.78 784.449,-315.868 795,-310 809.516,-301.927 825.099,-292.269 838.353,-283.74"/>
<polygon fill="black" stroke="black" points="840.635,-286.432 847.115,-278.049 836.822,-280.561 840.635,-286.432"/>
</g>
<!-- RevisionConditionContainerHealthy&#45;&gt;ContainerStatus -->
<g id="edge22" class="edge"><title>RevisionConditionContainerHealthy&#45;&gt;ContainerStatus</title>
<path fill="none" stroke="black" d="M1024.86,-335.754C1059.23,-330.885 1093.44,-322.907 1104,-310 1168.71,-230.871 1163.19,-163.34 1104,-80 1092.77,-64.1912 1075.56,-53.8901 1057.33,-47.1913"/>
<polygon fill="black" stroke="black" points="1058.33,-43.8337 1047.73,-44.0065 1056.12,-50.4775 1058.33,-43.8337"/>
</g>
<!-- RevisionConditionActive -->
<g id="node12" class="node"><title>RevisionConditionActive</title>
<g id="a_node12"><a xlink:href="https://godoc.org/github.com/knative/serving/pkg/apis/serving/v1alpha1#RevisionConditionActive" xlink:title="Active">
<ellipse fill="white" stroke="black" stroke-dasharray="5,2" cx="666" cy="-427" rx="40.0939" ry="18"/>
<text text-anchor="middle" x="666" y="-423.3" font-family="Times,serif" font-size="14.00">Active</text>
</a>
</g>
</g>
<!-- PodAutoscalerConditionReady -->
<g id="node16" class="node"><title>PodAutoscalerConditionReady</title>
<g id="a_node16"><a xlink:href="https://godoc.org/github.com/knative/serving/pkg/apis/autoscaling/v1alpha1#PodAutoscalerConditionReady" xlink:title="Ready">
<ellipse fill="white" stroke="white" cx="523" cy="-344" rx="39.7935" ry="18"/>
<text text-anchor="middle" x="523" y="-340.3" font-family="Times,serif" font-size="14.00">Ready</text>
</a>
</g>
</g>
<!-- RevisionConditionActive&#45;&gt;PodAutoscalerConditionReady -->
<g id="edge20" class="edge"><title>RevisionConditionActive&#45;&gt;PodAutoscalerConditionReady</title>
<path fill="none" stroke="black" d="M642.065,-412.442C618.452,-399.067 582.172,-378.517 555.865,-363.616"/>
<polygon fill="black" stroke="black" points="557.439,-360.485 547.013,-358.602 553.989,-366.576 557.439,-360.485"/>
</g>
<!-- IngressConditionNetworkConfigured -->
<g id="node14" class="node"><title>IngressConditionNetworkConfigured</title>
<g id="a_node14"><a xlink:href="https://godoc.org/github.com/knative/serving/pkg/apis/networking/v1alpha1#IngressConditionNetworkConfigured" xlink:title="NetworkConfigured">
<ellipse fill="white" stroke="white" cx="119" cy="-261" rx="103.182" ry="18"/>
<text text-anchor="middle" x="119" y="-257.3" font-family="Times,serif" font-size="14.00">NetworkConfigured</text>
</a>
</g>
</g>
<!-- IngressConditionReady&#45;&gt;IngressConditionNetworkConfigured -->
<g id="edge7" class="edge"><title>IngressConditionReady&#45;&gt;IngressConditionNetworkConfigured</title>
<path fill="none" stroke="black" d="M310.035,-334.233C287.418,-328.114 257.162,-319.387 231,-310 208.138,-301.797 183.254,-291.296 162.761,-282.21"/>
<polygon fill="black" stroke="black" points="163.937,-278.902 153.38,-278.013 161.079,-285.292 163.937,-278.902"/>
</g>
<!-- IngressConditionLoadBalancerReady -->
<g id="node15" class="node"><title>IngressConditionLoadBalancerReady</title>
<g id="a_node15"><a xlink:href="https://godoc.org/github.com/knative/serving/pkg/apis/networking/v1alpha1#IngressConditionLoadBalancerReady" xlink:title="LoadBalancerReady">
<ellipse fill="white" stroke="white" cx="344" cy="-261" rx="103.982" ry="18"/>
<text text-anchor="middle" x="344" y="-257.3" font-family="Times,serif" font-size="14.00">LoadBalancerReady</text>
</a>
</g>
</g>
<!-- IngressConditionReady&#45;&gt;IngressConditionLoadBalancerReady -->
<g id="edge8" class="edge"><title>IngressConditionReady&#45;&gt;IngressConditionLoadBalancerReady</title>
<path fill="none" stroke="black" d="M344,-325.822C344,-315.19 344,-301.306 344,-289.204"/>
<polygon fill="black" stroke="black" points="347.5,-289.153 344,-279.153 340.5,-289.153 347.5,-289.153"/>
</g>
<!-- PodAutoscalerConditionActive -->
<g id="node17" class="node"><title>PodAutoscalerConditionActive</title>
<g id="a_node17"><a xlink:href="https://godoc.org/github.com/knative/serving/pkg/apis/autoscaling/v1alpha1#PodAutoscalerConditionActive" xlink:title="Active">
<ellipse fill="white" stroke="white" cx="518" cy="-261" rx="40.0939" ry="18"/>
<text text-anchor="middle" x="518" y="-257.3" font-family="Times,serif" font-size="14.00">Active</text>
</a>
</g>
</g>
<!-- PodAutoscalerConditionReady&#45;&gt;PodAutoscalerConditionActive -->
<g id="edge9" class="edge"><title>PodAutoscalerConditionReady&#45;&gt;PodAutoscalerConditionActive</title>
<path fill="none" stroke="black" d="M521.94,-325.822C521.283,-315.19 520.426,-301.306 519.679,-289.204"/>
<polygon fill="black" stroke="black" points="523.168,-288.919 519.059,-279.153 516.182,-289.35 523.168,-288.919"/>
</g>
<!-- ServerlessServiceConditionReady -->
<g id="node19" class="node"><title>ServerlessServiceConditionReady</title>
<g id="a_node19"><a xlink:href="https://godoc.org/github.com/knative/serving/pkg/apis/networking/v1alpha1#ServerlessServiceConditionReady" xlink:title="Ready">
<ellipse fill="white" stroke="white" cx="493" cy="-178" rx="39.7935" ry="18"/>
<text text-anchor="middle" x="493" y="-174.3" font-family="Times,serif" font-size="14.00">Ready</text>
</a>
</g>
</g>
<!-- PodAutoscalerConditionActive&#45;&gt;ServerlessServiceConditionReady -->
<g id="edge21" class="edge"><title>PodAutoscalerConditionActive&#45;&gt;ServerlessServiceConditionReady</title>
<path fill="none" stroke="black" d="M512.698,-242.822C509.361,-232.01 504.986,-217.835 501.207,-205.591"/>
<polygon fill="black" stroke="black" points="504.502,-204.399 498.208,-195.876 497.813,-206.463 504.502,-204.399"/>
</g>
<!-- ServerlessServiceConditionEndspointsPopulated -->
<g id="node20" class="node"><title>ServerlessServiceConditionEndspointsPopulated</title>
<g id="a_node20"><a xlink:href="https://godoc.org/github.com/knative/serving/pkg/apis/networking/v1alpha1#ServerlessServiceConditionEndspointsPopulated" xlink:title="EndpointsPopulated">
<ellipse fill="white" stroke="white" cx="469" cy="-106" rx="104.782" ry="18"/>
<text text-anchor="middle" x="469" y="-102.3" font-family="Times,serif" font-size="14.00">EndpointsPopulated</text>
</a>
</g>
</g>
<!-- ServerlessServiceConditionReady&#45;&gt;ServerlessServiceConditionEndspointsPopulated -->
<g id="edge10" class="edge"><title>ServerlessServiceConditionReady&#45;&gt;ServerlessServiceConditionEndspointsPopulated</title>
<path fill="none" stroke="black" d="M487.19,-160.055C484.489,-152.176 481.211,-142.617 478.187,-133.794"/>
<polygon fill="black" stroke="black" points="481.477,-132.6 474.923,-124.275 474.855,-134.87 481.477,-132.6"/>
</g>
<!-- PodReady -->
<g id="node21" class="node"><title>PodReady</title>
<g id="a_node21"><a xlink:href="https://godoc.org/k8s.io/api/core/v1#PodReady" xlink:title="Ready">
<ellipse fill="white" stroke="white" cx="971" cy="-178" rx="39.7935" ry="18"/>
<text text-anchor="middle" x="971" y="-174.3" font-family="Times,serif" font-size="14.00">Ready</text>
</a>
</g>
</g>
<!-- PodInitialized -->
<g id="node23" class="node"><title>PodInitialized</title>
<g id="a_node23"><a xlink:href="https://godoc.org/k8s.io/api/core/v1#PodInitialized" xlink:title="Initialized">
<ellipse fill="white" stroke="white" cx="804" cy="-106" rx="57.6901" ry="18"/>
<text text-anchor="middle" x="804" y="-102.3" font-family="Times,serif" font-size="14.00">Initialized</text>
</a>
</g>
</g>
<!-- PodReady&#45;&gt;PodInitialized -->
<g id="edge12" class="edge"><title>PodReady&#45;&gt;PodInitialized</title>
<path fill="none" stroke="black" d="M942.671,-165.125C916.304,-154.074 876.653,-137.453 846.495,-124.812"/>
<polygon fill="black" stroke="black" points="847.641,-121.498 837.066,-120.86 844.935,-127.954 847.641,-121.498"/>
</g>
<!-- ContainersReady -->
<g id="node24" class="node"><title>ContainersReady</title>
<g id="a_node24"><a xlink:href="https://godoc.org/k8s.io/api/core/v1#ContainersReady" xlink:title="ContainersReady">
<ellipse fill="white" stroke="white" cx="971" cy="-106" rx="90.9839" ry="18"/>
<text text-anchor="middle" x="971" y="-102.3" font-family="Times,serif" font-size="14.00">ContainersReady</text>
</a>
</g>
</g>
<!-- PodReady&#45;&gt;ContainersReady -->
<g id="edge11" class="edge"><title>PodReady&#45;&gt;ContainersReady</title>
<path fill="none" stroke="black" d="M971,-159.697C971,-151.983 971,-142.712 971,-134.112"/>
<polygon fill="black" stroke="black" points="974.5,-134.104 971,-124.104 967.5,-134.104 974.5,-134.104"/>
</g>
<!-- PodInitialized&#45;&gt;PodScheduled -->
<g id="edge13" class="edge"><title>PodInitialized&#45;&gt;PodScheduled</title>
<path fill="none" stroke="black" d="M804.247,-87.6966C804.357,-79.9827 804.49,-70.7125 804.613,-62.1124"/>
<polygon fill="black" stroke="black" points="808.112,-62.1533 804.756,-52.1043 801.113,-62.0533 808.112,-62.1533"/>
</g>
<!-- ContainersReady&#45;&gt;ContainerStatus -->
<g id="edge14" class="edge"><title>ContainersReady&#45;&gt;ContainerStatus</title>
<path fill="none" stroke="black" d="M971.989,-87.6966C972.43,-79.9827 972.959,-70.7125 973.451,-62.1124"/>
<polygon fill="black" stroke="black" points="976.946,-62.2878 974.023,-52.1043 969.958,-61.8883 976.946,-62.2878"/>
</g>
<!-- DeploymentAvailable -->
<g id="node26" class="node"><title>DeploymentAvailable</title>
<g id="a_node26"><a xlink:href="https://godoc.org/k8s.io/api/apps/v1#DeploymentAvailable" xlink:title="Available">
<ellipse fill="white" stroke="white" cx="1009" cy="-261" rx="53.0913" ry="18"/>
<text text-anchor="middle" x="1009" y="-257.3" font-family="Times,serif" font-size="14.00">Available</text>
</a>
</g>
</g>
<!-- DeploymentAvailable&#45;&gt;PodReady -->
<g id="edge26" class="edge"><title>DeploymentAvailable&#45;&gt;PodReady</title>
<path fill="none" stroke="black" d="M1000.94,-242.822C995.818,-231.902 989.086,-217.551 983.303,-205.224"/>
<polygon fill="black" stroke="black" points="986.333,-203.442 978.917,-195.876 979.996,-206.415 986.333,-203.442"/>
</g>
<!-- DeploymentReplicaFailure -->
<g id="node28" class="node"><title>DeploymentReplicaFailure</title>
<g id="a_node28"><a xlink:href="https://godoc.org/k8s.io/api/apps/v1#DeploymentReplicaFailure" xlink:title="ReplicaFailure">
<ellipse fill="white" stroke="white" cx="708" cy="-261" rx="77.9862" ry="18"/>
<text text-anchor="middle" x="708" y="-257.3" font-family="Times,serif" font-size="14.00">ReplicaFailure</text>
</a>
</g>
</g>
</g>
</svg>
