<?xml version="1.0" encoding="UTF-8" standalone="no"?>
<!DOCTYPE svg PUBLIC "-//W3C//DTD SVG 1.1//EN"
 "http://www.w3.org/Graphics/SVG/1.1/DTD/svg11.dtd">
<!-- Generated by graphviz version 2.38.0 (20140413.2041)
 -->
<!-- Title: lifecycle Pages: 1 -->
<svg width="1782pt" height="899pt"
 viewBox="0.00 0.00 1782.00 899.00" xmlns="http://www.w3.org/2000/svg" xmlns:xlink="http://www.w3.org/1999/xlink">
<g id="graph0" class="graph" transform="scale(1 1) rotate(0) translate(4 895)">
<title>lifecycle</title>
<polygon fill="white" stroke="none" points="-4,4 -4,-895 1778,-895 1778,4 -4,4"/>
<g id="clust1" class="cluster"><title>cluster_service</title>
<g id="a_clust1"><a xlink:href="https://godoc.org/github.com/knative/serving/pkg/apis/serving/v1alpha1#ServiceStatus" xlink:title="Service">
<polygon fill="lightgrey" stroke="lightgrey" points="329,-736 329,-883 723,-883 723,-736 329,-736"/>
<text text-anchor="middle" x="526" y="-867.8" font-family="Times,serif" font-size="14.00">Service</text>
</a>
</g>
</g>
<g id="clust2" class="cluster"><title>cluster_route</title>
<g id="a_clust2"><a xlink:href="https://godoc.org/github.com/knative/serving/pkg/apis/serving/v1alpha1#RouteStatus" xlink:title="Route">
<polygon fill="lightgrey" stroke="lightgrey" points="112,-570 112,-728 490,-728 490,-570 112,-570"/>
<text text-anchor="middle" x="301" y="-712.8" font-family="Times,serif" font-size="14.00">Route</text>
</a>
</g>
</g>
<g id="clust3" class="cluster"><title>cluster_configuration</title>
<g id="a_clust3"><a xlink:href="https://godoc.org/github.com/knative/serving/pkg/apis/serving/v1alpha1#ConfigurationStatus" xlink:title="Configuration">
<polygon fill="lightgrey" stroke="lightgrey" points="549,-653 549,-728 664,-728 664,-653 549,-653"/>
<text text-anchor="middle" x="606.5" y="-712.8" font-family="Times,serif" font-size="14.00">Configuration</text>
</a>
</g>
</g>
<g id="clust4" class="cluster"><title>cluster_revision</title>
<g id="a_clust4"><a xlink:href="https://godoc.org/github.com/knative/serving/pkg/apis/serving/v1alpha1#RevisionStatus" xlink:title="Revision">
<polygon fill="lightgrey" stroke="lightgrey" points="501,-487 501,-645 926,-645 926,-487 501,-487"/>
<text text-anchor="middle" x="713.5" y="-629.8" font-family="Times,serif" font-size="14.00">Revision</text>
</a>
</g>
</g>
<g id="clust5" class="cluster"><title>cluster_ingress</title>
<g id="a_clust5"><a xlink:href="https://godoc.org/github.com/knative/serving/pkg/apis/networking/v1alpha1#IngressStatus" xlink:title="Ingress">
<polygon fill="lightgrey" stroke="lightgrey" points="28,-404 28,-562 476,-562 476,-404 28,-404"/>
<text text-anchor="middle" x="252" y="-546.8" font-family="Times,serif" font-size="14.00">Ingress</text>
</a>
</g>
</g>
<g id="clust6" class="cluster"><title>cluster_certificate</title>
<g id="a_clust6"><a xlink:href="https://godoc.org/github.com/knative/serving/pkg/apis/networking/v1alpha1#CertificateStatus" xlink:title="Certificate">
<polygon fill="lightgrey" stroke="lightgrey" points="8,-570 8,-645 104,-645 104,-570 8,-570"/>
<text text-anchor="middle" x="56" y="-629.8" font-family="Times,serif" font-size="14.00">Certificate</text>
</a>
</g>
</g>
<g id="clust7" class="cluster"><title>cluster_kpa</title>
<g id="a_clust7"><a xlink:href="https://godoc.org/github.com/knative/serving/pkg/apis/autoscaling/v1alpha1#PodAutoscalerStatus" xlink:title="PodAutoscaler">
<polygon fill="lightgrey" stroke="lightgrey" points="1155,-404 1155,-562 1275,-562 1275,-404 1155,-404"/>
<text text-anchor="middle" x="1215" y="-546.8" font-family="Times,serif" font-size="14.00">PodAutoscaler</text>
</a>
</g>
</g>
<g id="clust8" class="cluster"><title>cluster_decider</title>
<g id="a_clust8"><a xlink:href="https://godoc.org/github.com/knative/serving/pkg/autoscaler#DeciderStatus" xlink:title="Decider">
<polygon fill="linen" stroke="linen" points="1072,-91 1072,-166 1386,-166 1386,-91 1072,-91"/>
<text text-anchor="middle" x="1229" y="-150.8" font-family="Times,serif" font-size="14.00">Decider</text>
</a>
</g>
</g>
<g id="clust9" class="cluster"><title>cluster_metric</title>
<g id="a_clust9"><a xlink:href="https://godoc.org/github.com/knative/serving/pkg/apis/autoscaling/v1alpha1#MetricStatus" xlink:title="Metric">
<polygon fill="linen" stroke="linen" points="1003,-8 1003,-83 1270,-83 1270,-8 1003,-8"/>
<text text-anchor="middle" x="1136.5" y="-67.8" font-family="Times,serif" font-size="14.00">Metric</text>
</a>
</g>
</g>
<g id="clust10" class="cluster"><title>cluster_sks</title>
<g id="a_clust10"><a xlink:href="https://godoc.org/github.com/knative/serving/pkg/apis/networking/v1alpha1#ServerlessServiceStatus" xlink:title="ServerlessService">
<polygon fill="lightgrey" stroke="lightgrey" points="1155,-174 1155,-396 1564,-396 1564,-174 1155,-174"/>
<text text-anchor="middle" x="1359.5" y="-380.8" font-family="Times,serif" font-size="14.00">ServerlessService</text>
</a>
</g>
</g>
<g id="clust11" class="cluster"><title>cluster_pods</title>
<g id="a_clust11"><a xlink:href="https://godoc.org/k8s.io/api/core/v1#PodStatus" xlink:title="Pod (approximate)">
<polygon fill="lightblue" stroke="lightblue" points="699,-174 699,-396 1031,-396 1031,-174 699,-174"/>
<text text-anchor="middle" x="865" y="-380.8" font-family="Times,serif" font-size="14.00">Pod (approximate)</text>
</a>
</g>
</g>
<g id="clust12" class="cluster"><title>cluster_deployment</title>
<g id="a_clust12"><a xlink:href="https://godoc.org/k8s.io/api/apps/v1#DeploymentStatus" xlink:title="Deployment (approximate)">
<polygon fill="lightblue" stroke="lightblue" points="699,-404 699,-479 1147,-479 1147,-404 699,-404"/>
<text text-anchor="middle" x="923" y="-463.8" font-family="Times,serif" font-size="14.00">Deployment (approximate)</text>
</a>
</g>
</g>
<g id="clust13" class="cluster"><title>cluster_endpoints</title>
<g id="a_clust13"><a xlink:href="https://godoc.org/k8s.io/kubernetes/pkg/apis/core#Endpoints" xlink:title="Endpoints (approximate)">
<polygon fill="lightblue" stroke="lightblue" points="1572,-174 1572,-249 1766,-249 1766,-174 1572,-174"/>
<text text-anchor="middle" x="1669" y="-233.8" font-family="Times,serif" font-size="14.00">Endpoints (approximate)</text>
</a>
</g>
</g>
<!-- ServiceConditionReady -->
<g id="node1" class="node"><title>ServiceConditionReady</title>
<g id="a_node1"><a xlink:href="https://godoc.org/github.com/knative/serving/pkg/apis/serving/v1alpha1#ServiceConditionReady" xlink:title="Ready">
<ellipse fill="white" stroke="white" cx="507" cy="-834" rx="39.7935" ry="18"/>
<text text-anchor="middle" x="507" y="-830.3" font-family="Times,serif" font-size="14.00">Ready</text>
</a>
</g>
</g>
<!-- ServiceConditionConfigurationsReady -->
<g id="node2" class="node"><title>ServiceConditionConfigurationsReady</title>
<g id="a_node2"><a xlink:href="https://godoc.org/github.com/knative/serving/pkg/apis/serving/v1alpha1#ServiceConditionConfigurationsReady" xlink:title="ConfigurationsReady">
<ellipse fill="white" stroke="white" cx="606" cy="-762" rx="108.581" ry="18"/>
<text text-anchor="middle" x="606" y="-758.3" font-family="Times,serif" font-size="14.00">ConfigurationsReady</text>
</a>
</g>
</g>
<!-- ServiceConditionReady&#45;&gt;ServiceConditionConfigurationsReady -->
<g id="edge1" class="edge"><title>ServiceConditionReady&#45;&gt;ServiceConditionConfigurationsReady</title>
<path fill="none" stroke="black" d="M527.513,-818.496C540.989,-808.968 558.89,-796.31 574.193,-785.49"/>
<polygon fill="black" stroke="black" points="576.239,-788.33 582.383,-779.699 572.198,-782.614 576.239,-788.33"/>
</g>
<!-- ServiceConditionRoutesReady -->
<g id="node3" class="node"><title>ServiceConditionRoutesReady</title>
<g id="a_node3"><a xlink:href="https://godoc.org/github.com/knative/serving/pkg/apis/serving/v1alpha1#ServiceConditionRoutesReady" xlink:title="RoutesReady">
<ellipse fill="white" stroke="white" cx="408" cy="-762" rx="71.4873" ry="18"/>
<text text-anchor="middle" x="408" y="-758.3" font-family="Times,serif" font-size="14.00">RoutesReady</text>
</a>
</g>
</g>
<!-- ServiceConditionReady&#45;&gt;ServiceConditionRoutesReady -->
<g id="edge2" class="edge"><title>ServiceConditionReady&#45;&gt;ServiceConditionRoutesReady</title>
<path fill="none" stroke="black" d="M486.487,-818.496C472.82,-808.832 454.601,-795.95 439.157,-785.03"/>
<polygon fill="black" stroke="black" points="441.095,-782.114 430.909,-779.198 437.053,-787.829 441.095,-782.114"/>
</g>
<!-- ConfigurationConditionReady -->
<g id="node8" class="node"><title>ConfigurationConditionReady</title>
<g id="a_node8"><a xlink:href="https://godoc.org/github.com/knative/serving/pkg/apis/serving/v1alpha1#ConfigurationConditionReady" xlink:title="Ready">
<ellipse fill="white" stroke="white" cx="606" cy="-679" rx="39.7935" ry="18"/>
<text text-anchor="middle" x="606" y="-675.3" font-family="Times,serif" font-size="14.00">Ready</text>
</a>
</g>
</g>
<!-- ServiceConditionConfigurationsReady&#45;&gt;ConfigurationConditionReady -->
<g id="edge16" class="edge"><title>ServiceConditionConfigurationsReady&#45;&gt;ConfigurationConditionReady</title>
<path fill="none" stroke="black" d="M606,-743.822C606,-733.19 606,-719.306 606,-707.204"/>
<polygon fill="black" stroke="black" points="609.5,-707.153 606,-697.153 602.5,-707.153 609.5,-707.153"/>
</g>
<!-- RouteConditionReady -->
<g id="node4" class="node"><title>RouteConditionReady</title>
<g id="a_node4"><a xlink:href="https://godoc.org/github.com/knative/serving/pkg/apis/serving/v1alpha1#RouteConditionReady" xlink:title="Ready">
<ellipse fill="white" stroke="white" cx="408" cy="-679" rx="39.7935" ry="18"/>
<text text-anchor="middle" x="408" y="-675.3" font-family="Times,serif" font-size="14.00">Ready</text>
</a>
</g>
</g>
<!-- ServiceConditionRoutesReady&#45;&gt;RouteConditionReady -->
<g id="edge17" class="edge"><title>ServiceConditionRoutesReady&#45;&gt;RouteConditionReady</title>
<path fill="none" stroke="black" d="M408,-743.822C408,-733.19 408,-719.306 408,-707.204"/>
<polygon fill="black" stroke="black" points="411.5,-707.153 408,-697.153 404.5,-707.153 411.5,-707.153"/>
</g>
<!-- RouteConditionAllTrafficAssigned -->
<g id="node5" class="node"><title>RouteConditionAllTrafficAssigned</title>
<g id="a_node5"><a xlink:href="https://godoc.org/github.com/knative/serving/pkg/apis/serving/v1alpha1#RouteConditionAllTrafficAssigned" xlink:title="AllTrafficAssigned">
<ellipse fill="white" stroke="white" cx="385" cy="-596" rx="96.6831" ry="18"/>
<text text-anchor="middle" x="385" y="-592.3" font-family="Times,serif" font-size="14.00">AllTrafficAssigned</text>
</a>
</g>
</g>
<!-- RouteConditionReady&#45;&gt;RouteConditionAllTrafficAssigned -->
<g id="edge3" class="edge"><title>RouteConditionReady&#45;&gt;RouteConditionAllTrafficAssigned</title>
<path fill="none" stroke="black" d="M403.122,-660.822C400.073,-650.083 396.081,-636.025 392.62,-623.837"/>
<polygon fill="black" stroke="black" points="395.969,-622.817 389.871,-614.153 389.235,-624.729 395.969,-622.817"/>
</g>
<!-- RouteConditionIngressReady -->
<g id="node6" class="node"><title>RouteConditionIngressReady</title>
<g id="a_node6"><a xlink:href="https://godoc.org/github.com/knative/serving/pkg/apis/serving/v1alpha1#RouteConditionIngressReady" xlink:title="IngressReady">
<ellipse fill="white" stroke="white" cx="195" cy="-596" rx="74.9875" ry="18"/>
<text text-anchor="middle" x="195" y="-592.3" font-family="Times,serif" font-size="14.00">IngressReady</text>
</a>
</g>
</g>
<!-- RouteConditionReady&#45;&gt;RouteConditionIngressReady -->
<g id="edge4" class="edge"><title>RouteConditionReady&#45;&gt;RouteConditionIngressReady</title>
<path fill="none" stroke="black" d="M385.306,-664.2C377.265,-659.92 367.98,-655.638 359,-653 324.716,-642.929 313.036,-655.88 279,-645 260.276,-639.015 241.117,-628.47 225.833,-618.786"/>
<polygon fill="black" stroke="black" points="227.601,-615.761 217.314,-613.224 223.774,-621.622 227.601,-615.761"/>
</g>
<!-- IngressConditionReady -->
<g id="node13" class="node"><title>IngressConditionReady</title>
<g id="a_node13"><a xlink:href="https://godoc.org/github.com/knative/serving/pkg/apis/networking/v1alpha1#IngressConditionReady" xlink:title="Ready">
<ellipse fill="white" stroke="white" cx="195" cy="-513" rx="39.7935" ry="18"/>
<text text-anchor="middle" x="195" y="-509.3" font-family="Times,serif" font-size="14.00">Ready</text>
</a>
</g>
</g>
<!-- RouteConditionIngressReady&#45;&gt;IngressConditionReady -->
<g id="edge19" class="edge"><title>RouteConditionIngressReady&#45;&gt;IngressConditionReady</title>
<path fill="none" stroke="black" d="M195,-577.822C195,-567.19 195,-553.306 195,-541.204"/>
<polygon fill="black" stroke="black" points="198.5,-541.153 195,-531.153 191.5,-541.153 198.5,-541.153"/>
</g>
<!-- RouteConditionCertificateProvisioned -->
<g id="node7" class="node"><title>RouteConditionCertificateProvisioned</title>
<g id="a_node7"><a xlink:href="https://godoc.org/github.com/knative/serving/pkg/apis/serving/v1alpha1#RouteConditionCertificateProvisioned" xlink:title="CertificateProvisioned">
<ellipse fill="white" stroke="black" stroke-dasharray="5,2" cx="235" cy="-679" rx="115.08" ry="18"/>
<text text-anchor="middle" x="235" y="-675.3" font-family="Times,serif" font-size="14.00">CertificateProvisioned</text>
</a>
</g>
</g>
<!-- CertificateConditionReady -->
<g id="node16" class="node"><title>CertificateConditionReady</title>
<g id="a_node16"><a xlink:href="https://godoc.org/github.com/knative/serving/pkg/apis/networking/v1alpha1#CertificateConditionReady" xlink:title="Ready">
<ellipse fill="white" stroke="white" cx="56" cy="-596" rx="39.7935" ry="18"/>
<text text-anchor="middle" x="56" y="-592.3" font-family="Times,serif" font-size="14.00">Ready</text>
</a>
</g>
</g>
<!-- RouteConditionCertificateProvisioned&#45;&gt;CertificateConditionReady -->
<g id="edge18" class="edge"><title>RouteConditionCertificateProvisioned&#45;&gt;CertificateConditionReady</title>
<path fill="none" stroke="black" d="M160.801,-665.218C142.856,-660.395 124.195,-653.844 108,-645 96.3746,-638.652 85.3183,-629.137 76.4137,-620.249"/>
<polygon fill="black" stroke="black" points="78.9225,-617.809 69.4746,-613.014 73.8704,-622.654 78.9225,-617.809"/>
</g>
<!-- RevisionConditionReady -->
<g id="node9" class="node"><title>RevisionConditionReady</title>
<g id="a_node9"><a xlink:href="https://godoc.org/github.com/knative/serving/pkg/apis/serving/v1alpha1#RevisionConditionReady" xlink:title="Ready">
<ellipse fill="white" stroke="white" cx="606" cy="-596" rx="39.7935" ry="18"/>
<text text-anchor="middle" x="606" y="-592.3" font-family="Times,serif" font-size="14.00">Ready</text>
</a>
</g>
</g>
<!-- ConfigurationConditionReady&#45;&gt;RevisionConditionReady -->
<g id="edge20" class="edge"><title>ConfigurationConditionReady&#45;&gt;RevisionConditionReady</title>
<path fill="none" stroke="black" d="M606,-660.822C606,-650.19 606,-636.306 606,-624.204"/>
<polygon fill="black" stroke="black" points="609.5,-624.153 606,-614.153 602.5,-624.153 609.5,-624.153"/>
</g>
<!-- RevisionConditionResourcesAvailable -->
<g id="node10" class="node"><title>RevisionConditionResourcesAvailable</title>
<g id="a_node10"><a xlink:href="https://godoc.org/github.com/knative/serving/pkg/apis/serving/v1alpha1#RevisionConditionResourcesAvailable" xlink:title="ResourcesAvailable">
<ellipse fill="white" stroke="white" cx="817" cy="-513" rx="101.282" ry="18"/>
<text text-anchor="middle" x="817" y="-509.3" font-family="Times,serif" font-size="14.00">ResourcesAvailable</text>
</a>
</g>
</g>
<!-- RevisionConditionReady&#45;&gt;RevisionConditionResourcesAvailable -->
<g id="edge5" class="edge"><title>RevisionConditionReady&#45;&gt;RevisionConditionResourcesAvailable</title>
<path fill="none" stroke="black" d="M638.232,-585.17C657.954,-578.956 683.615,-570.514 706,-562 728.362,-553.495 752.81,-543.051 773.055,-534.079"/>
<polygon fill="black" stroke="black" points="774.626,-537.211 782.333,-529.941 771.775,-530.818 774.626,-537.211"/>
</g>
<!-- RevisionConditionContainerHealthy -->
<g id="node11" class="node"><title>RevisionConditionContainerHealthy</title>
<g id="a_node11"><a xlink:href="https://godoc.org/github.com/knative/serving/pkg/apis/serving/v1alpha1#RevisionConditionContainerHealthy" xlink:title="ContainerHealthy">
<ellipse fill="white" stroke="white" cx="603" cy="-513" rx="94.4839" ry="18"/>
<text text-anchor="middle" x="603" y="-509.3" font-family="Times,serif" font-size="14.00">ContainerHealthy</text>
</a>
</g>
</g>
<!-- RevisionConditionReady&#45;&gt;RevisionConditionContainerHealthy -->
<g id="edge6" class="edge"><title>RevisionConditionReady&#45;&gt;RevisionConditionContainerHealthy</title>
<path fill="none" stroke="black" d="M605.364,-577.822C604.97,-567.19 604.456,-553.306 604.008,-541.204"/>
<polygon fill="black" stroke="black" points="607.503,-541.017 603.635,-531.153 600.508,-541.276 607.503,-541.017"/>
</g>
<!-- PodScheduled -->
<g id="node28" class="node"><title>PodScheduled</title>
<g id="a_node28"><a xlink:href="https://godoc.org/k8s.io/api/core/v1#PodScheduled" xlink:title="Scheduled">
<ellipse fill="white" stroke="white" cx="961" cy="-200" rx="59.2899" ry="18"/>
<text text-anchor="middle" x="961" y="-196.3" font-family="Times,serif" font-size="14.00">Scheduled</text>
</a>
</g>
</g>
<!-- RevisionConditionResourcesAvailable&#45;&gt;PodScheduled -->
<g id="edge24" class="edge"><title>RevisionConditionResourcesAvailable&#45;&gt;PodScheduled</title>
<path fill="none" stroke="black" d="M755.058,-498.709C726.966,-492.058 699.068,-484.314 695,-479 673.175,-450.487 659.894,-295.924 698,-257 712.937,-241.743 869.719,-255.677 890,-249 906.346,-243.618 922.415,-233.301 935.121,-223.607"/>
<polygon fill="black" stroke="black" points="937.3,-226.345 942.953,-217.384 932.946,-220.864 937.3,-226.345"/>
</g>
<!-- ContainerStatus -->
<g id="node31" class="node"><title>ContainerStatus</title>
<g id="a_node31"><a xlink:href="https://godoc.org/k8s.io/api/core/v1#ContainerStatus" xlink:title="ContainerStatus">
<ellipse fill="white" stroke="white" cx="794" cy="-200" rx="87.1846" ry="18"/>
<text text-anchor="middle" x="794" y="-196.3" font-family="Times,serif" font-size="14.00">ContainerStatus</text>
</a>
</g>
</g>
<!-- RevisionConditionResourcesAvailable&#45;&gt;ContainerStatus -->
<g id="edge23" class="edge"><title>RevisionConditionResourcesAvailable&#45;&gt;ContainerStatus</title>
<path fill="none" stroke="black" d="M757.735,-498.32C741.025,-494.553 722.818,-490.534 706,-487 687.831,-483.182 676.804,-493.33 665,-479 602.267,-402.844 610.877,-339.498 665,-257 678.008,-237.172 699.714,-224.329 721.646,-216.025"/>
<polygon fill="black" stroke="black" points="723.084,-219.23 731.371,-212.628 720.776,-212.621 723.084,-219.23"/>
</g>
<!-- DeploymentProgressing -->
<g id="node33" class="node"><title>DeploymentProgressing</title>
<g id="a_node33"><a xlink:href="https://godoc.org/k8s.io/api/apps/v1#DeploymentProgressing" xlink:title="Progressing">
<ellipse fill="white" stroke="white" cx="948" cy="-430" rx="66.8882" ry="18"/>
<text text-anchor="middle" x="948" y="-426.3" font-family="Times,serif" font-size="14.00">Progressing</text>
</a>
</g>
</g>
<!-- RevisionConditionResourcesAvailable&#45;&gt;DeploymentProgressing -->
<g id="edge25" class="edge"><title>RevisionConditionResourcesAvailable&#45;&gt;DeploymentProgressing</title>
<path fill="none" stroke="black" d="M844.491,-495.673C853.303,-490.395 863.087,-484.488 872,-479 885.929,-470.425 901.191,-460.825 914.361,-452.477"/>
<polygon fill="black" stroke="black" points="916.537,-455.242 923.102,-446.926 912.784,-449.333 916.537,-455.242"/>
</g>
<!-- RevisionConditionContainerHealthy&#45;&gt;ContainerStatus -->
<g id="edge22" class="edge"><title>RevisionConditionContainerHealthy&#45;&gt;ContainerStatus</title>
<path fill="none" stroke="black" d="M599.594,-494.899C591.603,-449.322 576.864,-323.866 641,-257 661.229,-235.91 690.048,-222.722 717.231,-214.493"/>
<polygon fill="black" stroke="black" points="718.486,-217.775 727.152,-211.68 716.577,-211.041 718.486,-217.775"/>
</g>
<!-- RevisionConditionActive -->
<g id="node12" class="node"><title>RevisionConditionActive</title>
<g id="a_node12"><a xlink:href="https://godoc.org/github.com/knative/serving/pkg/apis/serving/v1alpha1#RevisionConditionActive" xlink:title="Active">
<ellipse fill="white" stroke="black" stroke-dasharray="5,2" cx="878" cy="-596" rx="40.0939" ry="18"/>
<text text-anchor="middle" x="878" y="-592.3" font-family="Times,serif" font-size="14.00">Active</text>
</a>
</g>
</g>
<!-- PodAutoscalerConditionReady -->
<g id="node17" class="node"><title>PodAutoscalerConditionReady</title>
<g id="a_node17"><a xlink:href="https://godoc.org/github.com/knative/serving/pkg/apis/autoscaling/v1alpha1#PodAutoscalerConditionReady" xlink:title="Ready">
<ellipse fill="white" stroke="white" cx="1203" cy="-513" rx="39.7935" ry="18"/>
<text text-anchor="middle" x="1203" y="-509.3" font-family="Times,serif" font-size="14.00">Ready</text>
</a>
</g>
</g>
<!-- RevisionConditionActive&#45;&gt;PodAutoscalerConditionReady -->
<g id="edge21" class="edge"><title>RevisionConditionActive&#45;&gt;PodAutoscalerConditionReady</title>
<path fill="none" stroke="black" d="M912.473,-586.408C971.864,-571.606 1093.39,-541.318 1158.87,-524.998"/>
<polygon fill="black" stroke="black" points="1160.02,-528.318 1168.88,-522.504 1158.33,-521.526 1160.02,-528.318"/>
</g>
<!-- IngressConditionNetworkConfigured -->
<g id="node14" class="node"><title>IngressConditionNetworkConfigured</title>
<g id="a_node14"><a xlink:href="https://godoc.org/github.com/knative/serving/pkg/apis/networking/v1alpha1#IngressConditionNetworkConfigured" xlink:title="NetworkConfigured">
<ellipse fill="white" stroke="white" cx="365" cy="-430" rx="103.182" ry="18"/>
<text text-anchor="middle" x="365" y="-426.3" font-family="Times,serif" font-size="14.00">NetworkConfigured</text>
</a>
</g>
</g>
<!-- IngressConditionReady&#45;&gt;IngressConditionNetworkConfigured -->
<g id="edge7" class="edge"><title>IngressConditionReady&#45;&gt;IngressConditionNetworkConfigured</title>
<path fill="none" stroke="black" d="M221.562,-499.344C248.506,-486.506 290.631,-466.434 322.273,-451.358"/>
<polygon fill="black" stroke="black" points="323.79,-454.513 331.312,-447.051 320.779,-448.193 323.79,-454.513"/>
</g>
<!-- IngressConditionLoadBalancerReady -->
<g id="node15" class="node"><title>IngressConditionLoadBalancerReady</title>
<g id="a_node15"><a xlink:href="https://godoc.org/github.com/knative/serving/pkg/apis/networking/v1alpha1#IngressConditionLoadBalancerReady" xlink:title="LoadBalancerReady">
<ellipse fill="white" stroke="white" cx="140" cy="-430" rx="103.982" ry="18"/>
<text text-anchor="middle" x="140" y="-426.3" font-family="Times,serif" font-size="14.00">LoadBalancerReady</text>
</a>
</g>
</g>
<!-- IngressConditionReady&#45;&gt;IngressConditionLoadBalancerReady -->
<g id="edge8" class="edge"><title>IngressConditionReady&#45;&gt;IngressConditionLoadBalancerReady</title>
<path fill="none" stroke="black" d="M183.87,-495.608C176.219,-484.341 165.91,-469.158 157.208,-456.342"/>
<polygon fill="black" stroke="black" points="160.005,-454.232 151.492,-447.925 154.214,-458.164 160.005,-454.232"/>
</g>
<!-- PodAutoscalerConditionActive -->
<g id="node18" class="node"><title>PodAutoscalerConditionActive</title>
<g id="a_node18"><a xlink:href="https://godoc.org/github.com/knative/serving/pkg/apis/autoscaling/v1alpha1#PodAutoscalerConditionActive" xlink:title="Active">
<ellipse fill="white" stroke="white" cx="1203" cy="-430" rx="40.0939" ry="18"/>
<text text-anchor="middle" x="1203" y="-426.3" font-family="Times,serif" font-size="14.00">Active</text>
</a>
</g>
</g>
<!-- PodAutoscalerConditionReady&#45;&gt;PodAutoscalerConditionActive -->
<g id="edge9" class="edge"><title>PodAutoscalerConditionReady&#45;&gt;PodAutoscalerConditionActive</title>
<path fill="none" stroke="black" d="M1203,-494.822C1203,-484.19 1203,-470.306 1203,-458.204"/>
<polygon fill="black" stroke="black" points="1206.5,-458.153 1203,-448.153 1199.5,-458.153 1206.5,-458.153"/>
</g>
<!-- DeciderDesiredScale -->
<g id="node19" class="node"><title>DeciderDesiredScale</title>
<g id="a_node19"><a xlink:href="https://godoc.org/github.com/knative/serving/pkg/autoscaler#DeciderStatus.DesiredScale" xlink:title="DesiredScale">
<polygon fill="white" stroke="white" points="1190,-135 1080,-135 1080,-99 1190,-99 1190,-135"/>
<text text-anchor="middle" x="1135" y="-113.3" font-family="Times,serif" font-size="14.00">DesiredScale</text>
</a>
</g>
</g>
<!-- PodAutoscalerConditionActive&#45;&gt;DeciderDesiredScale -->
<g id="edge27" class="edge"><title>PodAutoscalerConditionActive&#45;&gt;DeciderDesiredScale</title>
<path fill="none" stroke="black" d="M1174.37,-417.285C1165.36,-412.128 1156.36,-405.126 1151,-396 1103.56,-315.289 1118.74,-197.602 1128.94,-145.07"/>
<polygon fill="black" stroke="black" points="1132.39,-145.671 1130.96,-135.174 1125.53,-144.274 1132.39,-145.671"/>
</g>
<!-- ServerlessServiceConditionReady -->
<g id="node23" class="node"><title>ServerlessServiceConditionReady</title>
<g id="a_node23"><a xlink:href="https://godoc.org/github.com/knative/serving/pkg/apis/networking/v1alpha1#ServerlessServiceConditionReady" xlink:title="Ready">
<ellipse fill="white" stroke="white" cx="1203" cy="-347" rx="39.7935" ry="18"/>
<text text-anchor="middle" x="1203" y="-343.3" font-family="Times,serif" font-size="14.00">Ready</text>
</a>
</g>
</g>
<!-- PodAutoscalerConditionActive&#45;&gt;ServerlessServiceConditionReady -->
<g id="edge26" class="edge"><title>PodAutoscalerConditionActive&#45;&gt;ServerlessServiceConditionReady</title>
<path fill="none" stroke="black" d="M1203,-411.822C1203,-401.19 1203,-387.306 1203,-375.204"/>
<polygon fill="black" stroke="black" points="1206.5,-375.153 1203,-365.153 1199.5,-375.153 1206.5,-375.153"/>
</g>
<!-- EndpointsSubsets -->
<g id="node35" class="node"><title>EndpointsSubsets</title>
<g id="a_node35"><a xlink:href="https://godoc.org/k8s.io/kubernetes/pkg/apis/core#Endpoints.Subsets" xlink:title="Subsets">
<polygon fill="white" stroke="white" points="1653.5,-218 1580.5,-218 1580.5,-182 1653.5,-182 1653.5,-218"/>
<text text-anchor="middle" x="1617" y="-196.3" font-family="Times,serif" font-size="14.00">Subsets</text>
</a>
</g>
</g>
<!-- PodAutoscalerConditionActive&#45;&gt;EndpointsSubsets -->
<g id="edge28" class="edge"><title>PodAutoscalerConditionActive&#45;&gt;EndpointsSubsets</title>
<path fill="none" stroke="black" d="M1243.27,-427.952C1333.07,-425.25 1543.73,-416.751 1568,-396 1617.04,-354.072 1620.81,-271.034 1619.11,-228.108"/>
<polygon fill="black" stroke="black" points="1622.61,-227.912 1618.59,-218.109 1615.62,-228.278 1622.61,-227.912"/>
</g>
<!-- MetricStableWindow -->
<g id="node21" class="node"><title>MetricStableWindow</title>
<g id="a_node21"><a xlink:href="https://godoc.org/github.com/knative/serving/pkg/apis/autoscaling/v1alpha1#MetricStableWindow" xlink:title="StableWindow">
<polygon fill="white" stroke="white" points="1261.5,-52 1142.5,-52 1142.5,-16 1261.5,-16 1261.5,-52"/>
<text text-anchor="middle" x="1202" y="-30.3" font-family="Times,serif" font-size="14.00">StableWindow</text>
</a>
</g>
</g>
<!-- DeciderDesiredScale&#45;&gt;MetricStableWindow -->
<g id="edge29" class="edge"><title>DeciderDesiredScale&#45;&gt;MetricStableWindow</title>
<path fill="none" stroke="black" d="M1149.21,-98.822C1158.54,-87.546 1170.89,-72.6111 1181.3,-60.0239"/>
<polygon fill="black" stroke="black" points="1184.13,-62.0896 1187.81,-52.1533 1178.74,-57.628 1184.13,-62.0896"/>
</g>
<!-- MetricPanicWindow -->
<g id="node22" class="node"><title>MetricPanicWindow</title>
<g id="a_node22"><a xlink:href="https://godoc.org/github.com/knative/serving/pkg/apis/autoscaling/v1alpha1#MetricPanicWindow" xlink:title="PanicWindow">
<polygon fill="white" stroke="white" points="1124.5,-52 1011.5,-52 1011.5,-16 1124.5,-16 1124.5,-52"/>
<text text-anchor="middle" x="1068" y="-30.3" font-family="Times,serif" font-size="14.00">PanicWindow</text>
</a>
</g>
</g>
<!-- DeciderDesiredScale&#45;&gt;MetricPanicWindow -->
<g id="edge30" class="edge"><title>DeciderDesiredScale&#45;&gt;MetricPanicWindow</title>
<path fill="none" stroke="black" d="M1120.79,-98.822C1111.46,-87.546 1099.11,-72.6111 1088.7,-60.0239"/>
<polygon fill="black" stroke="black" points="1091.26,-57.628 1082.19,-52.1533 1085.87,-62.0896 1091.26,-57.628"/>
</g>
<!-- DeciderExcessBurstCapacity -->
<g id="node20" class="node"><title>DeciderExcessBurstCapacity</title>
<g id="a_node20"><a xlink:href="https://godoc.org/github.com/knative/serving/pkg/autoscaler#DeciderStatus.ExcessBurstCapacity" xlink:title="ExcessBurstCapacity">
<polygon fill="white" stroke="white" points="1378,-135 1208,-135 1208,-99 1378,-99 1378,-135"/>
<text text-anchor="middle" x="1293" y="-113.3" font-family="Times,serif" font-size="14.00">ExcessBurstCapacity</text>
</a>
</g>
</g>
<!-- ServerlessServiceConditionEndspointsPopulated -->
<g id="node24" class="node"><title>ServerlessServiceConditionEndspointsPopulated</title>
<g id="a_node24"><a xlink:href="https://godoc.org/github.com/knative/serving/pkg/apis/networking/v1alpha1#ServerlessServiceConditionEndspointsPopulated" xlink:title="EndpointsPopulated">
<ellipse fill="white" stroke="white" cx="1282" cy="-275" rx="104.782" ry="18"/>
<text text-anchor="middle" x="1282" y="-271.3" font-family="Times,serif" font-size="14.00">EndpointsPopulated</text>
</a>
</g>
</g>
<!-- ServerlessServiceConditionReady&#45;&gt;ServerlessServiceConditionEndspointsPopulated -->
<g id="edge10" class="edge"><title>ServerlessServiceConditionReady&#45;&gt;ServerlessServiceConditionEndspointsPopulated</title>
<path fill="none" stroke="black" d="M1220.53,-330.465C1230.8,-321.367 1243.97,-309.696 1255.49,-299.493"/>
<polygon fill="black" stroke="black" points="1257.97,-301.965 1263.14,-292.714 1253.33,-296.726 1257.97,-301.965"/>
</g>
<!-- ServerlessServiceMode -->
<g id="node25" class="node"><title>ServerlessServiceMode</title>
<g id="a_node25"><a xlink:href="https://godoc.org/github.com/knative/serving/pkg/apis/networking/v1alpha1#ServerlessServiceSpec.Mode" xlink:title="Mode">
<polygon fill="white" stroke="white" points="1310.5,-218 1253.5,-218 1253.5,-182 1310.5,-182 1310.5,-218"/>
<text text-anchor="middle" x="1282" y="-196.3" font-family="Times,serif" font-size="14.00">Mode</text>
</a>
</g>
</g>
<!-- ServerlessServiceConditionEndspointsPopulated&#45;&gt;ServerlessServiceMode -->
<g id="edge11" class="edge"><title>ServerlessServiceConditionEndspointsPopulated&#45;&gt;ServerlessServiceMode</title>
<path fill="none" stroke="black" d="M1282,-256.7C1282,-248.245 1282,-237.869 1282,-228.373"/>
<polygon fill="black" stroke="black" points="1285.5,-228.176 1282,-218.176 1278.5,-228.176 1285.5,-228.176"/>
</g>
<!-- ServerlessServiceConditionEndspointsPopulated&#45;&gt;EndpointsSubsets -->
<g id="edge31" class="edge"><title>ServerlessServiceConditionEndspointsPopulated&#45;&gt;EndpointsSubsets</title>
<path fill="none" stroke="black" d="M1357.37,-262.421C1372.77,-260.359 1388.88,-258.419 1404,-257 1422.16,-255.295 1551.28,-256.304 1568,-249 1579.48,-243.985 1589.8,-234.987 1597.97,-226.127"/>
<polygon fill="black" stroke="black" points="1600.69,-228.334 1604.58,-218.479 1595.39,-223.759 1600.69,-228.334"/>
</g>
<!-- ServerlessServiceMode&#45;&gt;DeciderDesiredScale -->
<g id="edge32" class="edge"><title>ServerlessServiceMode&#45;&gt;DeciderDesiredScale</title>
<path fill="none" stroke="black" d="M1253.49,-189.78C1237.06,-183.956 1216.31,-175.706 1199,-166 1186.45,-158.964 1173.58,-149.762 1162.7,-141.3"/>
<polygon fill="black" stroke="black" points="1164.81,-138.508 1154.8,-135.021 1160.45,-143.985 1164.81,-138.508"/>
</g>
<!-- ServerlessServiceMode&#45;&gt;DeciderExcessBurstCapacity -->
<g id="edge33" class="edge"><title>ServerlessServiceMode&#45;&gt;DeciderExcessBurstCapacity</title>
<path fill="none" stroke="black" d="M1284.33,-181.822C1285.78,-171.19 1287.66,-157.306 1289.31,-145.204"/>
<polygon fill="black" stroke="black" points="1292.79,-145.533 1290.67,-135.153 1285.86,-144.591 1292.79,-145.533"/>
</g>
<!-- ServerlessServiceConditionActivatorEndspointsPopulated -->
<g id="node26" class="node"><title>ServerlessServiceConditionActivatorEndspointsPopulated</title>
<g id="a_node26"><a xlink:href="https://godoc.org/github.com/knative/serving/pkg/apis/networking/v1alpha1#ServerlessServiceConditionActivatorEndspointsPopulated" xlink:title="ActivatorEndpointsPopulated">
<ellipse fill="white" stroke="black" stroke-dasharray="5,2" cx="1408" cy="-347" rx="147.574" ry="18"/>
<text text-anchor="middle" x="1408" y="-343.3" font-family="Times,serif" font-size="14.00">ActivatorEndpointsPopulated</text>
</a>
</g>
</g>
<!-- ServerlessServiceConditionActivatorEndspointsPopulated&#45;&gt;EndpointsSubsets -->
<g id="edge34" class="edge"><title>ServerlessServiceConditionActivatorEndspointsPopulated&#45;&gt;EndpointsSubsets</title>
<path fill="none" stroke="black" d="M1440.06,-329.421C1473.4,-311.539 1526.43,-281.266 1568,-249 1576.89,-242.1 1585.89,-233.753 1593.72,-225.968"/>
<polygon fill="black" stroke="black" points="1596.59,-228.035 1601.1,-218.445 1591.59,-223.133 1596.59,-228.035"/>
</g>
<!-- PodReady -->
<g id="node27" class="node"><title>PodReady</title>
<g id="a_node27"><a xlink:href="https://godoc.org/k8s.io/api/core/v1#PodReady" xlink:title="Ready">
<ellipse fill="white" stroke="white" cx="965" cy="-347" rx="39.7935" ry="18"/>
<text text-anchor="middle" x="965" y="-343.3" font-family="Times,serif" font-size="14.00">Ready</text>
</a>
</g>
</g>
<!-- PodInitialized -->
<g id="node29" class="node"><title>PodInitialized</title>
<g id="a_node29"><a xlink:href="https://godoc.org/k8s.io/api/core/v1#PodInitialized" xlink:title="Initialized">
<ellipse fill="white" stroke="white" cx="965" cy="-275" rx="57.6901" ry="18"/>
<text text-anchor="middle" x="965" y="-271.3" font-family="Times,serif" font-size="14.00">Initialized</text>
</a>
</g>
</g>
<!-- PodReady&#45;&gt;PodInitialized -->
<g id="edge13" class="edge"><title>PodReady&#45;&gt;PodInitialized</title>
<path fill="none" stroke="black" d="M965,-328.697C965,-320.983 965,-311.712 965,-303.112"/>
<polygon fill="black" stroke="black" points="968.5,-303.104 965,-293.104 961.5,-303.104 968.5,-303.104"/>
</g>
<!-- ContainersReady -->
<g id="node30" class="node"><title>ContainersReady</title>
<g id="a_node30"><a xlink:href="https://godoc.org/k8s.io/api/core/v1#ContainersReady" xlink:title="ContainersReady">
<ellipse fill="white" stroke="white" cx="798" cy="-275" rx="90.9839" ry="18"/>
<text text-anchor="middle" x="798" y="-271.3" font-family="Times,serif" font-size="14.00">ContainersReady</text>
</a>
</g>
</g>
<!-- PodReady&#45;&gt;ContainersReady -->
<g id="edge12" class="edge"><title>PodReady&#45;&gt;ContainersReady</title>
<path fill="none" stroke="black" d="M936.671,-334.125C911.396,-323.531 873.913,-307.82 844.288,-295.402"/>
<polygon fill="black" stroke="black" points="845.546,-292.134 834.97,-291.497 842.84,-298.59 845.546,-292.134"/>
</g>
<!-- PodInitialized&#45;&gt;PodScheduled -->
<g id="edge14" class="edge"><title>PodInitialized&#45;&gt;PodScheduled</title>
<path fill="none" stroke="black" d="M964.052,-256.7C963.589,-248.245 963.02,-237.869 962.5,-228.373"/>
<polygon fill="black" stroke="black" points="965.983,-227.969 961.941,-218.176 958.994,-228.352 965.983,-227.969"/>
</g>
<!-- ContainersReady&#45;&gt;ContainerStatus -->
<g id="edge15" class="edge"><title>ContainersReady&#45;&gt;ContainerStatus</title>
<path fill="none" stroke="black" d="M797.052,-256.7C796.589,-248.245 796.02,-237.869 795.5,-228.373"/>
<polygon fill="black" stroke="black" points="798.983,-227.969 794.941,-218.176 791.994,-228.352 798.983,-227.969"/>
</g>
<!-- DeploymentAvailable -->
<g id="node32" class="node"><title>DeploymentAvailable</title>
<g id="a_node32"><a xlink:href="https://godoc.org/k8s.io/api/apps/v1#DeploymentAvailable" xlink:title="Available">
<ellipse fill="white" stroke="white" cx="1086" cy="-430" rx="53.0913" ry="18"/>
<text text-anchor="middle" x="1086" y="-426.3" font-family="Times,serif" font-size="14.00">Available</text>
</a>
</g>
</g>
<!-- DeploymentAvailable&#45;&gt;PodReady -->
<g id="edge35" class="edge"><title>DeploymentAvailable&#45;&gt;PodReady</title>
<path fill="none" stroke="black" d="M1062.96,-413.574C1043.64,-400.641 1015.92,-382.085 994.892,-368.01"/>
<polygon fill="black" stroke="black" points="996.592,-364.937 986.335,-362.282 992.698,-370.754 996.592,-364.937"/>
</g>
<!-- DeploymentReplicaFailure -->
<g id="node34" class="node"><title>DeploymentReplicaFailure</title>
<g id="a_node34"><a xlink:href="https://godoc.org/k8s.io/api/apps/v1#DeploymentReplicaFailure" xlink:title="ReplicaFailure">
<ellipse fill="white" stroke="white" cx="785" cy="-430" rx="77.9862" ry="18"/>
<text text-anchor="middle" x="785" y="-426.3" font-family="Times,serif" font-size="14.00">ReplicaFailure</text>
</a>
</g>
</g>
</g>
</svg>
