<?xml version="1.0" encoding="UTF-8" standalone="no"?>
<!DOCTYPE svg PUBLIC "-//W3C//DTD SVG 1.1//EN"
 "http://www.w3.org/Graphics/SVG/1.1/DTD/svg11.dtd">
<!-- Generated by graphviz version 2.38.0 (20140413.2041)
 -->
<!-- Title: lifecycle Pages: 1 -->
<svg width="1563pt" height="824pt"
 viewBox="0.00 0.00 1563.00 824.00" xmlns="http://www.w3.org/2000/svg" xmlns:xlink="http://www.w3.org/1999/xlink">
<g id="graph0" class="graph" transform="scale(1 1) rotate(0) translate(4 820)">
<title>lifecycle</title>
<polygon fill="white" stroke="none" points="-4,4 -4,-820 1559,-820 1559,4 -4,4"/>
<g id="clust1" class="cluster"><title>cluster_service</title>
<g id="a_clust1"><a xlink:href="https://godoc.org/github.com/knative/serving/pkg/apis/serving/v1alpha1#ServiceStatus" xlink:title="Service">
<polygon fill="lightgrey" stroke="lightgrey" points="733,-661 733,-808 1127,-808 1127,-661 733,-661"/>
<text text-anchor="middle" x="930" y="-792.8" font-family="Times,serif" font-size="14.00">Service</text>
</a>
</g>
</g>
<g id="clust2" class="cluster"><title>cluster_route</title>
<g id="a_clust2"><a xlink:href="https://godoc.org/github.com/knative/serving/pkg/apis/serving/v1alpha1#RouteStatus" xlink:title="Route">
<polygon fill="lightgrey" stroke="lightgrey" points="878,-495 878,-653 1256,-653 1256,-495 878,-495"/>
<text text-anchor="middle" x="1067" y="-637.8" font-family="Times,serif" font-size="14.00">Route</text>
</a>
</g>
</g>
<g id="clust3" class="cluster"><title>cluster_configuration</title>
<g id="a_clust3"><a xlink:href="https://godoc.org/github.com/knative/serving/pkg/apis/serving/v1alpha1#ConfigurationStatus" xlink:title="Configuration">
<polygon fill="lightgrey" stroke="lightgrey" points="615,-578 615,-653 730,-653 730,-578 615,-578"/>
<text text-anchor="middle" x="672.5" y="-637.8" font-family="Times,serif" font-size="14.00">Configuration</text>
</a>
</g>
</g>
<g id="clust4" class="cluster"><title>cluster_revision</title>
<g id="a_clust4"><a xlink:href="https://godoc.org/github.com/knative/serving/pkg/apis/serving/v1alpha1#RevisionStatus" xlink:title="Revision">
<polygon fill="lightgrey" stroke="lightgrey" points="304,-412 304,-570 729,-570 729,-412 304,-412"/>
<text text-anchor="middle" x="516.5" y="-554.8" font-family="Times,serif" font-size="14.00">Revision</text>
</a>
</g>
</g>
<g id="clust5" class="cluster"><title>cluster_ingress</title>
<g id="a_clust5"><a xlink:href="https://godoc.org/github.com/knative/serving/pkg/apis/networking/v1alpha1#IngressStatus" xlink:title="Ingress">
<polygon fill="lightgrey" stroke="lightgrey" points="1099,-329 1099,-487 1547,-487 1547,-329 1099,-329"/>
<text text-anchor="middle" x="1323" y="-471.8" font-family="Times,serif" font-size="14.00">Ingress</text>
</a>
</g>
</g>
<g id="clust6" class="cluster"><title>cluster_certificate</title>
<g id="a_clust6"><a xlink:href="https://godoc.org/github.com/knative/serving/pkg/apis/networking/v1alpha1#CertificateStatus" xlink:title="Certificate">
<polygon fill="lightgrey" stroke="lightgrey" points="774,-495 774,-570 870,-570 870,-495 774,-495"/>
<text text-anchor="middle" x="822" y="-554.8" font-family="Times,serif" font-size="14.00">Certificate</text>
</a>
</g>
</g>
<g id="clust7" class="cluster"><title>cluster_kpa</title>
<g id="a_clust7"><a xlink:href="https://godoc.org/github.com/knative/serving/pkg/apis/autoscaling/v1alpha1#PodAutoscalerStatus" xlink:title="PodAutoscaler">
<polygon fill="lightgrey" stroke="lightgrey" points="737,-329 737,-487 857,-487 857,-329 737,-329"/>
<text text-anchor="middle" x="797" y="-471.8" font-family="Times,serif" font-size="14.00">PodAutoscaler</text>
</a>
</g>
</g>
<g id="clust8" class="cluster"><title>cluster_decider</title>
<g id="a_clust8"><a xlink:href="https://godoc.org/github.com/knative/serving/pkg/autoscaler#DeciderStatus" xlink:title="Decider">
<polygon fill="linen" stroke="linen" points="612,-163 612,-238 926,-238 926,-163 612,-163"/>
<text text-anchor="middle" x="769" y="-222.8" font-family="Times,serif" font-size="14.00">Decider</text>
</a>
</g>
</g>
<g id="clust9" class="cluster"><title>cluster_metric</title>
<g id="a_clust9"><a xlink:href="https://godoc.org/github.com/knative/serving/pkg/apis/autoscaling/v1alpha1#MetricStatus" xlink:title="Metric">
<polygon fill="linen" stroke="linen" points="546,-8 546,-155 910,-155 910,-8 546,-8"/>
<text text-anchor="middle" x="728" y="-139.8" font-family="Times,serif" font-size="14.00">Metric</text>
</a>
</g>
</g>
<g id="clust10" class="cluster"><title>cluster_sks</title>
<g id="a_clust10"><a xlink:href="https://godoc.org/github.com/knative/serving/pkg/apis/networking/v1alpha1#ServerlessServiceStatus" xlink:title="ServerlessService">
<polygon fill="lightgrey" stroke="lightgrey" points="865,-246 865,-487 1091,-487 1091,-246 865,-246"/>
<text text-anchor="middle" x="978" y="-471.8" font-family="Times,serif" font-size="14.00">ServerlessService</text>
</a>
</g>
</g>
<g id="clust11" class="cluster"><title>cluster_pods</title>
<g id="a_clust11"><a xlink:href="https://godoc.org/k8s.io/api/core/v1#PodStatus" xlink:title="Pod (approximate)">
<polygon fill="lightblue" stroke="lightblue" points="143,-80 143,-321 475,-321 475,-80 143,-80"/>
<text text-anchor="middle" x="309" y="-305.8" font-family="Times,serif" font-size="14.00">Pod (approximate)</text>
</a>
</g>
</g>
<g id="clust12" class="cluster"><title>cluster_deployment</title>
<g id="a_clust12"><a xlink:href="https://godoc.org/k8s.io/api/apps/v1#DeploymentStatus" xlink:title="Deployment (approximate)">
<polygon fill="lightblue" stroke="lightblue" points="8,-329 8,-404 456,-404 456,-329 8,-329"/>
<text text-anchor="middle" x="232" y="-388.8" font-family="Times,serif" font-size="14.00">Deployment (approximate)</text>
</a>
</g>
</g>
<g id="clust13" class="cluster"><title>cluster_endpoints</title>
<g id="a_clust13"><a xlink:href="https://godoc.org/k8s.io/kubernetes/pkg/apis/core#Endpoints" xlink:title="Endpoints (approximate)">
<polygon fill="lightblue" stroke="lightblue" points="663,-246 663,-321 857,-321 857,-246 663,-246"/>
<text text-anchor="middle" x="760" y="-305.8" font-family="Times,serif" font-size="14.00">Endpoints (approximate)</text>
</a>
</g>
</g>
<!-- ServiceConditionReady -->
<g id="node1" class="node"><title>ServiceConditionReady</title>
<g id="a_node1"><a xlink:href="https://godoc.org/github.com/knative/serving/pkg/apis/serving/v1alpha1#ServiceConditionReady" xlink:title="Ready">
<ellipse fill="white" stroke="white" cx="949" cy="-759" rx="39.7935" ry="18"/>
<text text-anchor="middle" x="949" y="-755.3" font-family="Times,serif" font-size="14.00">Ready</text>
</a>
</g>
</g>
<!-- ServiceConditionConfigurationsReady -->
<g id="node2" class="node"><title>ServiceConditionConfigurationsReady</title>
<g id="a_node2"><a xlink:href="https://godoc.org/github.com/knative/serving/pkg/apis/serving/v1alpha1#ServiceConditionConfigurationsReady" xlink:title="ConfigurationsReady">
<ellipse fill="white" stroke="white" cx="850" cy="-687" rx="108.581" ry="18"/>
<text text-anchor="middle" x="850" y="-683.3" font-family="Times,serif" font-size="14.00">ConfigurationsReady</text>
</a>
</g>
</g>
<!-- ServiceConditionReady&#45;&gt;ServiceConditionConfigurationsReady -->
<g id="edge1" class="edge"><title>ServiceConditionReady&#45;&gt;ServiceConditionConfigurationsReady</title>
<path fill="none" stroke="black" d="M928.487,-743.496C915.011,-733.968 897.11,-721.31 881.807,-710.49"/>
<polygon fill="black" stroke="black" points="883.802,-707.614 873.617,-704.699 879.761,-713.33 883.802,-707.614"/>
</g>
<!-- ServiceConditionRoutesReady -->
<g id="node3" class="node"><title>ServiceConditionRoutesReady</title>
<g id="a_node3"><a xlink:href="https://godoc.org/github.com/knative/serving/pkg/apis/serving/v1alpha1#ServiceConditionRoutesReady" xlink:title="RoutesReady">
<ellipse fill="white" stroke="white" cx="1048" cy="-687" rx="71.4873" ry="18"/>
<text text-anchor="middle" x="1048" y="-683.3" font-family="Times,serif" font-size="14.00">RoutesReady</text>
</a>
</g>
</g>
<!-- ServiceConditionReady&#45;&gt;ServiceConditionRoutesReady -->
<g id="edge2" class="edge"><title>ServiceConditionReady&#45;&gt;ServiceConditionRoutesReady</title>
<path fill="none" stroke="black" d="M969.513,-743.496C983.18,-733.832 1001.4,-720.95 1016.84,-710.03"/>
<polygon fill="black" stroke="black" points="1018.95,-712.829 1025.09,-704.198 1014.91,-707.114 1018.95,-712.829"/>
</g>
<!-- ConfigurationConditionReady -->
<g id="node8" class="node"><title>ConfigurationConditionReady</title>
<g id="a_node8"><a xlink:href="https://godoc.org/github.com/knative/serving/pkg/apis/serving/v1alpha1#ConfigurationConditionReady" xlink:title="Ready">
<ellipse fill="white" stroke="white" cx="672" cy="-604" rx="39.7935" ry="18"/>
<text text-anchor="middle" x="672" y="-600.3" font-family="Times,serif" font-size="14.00">Ready</text>
</a>
</g>
</g>
<!-- ServiceConditionConfigurationsReady&#45;&gt;ConfigurationConditionReady -->
<g id="edge17" class="edge"><title>ServiceConditionConfigurationsReady&#45;&gt;ConfigurationConditionReady</title>
<path fill="none" stroke="black" d="M814.407,-669.803C783.606,-655.787 739.262,-635.608 708.266,-621.503"/>
<polygon fill="black" stroke="black" points="709.656,-618.29 699.105,-617.334 706.757,-624.662 709.656,-618.29"/>
</g>
<!-- RouteConditionReady -->
<g id="node4" class="node"><title>RouteConditionReady</title>
<g id="a_node4"><a xlink:href="https://godoc.org/github.com/knative/serving/pkg/apis/serving/v1alpha1#RouteConditionReady" xlink:title="Ready">
<ellipse fill="white" stroke="white" cx="1174" cy="-604" rx="39.7935" ry="18"/>
<text text-anchor="middle" x="1174" y="-600.3" font-family="Times,serif" font-size="14.00">Ready</text>
</a>
</g>
</g>
<!-- ServiceConditionRoutesReady&#45;&gt;RouteConditionReady -->
<g id="edge18" class="edge"><title>ServiceConditionRoutesReady&#45;&gt;RouteConditionReady</title>
<path fill="none" stroke="black" d="M1088.23,-672.053C1100.53,-666.938 1113.76,-660.525 1125,-653 1135.15,-646.203 1145.04,-637.145 1153.24,-628.729"/>
<polygon fill="black" stroke="black" points="1155.96,-630.948 1160.26,-621.265 1150.86,-626.153 1155.96,-630.948"/>
</g>
<!-- RouteConditionAllTrafficAssigned -->
<g id="node5" class="node"><title>RouteConditionAllTrafficAssigned</title>
<g id="a_node5"><a xlink:href="https://godoc.org/github.com/knative/serving/pkg/apis/serving/v1alpha1#RouteConditionAllTrafficAssigned" xlink:title="AllTrafficAssigned">
<ellipse fill="white" stroke="white" cx="983" cy="-521" rx="96.6831" ry="18"/>
<text text-anchor="middle" x="983" y="-517.3" font-family="Times,serif" font-size="14.00">AllTrafficAssigned</text>
</a>
</g>
</g>
<!-- RouteConditionReady&#45;&gt;RouteConditionAllTrafficAssigned -->
<g id="edge3" class="edge"><title>RouteConditionReady&#45;&gt;RouteConditionAllTrafficAssigned</title>
<path fill="none" stroke="black" d="M1150.37,-589.416C1142.49,-585.305 1133.54,-581.07 1125,-578 1109.58,-572.453 1104.55,-575.186 1089,-570 1066.77,-562.584 1042.92,-552.032 1023.48,-542.709"/>
<polygon fill="black" stroke="black" points="1024.84,-539.479 1014.32,-538.25 1021.78,-545.773 1024.84,-539.479"/>
</g>
<!-- RouteConditionIngressReady -->
<g id="node6" class="node"><title>RouteConditionIngressReady</title>
<g id="a_node6"><a xlink:href="https://godoc.org/github.com/knative/serving/pkg/apis/serving/v1alpha1#RouteConditionIngressReady" xlink:title="IngressReady">
<ellipse fill="white" stroke="white" cx="1173" cy="-521" rx="74.9875" ry="18"/>
<text text-anchor="middle" x="1173" y="-517.3" font-family="Times,serif" font-size="14.00">IngressReady</text>
</a>
</g>
</g>
<!-- RouteConditionReady&#45;&gt;RouteConditionIngressReady -->
<g id="edge4" class="edge"><title>RouteConditionReady&#45;&gt;RouteConditionIngressReady</title>
<path fill="none" stroke="black" d="M1173.79,-585.822C1173.66,-575.19 1173.49,-561.306 1173.34,-549.204"/>
<polygon fill="black" stroke="black" points="1176.84,-549.109 1173.21,-539.153 1169.84,-549.196 1176.84,-549.109"/>
</g>
<!-- IngressConditionReady -->
<g id="node13" class="node"><title>IngressConditionReady</title>
<g id="a_node13"><a xlink:href="https://godoc.org/github.com/knative/serving/pkg/apis/networking/v1alpha1#IngressConditionReady" xlink:title="Ready">
<ellipse fill="white" stroke="white" cx="1210" cy="-438" rx="39.7935" ry="18"/>
<text text-anchor="middle" x="1210" y="-434.3" font-family="Times,serif" font-size="14.00">Ready</text>
</a>
</g>
</g>
<!-- RouteConditionIngressReady&#45;&gt;IngressConditionReady -->
<g id="edge20" class="edge"><title>RouteConditionIngressReady&#45;&gt;IngressConditionReady</title>
<path fill="none" stroke="black" d="M1180.85,-502.822C1185.83,-491.902 1192.39,-477.551 1198.02,-465.224"/>
<polygon fill="black" stroke="black" points="1201.32,-466.426 1202.29,-455.876 1194.95,-463.517 1201.32,-466.426"/>
</g>
<!-- RouteConditionCertificateProvisioned -->
<g id="node7" class="node"><title>RouteConditionCertificateProvisioned</title>
<g id="a_node7"><a xlink:href="https://godoc.org/github.com/knative/serving/pkg/apis/serving/v1alpha1#RouteConditionCertificateProvisioned" xlink:title="CertificateProvisioned">
<ellipse fill="white" stroke="black" stroke-dasharray="5,2" cx="1001" cy="-604" rx="115.08" ry="18"/>
<text text-anchor="middle" x="1001" y="-600.3" font-family="Times,serif" font-size="14.00">CertificateProvisioned</text>
</a>
</g>
</g>
<!-- CertificateConditionReady -->
<g id="node16" class="node"><title>CertificateConditionReady</title>
<g id="a_node16"><a xlink:href="https://godoc.org/github.com/knative/serving/pkg/apis/networking/v1alpha1#CertificateConditionReady" xlink:title="Ready">
<ellipse fill="white" stroke="white" cx="822" cy="-521" rx="39.7935" ry="18"/>
<text text-anchor="middle" x="822" y="-517.3" font-family="Times,serif" font-size="14.00">Ready</text>
</a>
</g>
</g>
<!-- RouteConditionCertificateProvisioned&#45;&gt;CertificateConditionReady -->
<g id="edge19" class="edge"><title>RouteConditionCertificateProvisioned&#45;&gt;CertificateConditionReady</title>
<path fill="none" stroke="black" d="M926.801,-590.218C908.856,-585.395 890.195,-578.844 874,-570 862.375,-563.652 851.318,-554.137 842.414,-545.249"/>
<polygon fill="black" stroke="black" points="844.922,-542.809 835.475,-538.014 839.87,-547.654 844.922,-542.809"/>
</g>
<!-- RevisionConditionReady -->
<g id="node9" class="node"><title>RevisionConditionReady</title>
<g id="a_node9"><a xlink:href="https://godoc.org/github.com/knative/serving/pkg/apis/serving/v1alpha1#RevisionConditionReady" xlink:title="Ready">
<ellipse fill="white" stroke="white" cx="583" cy="-521" rx="39.7935" ry="18"/>
<text text-anchor="middle" x="583" y="-517.3" font-family="Times,serif" font-size="14.00">Ready</text>
</a>
</g>
</g>
<!-- ConfigurationConditionReady&#45;&gt;RevisionConditionReady -->
<g id="edge21" class="edge"><title>ConfigurationConditionReady&#45;&gt;RevisionConditionReady</title>
<path fill="none" stroke="black" d="M652.999,-587.879C646.262,-582.372 638.694,-576.02 632,-570 623.187,-562.074 613.82,-553.056 605.662,-544.992"/>
<polygon fill="black" stroke="black" points="608.114,-542.495 598.56,-537.914 603.173,-547.453 608.114,-542.495"/>
</g>
<!-- RevisionConditionResourcesAvailable -->
<g id="node10" class="node"><title>RevisionConditionResourcesAvailable</title>
<g id="a_node10"><a xlink:href="https://godoc.org/github.com/knative/serving/pkg/apis/serving/v1alpha1#RevisionConditionResourcesAvailable" xlink:title="ResourcesAvailable">
<ellipse fill="white" stroke="white" cx="413" cy="-438" rx="101.282" ry="18"/>
<text text-anchor="middle" x="413" y="-434.3" font-family="Times,serif" font-size="14.00">ResourcesAvailable</text>
</a>
</g>
</g>
<!-- RevisionConditionReady&#45;&gt;RevisionConditionResourcesAvailable -->
<g id="edge5" class="edge"><title>RevisionConditionReady&#45;&gt;RevisionConditionResourcesAvailable</title>
<path fill="none" stroke="black" d="M556.438,-507.344C529.494,-494.506 487.369,-474.434 455.727,-459.358"/>
<polygon fill="black" stroke="black" points="457.221,-456.193 446.688,-455.051 454.21,-462.513 457.221,-456.193"/>
</g>
<!-- RevisionConditionContainerHealthy -->
<g id="node11" class="node"><title>RevisionConditionContainerHealthy</title>
<g id="a_node11"><a xlink:href="https://godoc.org/github.com/knative/serving/pkg/apis/serving/v1alpha1#RevisionConditionContainerHealthy" xlink:title="ContainerHealthy">
<ellipse fill="white" stroke="white" cx="627" cy="-438" rx="94.4839" ry="18"/>
<text text-anchor="middle" x="627" y="-434.3" font-family="Times,serif" font-size="14.00">ContainerHealthy</text>
</a>
</g>
</g>
<!-- RevisionConditionReady&#45;&gt;RevisionConditionContainerHealthy -->
<g id="edge6" class="edge"><title>RevisionConditionReady&#45;&gt;RevisionConditionContainerHealthy</title>
<path fill="none" stroke="black" d="M592.117,-503.217C598.094,-492.213 606.031,-477.602 612.824,-465.098"/>
<polygon fill="black" stroke="black" points="616.046,-466.498 617.743,-456.04 609.895,-463.157 616.046,-466.498"/>
</g>
<!-- PodScheduled -->
<g id="node29" class="node"><title>PodScheduled</title>
<g id="a_node29"><a xlink:href="https://godoc.org/k8s.io/api/core/v1#PodScheduled" xlink:title="Scheduled">
<ellipse fill="white" stroke="white" cx="213" cy="-106" rx="59.2899" ry="18"/>
<text text-anchor="middle" x="213" y="-102.3" font-family="Times,serif" font-size="14.00">Scheduled</text>
</a>
</g>
</g>
<!-- RevisionConditionResourcesAvailable&#45;&gt;PodScheduled -->
<g id="edge25" class="edge"><title>RevisionConditionResourcesAvailable&#45;&gt;PodScheduled</title>
<path fill="none" stroke="black" d="M444.377,-420.71C450.495,-416.116 456.187,-410.548 460,-404 487.012,-357.619 513.154,-201.735 476,-163 461.22,-147.591 304.281,-161.677 284,-155 267.654,-149.618 251.585,-139.301 238.879,-129.607"/>
<polygon fill="black" stroke="black" points="241.054,-126.864 231.047,-123.384 236.7,-132.345 241.054,-126.864"/>
</g>
<!-- ContainerStatus -->
<g id="node32" class="node"><title>ContainerStatus</title>
<g id="a_node32"><a xlink:href="https://godoc.org/k8s.io/api/core/v1#ContainerStatus" xlink:title="ContainerStatus">
<ellipse fill="white" stroke="white" cx="380" cy="-106" rx="87.1846" ry="18"/>
<text text-anchor="middle" x="380" y="-102.3" font-family="Times,serif" font-size="14.00">ContainerStatus</text>
</a>
</g>
</g>
<!-- RevisionConditionResourcesAvailable&#45;&gt;ContainerStatus -->
<g id="edge24" class="edge"><title>RevisionConditionResourcesAvailable&#45;&gt;ContainerStatus</title>
<path fill="none" stroke="black" d="M482.463,-424.873C492.881,-420.041 502.345,-413.324 509,-404 571.222,-316.815 567.755,-252.558 509,-163 495.992,-143.172 474.286,-130.329 452.354,-122.025"/>
<polygon fill="black" stroke="black" points="453.224,-118.621 442.629,-118.628 450.916,-125.23 453.224,-118.621"/>
</g>
<!-- DeploymentProgressing -->
<g id="node34" class="node"><title>DeploymentProgressing</title>
<g id="a_node34"><a xlink:href="https://godoc.org/k8s.io/api/apps/v1#DeploymentProgressing" xlink:title="Progressing">
<ellipse fill="white" stroke="white" cx="257" cy="-355" rx="66.8882" ry="18"/>
<text text-anchor="middle" x="257" y="-351.3" font-family="Times,serif" font-size="14.00">Progressing</text>
</a>
</g>
</g>
<!-- RevisionConditionResourcesAvailable&#45;&gt;DeploymentProgressing -->
<g id="edge26" class="edge"><title>RevisionConditionResourcesAvailable&#45;&gt;DeploymentProgressing</title>
<path fill="none" stroke="black" d="M371.686,-421.54C359.063,-416.397 345.278,-410.349 333,-404 317.877,-396.179 301.84,-386.306 288.415,-377.551"/>
<polygon fill="black" stroke="black" points="290.279,-374.587 280.007,-371.991 286.418,-380.426 290.279,-374.587"/>
</g>
<!-- RevisionConditionContainerHealthy&#45;&gt;ContainerStatus -->
<g id="edge23" class="edge"><title>RevisionConditionContainerHealthy&#45;&gt;ContainerStatus</title>
<path fill="none" stroke="black" d="M626.769,-419.906C625.193,-372.435 614.245,-237.596 542,-163 520.424,-140.722 489.567,-127.302 460.56,-119.22"/>
<polygon fill="black" stroke="black" points="461.37,-115.814 450.811,-116.678 459.604,-122.587 461.37,-115.814"/>
</g>
<!-- RevisionConditionActive -->
<g id="node12" class="node"><title>RevisionConditionActive</title>
<g id="a_node12"><a xlink:href="https://godoc.org/github.com/knative/serving/pkg/apis/serving/v1alpha1#RevisionConditionActive" xlink:title="Active">
<ellipse fill="white" stroke="black" stroke-dasharray="5,2" cx="681" cy="-521" rx="40.0939" ry="18"/>
<text text-anchor="middle" x="681" y="-517.3" font-family="Times,serif" font-size="14.00">Active</text>
</a>
</g>
</g>
<!-- PodAutoscalerConditionReady -->
<g id="node17" class="node"><title>PodAutoscalerConditionReady</title>
<g id="a_node17"><a xlink:href="https://godoc.org/github.com/knative/serving/pkg/apis/autoscaling/v1alpha1#PodAutoscalerConditionReady" xlink:title="Ready">
<ellipse fill="white" stroke="white" cx="797" cy="-438" rx="39.7935" ry="18"/>
<text text-anchor="middle" x="797" y="-434.3" font-family="Times,serif" font-size="14.00">Ready</text>
</a>
</g>
</g>
<!-- RevisionConditionActive&#45;&gt;PodAutoscalerConditionReady -->
<g id="edge22" class="edge"><title>RevisionConditionActive&#45;&gt;PodAutoscalerConditionReady</title>
<path fill="none" stroke="black" d="M703.774,-506.084C712.958,-500.334 723.587,-493.502 733,-487 745.294,-478.508 758.557,-468.677 769.804,-460.132"/>
<polygon fill="black" stroke="black" points="772.146,-462.747 777.962,-453.891 767.893,-457.187 772.146,-462.747"/>
</g>
<!-- IngressConditionNetworkConfigured -->
<g id="node14" class="node"><title>IngressConditionNetworkConfigured</title>
<g id="a_node14"><a xlink:href="https://godoc.org/github.com/knative/serving/pkg/apis/networking/v1alpha1#IngressConditionNetworkConfigured" xlink:title="NetworkConfigured">
<ellipse fill="white" stroke="white" cx="1210" cy="-355" rx="103.182" ry="18"/>
<text text-anchor="middle" x="1210" y="-351.3" font-family="Times,serif" font-size="14.00">NetworkConfigured</text>
</a>
</g>
</g>
<!-- IngressConditionReady&#45;&gt;IngressConditionNetworkConfigured -->
<g id="edge7" class="edge"><title>IngressConditionReady&#45;&gt;IngressConditionNetworkConfigured</title>
<path fill="none" stroke="black" d="M1210,-419.822C1210,-409.19 1210,-395.306 1210,-383.204"/>
<polygon fill="black" stroke="black" points="1213.5,-383.153 1210,-373.153 1206.5,-383.153 1213.5,-383.153"/>
</g>
<!-- IngressConditionLoadBalancerReady -->
<g id="node15" class="node"><title>IngressConditionLoadBalancerReady</title>
<g id="a_node15"><a xlink:href="https://godoc.org/github.com/knative/serving/pkg/apis/networking/v1alpha1#IngressConditionLoadBalancerReady" xlink:title="LoadBalancerReady">
<ellipse fill="white" stroke="white" cx="1435" cy="-355" rx="103.982" ry="18"/>
<text text-anchor="middle" x="1435" y="-351.3" font-family="Times,serif" font-size="14.00">LoadBalancerReady</text>
</a>
</g>
</g>
<!-- IngressConditionReady&#45;&gt;IngressConditionLoadBalancerReady -->
<g id="edge8" class="edge"><title>IngressConditionReady&#45;&gt;IngressConditionLoadBalancerReady</title>
<path fill="none" stroke="black" d="M1243.65,-428.176C1266.06,-422.033 1296.05,-413.3 1322,-404 1345.14,-395.707 1370.37,-385.143 1391.1,-376.038"/>
<polygon fill="black" stroke="black" points="1392.56,-379.22 1400.29,-371.971 1389.73,-372.819 1392.56,-379.22"/>
</g>
<!-- PodAutoscalerConditionActive -->
<g id="node18" class="node"><title>PodAutoscalerConditionActive</title>
<g id="a_node18"><a xlink:href="https://godoc.org/github.com/knative/serving/pkg/apis/autoscaling/v1alpha1#PodAutoscalerConditionActive" xlink:title="Active">
<ellipse fill="white" stroke="white" cx="809" cy="-355" rx="40.0939" ry="18"/>
<text text-anchor="middle" x="809" y="-351.3" font-family="Times,serif" font-size="14.00">Active</text>
</a>
</g>
</g>
<!-- PodAutoscalerConditionReady&#45;&gt;PodAutoscalerConditionActive -->
<g id="edge9" class="edge"><title>PodAutoscalerConditionReady&#45;&gt;PodAutoscalerConditionActive</title>
<path fill="none" stroke="black" d="M799.545,-419.822C801.12,-409.19 803.177,-395.306 804.97,-383.204"/>
<polygon fill="black" stroke="black" points="808.455,-383.558 806.459,-373.153 801.531,-382.532 808.455,-383.558"/>
</g>
<!-- DeciderDesiredScale -->
<g id="node19" class="node"><title>DeciderDesiredScale</title>
<g id="a_node19"><a xlink:href="https://godoc.org/github.com/knative/serving/pkg/autoscaler#DeciderStatus.DesiredScale" xlink:title="DesiredScale">
<polygon fill="white" stroke="white" points="730,-207 620,-207 620,-171 730,-171 730,-207"/>
<text text-anchor="middle" x="675" y="-185.3" font-family="Times,serif" font-size="14.00">DesiredScale</text>
</a>
</g>
</g>
<!-- PodAutoscalerConditionActive&#45;&gt;DeciderDesiredScale -->
<g id="edge28" class="edge"><title>PodAutoscalerConditionActive&#45;&gt;DeciderDesiredScale</title>
<path fill="none" stroke="black" d="M769.751,-350.842C730.055,-346.738 672.658,-337.989 659,-321 635.243,-291.448 648.887,-245.361 661.505,-216.465"/>
<polygon fill="black" stroke="black" points="664.853,-217.563 665.862,-207.017 658.496,-214.632 664.853,-217.563"/>
</g>
<!-- ServerlessServiceConditionReady -->
<g id="node25" class="node"><title>ServerlessServiceConditionReady</title>
<g id="a_node25"><a xlink:href="https://godoc.org/github.com/knative/serving/pkg/apis/networking/v1alpha1#ServerlessServiceConditionReady" xlink:title="Ready">
<ellipse fill="white" stroke="white" cx="945" cy="-438" rx="39.7935" ry="18"/>
<text text-anchor="middle" x="945" y="-434.3" font-family="Times,serif" font-size="14.00">Ready</text>
</a>
</g>
</g>
<!-- PodAutoscalerConditionActive&#45;&gt;ServerlessServiceConditionReady -->
<g id="edge27" class="edge"><title>PodAutoscalerConditionActive&#45;&gt;ServerlessServiceConditionReady</title>
<path fill="none" stroke="black" d="M823.233,-371.903C833.051,-382.134 846.842,-395.126 861,-404 873.82,-412.035 888.92,-418.704 902.756,-423.894"/>
<polygon fill="black" stroke="black" points="901.962,-427.327 912.556,-427.41 904.326,-420.738 901.962,-427.327"/>
</g>
<!-- EndpointsSubsets -->
<g id="node36" class="node"><title>EndpointsSubsets</title>
<g id="a_node36"><a xlink:href="https://godoc.org/k8s.io/kubernetes/pkg/apis/core#Endpoints.Subsets" xlink:title="Subsets">
<polygon fill="white" stroke="white" points="846.5,-290 773.5,-290 773.5,-254 846.5,-254 846.5,-290"/>
<text text-anchor="middle" x="810" y="-268.3" font-family="Times,serif" font-size="14.00">Subsets</text>
</a>
</g>
</g>
<!-- PodAutoscalerConditionActive&#45;&gt;EndpointsSubsets -->
<g id="edge29" class="edge"><title>PodAutoscalerConditionActive&#45;&gt;EndpointsSubsets</title>
<path fill="none" stroke="black" d="M809.212,-336.822C809.343,-326.19 809.515,-312.306 809.664,-300.204"/>
<polygon fill="black" stroke="black" points="813.164,-300.196 809.788,-290.153 806.165,-300.109 813.164,-300.196"/>
</g>
<!-- MetricStableWindow -->
<g id="node23" class="node"><title>MetricStableWindow</title>
<g id="a_node23"><a xlink:href="https://godoc.org/github.com/knative/serving/pkg/apis/autoscaling/v1alpha1#MetricStableWindow" xlink:title="StableWindow">
<polygon fill="white" stroke="white" points="804.5,-124 685.5,-124 685.5,-88 804.5,-88 804.5,-124"/>
<text text-anchor="middle" x="745" y="-102.3" font-family="Times,serif" font-size="14.00">StableWindow</text>
</a>
</g>
</g>
<!-- DeciderDesiredScale&#45;&gt;MetricStableWindow -->
<g id="edge30" class="edge"><title>DeciderDesiredScale&#45;&gt;MetricStableWindow</title>
<path fill="none" stroke="black" d="M689.845,-170.822C699.59,-159.546 712.497,-144.611 723.374,-132.024"/>
<polygon fill="black" stroke="black" points="726.286,-134.008 730.176,-124.153 720.989,-129.431 726.286,-134.008"/>
</g>
<!-- MetricPanicWindow -->
<g id="node24" class="node"><title>MetricPanicWindow</title>
<g id="a_node24"><a xlink:href="https://godoc.org/github.com/knative/serving/pkg/apis/autoscaling/v1alpha1#MetricPanicWindow" xlink:title="PanicWindow">
<polygon fill="white" stroke="white" points="667.5,-124 554.5,-124 554.5,-88 667.5,-88 667.5,-124"/>
<text text-anchor="middle" x="611" y="-102.3" font-family="Times,serif" font-size="14.00">PanicWindow</text>
</a>
</g>
</g>
<!-- DeciderDesiredScale&#45;&gt;MetricPanicWindow -->
<g id="edge31" class="edge"><title>DeciderDesiredScale&#45;&gt;MetricPanicWindow</title>
<path fill="none" stroke="black" d="M661.427,-170.822C652.518,-159.546 640.717,-144.611 630.772,-132.024"/>
<polygon fill="black" stroke="black" points="633.499,-129.83 624.553,-124.153 628.007,-134.169 633.499,-129.83"/>
</g>
<!-- DeciderExcessBurstCapacity -->
<g id="node20" class="node"><title>DeciderExcessBurstCapacity</title>
<g id="a_node20"><a xlink:href="https://godoc.org/github.com/knative/serving/pkg/autoscaler#DeciderStatus.ExcessBurstCapacity" xlink:title="ExcessBurstCapacity">
<polygon fill="white" stroke="white" points="918,-207 748,-207 748,-171 918,-171 918,-207"/>
<text text-anchor="middle" x="833" y="-185.3" font-family="Times,serif" font-size="14.00">ExcessBurstCapacity</text>
</a>
</g>
</g>
<!-- MetricConditionReady -->
<g id="node21" class="node"><title>MetricConditionReady</title>
<g id="a_node21"><a xlink:href="https://godoc.org/github.com/knative/serving/pkg/apis/autoscaling/v1alpha1#MetricConditionReady" xlink:title="Ready">
<ellipse fill="white" stroke="white" cx="862" cy="-106" rx="39.7935" ry="18"/>
<text text-anchor="middle" x="862" y="-102.3" font-family="Times,serif" font-size="14.00">Ready</text>
</a>
</g>
</g>
<!-- MetricConditionActive -->
<g id="node22" class="node"><title>MetricConditionActive</title>
<g id="a_node22"><a xlink:href="https://godoc.org/github.com/knative/serving/pkg/apis/autoscaling/v1alpha1#MetricConditionActive" xlink:title="Active">
<ellipse fill="white" stroke="white" cx="862" cy="-34" rx="40.0939" ry="18"/>
<text text-anchor="middle" x="862" y="-30.3" font-family="Times,serif" font-size="14.00">Active</text>
</a>
</g>
</g>
<!-- MetricConditionReady&#45;&gt;MetricConditionActive -->
<g id="edge10" class="edge"><title>MetricConditionReady&#45;&gt;MetricConditionActive</title>
<path fill="none" stroke="black" d="M862,-87.6966C862,-79.9827 862,-70.7125 862,-62.1124"/>
<polygon fill="black" stroke="black" points="865.5,-62.1043 862,-52.1043 858.5,-62.1044 865.5,-62.1043"/>
</g>
<!-- ServerlessServiceConditionEndspointsPopulated -->
<g id="node26" class="node"><title>ServerlessServiceConditionEndspointsPopulated</title>
<g id="a_node26"><a xlink:href="https://godoc.org/github.com/knative/serving/pkg/apis/networking/v1alpha1#ServerlessServiceConditionEndspointsPopulated" xlink:title="EndpointsPopulated">
<ellipse fill="white" stroke="white" cx="978" cy="-355" rx="104.782" ry="18"/>
<text text-anchor="middle" x="978" y="-351.3" font-family="Times,serif" font-size="14.00">EndpointsPopulated</text>
</a>
</g>
</g>
<!-- ServerlessServiceConditionReady&#45;&gt;ServerlessServiceConditionEndspointsPopulated -->
<g id="edge11" class="edge"><title>ServerlessServiceConditionReady&#45;&gt;ServerlessServiceConditionEndspointsPopulated</title>
<path fill="none" stroke="black" d="M951.838,-420.217C956.277,-409.321 962.157,-394.888 967.218,-382.466"/>
<polygon fill="black" stroke="black" points="970.526,-383.622 971.058,-373.04 964.043,-380.981 970.526,-383.622"/>
</g>
<!-- ServerlessServiceMode -->
<g id="node27" class="node"><title>ServerlessServiceMode</title>
<g id="a_node27"><a xlink:href="https://godoc.org/github.com/knative/serving/pkg/apis/networking/v1alpha1#ServerlessServiceSpec.Mode" xlink:title="Mode">
<polygon fill="white" stroke="white" points="930.5,-290 873.5,-290 873.5,-254 930.5,-254 930.5,-290"/>
<text text-anchor="middle" x="902" y="-268.3" font-family="Times,serif" font-size="14.00">Mode</text>
</a>
</g>
</g>
<!-- ServerlessServiceConditionEndspointsPopulated&#45;&gt;ServerlessServiceMode -->
<g id="edge12" class="edge"><title>ServerlessServiceConditionEndspointsPopulated&#45;&gt;ServerlessServiceMode</title>
<path fill="none" stroke="black" d="M961.882,-336.822C951.202,-325.439 937.022,-310.326 925.142,-297.665"/>
<polygon fill="black" stroke="black" points="927.489,-295.051 918.094,-290.153 922.384,-299.841 927.489,-295.051"/>
</g>
<!-- ServerlessServiceConditionEndspointsPopulated&#45;&gt;EndpointsSubsets -->
<g id="edge32" class="edge"><title>ServerlessServiceConditionEndspointsPopulated&#45;&gt;EndpointsSubsets</title>
<path fill="none" stroke="black" d="M911.113,-341.065C894.116,-336.208 876.337,-329.68 861,-321 850.197,-314.886 839.899,-306.014 831.422,-297.557"/>
<polygon fill="black" stroke="black" points="833.921,-295.107 824.474,-290.311 828.869,-299.952 833.921,-295.107"/>
</g>
<!-- ServerlessServiceMode&#45;&gt;PodAutoscalerConditionActive -->
<g id="edge33" class="edge"><title>ServerlessServiceMode&#45;&gt;PodAutoscalerConditionActive</title>
<path fill="none" stroke="black" d="M889.447,-290.105C881.845,-299.806 871.595,-311.806 861,-321 855.226,-326.01 848.621,-330.796 842.099,-335.092"/>
<polygon fill="black" stroke="black" points="839.93,-332.322 833.344,-340.621 843.668,-338.241 839.93,-332.322"/>
</g>
<!-- ServerlessServiceMode&#45;&gt;DeciderExcessBurstCapacity -->
<g id="edge34" class="edge"><title>ServerlessServiceMode&#45;&gt;DeciderExcessBurstCapacity</title>
<path fill="none" stroke="black" d="M887.367,-253.822C877.761,-242.546 865.039,-227.611 854.317,-215.024"/>
<polygon fill="black" stroke="black" points="856.761,-212.496 847.612,-207.153 851.432,-217.035 856.761,-212.496"/>
</g>
<!-- PodReady -->
<g id="node28" class="node"><title>PodReady</title>
<g id="a_node28"><a xlink:href="https://godoc.org/k8s.io/api/core/v1#PodReady" xlink:title="Ready">
<ellipse fill="white" stroke="white" cx="376" cy="-272" rx="39.7935" ry="18"/>
<text text-anchor="middle" x="376" y="-268.3" font-family="Times,serif" font-size="14.00">Ready</text>
</a>
</g>
</g>
<!-- PodInitialized -->
<g id="node30" class="node"><title>PodInitialized</title>
<g id="a_node30"><a xlink:href="https://godoc.org/k8s.io/api/core/v1#PodInitialized" xlink:title="Initialized">
<ellipse fill="white" stroke="white" cx="209" cy="-189" rx="57.6901" ry="18"/>
<text text-anchor="middle" x="209" y="-185.3" font-family="Times,serif" font-size="14.00">Initialized</text>
</a>
</g>
</g>
<!-- PodReady&#45;&gt;PodInitialized -->
<g id="edge14" class="edge"><title>PodReady&#45;&gt;PodInitialized</title>
<path fill="none" stroke="black" d="M342.109,-262.582C322.252,-256.981 297.024,-248.685 276,-238 262.143,-230.957 247.981,-221.248 236.269,-212.404"/>
<polygon fill="black" stroke="black" points="238.263,-209.522 228.213,-206.168 233.978,-215.057 238.263,-209.522"/>
</g>
<!-- ContainersReady -->
<g id="node31" class="node"><title>ContainersReady</title>
<g id="a_node31"><a xlink:href="https://godoc.org/k8s.io/api/core/v1#ContainersReady" xlink:title="ContainersReady">
<ellipse fill="white" stroke="white" cx="376" cy="-189" rx="90.9839" ry="18"/>
<text text-anchor="middle" x="376" y="-185.3" font-family="Times,serif" font-size="14.00">ContainersReady</text>
</a>
</g>
</g>
<!-- PodReady&#45;&gt;ContainersReady -->
<g id="edge13" class="edge"><title>PodReady&#45;&gt;ContainersReady</title>
<path fill="none" stroke="black" d="M376,-253.822C376,-243.19 376,-229.306 376,-217.204"/>
<polygon fill="black" stroke="black" points="379.5,-217.153 376,-207.153 372.5,-217.153 379.5,-217.153"/>
</g>
<!-- PodInitialized&#45;&gt;PodScheduled -->
<g id="edge15" class="edge"><title>PodInitialized&#45;&gt;PodScheduled</title>
<path fill="none" stroke="black" d="M209.848,-170.822C210.373,-160.19 211.059,-146.306 211.657,-134.204"/>
<polygon fill="black" stroke="black" points="215.155,-134.314 212.153,-124.153 208.164,-133.968 215.155,-134.314"/>
</g>
<!-- ContainersReady&#45;&gt;ContainerStatus -->
<g id="edge16" class="edge"><title>ContainersReady&#45;&gt;ContainerStatus</title>
<path fill="none" stroke="black" d="M376.848,-170.822C377.373,-160.19 378.059,-146.306 378.657,-134.204"/>
<polygon fill="black" stroke="black" points="382.155,-134.314 379.153,-124.153 375.164,-133.968 382.155,-134.314"/>
</g>
<!-- DeploymentAvailable -->
<g id="node33" class="node"><title>DeploymentAvailable</title>
<g id="a_node33"><a xlink:href="https://godoc.org/k8s.io/api/apps/v1#DeploymentAvailable" xlink:title="Available">
<ellipse fill="white" stroke="white" cx="395" cy="-355" rx="53.0913" ry="18"/>
<text text-anchor="middle" x="395" y="-351.3" font-family="Times,serif" font-size="14.00">Available</text>
</a>
</g>
</g>
<!-- DeploymentAvailable&#45;&gt;PodReady -->
<g id="edge35" class="edge"><title>DeploymentAvailable&#45;&gt;PodReady</title>
<path fill="none" stroke="black" d="M390.971,-336.822C388.477,-326.19 385.22,-312.306 382.381,-300.204"/>
<polygon fill="black" stroke="black" points="385.715,-299.09 380.024,-290.153 378.9,-300.688 385.715,-299.09"/>
</g>
<!-- DeploymentReplicaFailure -->
<g id="node35" class="node"><title>DeploymentReplicaFailure</title>
<g id="a_node35"><a xlink:href="https://godoc.org/k8s.io/api/apps/v1#DeploymentReplicaFailure" xlink:title="ReplicaFailure">
<ellipse fill="white" stroke="white" cx="94" cy="-355" rx="77.9862" ry="18"/>
<text text-anchor="middle" x="94" y="-351.3" font-family="Times,serif" font-size="14.00">ReplicaFailure</text>
</a>
</g>
</g>
</g>
</svg>
