<?xml version="1.0" encoding="UTF-8" standalone="no"?>
<!DOCTYPE svg PUBLIC "-//W3C//DTD SVG 1.1//EN"
 "http://www.w3.org/Graphics/SVG/1.1/DTD/svg11.dtd">
<!-- Generated by graphviz version 2.38.0 (20140413.2041)
 -->
<!-- Title: lifecycle Pages: 1 -->
<svg width="1145pt" height="730pt"
 viewBox="0.00 0.00 1145.00 730.00" xmlns="http://www.w3.org/2000/svg" xmlns:xlink="http://www.w3.org/1999/xlink">
<g id="graph0" class="graph" transform="scale(1 1) rotate(0) translate(4 726)">
<title>lifecycle</title>
<polygon fill="white" stroke="none" points="-4,4 -4,-726 1141,-726 1141,4 -4,4"/>
<g id="clust1" class="cluster"><title>cluster_service</title>
<polygon fill="lightgrey" stroke="lightgrey" points="121,-567 121,-714 515,-714 515,-567 121,-567"/>
<text text-anchor="middle" x="318" y="-698.8" font-family="Times,serif" font-size="14.00">Service</text>
</g>
<g id="clust2" class="cluster"><title>cluster_route</title>
<polygon fill="lightgrey" stroke="lightgrey" points="41,-401 41,-559 419,-559 419,-401 41,-401"/>
<text text-anchor="middle" x="230" y="-543.8" font-family="Times,serif" font-size="14.00">Route</text>
</g>
<g id="clust3" class="cluster"><title>cluster_configuration</title>
<polygon fill="lightgrey" stroke="lightgrey" points="528,-484 528,-559 643,-559 643,-484 528,-484"/>
<text text-anchor="middle" x="585.5" y="-543.8" font-family="Times,serif" font-size="14.00">Configuration</text>
</g>
<g id="clust4" class="cluster"><title>cluster_revision</title>
<polygon fill="lightgrey" stroke="lightgrey" points="531,-318 531,-476 956,-476 956,-318 531,-318"/>
<text text-anchor="middle" x="743.5" y="-460.8" font-family="Times,serif" font-size="14.00">Revision</text>
</g>
<g id="clust5" class="cluster"><title>cluster_ingress</title>
<polygon fill="lightgrey" stroke="lightgrey" points="8,-235 8,-393 456,-393 456,-235 8,-235"/>
<text text-anchor="middle" x="232" y="-377.8" font-family="Times,serif" font-size="14.00">Ingress</text>
</g>
<g id="clust6" class="cluster"><title>cluster_kpa</title>
<polygon fill="lightgrey" stroke="lightgrey" points="479,-152 479,-310 673,-310 673,-152 479,-152"/>
<text text-anchor="middle" x="576" y="-294.8" font-family="Times,serif" font-size="14.00">PodAutoscaler</text>
</g>
<g id="clust7" class="cluster"><title>cluster_certificate</title>
<polygon fill="lightgrey" stroke="lightgrey" points="427,-401 427,-476 523,-476 523,-401 427,-401"/>
<text text-anchor="middle" x="475" y="-460.8" font-family="Times,serif" font-size="14.00">Certificate</text>
</g>
<g id="clust8" class="cluster"><title>cluster_sks</title>
<polygon fill="lightgrey" stroke="lightgrey" points="245,-80 245,-227 471,-227 471,-80 245,-80"/>
<text text-anchor="middle" x="358" y="-211.8" font-family="Times,serif" font-size="14.00">ServerlessService</text>
</g>
<g id="clust9" class="cluster"><title>cluster_pods</title>
<polygon fill="lightblue" stroke="lightblue" points="681,-8 681,-227 1013,-227 1013,-8 681,-8"/>
<text text-anchor="middle" x="847" y="-211.8" font-family="Times,serif" font-size="14.00">Pod (approximate)</text>
</g>
<g id="clust10" class="cluster"><title>cluster_deployment</title>
<polygon fill="lightblue" stroke="lightblue" points="681,-235 681,-310 1129,-310 1129,-235 681,-235"/>
<text text-anchor="middle" x="905" y="-294.8" font-family="Times,serif" font-size="14.00">Deployment (approximate)</text>
</g>
<!-- ServiceConditionReady -->
<g id="node1" class="node"><title>ServiceConditionReady</title>
<ellipse fill="white" stroke="white" cx="299" cy="-665" rx="39.7935" ry="18"/>
<text text-anchor="middle" x="299" y="-661.3" font-family="Times,serif" font-size="14.00">Ready</text>
</g>
<!-- ServiceConditionConfigurationsReady -->
<g id="node2" class="node"><title>ServiceConditionConfigurationsReady</title>
<ellipse fill="white" stroke="white" cx="398" cy="-593" rx="108.581" ry="18"/>
<text text-anchor="middle" x="398" y="-589.3" font-family="Times,serif" font-size="14.00">ConfigurationsReady</text>
</g>
<!-- ServiceConditionReady&#45;&gt;ServiceConditionConfigurationsReady -->
<g id="edge1" class="edge"><title>ServiceConditionReady&#45;&gt;ServiceConditionConfigurationsReady</title>
<path fill="none" stroke="black" d="M319.513,-649.496C332.989,-639.968 350.89,-627.31 366.193,-616.49"/>
<polygon fill="black" stroke="black" points="368.239,-619.33 374.383,-610.699 364.198,-613.614 368.239,-619.33"/>
</g>
<!-- ServiceConditionRoutesReady -->
<g id="node3" class="node"><title>ServiceConditionRoutesReady</title>
<ellipse fill="white" stroke="white" cx="200" cy="-593" rx="71.4873" ry="18"/>
<text text-anchor="middle" x="200" y="-589.3" font-family="Times,serif" font-size="14.00">RoutesReady</text>
</g>
<!-- ServiceConditionReady&#45;&gt;ServiceConditionRoutesReady -->
<g id="edge2" class="edge"><title>ServiceConditionReady&#45;&gt;ServiceConditionRoutesReady</title>
<path fill="none" stroke="black" d="M278.487,-649.496C264.82,-639.832 246.601,-626.95 231.157,-616.03"/>
<polygon fill="black" stroke="black" points="233.095,-613.114 222.909,-610.198 229.053,-618.829 233.095,-613.114"/>
</g>
<!-- ConfigurationConditionReady -->
<g id="node8" class="node"><title>ConfigurationConditionReady</title>
<ellipse fill="white" stroke="white" cx="585" cy="-510" rx="39.7935" ry="18"/>
<text text-anchor="middle" x="585" y="-506.3" font-family="Times,serif" font-size="14.00">Ready</text>
</g>
<!-- ServiceConditionConfigurationsReady&#45;&gt;ConfigurationConditionReady -->
<g id="edge15" class="edge"><title>ServiceConditionConfigurationsReady&#45;&gt;ConfigurationConditionReady</title>
<path fill="none" stroke="black" d="M434.945,-575.997C467.69,-561.814 515.258,-541.209 548.014,-527.021"/>
<polygon fill="black" stroke="black" points="549.468,-530.205 557.253,-523.019 546.686,-523.782 549.468,-530.205"/>
</g>
<!-- RouteConditionReady -->
<g id="node4" class="node"><title>RouteConditionReady</title>
<ellipse fill="white" stroke="white" cx="123" cy="-510" rx="39.7935" ry="18"/>
<text text-anchor="middle" x="123" y="-506.3" font-family="Times,serif" font-size="14.00">Ready</text>
</g>
<!-- ServiceConditionRoutesReady&#45;&gt;RouteConditionReady -->
<g id="edge16" class="edge"><title>ServiceConditionRoutesReady&#45;&gt;RouteConditionReady</title>
<path fill="none" stroke="black" d="M184.046,-575.217C172.778,-563.363 157.531,-547.325 145.095,-534.243"/>
<polygon fill="black" stroke="black" points="147.575,-531.771 138.148,-526.935 142.501,-536.594 147.575,-531.771"/>
</g>
<!-- RouteConditionAllTrafficAssigned -->
<g id="node5" class="node"><title>RouteConditionAllTrafficAssigned</title>
<ellipse fill="white" stroke="white" cx="146" cy="-427" rx="96.6831" ry="18"/>
<text text-anchor="middle" x="146" y="-423.3" font-family="Times,serif" font-size="14.00">AllTrafficAssigned</text>
</g>
<!-- RouteConditionReady&#45;&gt;RouteConditionAllTrafficAssigned -->
<g id="edge3" class="edge"><title>RouteConditionReady&#45;&gt;RouteConditionAllTrafficAssigned</title>
<path fill="none" stroke="black" d="M127.878,-491.822C130.927,-481.083 134.919,-467.025 138.38,-454.837"/>
<polygon fill="black" stroke="black" points="141.765,-455.729 141.129,-445.153 135.031,-453.817 141.765,-455.729"/>
</g>
<!-- RouteConditionIngressReady -->
<g id="node6" class="node"><title>RouteConditionIngressReady</title>
<ellipse fill="white" stroke="white" cx="336" cy="-427" rx="74.9875" ry="18"/>
<text text-anchor="middle" x="336" y="-423.3" font-family="Times,serif" font-size="14.00">IngressReady</text>
</g>
<!-- RouteConditionReady&#45;&gt;RouteConditionIngressReady -->
<g id="edge4" class="edge"><title>RouteConditionReady&#45;&gt;RouteConditionIngressReady</title>
<path fill="none" stroke="black" d="M145.694,-495.2C153.735,-490.92 163.02,-486.638 172,-484 206.284,-473.929 217.964,-486.88 252,-476 270.724,-470.015 289.883,-459.47 305.167,-449.786"/>
<polygon fill="black" stroke="black" points="307.226,-452.622 313.686,-444.224 303.399,-446.761 307.226,-452.622"/>
</g>
<!-- IngressConditionReady -->
<g id="node13" class="node"><title>IngressConditionReady</title>
<ellipse fill="white" stroke="white" cx="336" cy="-344" rx="39.7935" ry="18"/>
<text text-anchor="middle" x="336" y="-340.3" font-family="Times,serif" font-size="14.00">Ready</text>
</g>
<!-- RouteConditionIngressReady&#45;&gt;IngressConditionReady -->
<g id="edge18" class="edge"><title>RouteConditionIngressReady&#45;&gt;IngressConditionReady</title>
<path fill="none" stroke="black" d="M336,-408.822C336,-398.19 336,-384.306 336,-372.204"/>
<polygon fill="black" stroke="black" points="339.5,-372.153 336,-362.153 332.5,-372.153 339.5,-372.153"/>
</g>
<!-- RouteConditionCertificateProvisioned -->
<g id="node7" class="node"><title>RouteConditionCertificateProvisioned</title>
<ellipse fill="white" stroke="black" stroke-dasharray="5,2" cx="296" cy="-510" rx="115.08" ry="18"/>
<text text-anchor="middle" x="296" y="-506.3" font-family="Times,serif" font-size="14.00">CertificateProvisioned</text>
</g>
<!-- CertificateConditionReady -->
<g id="node19" class="node"><title>CertificateConditionReady</title>
<ellipse fill="white" stroke="white" cx="475" cy="-427" rx="39.7935" ry="18"/>
<text text-anchor="middle" x="475" y="-423.3" font-family="Times,serif" font-size="14.00">Ready</text>
</g>
<!-- RouteConditionCertificateProvisioned&#45;&gt;CertificateConditionReady -->
<g id="edge17" class="edge"><title>RouteConditionCertificateProvisioned&#45;&gt;CertificateConditionReady</title>
<path fill="none" stroke="black" d="M370.199,-496.218C388.144,-491.395 406.805,-484.844 423,-476 434.625,-469.652 445.682,-460.137 454.586,-451.249"/>
<polygon fill="black" stroke="black" points="457.13,-453.654 461.525,-444.014 452.078,-448.809 457.13,-453.654"/>
</g>
<!-- RevisionConditionReady -->
<g id="node9" class="node"><title>RevisionConditionReady</title>
<ellipse fill="white" stroke="white" cx="677" cy="-427" rx="39.7935" ry="18"/>
<text text-anchor="middle" x="677" y="-423.3" font-family="Times,serif" font-size="14.00">Ready</text>
</g>
<!-- ConfigurationConditionReady&#45;&gt;RevisionConditionReady -->
<g id="edge19" class="edge"><title>ConfigurationConditionReady&#45;&gt;RevisionConditionReady</title>
<path fill="none" stroke="black" d="M605.091,-494.372C612.452,-488.809 620.751,-482.292 628,-476 636.951,-468.231 646.349,-459.247 654.493,-451.168"/>
<polygon fill="black" stroke="black" points="656.993,-453.617 661.571,-444.063 652.034,-448.677 656.993,-453.617"/>
</g>
<!-- RevisionConditionResourcesAvailable -->
<g id="node10" class="node"><title>RevisionConditionResourcesAvailable</title>
<ellipse fill="white" stroke="white" cx="847" cy="-344" rx="101.282" ry="18"/>
<text text-anchor="middle" x="847" y="-340.3" font-family="Times,serif" font-size="14.00">ResourcesAvailable</text>
</g>
<!-- RevisionConditionReady&#45;&gt;RevisionConditionResourcesAvailable -->
<g id="edge5" class="edge"><title>RevisionConditionReady&#45;&gt;RevisionConditionResourcesAvailable</title>
<path fill="none" stroke="black" d="M703.562,-413.344C730.506,-400.506 772.631,-380.434 804.273,-365.358"/>
<polygon fill="black" stroke="black" points="805.79,-368.513 813.312,-361.051 802.779,-362.193 805.79,-368.513"/>
</g>
<!-- RevisionConditionContainerHealthy -->
<g id="node11" class="node"><title>RevisionConditionContainerHealthy</title>
<ellipse fill="white" stroke="white" cx="633" cy="-344" rx="94.4839" ry="18"/>
<text text-anchor="middle" x="633" y="-340.3" font-family="Times,serif" font-size="14.00">ContainerHealthy</text>
</g>
<!-- RevisionConditionReady&#45;&gt;RevisionConditionContainerHealthy -->
<g id="edge6" class="edge"><title>RevisionConditionReady&#45;&gt;RevisionConditionContainerHealthy</title>
<path fill="none" stroke="black" d="M667.883,-409.217C661.906,-398.213 653.969,-383.602 647.176,-371.098"/>
<polygon fill="black" stroke="black" points="650.105,-369.157 642.257,-362.04 643.954,-372.498 650.105,-369.157"/>
</g>
<!-- PodAutoscalerConditionReady -->
<g id="node16" class="node"><title>PodAutoscalerConditionReady</title>
<ellipse fill="white" stroke="white" cx="625" cy="-261" rx="39.7935" ry="18"/>
<text text-anchor="middle" x="625" y="-257.3" font-family="Times,serif" font-size="14.00">Ready</text>
</g>
<!-- RevisionConditionResourcesAvailable&#45;&gt;PodAutoscalerConditionReady -->
<g id="edge24" class="edge"><title>RevisionConditionResourcesAvailable&#45;&gt;PodAutoscalerConditionReady</title>
<path fill="none" stroke="black" d="M789.582,-329.071C772.41,-325.176 753.497,-321.15 736,-318 709.957,-313.311 700.941,-321.274 677,-310 664.843,-304.275 653.582,-294.68 644.67,-285.567"/>
<polygon fill="black" stroke="black" points="647.134,-283.076 637.769,-278.121 642,-287.835 647.134,-283.076"/>
</g>
<!-- DeploymentProgressing -->
<g id="node28" class="node"><title>DeploymentProgressing</title>
<g id="a_node28"><a xlink:href="https://godoc.org/k8s.io/api/apps/v1#DeploymentProgressing" xlink:title="Progressing">
<ellipse fill="white" stroke="white" cx="930" cy="-261" rx="66.8882" ry="18"/>
<text text-anchor="middle" x="930" y="-257.3" font-family="Times,serif" font-size="14.00">Progressing</text>
</a>
</g>
</g>
<!-- RevisionConditionResourcesAvailable&#45;&gt;DeploymentProgressing -->
<g id="edge26" class="edge"><title>RevisionConditionResourcesAvailable&#45;&gt;DeploymentProgressing</title>
<path fill="none" stroke="black" d="M864.198,-326.217C876.185,-314.518 892.349,-298.744 905.656,-285.757"/>
<polygon fill="black" stroke="black" points="908.396,-287.974 913.108,-278.485 903.507,-282.964 908.396,-287.974"/>
</g>
<!-- RevisionConditionContainerHealthy&#45;&gt;PodAutoscalerConditionReady -->
<g id="edge25" class="edge"><title>RevisionConditionContainerHealthy&#45;&gt;PodAutoscalerConditionReady</title>
<path fill="none" stroke="black" d="M631.303,-325.822C630.253,-315.19 628.882,-301.306 627.687,-289.204"/>
<polygon fill="black" stroke="black" points="631.16,-288.761 626.694,-279.153 624.194,-289.449 631.16,-288.761"/>
</g>
<!-- RevisionConditionActive -->
<g id="node12" class="node"><title>RevisionConditionActive</title>
<ellipse fill="white" stroke="black" stroke-dasharray="5,2" cx="579" cy="-427" rx="40.0939" ry="18"/>
<text text-anchor="middle" x="579" y="-423.3" font-family="Times,serif" font-size="14.00">Active</text>
</g>
<!-- PodAutoscalerConditionActive -->
<g id="node18" class="node"><title>PodAutoscalerConditionActive</title>
<ellipse fill="white" stroke="black" stroke-dasharray="5,2" cx="527" cy="-261" rx="40.0939" ry="18"/>
<text text-anchor="middle" x="527" y="-257.3" font-family="Times,serif" font-size="14.00">Active</text>
</g>
<!-- RevisionConditionActive&#45;&gt;PodAutoscalerConditionActive -->
<g id="edge20" class="edge"><title>RevisionConditionActive&#45;&gt;PodAutoscalerConditionActive</title>
<path fill="none" stroke="black" d="M551.298,-413.724C542.965,-408.58 534.774,-401.728 530,-393 512.286,-360.613 515.823,-316.65 520.788,-288.799"/>
<polygon fill="black" stroke="black" points="524.225,-289.459 522.719,-278.972 517.357,-288.109 524.225,-289.459"/>
</g>
<!-- IngressConditionNetworkConfigured -->
<g id="node14" class="node"><title>IngressConditionNetworkConfigured</title>
<ellipse fill="white" stroke="white" cx="119" cy="-261" rx="103.182" ry="18"/>
<text text-anchor="middle" x="119" y="-257.3" font-family="Times,serif" font-size="14.00">NetworkConfigured</text>
</g>
<!-- IngressConditionReady&#45;&gt;IngressConditionNetworkConfigured -->
<g id="edge7" class="edge"><title>IngressConditionReady&#45;&gt;IngressConditionNetworkConfigured</title>
<path fill="none" stroke="black" d="M303.079,-333.579C282.242,-327.389 254.832,-318.827 231,-310 208.394,-301.627 183.721,-291.198 163.301,-282.202"/>
<polygon fill="black" stroke="black" points="164.505,-278.906 153.944,-278.049 161.665,-285.305 164.505,-278.906"/>
</g>
<!-- IngressConditionLoadBalancerReady -->
<g id="node15" class="node"><title>IngressConditionLoadBalancerReady</title>
<ellipse fill="white" stroke="white" cx="344" cy="-261" rx="103.982" ry="18"/>
<text text-anchor="middle" x="344" y="-257.3" font-family="Times,serif" font-size="14.00">LoadBalancerReady</text>
</g>
<!-- IngressConditionReady&#45;&gt;IngressConditionLoadBalancerReady -->
<g id="edge8" class="edge"><title>IngressConditionReady&#45;&gt;IngressConditionLoadBalancerReady</title>
<path fill="none" stroke="black" d="M337.697,-325.822C338.747,-315.19 340.118,-301.306 341.313,-289.204"/>
<polygon fill="black" stroke="black" points="344.806,-289.449 342.306,-279.153 337.84,-288.761 344.806,-289.449"/>
</g>
<!-- PodAutoscalerConditionBootstrap -->
<g id="node17" class="node"><title>PodAutoscalerConditionBootstrap</title>
<ellipse fill="white" stroke="white" cx="608" cy="-178" rx="56.59" ry="18"/>
<text text-anchor="middle" x="608" y="-174.3" font-family="Times,serif" font-size="14.00">Bootstrap</text>
</g>
<!-- PodAutoscalerConditionReady&#45;&gt;PodAutoscalerConditionBootstrap -->
<g id="edge9" class="edge"><title>PodAutoscalerConditionReady&#45;&gt;PodAutoscalerConditionBootstrap</title>
<path fill="none" stroke="black" d="M621.395,-242.822C619.163,-232.19 616.249,-218.306 613.709,-206.204"/>
<polygon fill="black" stroke="black" points="617.08,-205.221 611.6,-196.153 610.229,-206.659 617.08,-205.221"/>
</g>
<!-- PodScheduled -->
<g id="node23" class="node"><title>PodScheduled</title>
<g id="a_node23"><a xlink:href="https://godoc.org/k8s.io/api/core/v1#PodScheduled" xlink:title="Scheduled">
<ellipse fill="white" stroke="white" cx="748" cy="-34" rx="59.2899" ry="18"/>
<text text-anchor="middle" x="748" y="-30.3" font-family="Times,serif" font-size="14.00">Scheduled</text>
</a>
</g>
</g>
<!-- PodAutoscalerConditionBootstrap&#45;&gt;PodScheduled -->
<g id="edge22" class="edge"><title>PodAutoscalerConditionBootstrap&#45;&gt;PodScheduled</title>
<path fill="none" stroke="black" d="M610.008,-159.759C613.336,-138.489 621.873,-102.403 643,-80 656.375,-65.817 674.96,-55.8912 692.781,-49.0444"/>
<polygon fill="black" stroke="black" points="694.325,-52.2095 702.565,-45.5499 691.971,-45.6173 694.325,-52.2095"/>
</g>
<!-- ContainerStatus -->
<g id="node26" class="node"><title>ContainerStatus</title>
<g id="a_node26"><a xlink:href="https://godoc.org/k8s.io/api/core/v1#ContainerStatus" xlink:title="ContainerStatus">
<ellipse fill="white" stroke="white" cx="913" cy="-34" rx="87.1846" ry="18"/>
<text text-anchor="middle" x="913" y="-30.3" font-family="Times,serif" font-size="14.00">ContainerStatus</text>
</a>
</g>
</g>
<!-- PodAutoscalerConditionBootstrap&#45;&gt;ContainerStatus -->
<g id="edge23" class="edge"><title>PodAutoscalerConditionBootstrap&#45;&gt;ContainerStatus</title>
<path fill="none" stroke="black" d="M619.648,-159.947C637.845,-133.521 671.79,-85.1649 680,-80 686.852,-75.6898 773.127,-59.7082 838.712,-48.0123"/>
<polygon fill="black" stroke="black" points="839.403,-51.4445 848.635,-46.2472 838.177,-44.5527 839.403,-51.4445"/>
</g>
<!-- ServerlessServiceConditionReady -->
<g id="node20" class="node"><title>ServerlessServiceConditionReady</title>
<ellipse fill="white" stroke="white" cx="390" cy="-178" rx="39.7935" ry="18"/>
<text text-anchor="middle" x="390" y="-174.3" font-family="Times,serif" font-size="14.00">Ready</text>
</g>
<!-- PodAutoscalerConditionActive&#45;&gt;ServerlessServiceConditionReady -->
<g id="edge21" class="edge"><title>PodAutoscalerConditionActive&#45;&gt;ServerlessServiceConditionReady</title>
<path fill="none" stroke="black" d="M503.76,-246.259C481.323,-232.994 447.159,-212.795 422.125,-197.994"/>
<polygon fill="black" stroke="black" points="423.744,-194.885 413.354,-192.808 420.181,-200.91 423.744,-194.885"/>
</g>
<!-- ServerlessServiceConditionEndspointsPopulated -->
<g id="node21" class="node"><title>ServerlessServiceConditionEndspointsPopulated</title>
<ellipse fill="white" stroke="white" cx="358" cy="-106" rx="104.782" ry="18"/>
<text text-anchor="middle" x="358" y="-102.3" font-family="Times,serif" font-size="14.00">EndpointsPopulated</text>
</g>
<!-- ServerlessServiceConditionReady&#45;&gt;ServerlessServiceConditionEndspointsPopulated -->
<g id="edge10" class="edge"><title>ServerlessServiceConditionReady&#45;&gt;ServerlessServiceConditionEndspointsPopulated</title>
<path fill="none" stroke="black" d="M382.254,-160.055C378.613,-152.091 374.188,-142.411 370.119,-133.51"/>
<polygon fill="black" stroke="black" points="373.238,-131.915 365.897,-124.275 366.872,-134.825 373.238,-131.915"/>
</g>
<!-- PodReady -->
<g id="node22" class="node"><title>PodReady</title>
<g id="a_node22"><a xlink:href="https://godoc.org/k8s.io/api/core/v1#PodReady" xlink:title="Ready">
<ellipse fill="white" stroke="white" cx="914" cy="-178" rx="39.7935" ry="18"/>
<text text-anchor="middle" x="914" y="-174.3" font-family="Times,serif" font-size="14.00">Ready</text>
</a>
</g>
</g>
<!-- PodInitialized -->
<g id="node24" class="node"><title>PodInitialized</title>
<g id="a_node24"><a xlink:href="https://godoc.org/k8s.io/api/core/v1#PodInitialized" xlink:title="Initialized">
<ellipse fill="white" stroke="white" cx="747" cy="-106" rx="57.6901" ry="18"/>
<text text-anchor="middle" x="747" y="-102.3" font-family="Times,serif" font-size="14.00">Initialized</text>
</a>
</g>
</g>
<!-- PodReady&#45;&gt;PodInitialized -->
<g id="edge12" class="edge"><title>PodReady&#45;&gt;PodInitialized</title>
<path fill="none" stroke="black" d="M885.671,-165.125C859.304,-154.074 819.653,-137.453 789.495,-124.812"/>
<polygon fill="black" stroke="black" points="790.641,-121.498 780.066,-120.86 787.935,-127.954 790.641,-121.498"/>
</g>
<!-- ContainersReady -->
<g id="node25" class="node"><title>ContainersReady</title>
<g id="a_node25"><a xlink:href="https://godoc.org/k8s.io/api/core/v1#ContainersReady" xlink:title="ContainersReady">
<ellipse fill="white" stroke="white" cx="914" cy="-106" rx="90.9839" ry="18"/>
<text text-anchor="middle" x="914" y="-102.3" font-family="Times,serif" font-size="14.00">ContainersReady</text>
</a>
</g>
</g>
<!-- PodReady&#45;&gt;ContainersReady -->
<g id="edge11" class="edge"><title>PodReady&#45;&gt;ContainersReady</title>
<path fill="none" stroke="black" d="M914,-159.697C914,-151.983 914,-142.712 914,-134.112"/>
<polygon fill="black" stroke="black" points="917.5,-134.104 914,-124.104 910.5,-134.104 917.5,-134.104"/>
</g>
<!-- PodInitialized&#45;&gt;PodScheduled -->
<g id="edge13" class="edge"><title>PodInitialized&#45;&gt;PodScheduled</title>
<path fill="none" stroke="black" d="M747.247,-87.6966C747.357,-79.9827 747.49,-70.7125 747.613,-62.1124"/>
<polygon fill="black" stroke="black" points="751.112,-62.1533 747.756,-52.1043 744.113,-62.0533 751.112,-62.1533"/>
</g>
<!-- ContainersReady&#45;&gt;ContainerStatus -->
<g id="edge14" class="edge"><title>ContainersReady&#45;&gt;ContainerStatus</title>
<path fill="none" stroke="black" d="M913.753,-87.6966C913.643,-79.9827 913.51,-70.7125 913.387,-62.1124"/>
<polygon fill="black" stroke="black" points="916.887,-62.0533 913.244,-52.1043 909.888,-62.1533 916.887,-62.0533"/>
</g>
<!-- DeploymentAvailable -->
<g id="node27" class="node"><title>DeploymentAvailable</title>
<g id="a_node27"><a xlink:href="https://godoc.org/k8s.io/api/apps/v1#DeploymentAvailable" xlink:title="Available">
<ellipse fill="white" stroke="white" cx="1068" cy="-261" rx="53.0913" ry="18"/>
<text text-anchor="middle" x="1068" y="-257.3" font-family="Times,serif" font-size="14.00">Available</text>
</a>
</g>
</g>
<!-- DeploymentAvailable&#45;&gt;PodReady -->
<g id="edge27" class="edge"><title>DeploymentAvailable&#45;&gt;PodReady</title>
<path fill="none" stroke="black" d="M1040.47,-245.519C1014.58,-231.905 975.768,-211.488 947.971,-196.868"/>
<polygon fill="black" stroke="black" points="949.481,-193.707 939.001,-192.15 946.222,-199.903 949.481,-193.707"/>
</g>
<!-- DeploymentReplicaFailure -->
<g id="node29" class="node"><title>DeploymentReplicaFailure</title>
<g id="a_node29"><a xlink:href="https://godoc.org/k8s.io/api/apps/v1#DeploymentReplicaFailure" xlink:title="ReplicaFailure">
<ellipse fill="white" stroke="white" cx="767" cy="-261" rx="77.9862" ry="18"/>
<text text-anchor="middle" x="767" y="-257.3" font-family="Times,serif" font-size="14.00">ReplicaFailure</text>
</a>
</g>
</g>
</g>
</svg>
