<?xml version="1.0" encoding="UTF-8" standalone="no"?>
<!DOCTYPE svg PUBLIC "-//W3C//DTD SVG 1.1//EN"
 "http://www.w3.org/Graphics/SVG/1.1/DTD/svg11.dtd">
<!-- Generated by graphviz version 2.38.0 (20140413.2041)
 -->
<!-- Title: lifecycle Pages: 1 -->
<svg width="1701pt" height="907pt"
 viewBox="0.00 0.00 1701.00 907.00" xmlns="http://www.w3.org/2000/svg" xmlns:xlink="http://www.w3.org/1999/xlink">
<g id="graph0" class="graph" transform="scale(1 1) rotate(0) translate(4 903)">
<title>lifecycle</title>
<polygon fill="white" stroke="none" points="-4,4 -4,-903 1697,-903 1697,4 -4,4"/>
<g id="clust1" class="cluster"><title>cluster_service</title>
<g id="a_clust1"><a xlink:href="https://godoc.org/github.com/knative/serving/pkg/apis/serving/v1alpha1#ServiceStatus" xlink:title="Service">
<polygon fill="lightgrey" stroke="lightgrey" points="663,-744 663,-891 1057,-891 1057,-744 663,-744"/>
<text text-anchor="middle" x="860" y="-875.8" font-family="Times,serif" font-size="14.00">Service</text>
</a>
</g>
</g>
<g id="clust2" class="cluster"><title>cluster_route</title>
<g id="a_clust2"><a xlink:href="https://godoc.org/github.com/knative/serving/pkg/apis/serving/v1alpha1#RouteStatus" xlink:title="Route">
<polygon fill="lightgrey" stroke="lightgrey" points="382,-578 382,-736 760,-736 760,-578 382,-578"/>
<text text-anchor="middle" x="571" y="-720.8" font-family="Times,serif" font-size="14.00">Route</text>
</a>
</g>
</g>
<g id="clust3" class="cluster"><title>cluster_configuration</title>
<g id="a_clust3"><a xlink:href="https://godoc.org/github.com/knative/serving/pkg/apis/serving/v1alpha1#ConfigurationStatus" xlink:title="Configuration">
<polygon fill="lightgrey" stroke="lightgrey" points="1011,-661 1011,-736 1126,-736 1126,-661 1011,-661"/>
<text text-anchor="middle" x="1068.5" y="-720.8" font-family="Times,serif" font-size="14.00">Configuration</text>
</a>
</g>
</g>
<g id="clust4" class="cluster"><title>cluster_revision</title>
<g id="a_clust4"><a xlink:href="https://godoc.org/github.com/knative/serving/pkg/apis/serving/v1alpha1#RevisionStatus" xlink:title="Revision">
<polygon fill="lightgrey" stroke="lightgrey" points="954,-495 954,-653 1359,-653 1359,-495 954,-495"/>
<text text-anchor="middle" x="1156.5" y="-637.8" font-family="Times,serif" font-size="14.00">Revision</text>
</a>
</g>
</g>
<g id="clust5" class="cluster"><title>cluster_ingress</title>
<g id="a_clust5"><a xlink:href="https://godoc.org/github.com/knative/serving/pkg/apis/networking/v1alpha1#IngressStatus" xlink:title="Ingress">
<polygon fill="lightgrey" stroke="lightgrey" points="309,-412 309,-570 757,-570 757,-412 309,-412"/>
<text text-anchor="middle" x="533" y="-554.8" font-family="Times,serif" font-size="14.00">Ingress</text>
</a>
</g>
</g>
<g id="clust6" class="cluster"><title>cluster_certificate</title>
<g id="a_clust6"><a xlink:href="https://godoc.org/github.com/knative/serving/pkg/apis/networking/v1alpha1#CertificateStatus" xlink:title="Certificate">
<polygon fill="lightgrey" stroke="lightgrey" points="278,-578 278,-653 374,-653 374,-578 278,-578"/>
<text text-anchor="middle" x="326" y="-637.8" font-family="Times,serif" font-size="14.00">Certificate</text>
</a>
</g>
</g>
<g id="clust7" class="cluster"><title>cluster_kpa</title>
<g id="a_clust7"><a xlink:href="https://godoc.org/github.com/knative/serving/pkg/apis/autoscaling/v1alpha1#PodAutoscalerStatus" xlink:title="PodAutoscaler">
<polygon fill="lightgrey" stroke="lightgrey" points="765,-257 765,-487 1129,-487 1129,-257 765,-257"/>
<text text-anchor="middle" x="947" y="-471.8" font-family="Times,serif" font-size="14.00">PodAutoscaler</text>
</a>
</g>
</g>
<g id="clust8" class="cluster"><title>cluster_decider</title>
<g id="a_clust8"><a xlink:href="https://godoc.org/github.com/knative/serving/pkg/autoscaler#DeciderStatus" xlink:title="Decider">
<polygon fill="linen" stroke="linen" points="8,-91 8,-166 322,-166 322,-91 8,-91"/>
<text text-anchor="middle" x="165" y="-150.8" font-family="Times,serif" font-size="14.00">Decider</text>
</a>
</g>
</g>
<g id="clust9" class="cluster"><title>cluster_metric</title>
<g id="a_clust9"><a xlink:href="https://godoc.org/github.com/knative/serving/pkg/apis/autoscaling/v1alpha1#MetricStatus" xlink:title="Metric">
<polygon fill="linen" stroke="linen" points="127,-8 127,-83 394,-83 394,-8 127,-8"/>
<text text-anchor="middle" x="260.5" y="-67.8" font-family="Times,serif" font-size="14.00">Metric</text>
</a>
</g>
</g>
<g id="clust10" class="cluster"><title>cluster_sks</title>
<g id="a_clust10"><a xlink:href="https://godoc.org/github.com/knative/serving/pkg/apis/networking/v1alpha1#ServerlessServiceStatus" xlink:title="ServerlessService">
<polygon fill="lightgrey" stroke="lightgrey" points="143,-174 143,-332 757,-332 757,-174 143,-174"/>
<text text-anchor="middle" x="450" y="-316.8" font-family="Times,serif" font-size="14.00">ServerlessService</text>
</a>
</g>
</g>
<g id="clust11" class="cluster"><title>cluster_pods</title>
<g id="a_clust11"><a xlink:href="https://godoc.org/k8s.io/api/core/v1#PodStatus" xlink:title="Pod (approximate)">
<polygon fill="lightblue" stroke="lightblue" points="1353,-8 1353,-249 1685,-249 1685,-8 1353,-8"/>
<text text-anchor="middle" x="1519" y="-233.8" font-family="Times,serif" font-size="14.00">Pod (approximate)</text>
</a>
</g>
</g>
<g id="clust12" class="cluster"><title>cluster_deployment</title>
<g id="a_clust12"><a xlink:href="https://godoc.org/k8s.io/api/apps/v1#DeploymentStatus" xlink:title="Deployment (approximate)">
<polygon fill="lightblue" stroke="lightblue" points="1167,-257 1167,-332 1615,-332 1615,-257 1167,-257"/>
<text text-anchor="middle" x="1391" y="-316.8" font-family="Times,serif" font-size="14.00">Deployment (approximate)</text>
</a>
</g>
</g>
<g id="clust13" class="cluster"><title>cluster_endpoints</title>
<g id="a_clust13"><a xlink:href="https://godoc.org/k8s.io/api/apps/v1#Endpoints" xlink:title="Endpoints (approximate)">
<polygon fill="lightblue" stroke="lightblue" points="547,-91 547,-166 741,-166 741,-91 547,-91"/>
<text text-anchor="middle" x="644" y="-150.8" font-family="Times,serif" font-size="14.00">Endpoints (approximate)</text>
</a>
</g>
</g>
<g id="clust14" class="cluster"><title>cluster_deploymentstatus</title>
<polygon fill="lightgrey" stroke="lightgrey" points="1151,-340 1151,-487 1497,-487 1497,-340 1151,-340"/>
<text text-anchor="middle" x="1324" y="-471.8" font-family="Times,serif" font-size="14.00">DeploymentStatus (reified)</text>
</g>
<g id="clust15" class="cluster"><title>cluster_podstatus</title>
<polygon fill="lightgrey" stroke="lightgrey" points="977,-91 977,-249 1345,-249 1345,-91 977,-91"/>
<text text-anchor="middle" x="1161" y="-233.8" font-family="Times,serif" font-size="14.00">PodStatus (reified)</text>
</g>
<!-- ServiceConditionReady -->
<g id="node1" class="node"><title>ServiceConditionReady</title>
<g id="a_node1"><a xlink:href="https://godoc.org/github.com/knative/serving/pkg/apis/serving/v1alpha1#ServiceConditionReady" xlink:title="Ready">
<ellipse fill="white" stroke="white" cx="841" cy="-842" rx="39.7935" ry="18"/>
<text text-anchor="middle" x="841" y="-838.3" font-family="Times,serif" font-size="14.00">Ready</text>
</a>
</g>
</g>
<!-- ServiceConditionConfigurationsReady -->
<g id="node2" class="node"><title>ServiceConditionConfigurationsReady</title>
<g id="a_node2"><a xlink:href="https://godoc.org/github.com/knative/serving/pkg/apis/serving/v1alpha1#ServiceConditionConfigurationsReady" xlink:title="ConfigurationsReady">
<ellipse fill="white" stroke="white" cx="940" cy="-770" rx="108.581" ry="18"/>
<text text-anchor="middle" x="940" y="-766.3" font-family="Times,serif" font-size="14.00">ConfigurationsReady</text>
</a>
</g>
</g>
<!-- ServiceConditionReady&#45;&gt;ServiceConditionConfigurationsReady -->
<g id="edge1" class="edge"><title>ServiceConditionReady&#45;&gt;ServiceConditionConfigurationsReady</title>
<path fill="none" stroke="black" d="M861.513,-826.496C874.989,-816.968 892.89,-804.31 908.193,-793.49"/>
<polygon fill="black" stroke="black" points="910.239,-796.33 916.383,-787.699 906.198,-790.614 910.239,-796.33"/>
</g>
<!-- ServiceConditionRoutesReady -->
<g id="node3" class="node"><title>ServiceConditionRoutesReady</title>
<g id="a_node3"><a xlink:href="https://godoc.org/github.com/knative/serving/pkg/apis/serving/v1alpha1#ServiceConditionRoutesReady" xlink:title="RoutesReady">
<ellipse fill="white" stroke="white" cx="742" cy="-770" rx="71.4873" ry="18"/>
<text text-anchor="middle" x="742" y="-766.3" font-family="Times,serif" font-size="14.00">RoutesReady</text>
</a>
</g>
</g>
<!-- ServiceConditionReady&#45;&gt;ServiceConditionRoutesReady -->
<g id="edge2" class="edge"><title>ServiceConditionReady&#45;&gt;ServiceConditionRoutesReady</title>
<path fill="none" stroke="black" d="M820.487,-826.496C806.82,-816.832 788.601,-803.95 773.157,-793.03"/>
<polygon fill="black" stroke="black" points="775.095,-790.114 764.909,-787.198 771.053,-795.829 775.095,-790.114"/>
</g>
<!-- ConfigurationConditionReady -->
<g id="node8" class="node"><title>ConfigurationConditionReady</title>
<g id="a_node8"><a xlink:href="https://godoc.org/github.com/knative/serving/pkg/apis/serving/v1alpha1#ConfigurationConditionReady" xlink:title="Ready">
<ellipse fill="white" stroke="white" cx="1068" cy="-687" rx="39.7935" ry="18"/>
<text text-anchor="middle" x="1068" y="-683.3" font-family="Times,serif" font-size="14.00">Ready</text>
</a>
</g>
</g>
<!-- ServiceConditionConfigurationsReady&#45;&gt;ConfigurationConditionReady -->
<g id="edge25" class="edge"><title>ServiceConditionConfigurationsReady&#45;&gt;ConfigurationConditionReady</title>
<path fill="none" stroke="black" d="M966.212,-752.413C986.782,-739.395 1015.47,-721.243 1037.15,-707.525"/>
<polygon fill="black" stroke="black" points="1039.09,-710.437 1045.67,-702.132 1035.35,-704.522 1039.09,-710.437"/>
</g>
<!-- RouteConditionReady -->
<g id="node4" class="node"><title>RouteConditionReady</title>
<g id="a_node4"><a xlink:href="https://godoc.org/github.com/knative/serving/pkg/apis/serving/v1alpha1#RouteConditionReady" xlink:title="Ready">
<ellipse fill="white" stroke="white" cx="678" cy="-687" rx="39.7935" ry="18"/>
<text text-anchor="middle" x="678" y="-683.3" font-family="Times,serif" font-size="14.00">Ready</text>
</a>
</g>
</g>
<!-- ServiceConditionRoutesReady&#45;&gt;RouteConditionReady -->
<g id="edge26" class="edge"><title>ServiceConditionRoutesReady&#45;&gt;RouteConditionReady</title>
<path fill="none" stroke="black" d="M728.739,-752.217C719.609,-740.661 707.336,-725.128 697.147,-712.233"/>
<polygon fill="black" stroke="black" points="699.753,-709.886 690.807,-704.209 694.261,-714.225 699.753,-709.886"/>
</g>
<!-- RouteConditionAllTrafficAssigned -->
<g id="node5" class="node"><title>RouteConditionAllTrafficAssigned</title>
<g id="a_node5"><a xlink:href="https://godoc.org/github.com/knative/serving/pkg/apis/serving/v1alpha1#RouteConditionAllTrafficAssigned" xlink:title="AllTrafficAssigned">
<ellipse fill="white" stroke="white" cx="487" cy="-604" rx="96.6831" ry="18"/>
<text text-anchor="middle" x="487" y="-600.3" font-family="Times,serif" font-size="14.00">AllTrafficAssigned</text>
</a>
</g>
</g>
<!-- RouteConditionReady&#45;&gt;RouteConditionAllTrafficAssigned -->
<g id="edge3" class="edge"><title>RouteConditionReady&#45;&gt;RouteConditionAllTrafficAssigned</title>
<path fill="none" stroke="black" d="M654.366,-672.416C646.486,-668.305 637.537,-664.07 629,-661 613.577,-655.453 608.548,-658.186 593,-653 570.767,-645.584 546.915,-635.032 527.478,-625.709"/>
<polygon fill="black" stroke="black" points="528.841,-622.479 518.318,-621.25 525.777,-628.773 528.841,-622.479"/>
</g>
<!-- RouteConditionIngressReady -->
<g id="node6" class="node"><title>RouteConditionIngressReady</title>
<g id="a_node6"><a xlink:href="https://godoc.org/github.com/knative/serving/pkg/apis/serving/v1alpha1#RouteConditionIngressReady" xlink:title="IngressReady">
<ellipse fill="white" stroke="white" cx="677" cy="-604" rx="74.9875" ry="18"/>
<text text-anchor="middle" x="677" y="-600.3" font-family="Times,serif" font-size="14.00">IngressReady</text>
</a>
</g>
</g>
<!-- RouteConditionReady&#45;&gt;RouteConditionIngressReady -->
<g id="edge4" class="edge"><title>RouteConditionReady&#45;&gt;RouteConditionIngressReady</title>
<path fill="none" stroke="black" d="M677.788,-668.822C677.657,-658.19 677.485,-644.306 677.336,-632.204"/>
<polygon fill="black" stroke="black" points="680.835,-632.109 677.212,-622.153 673.836,-632.196 680.835,-632.109"/>
</g>
<!-- IngressConditionReady -->
<g id="node13" class="node"><title>IngressConditionReady</title>
<g id="a_node13"><a xlink:href="https://godoc.org/github.com/knative/serving/pkg/apis/networking/v1alpha1#IngressConditionReady" xlink:title="Ready">
<ellipse fill="white" stroke="white" cx="645" cy="-521" rx="39.7935" ry="18"/>
<text text-anchor="middle" x="645" y="-517.3" font-family="Times,serif" font-size="14.00">Ready</text>
</a>
</g>
</g>
<!-- RouteConditionIngressReady&#45;&gt;IngressConditionReady -->
<g id="edge28" class="edge"><title>RouteConditionIngressReady&#45;&gt;IngressConditionReady</title>
<path fill="none" stroke="black" d="M670.214,-585.822C665.9,-574.902 660.23,-560.551 655.36,-548.224"/>
<polygon fill="black" stroke="black" points="658.596,-546.89 651.667,-538.876 652.086,-549.462 658.596,-546.89"/>
</g>
<!-- RouteConditionCertificateProvisioned -->
<g id="node7" class="node"><title>RouteConditionCertificateProvisioned</title>
<g id="a_node7"><a xlink:href="https://godoc.org/github.com/knative/serving/pkg/apis/serving/v1alpha1#RouteConditionCertificateProvisioned" xlink:title="CertificateProvisioned">
<ellipse fill="white" stroke="black" stroke-dasharray="5,2" cx="505" cy="-687" rx="115.08" ry="18"/>
<text text-anchor="middle" x="505" y="-683.3" font-family="Times,serif" font-size="14.00">CertificateProvisioned</text>
</a>
</g>
</g>
<!-- CertificateConditionReady -->
<g id="node16" class="node"><title>CertificateConditionReady</title>
<g id="a_node16"><a xlink:href="https://godoc.org/github.com/knative/serving/pkg/apis/networking/v1alpha1#CertificateConditionReady" xlink:title="Ready">
<ellipse fill="white" stroke="white" cx="326" cy="-604" rx="39.7935" ry="18"/>
<text text-anchor="middle" x="326" y="-600.3" font-family="Times,serif" font-size="14.00">Ready</text>
</a>
</g>
</g>
<!-- RouteConditionCertificateProvisioned&#45;&gt;CertificateConditionReady -->
<g id="edge27" class="edge"><title>RouteConditionCertificateProvisioned&#45;&gt;CertificateConditionReady</title>
<path fill="none" stroke="black" d="M430.801,-673.218C412.856,-668.395 394.195,-661.844 378,-653 366.375,-646.652 355.318,-637.137 346.414,-628.249"/>
<polygon fill="black" stroke="black" points="348.922,-625.809 339.475,-621.014 343.87,-630.654 348.922,-625.809"/>
</g>
<!-- RevisionConditionReady -->
<g id="node9" class="node"><title>RevisionConditionReady</title>
<g id="a_node9"><a xlink:href="https://godoc.org/github.com/knative/serving/pkg/apis/serving/v1alpha1#RevisionConditionReady" xlink:title="Ready">
<ellipse fill="white" stroke="white" cx="1100" cy="-604" rx="39.7935" ry="18"/>
<text text-anchor="middle" x="1100" y="-600.3" font-family="Times,serif" font-size="14.00">Ready</text>
</a>
</g>
</g>
<!-- ConfigurationConditionReady&#45;&gt;RevisionConditionReady -->
<g id="edge29" class="edge"><title>ConfigurationConditionReady&#45;&gt;RevisionConditionReady</title>
<path fill="none" stroke="black" d="M1074.63,-669.217C1078.96,-658.248 1084.71,-643.694 1089.64,-631.216"/>
<polygon fill="black" stroke="black" points="1092.96,-632.348 1093.38,-621.762 1086.45,-629.776 1092.96,-632.348"/>
</g>
<!-- RevisionConditionDeploymentReady -->
<g id="node10" class="node"><title>RevisionConditionDeploymentReady</title>
<ellipse fill="white" stroke="white" cx="1255" cy="-521" rx="95.5831" ry="18"/>
<text text-anchor="middle" x="1255" y="-517.3" font-family="Times,serif" font-size="14.00">DeploymentReady</text>
</g>
<!-- RevisionConditionReady&#45;&gt;RevisionConditionDeploymentReady -->
<g id="edge5" class="edge"><title>RevisionConditionReady&#45;&gt;RevisionConditionDeploymentReady</title>
<path fill="none" stroke="black" d="M1124.9,-589.986C1149.3,-577.234 1186.88,-557.6 1215.38,-542.704"/>
<polygon fill="black" stroke="black" points="1217.05,-545.782 1224.29,-538.048 1213.81,-539.578 1217.05,-545.782"/>
</g>
<!-- RevisionConditionAutoscalerReady -->
<g id="node11" class="node"><title>RevisionConditionAutoscalerReady</title>
<ellipse fill="white" stroke="white" cx="1052" cy="-521" rx="89.8845" ry="18"/>
<text text-anchor="middle" x="1052" y="-517.3" font-family="Times,serif" font-size="14.00">AutoscalerReady</text>
</g>
<!-- RevisionConditionReady&#45;&gt;RevisionConditionAutoscalerReady -->
<g id="edge6" class="edge"><title>RevisionConditionReady&#45;&gt;RevisionConditionAutoscalerReady</title>
<path fill="none" stroke="black" d="M1090.05,-586.217C1083.47,-575.105 1074.71,-560.315 1067.25,-547.73"/>
<polygon fill="black" stroke="black" points="1070.21,-545.859 1062.1,-539.04 1064.19,-549.428 1070.21,-545.859"/>
</g>
<!-- DeploymentStatusReady -->
<g id="node40" class="node"><title>DeploymentStatusReady</title>
<ellipse fill="white" stroke="white" cx="1255" cy="-438" rx="39.7935" ry="18"/>
<text text-anchor="middle" x="1255" y="-434.3" font-family="Times,serif" font-size="14.00">Ready</text>
</g>
<!-- RevisionConditionDeploymentReady&#45;&gt;DeploymentStatusReady -->
<g id="edge30" class="edge"><title>RevisionConditionDeploymentReady&#45;&gt;DeploymentStatusReady</title>
<path fill="none" stroke="black" d="M1255,-502.822C1255,-492.19 1255,-478.306 1255,-466.204"/>
<polygon fill="black" stroke="black" points="1258.5,-466.153 1255,-456.153 1251.5,-466.153 1258.5,-466.153"/>
</g>
<!-- PodAutoscalerConditionReady -->
<g id="node17" class="node"><title>PodAutoscalerConditionReady</title>
<g id="a_node17"><a xlink:href="https://godoc.org/github.com/knative/serving/pkg/apis/autoscaling/v1alpha1#PodAutoscalerConditionReady" xlink:title="Ready">
<ellipse fill="white" stroke="white" cx="1052" cy="-438" rx="39.7935" ry="18"/>
<text text-anchor="middle" x="1052" y="-434.3" font-family="Times,serif" font-size="14.00">Ready</text>
</a>
</g>
</g>
<!-- RevisionConditionAutoscalerReady&#45;&gt;PodAutoscalerConditionReady -->
<g id="edge31" class="edge"><title>RevisionConditionAutoscalerReady&#45;&gt;PodAutoscalerConditionReady</title>
<path fill="none" stroke="black" d="M1052,-502.822C1052,-492.19 1052,-478.306 1052,-466.204"/>
<polygon fill="black" stroke="black" points="1055.5,-466.153 1052,-456.153 1048.5,-466.153 1055.5,-466.153"/>
</g>
<!-- RevisionConditionActive -->
<g id="node12" class="node"><title>RevisionConditionActive</title>
<g id="a_node12"><a xlink:href="https://godoc.org/github.com/knative/serving/pkg/apis/serving/v1alpha1#RevisionConditionActive" xlink:title="Active">
<ellipse fill="white" stroke="black" stroke-dasharray="5,2" cx="1002" cy="-604" rx="40.0939" ry="18"/>
<text text-anchor="middle" x="1002" y="-600.3" font-family="Times,serif" font-size="14.00">Active</text>
</a>
</g>
</g>
<!-- PodAutoscalerConditionActive -->
<g id="node22" class="node"><title>PodAutoscalerConditionActive</title>
<g id="a_node22"><a xlink:href="https://godoc.org/github.com/knative/serving/pkg/apis/autoscaling/v1alpha1#PodAutoscalerConditionActive" xlink:title="Active">
<ellipse fill="white" stroke="black" stroke-dasharray="5,2" cx="944" cy="-438" rx="40.0939" ry="18"/>
<text text-anchor="middle" x="944" y="-434.3" font-family="Times,serif" font-size="14.00">Active</text>
</a>
</g>
</g>
<!-- RevisionConditionActive&#45;&gt;PodAutoscalerConditionActive -->
<g id="edge32" class="edge"><title>RevisionConditionActive&#45;&gt;PodAutoscalerConditionActive</title>
<path fill="none" stroke="black" d="M974.528,-590.595C966.211,-585.442 957.972,-578.617 953,-570 934.593,-538.1 935.834,-494.292 939.255,-466.309"/>
<polygon fill="black" stroke="black" points="942.769,-466.456 940.692,-456.067 935.837,-465.484 942.769,-466.456"/>
</g>
<!-- IngressConditionNetworkConfigured -->
<g id="node14" class="node"><title>IngressConditionNetworkConfigured</title>
<g id="a_node14"><a xlink:href="https://godoc.org/github.com/knative/serving/pkg/apis/networking/v1alpha1#IngressConditionNetworkConfigured" xlink:title="NetworkConfigured">
<ellipse fill="white" stroke="white" cx="420" cy="-438" rx="103.182" ry="18"/>
<text text-anchor="middle" x="420" y="-434.3" font-family="Times,serif" font-size="14.00">NetworkConfigured</text>
</a>
</g>
</g>
<!-- IngressConditionReady&#45;&gt;IngressConditionNetworkConfigured -->
<g id="edge7" class="edge"><title>IngressConditionReady&#45;&gt;IngressConditionNetworkConfigured</title>
<path fill="none" stroke="black" d="M611.035,-511.233C588.418,-505.114 558.162,-496.387 532,-487 509.138,-478.797 484.254,-468.296 463.761,-459.21"/>
<polygon fill="black" stroke="black" points="464.937,-455.902 454.38,-455.013 462.079,-462.292 464.937,-455.902"/>
</g>
<!-- IngressConditionLoadBalancerReady -->
<g id="node15" class="node"><title>IngressConditionLoadBalancerReady</title>
<g id="a_node15"><a xlink:href="https://godoc.org/github.com/knative/serving/pkg/apis/networking/v1alpha1#IngressConditionLoadBalancerReady" xlink:title="LoadBalancerReady">
<ellipse fill="white" stroke="white" cx="645" cy="-438" rx="103.982" ry="18"/>
<text text-anchor="middle" x="645" y="-434.3" font-family="Times,serif" font-size="14.00">LoadBalancerReady</text>
</a>
</g>
</g>
<!-- IngressConditionReady&#45;&gt;IngressConditionLoadBalancerReady -->
<g id="edge8" class="edge"><title>IngressConditionReady&#45;&gt;IngressConditionLoadBalancerReady</title>
<path fill="none" stroke="black" d="M645,-502.822C645,-492.19 645,-478.306 645,-466.204"/>
<polygon fill="black" stroke="black" points="648.5,-466.153 645,-456.153 641.5,-466.153 648.5,-466.153"/>
</g>
<!-- PodAutoscalerConditionSKSReady -->
<g id="node18" class="node"><title>PodAutoscalerConditionSKSReady</title>
<g id="a_node18"><a xlink:href="https://godoc.org/github.com/knative/serving/pkg/apis/autoscaling/v1alpha1#PodAutoscalerConditionReady" xlink:title="NetworkConfigured">
<ellipse fill="white" stroke="white" cx="876" cy="-366" rx="103.182" ry="18"/>
<text text-anchor="middle" x="876" y="-362.3" font-family="Times,serif" font-size="14.00">NetworkConfigured</text>
</a>
</g>
</g>
<!-- PodAutoscalerConditionReady&#45;&gt;PodAutoscalerConditionSKSReady -->
<g id="edge9" class="edge"><title>PodAutoscalerConditionReady&#45;&gt;PodAutoscalerConditionSKSReady</title>
<path fill="none" stroke="black" d="M1024.17,-424.98C1014.35,-420.799 1003.21,-416.126 993,-412 971.487,-403.308 947.6,-394.051 927.047,-386.207"/>
<polygon fill="black" stroke="black" points="928.147,-382.88 917.556,-382.594 925.657,-389.423 928.147,-382.88"/>
</g>
<!-- PodAutoscalerConditionPodsReady -->
<g id="node19" class="node"><title>PodAutoscalerConditionPodsReady</title>
<ellipse fill="white" stroke="white" cx="1059" cy="-366" rx="61.99" ry="18"/>
<text text-anchor="middle" x="1059" y="-362.3" font-family="Times,serif" font-size="14.00">PodsReady</text>
</g>
<!-- PodAutoscalerConditionReady&#45;&gt;PodAutoscalerConditionPodsReady -->
<g id="edge10" class="edge"><title>PodAutoscalerConditionReady&#45;&gt;PodAutoscalerConditionPodsReady</title>
<path fill="none" stroke="black" d="M1053.73,-419.697C1054.5,-411.983 1055.43,-402.712 1056.29,-394.112"/>
<polygon fill="black" stroke="black" points="1059.78,-394.403 1057.29,-384.104 1052.81,-393.706 1059.78,-394.403"/>
</g>
<!-- ServerlessServiceConditionReady -->
<g id="node27" class="node"><title>ServerlessServiceConditionReady</title>
<g id="a_node27"><a xlink:href="https://godoc.org/github.com/knative/serving/pkg/apis/networking/v1alpha1#ServerlessServiceConditionReady" xlink:title="Ready">
<ellipse fill="white" stroke="white" cx="509" cy="-283" rx="39.7935" ry="18"/>
<text text-anchor="middle" x="509" y="-279.3" font-family="Times,serif" font-size="14.00">Ready</text>
</a>
</g>
</g>
<!-- PodAutoscalerConditionSKSReady&#45;&gt;ServerlessServiceConditionReady -->
<g id="edge33" class="edge"><title>PodAutoscalerConditionSKSReady&#45;&gt;ServerlessServiceConditionReady</title>
<path fill="none" stroke="black" d="M814.572,-351.442C740.969,-335.198 619.412,-308.369 553.998,-293.931"/>
<polygon fill="black" stroke="black" points="554.517,-290.462 543.997,-291.724 553.008,-297.297 554.517,-290.462"/>
</g>
<!-- PodAutoscalerMinScale -->
<g id="node20" class="node"><title>PodAutoscalerMinScale</title>
<g id="a_node20"><a xlink:href="https://godoc.org/github.com/knative/serving/pkg/apis/autoscaling#MinScaleAnnotationKey" xlink:title="MinScale">
<polygon fill="white" stroke="white" points="969.5,-301 886.5,-301 886.5,-265 969.5,-265 969.5,-301"/>
<text text-anchor="middle" x="928" y="-279.3" font-family="Times,serif" font-size="14.00">MinScale</text>
</a>
</g>
</g>
<!-- PodAutoscalerConditionPodsReady&#45;&gt;PodAutoscalerMinScale -->
<g id="edge11" class="edge"><title>PodAutoscalerConditionPodsReady&#45;&gt;PodAutoscalerMinScale</title>
<path fill="none" stroke="black" d="M1019.2,-352.226C1005.58,-346.977 990.608,-340.187 978,-332 967.955,-325.477 958.163,-316.771 949.946,-308.565"/>
<polygon fill="black" stroke="black" points="952.343,-306.009 942.879,-301.246 947.307,-310.871 952.343,-306.009"/>
</g>
<!-- PodAutoscalerReplicas -->
<g id="node21" class="node"><title>PodAutoscalerReplicas</title>
<polygon fill="white" stroke="white" points="1064.5,-301 987.5,-301 987.5,-265 1064.5,-265 1064.5,-301"/>
<text text-anchor="middle" x="1026" y="-279.3" font-family="Times,serif" font-size="14.00">Replicas</text>
</g>
<!-- PodAutoscalerConditionPodsReady&#45;&gt;PodAutoscalerReplicas -->
<g id="edge12" class="edge"><title>PodAutoscalerConditionPodsReady&#45;&gt;PodAutoscalerReplicas</title>
<path fill="none" stroke="black" d="M1052,-347.822C1047.58,-336.976 1041.78,-322.744 1036.79,-310.472"/>
<polygon fill="black" stroke="black" points="1040,-309.094 1032.99,-301.153 1033.52,-311.735 1040,-309.094"/>
</g>
<!-- PodStatusReady -->
<g id="node43" class="node"><title>PodStatusReady</title>
<ellipse fill="white" stroke="white" cx="1093" cy="-200" rx="39.7935" ry="18"/>
<text text-anchor="middle" x="1093" y="-196.3" font-family="Times,serif" font-size="14.00">Ready</text>
</g>
<!-- PodAutoscalerConditionPodsReady&#45;&gt;PodStatusReady -->
<g id="edge34" class="edge"><title>PodAutoscalerConditionPodsReady&#45;&gt;PodStatusReady</title>
<path fill="none" stroke="black" d="M1067.24,-347.825C1069.38,-342.815 1071.51,-337.269 1073,-332 1082.93,-296.984 1088.23,-255.217 1090.82,-228.416"/>
<polygon fill="black" stroke="black" points="1094.33,-228.524 1091.75,-218.248 1087.36,-227.89 1094.33,-228.524"/>
</g>
<!-- EndpointsSubsets -->
<g id="node39" class="node"><title>EndpointsSubsets</title>
<g id="a_node39"><a xlink:href="https://godoc.org/k8s.io/api/apps/v1#Endpoints.Subsets" xlink:title="Subsets">
<ellipse fill="white" stroke="white" cx="644" cy="-117" rx="47.3916" ry="18"/>
<text text-anchor="middle" x="644" y="-113.3" font-family="Times,serif" font-size="14.00">Subsets</text>
</a>
</g>
</g>
<!-- PodAutoscalerReplicas&#45;&gt;EndpointsSubsets -->
<g id="edge35" class="edge"><title>PodAutoscalerReplicas&#45;&gt;EndpointsSubsets</title>
<path fill="none" stroke="black" d="M994.175,-264.939C988.814,-262.205 983.277,-259.467 978,-257 874.574,-208.653 749.627,-158.883 685.868,-134.086"/>
<polygon fill="black" stroke="black" points="686.762,-130.679 676.173,-130.325 684.23,-137.205 686.762,-130.679"/>
</g>
<!-- PodAutoscalerConditionActive&#45;&gt;PodAutoscalerConditionPodsReady -->
<g id="edge13" class="edge"><title>PodAutoscalerConditionActive&#45;&gt;PodAutoscalerConditionPodsReady</title>
<path fill="none" stroke="black" d="M966.996,-423.003C983.632,-412.876 1006.38,-399.028 1025.1,-387.636"/>
<polygon fill="black" stroke="black" points="1026.92,-390.622 1033.65,-382.433 1023.28,-384.643 1026.92,-390.622"/>
</g>
<!-- DeciderDesiredScale -->
<g id="node23" class="node"><title>DeciderDesiredScale</title>
<g id="a_node23"><a xlink:href="https://godoc.org/github.com/knative/serving/pkg/autoscaler#DeciderStatus.DesiredScale" xlink:title="DesiredScale">
<polygon fill="white" stroke="white" points="314,-135 204,-135 204,-99 314,-99 314,-135"/>
<text text-anchor="middle" x="259" y="-113.3" font-family="Times,serif" font-size="14.00">DesiredScale</text>
</a>
</g>
</g>
<!-- MetricStableWindow -->
<g id="node25" class="node"><title>MetricStableWindow</title>
<g id="a_node25"><a xlink:href="https://godoc.org/github.com/knative/serving/pkg/apis/autoscaling/v1alpha1#MetricStableWindow" xlink:title="StableWindow">
<polygon fill="white" stroke="white" points="385.5,-52 266.5,-52 266.5,-16 385.5,-16 385.5,-52"/>
<text text-anchor="middle" x="326" y="-30.3" font-family="Times,serif" font-size="14.00">StableWindow</text>
</a>
</g>
</g>
<!-- DeciderDesiredScale&#45;&gt;MetricStableWindow -->
<g id="edge36" class="edge"><title>DeciderDesiredScale&#45;&gt;MetricStableWindow</title>
<path fill="none" stroke="black" d="M273.209,-98.822C282.536,-87.546 294.89,-72.6111 305.301,-60.0239"/>
<polygon fill="black" stroke="black" points="308.135,-62.0896 311.812,-52.1533 302.741,-57.628 308.135,-62.0896"/>
</g>
<!-- MetricPanicWindow -->
<g id="node26" class="node"><title>MetricPanicWindow</title>
<g id="a_node26"><a xlink:href="https://godoc.org/github.com/knative/serving/pkg/apis/autoscaling/v1alpha1#MetricPanicWindow" xlink:title="PanicWindow">
<polygon fill="white" stroke="white" points="248.5,-52 135.5,-52 135.5,-16 248.5,-16 248.5,-52"/>
<text text-anchor="middle" x="192" y="-30.3" font-family="Times,serif" font-size="14.00">PanicWindow</text>
</a>
</g>
</g>
<!-- DeciderDesiredScale&#45;&gt;MetricPanicWindow -->
<g id="edge37" class="edge"><title>DeciderDesiredScale&#45;&gt;MetricPanicWindow</title>
<path fill="none" stroke="black" d="M244.791,-98.822C235.464,-87.546 223.11,-72.6111 212.699,-60.0239"/>
<polygon fill="black" stroke="black" points="215.259,-57.628 206.188,-52.1533 209.865,-62.0896 215.259,-57.628"/>
</g>
<!-- DeciderExcessBurstCapacity -->
<g id="node24" class="node"><title>DeciderExcessBurstCapacity</title>
<g id="a_node24"><a xlink:href="https://godoc.org/github.com/knative/serving/pkg/autoscaler#DeciderStatus.ExcessBurstCapacity" xlink:title="ExcessBurstCapacity">
<polygon fill="white" stroke="white" points="186,-135 16,-135 16,-99 186,-99 186,-135"/>
<text text-anchor="middle" x="101" y="-113.3" font-family="Times,serif" font-size="14.00">ExcessBurstCapacity</text>
</a>
</g>
</g>
<!-- ServerlessServiceConditionEndspointsPopulated -->
<g id="node28" class="node"><title>ServerlessServiceConditionEndspointsPopulated</title>
<g id="a_node28"><a xlink:href="https://godoc.org/github.com/knative/serving/pkg/apis/networking/v1alpha1#ServerlessServiceConditionEndspointsPopulated" xlink:title="EndpointsPopulated">
<ellipse fill="white" stroke="white" cx="644" cy="-200" rx="104.782" ry="18"/>
<text text-anchor="middle" x="644" y="-196.3" font-family="Times,serif" font-size="14.00">EndpointsPopulated</text>
</a>
</g>
</g>
<!-- ServerlessServiceConditionReady&#45;&gt;ServerlessServiceConditionEndspointsPopulated -->
<g id="edge14" class="edge"><title>ServerlessServiceConditionReady&#45;&gt;ServerlessServiceConditionEndspointsPopulated</title>
<path fill="none" stroke="black" d="M531.901,-268.259C552.579,-255.852 583.366,-237.381 607.446,-222.932"/>
<polygon fill="black" stroke="black" points="609.537,-225.759 616.312,-217.613 605.936,-219.757 609.537,-225.759"/>
</g>
<!-- ServerlessServiceConditionActivatorEndspointsPopulated -->
<g id="node29" class="node"><title>ServerlessServiceConditionActivatorEndspointsPopulated</title>
<g id="a_node29"><a xlink:href="https://godoc.org/github.com/knative/serving/pkg/apis/networking/v1alpha1#ServerlessServiceConditionActivatorEndspointsPopulated" xlink:title="ActivatorEndpointsPopulated">
<ellipse fill="white" stroke="white" cx="374" cy="-200" rx="147.574" ry="18"/>
<text text-anchor="middle" x="374" y="-196.3" font-family="Times,serif" font-size="14.00">ActivatorEndpointsPopulated</text>
</a>
</g>
</g>
<!-- ServerlessServiceConditionReady&#45;&gt;ServerlessServiceConditionActivatorEndspointsPopulated -->
<g id="edge15" class="edge"><title>ServerlessServiceConditionReady&#45;&gt;ServerlessServiceConditionActivatorEndspointsPopulated</title>
<path fill="none" stroke="black" d="M486.099,-268.259C465.554,-255.932 435.031,-237.619 411.021,-223.213"/>
<polygon fill="black" stroke="black" points="412.548,-220.047 402.172,-217.903 408.946,-226.049 412.548,-220.047"/>
</g>
<!-- ServerlessServiceMode -->
<g id="node30" class="node"><title>ServerlessServiceMode</title>
<g id="a_node30"><a xlink:href="https://godoc.org/github.com/knative/serving/pkg/apis/networking/v1alpha1#ServerlessServiceSpec.Mode" xlink:title="Mode">
<polygon fill="white" stroke="white" points="208.5,-218 151.5,-218 151.5,-182 208.5,-182 208.5,-218"/>
<text text-anchor="middle" x="180" y="-196.3" font-family="Times,serif" font-size="14.00">Mode</text>
</a>
</g>
</g>
<!-- ServerlessServiceConditionReady&#45;&gt;ServerlessServiceMode -->
<g id="edge16" class="edge"><title>ServerlessServiceConditionReady&#45;&gt;ServerlessServiceMode</title>
<path fill="none" stroke="black" d="M469.475,-281.304C399.985,-279.467 259.276,-272.832 217,-249 207.748,-243.785 200.04,-235.22 194.097,-226.758"/>
<polygon fill="black" stroke="black" points="196.899,-224.644 188.551,-218.121 191.009,-228.427 196.899,-224.644"/>
</g>
<!-- ServerlessServiceConditionEndspointsPopulated&#45;&gt;EndpointsSubsets -->
<g id="edge38" class="edge"><title>ServerlessServiceConditionEndspointsPopulated&#45;&gt;EndpointsSubsets</title>
<path fill="none" stroke="black" d="M644,-181.822C644,-171.19 644,-157.306 644,-145.204"/>
<polygon fill="black" stroke="black" points="647.5,-145.153 644,-135.153 640.5,-145.153 647.5,-145.153"/>
</g>
<!-- ServerlessServiceConditionActivatorEndspointsPopulated&#45;&gt;EndpointsSubsets -->
<g id="edge41" class="edge"><title>ServerlessServiceConditionActivatorEndspointsPopulated&#45;&gt;EndpointsSubsets</title>
<path fill="none" stroke="black" d="M427.021,-183.094C476.917,-168.125 550.858,-145.943 598.237,-131.729"/>
<polygon fill="black" stroke="black" points="599.353,-135.048 607.926,-128.822 597.342,-128.343 599.353,-135.048"/>
</g>
<!-- ServerlessServiceMode&#45;&gt;DeciderDesiredScale -->
<g id="edge40" class="edge"><title>ServerlessServiceMode&#45;&gt;DeciderDesiredScale</title>
<path fill="none" stroke="black" d="M196.754,-181.822C207.856,-170.439 222.595,-155.326 234.944,-142.665"/>
<polygon fill="black" stroke="black" points="237.794,-144.756 242.27,-135.153 232.782,-139.868 237.794,-144.756"/>
</g>
<!-- ServerlessServiceMode&#45;&gt;DeciderExcessBurstCapacity -->
<g id="edge39" class="edge"><title>ServerlessServiceMode&#45;&gt;DeciderExcessBurstCapacity</title>
<path fill="none" stroke="black" d="M163.246,-181.822C152.144,-170.439 137.405,-155.326 125.056,-142.665"/>
<polygon fill="black" stroke="black" points="127.218,-139.868 117.73,-135.153 122.206,-144.756 127.218,-139.868"/>
</g>
<!-- PodReady -->
<g id="node31" class="node"><title>PodReady</title>
<g id="a_node31"><a xlink:href="https://godoc.org/k8s.io/api/core/v1#PodReady" xlink:title="Ready">
<ellipse fill="white" stroke="white" cx="1554" cy="-200" rx="39.7935" ry="18"/>
<text text-anchor="middle" x="1554" y="-196.3" font-family="Times,serif" font-size="14.00">Ready</text>
</a>
</g>
</g>
<!-- PodInitialized -->
<g id="node33" class="node"><title>PodInitialized</title>
<g id="a_node33"><a xlink:href="https://godoc.org/k8s.io/api/core/v1#PodInitialized" xlink:title="Initialized">
<ellipse fill="white" stroke="white" cx="1419" cy="-117" rx="57.6901" ry="18"/>
<text text-anchor="middle" x="1419" y="-113.3" font-family="Times,serif" font-size="14.00">Initialized</text>
</a>
</g>
</g>
<!-- PodReady&#45;&gt;PodInitialized -->
<g id="edge18" class="edge"><title>PodReady&#45;&gt;PodInitialized</title>
<path fill="none" stroke="black" d="M1526.31,-186.864C1513.75,-181.03 1498.86,-173.649 1486,-166 1472.94,-158.228 1459.18,-148.642 1447.55,-140.086"/>
<polygon fill="black" stroke="black" points="1449.61,-137.254 1439.51,-134.078 1445.43,-142.864 1449.61,-137.254"/>
</g>
<!-- ContainersReady -->
<g id="node34" class="node"><title>ContainersReady</title>
<g id="a_node34"><a xlink:href="https://godoc.org/k8s.io/api/core/v1#ContainersReady" xlink:title="ContainersReady">
<ellipse fill="white" stroke="white" cx="1586" cy="-117" rx="90.9839" ry="18"/>
<text text-anchor="middle" x="1586" y="-113.3" font-family="Times,serif" font-size="14.00">ContainersReady</text>
</a>
</g>
</g>
<!-- PodReady&#45;&gt;ContainersReady -->
<g id="edge17" class="edge"><title>PodReady&#45;&gt;ContainersReady</title>
<path fill="none" stroke="black" d="M1560.63,-182.217C1564.94,-171.321 1570.64,-156.888 1575.54,-144.466"/>
<polygon fill="black" stroke="black" points="1578.85,-145.627 1579.27,-135.04 1572.34,-143.055 1578.85,-145.627"/>
</g>
<!-- PodScheduled -->
<g id="node32" class="node"><title>PodScheduled</title>
<g id="a_node32"><a xlink:href="https://godoc.org/k8s.io/api/core/v1#PodScheduled" xlink:title="Scheduled">
<ellipse fill="white" stroke="white" cx="1420" cy="-34" rx="59.2899" ry="18"/>
<text text-anchor="middle" x="1420" y="-30.3" font-family="Times,serif" font-size="14.00">Scheduled</text>
</a>
</g>
</g>
<!-- PodInitialized&#45;&gt;PodScheduled -->
<g id="edge19" class="edge"><title>PodInitialized&#45;&gt;PodScheduled</title>
<path fill="none" stroke="black" d="M1419.21,-98.822C1419.34,-88.1903 1419.51,-74.306 1419.66,-62.2035"/>
<polygon fill="black" stroke="black" points="1423.16,-62.1957 1419.79,-52.1533 1416.16,-62.1093 1423.16,-62.1957"/>
</g>
<!-- ContainerStatus -->
<g id="node35" class="node"><title>ContainerStatus</title>
<g id="a_node35"><a xlink:href="https://godoc.org/k8s.io/api/core/v1#ContainerStatus" xlink:title="ContainerStatus">
<ellipse fill="white" stroke="white" cx="1585" cy="-34" rx="87.1846" ry="18"/>
<text text-anchor="middle" x="1585" y="-30.3" font-family="Times,serif" font-size="14.00">ContainerStatus</text>
</a>
</g>
</g>
<!-- ContainersReady&#45;&gt;ContainerStatus -->
<g id="edge20" class="edge"><title>ContainersReady&#45;&gt;ContainerStatus</title>
<path fill="none" stroke="black" d="M1585.79,-98.822C1585.66,-88.1903 1585.49,-74.306 1585.34,-62.2035"/>
<polygon fill="black" stroke="black" points="1588.84,-62.1093 1585.21,-52.1533 1581.84,-62.1957 1588.84,-62.1093"/>
</g>
<!-- DeploymentAvailable -->
<g id="node36" class="node"><title>DeploymentAvailable</title>
<g id="a_node36"><a xlink:href="https://godoc.org/k8s.io/api/apps/v1#DeploymentAvailable" xlink:title="Available">
<ellipse fill="white" stroke="white" cx="1554" cy="-283" rx="53.0913" ry="18"/>
<text text-anchor="middle" x="1554" y="-279.3" font-family="Times,serif" font-size="14.00">Available</text>
</a>
</g>
</g>
<!-- DeploymentAvailable&#45;&gt;PodReady -->
<g id="edge42" class="edge"><title>DeploymentAvailable&#45;&gt;PodReady</title>
<path fill="none" stroke="black" d="M1554,-264.822C1554,-254.19 1554,-240.306 1554,-228.204"/>
<polygon fill="black" stroke="black" points="1557.5,-228.153 1554,-218.153 1550.5,-228.153 1557.5,-228.153"/>
</g>
<!-- DeploymentProgressing -->
<g id="node37" class="node"><title>DeploymentProgressing</title>
<g id="a_node37"><a xlink:href="https://godoc.org/k8s.io/api/apps/v1#DeploymentProgressing" xlink:title="Progressing">
<ellipse fill="white" stroke="white" cx="1416" cy="-283" rx="66.8882" ry="18"/>
<text text-anchor="middle" x="1416" y="-279.3" font-family="Times,serif" font-size="14.00">Progressing</text>
</a>
</g>
</g>
<!-- DeploymentReplicaFailure -->
<g id="node38" class="node"><title>DeploymentReplicaFailure</title>
<g id="a_node38"><a xlink:href="https://godoc.org/k8s.io/api/apps/v1#DeploymentReplicaFailure" xlink:title="ReplicaFailure">
<ellipse fill="white" stroke="white" cx="1253" cy="-283" rx="77.9862" ry="18"/>
<text text-anchor="middle" x="1253" y="-279.3" font-family="Times,serif" font-size="14.00">ReplicaFailure</text>
</a>
</g>
</g>
<!-- DeploymentStatusProgressing -->
<g id="node41" class="node"><title>DeploymentStatusProgressing</title>
<ellipse fill="white" stroke="white" cx="1422" cy="-366" rx="66.8882" ry="18"/>
<text text-anchor="middle" x="1422" y="-362.3" font-family="Times,serif" font-size="14.00">Progressing</text>
</g>
<!-- DeploymentStatusReady&#45;&gt;DeploymentStatusProgressing -->
<g id="edge21" class="edge"><title>DeploymentStatusReady&#45;&gt;DeploymentStatusProgressing</title>
<path fill="none" stroke="black" d="M1283.33,-425.125C1309.28,-414.25 1348.09,-397.981 1378.06,-385.419"/>
<polygon fill="black" stroke="black" points="1379.58,-388.576 1387.45,-381.482 1376.87,-382.12 1379.58,-388.576"/>
</g>
<!-- DeploymentStatusReplicaSetReady -->
<g id="node42" class="node"><title>DeploymentStatusReplicaSetReady</title>
<ellipse fill="white" stroke="white" cx="1248" cy="-366" rx="89.0842" ry="18"/>
<text text-anchor="middle" x="1248" y="-362.3" font-family="Times,serif" font-size="14.00">ReplicaSetReady</text>
</g>
<!-- DeploymentStatusReady&#45;&gt;DeploymentStatusReplicaSetReady -->
<g id="edge22" class="edge"><title>DeploymentStatusReady&#45;&gt;DeploymentStatusReplicaSetReady</title>
<path fill="none" stroke="black" d="M1253.27,-419.697C1252.5,-411.983 1251.57,-402.712 1250.71,-394.112"/>
<polygon fill="black" stroke="black" points="1254.19,-393.706 1249.71,-384.104 1247.22,-394.403 1254.19,-393.706"/>
</g>
<!-- DeploymentStatusProgressing&#45;&gt;DeploymentProgressing -->
<g id="edge43" class="edge"><title>DeploymentStatusProgressing&#45;&gt;DeploymentProgressing</title>
<path fill="none" stroke="black" d="M1420.73,-347.822C1419.94,-337.19 1418.91,-323.306 1418.02,-311.204"/>
<polygon fill="black" stroke="black" points="1421.5,-310.867 1417.27,-301.153 1414.52,-311.385 1421.5,-310.867"/>
</g>
<!-- DeploymentStatusReplicaSetReady&#45;&gt;DeploymentReplicaFailure -->
<g id="edge44" class="edge"><title>DeploymentStatusReplicaSetReady&#45;&gt;DeploymentReplicaFailure</title>
<path fill="none" stroke="black" d="M1249.06,-347.822C1249.72,-337.19 1250.57,-323.306 1251.32,-311.204"/>
<polygon fill="black" stroke="black" points="1254.82,-311.35 1251.94,-301.153 1247.83,-310.919 1254.82,-311.35"/>
</g>
<!-- PodStatusContainerReady -->
<g id="node44" class="node"><title>PodStatusContainerReady</title>
<ellipse fill="white" stroke="white" cx="1246" cy="-117" rx="90.9839" ry="18"/>
<text text-anchor="middle" x="1246" y="-113.3" font-family="Times,serif" font-size="14.00">ContainersReady</text>
</g>
<!-- PodStatusReady&#45;&gt;PodStatusContainerReady -->
<g id="edge24" class="edge"><title>PodStatusReady&#45;&gt;PodStatusContainerReady</title>
<path fill="none" stroke="black" d="M1117.92,-185.806C1141.89,-173.119 1178.49,-153.74 1206.44,-138.944"/>
<polygon fill="black" stroke="black" points="1208.35,-141.891 1215.55,-134.118 1205.08,-135.704 1208.35,-141.891"/>
</g>
<!-- PodStatusPodScheduled -->
<g id="node45" class="node"><title>PodStatusPodScheduled</title>
<ellipse fill="white" stroke="white" cx="1061" cy="-117" rx="76.0865" ry="18"/>
<text text-anchor="middle" x="1061" y="-113.3" font-family="Times,serif" font-size="14.00">PodScheduled</text>
</g>
<!-- PodStatusReady&#45;&gt;PodStatusPodScheduled -->
<g id="edge23" class="edge"><title>PodStatusReady&#45;&gt;PodStatusPodScheduled</title>
<path fill="none" stroke="black" d="M1086.37,-182.217C1082.06,-171.321 1076.36,-156.888 1071.46,-144.466"/>
<polygon fill="black" stroke="black" points="1074.66,-143.055 1067.73,-135.04 1068.15,-145.627 1074.66,-143.055"/>
</g>
<!-- PodStatusContainerReady&#45;&gt;ContainerStatus -->
<g id="edge46" class="edge"><title>PodStatusContainerReady&#45;&gt;ContainerStatus</title>
<path fill="none" stroke="black" d="M1296.2,-101.893C1312.87,-97.7241 1331.62,-93.5879 1349,-91 1410.21,-81.8873 1428.18,-98.8186 1488,-83 1509.81,-77.2328 1532.5,-66.3163 1550.45,-56.3494"/>
<polygon fill="black" stroke="black" points="1552.42,-59.2534 1559.37,-51.2563 1548.95,-53.1741 1552.42,-59.2534"/>
</g>
<!-- PodStatusPodScheduled&#45;&gt;PodScheduled -->
<g id="edge45" class="edge"><title>PodStatusPodScheduled&#45;&gt;PodScheduled</title>
<path fill="none" stroke="black" d="M1105.36,-102.183C1118.39,-98.3336 1132.71,-94.305 1146,-91 1219.19,-72.7927 1304.44,-56.0633 1360.17,-45.7216"/>
<polygon fill="black" stroke="black" points="1361.02,-49.1232 1370.22,-43.866 1359.75,-42.2395 1361.02,-49.1232"/>
</g>
</g>
</svg>
