<?xml version="1.0" encoding="UTF-8" standalone="no"?>
<!DOCTYPE svg PUBLIC "-//W3C//DTD SVG 1.1//EN"
 "http://www.w3.org/Graphics/SVG/1.1/DTD/svg11.dtd">
<!-- Generated by graphviz version 2.38.0 (20140413.2041)
 -->
<!-- Title: lifecycle Pages: 1 -->
<svg width="1391pt" height="896pt"
 viewBox="0.00 0.00 1391.00 896.00" xmlns="http://www.w3.org/2000/svg" xmlns:xlink="http://www.w3.org/1999/xlink">
<g id="graph0" class="graph" transform="scale(1 1) rotate(0) translate(4 892)">
<title>lifecycle</title>
<polygon fill="white" stroke="none" points="-4,4 -4,-892 1387,-892 1387,4 -4,4"/>
<g id="clust1" class="cluster"><title>cluster_service</title>
<g id="a_clust1"><a xlink:href="https://godoc.org/github.com/knative/serving/pkg/apis/serving/v1alpha1#ServiceStatus" xlink:title="Service">
<polygon fill="lightgrey" stroke="lightgrey" points="225,-733 225,-880 619,-880 619,-733 225,-733"/>
<text text-anchor="middle" x="422" y="-864.8" font-family="Times,serif" font-size="14.00">Service</text>
</a>
</g>
</g>
<g id="clust2" class="cluster"><title>cluster_route</title>
<g id="a_clust2"><a xlink:href="https://godoc.org/github.com/knative/serving/pkg/apis/serving/v1alpha1#RouteStatus" xlink:title="Route">
<polygon fill="lightgrey" stroke="lightgrey" points="145,-567 145,-725 523,-725 523,-567 145,-567"/>
<text text-anchor="middle" x="334" y="-709.8" font-family="Times,serif" font-size="14.00">Route</text>
</a>
</g>
</g>
<g id="clust3" class="cluster"><title>cluster_configuration</title>
<g id="a_clust3"><a xlink:href="https://godoc.org/github.com/knative/serving/pkg/apis/serving/v1alpha1#ConfigurationStatus" xlink:title="Configuration">
<polygon fill="lightgrey" stroke="lightgrey" points="611,-650 611,-725 726,-725 726,-650 611,-650"/>
<text text-anchor="middle" x="668.5" y="-709.8" font-family="Times,serif" font-size="14.00">Configuration</text>
</a>
</g>
</g>
<g id="clust4" class="cluster"><title>cluster_revision</title>
<g id="a_clust4"><a xlink:href="https://godoc.org/github.com/knative/serving/pkg/apis/serving/v1alpha1#RevisionStatus" xlink:title="Revision">
<polygon fill="lightgrey" stroke="lightgrey" points="730,-484 730,-642 1135,-642 1135,-484 730,-484"/>
<text text-anchor="middle" x="932.5" y="-626.8" font-family="Times,serif" font-size="14.00">Revision</text>
</a>
</g>
</g>
<g id="clust5" class="cluster"><title>cluster_ingress</title>
<g id="a_clust5"><a xlink:href="https://godoc.org/github.com/knative/serving/pkg/apis/networking/v1alpha1#IngressStatus" xlink:title="Ingress">
<polygon fill="lightgrey" stroke="lightgrey" points="8,-401 8,-559 456,-559 456,-401 8,-401"/>
<text text-anchor="middle" x="232" y="-543.8" font-family="Times,serif" font-size="14.00">Ingress</text>
</a>
</g>
</g>
<g id="clust6" class="cluster"><title>cluster_kpa</title>
<g id="a_clust6"><a xlink:href="https://godoc.org/github.com/knative/serving/pkg/apis/autoscaling/v1alpha1#PodAutoscalerStatus" xlink:title="PodAutoscaler">
<polygon fill="lightgrey" stroke="lightgrey" points="1108,-318 1108,-476 1302,-476 1302,-318 1108,-318"/>
<text text-anchor="middle" x="1205" y="-460.8" font-family="Times,serif" font-size="14.00">PodAutoscaler</text>
</a>
</g>
</g>
<g id="clust7" class="cluster"><title>cluster_certificate</title>
<g id="a_clust7"><a xlink:href="https://godoc.org/github.com/knative/serving/pkg/apis/networking/v1alpha1#CertificateStatus" xlink:title="Certificate">
<polygon fill="lightgrey" stroke="lightgrey" points="531,-567 531,-642 627,-642 627,-567 531,-567"/>
<text text-anchor="middle" x="579" y="-626.8" font-family="Times,serif" font-size="14.00">Certificate</text>
</a>
</g>
</g>
<g id="clust8" class="cluster"><title>cluster_sks</title>
<g id="a_clust8"><a xlink:href="https://godoc.org/github.com/knative/serving/pkg/apis/networking/v1alpha1#ServerlessServiceStatus" xlink:title="ServerlessService">
<polygon fill="lightgrey" stroke="lightgrey" points="874,-235 874,-393 1100,-393 1100,-235 874,-235"/>
<text text-anchor="middle" x="987" y="-377.8" font-family="Times,serif" font-size="14.00">ServerlessService</text>
</a>
</g>
</g>
<g id="clust9" class="cluster"><title>cluster_pods</title>
<g id="a_clust9"><a xlink:href="https://godoc.org/k8s.io/api/core/v1#PodStatus" xlink:title="Pod (approximate)">
<polygon fill="lightblue" stroke="lightblue" points="667,-8 667,-227 999,-227 999,-8 667,-8"/>
<text text-anchor="middle" x="833" y="-211.8" font-family="Times,serif" font-size="14.00">Pod (approximate)</text>
</a>
</g>
</g>
<g id="clust10" class="cluster"><title>cluster_deployment</title>
<g id="a_clust10"><a xlink:href="https://godoc.org/k8s.io/api/apps/v1#DeploymentStatus" xlink:title="Deployment (approximate)">
<polygon fill="lightblue" stroke="lightblue" points="418,-235 418,-310 866,-310 866,-235 418,-235"/>
<text text-anchor="middle" x="642" y="-294.8" font-family="Times,serif" font-size="14.00">Deployment (approximate)</text>
</a>
</g>
</g>
<g id="clust11" class="cluster"><title>cluster_deploymentstatus</title>
<polygon fill="lightgrey" stroke="lightgrey" points="464,-318 464,-476 810,-476 810,-318 464,-318"/>
<text text-anchor="middle" x="637" y="-460.8" font-family="Times,serif" font-size="14.00">DeploymentStatus (reified)</text>
</g>
<g id="clust12" class="cluster"><title>cluster_podstatus</title>
<polygon fill="lightgrey" stroke="lightgrey" points="1007,-80 1007,-227 1375,-227 1375,-80 1007,-80"/>
<text text-anchor="middle" x="1191" y="-211.8" font-family="Times,serif" font-size="14.00">PodStatus (reified)</text>
</g>
<!-- ServiceConditionReady -->
<g id="node1" class="node"><title>ServiceConditionReady</title>
<g id="a_node1"><a xlink:href="https://godoc.org/github.com/knative/serving/pkg/apis/serving/v1alpha1#ServiceConditionReady" xlink:title="Ready">
<ellipse fill="white" stroke="white" cx="403" cy="-831" rx="39.7935" ry="18"/>
<text text-anchor="middle" x="403" y="-827.3" font-family="Times,serif" font-size="14.00">Ready</text>
</a>
</g>
</g>
<!-- ServiceConditionConfigurationsReady -->
<g id="node2" class="node"><title>ServiceConditionConfigurationsReady</title>
<g id="a_node2"><a xlink:href="https://godoc.org/github.com/knative/serving/pkg/apis/serving/v1alpha1#ServiceConditionConfigurationsReady" xlink:title="ConfigurationsReady">
<ellipse fill="white" stroke="white" cx="502" cy="-759" rx="108.581" ry="18"/>
<text text-anchor="middle" x="502" y="-755.3" font-family="Times,serif" font-size="14.00">ConfigurationsReady</text>
</a>
</g>
</g>
<!-- ServiceConditionReady&#45;&gt;ServiceConditionConfigurationsReady -->
<g id="edge1" class="edge"><title>ServiceConditionReady&#45;&gt;ServiceConditionConfigurationsReady</title>
<path fill="none" stroke="black" d="M423.513,-815.496C436.989,-805.968 454.89,-793.31 470.193,-782.49"/>
<polygon fill="black" stroke="black" points="472.239,-785.33 478.383,-776.699 468.198,-779.614 472.239,-785.33"/>
</g>
<!-- ServiceConditionRoutesReady -->
<g id="node3" class="node"><title>ServiceConditionRoutesReady</title>
<g id="a_node3"><a xlink:href="https://godoc.org/github.com/knative/serving/pkg/apis/serving/v1alpha1#ServiceConditionRoutesReady" xlink:title="RoutesReady">
<ellipse fill="white" stroke="white" cx="304" cy="-759" rx="71.4873" ry="18"/>
<text text-anchor="middle" x="304" y="-755.3" font-family="Times,serif" font-size="14.00">RoutesReady</text>
</a>
</g>
</g>
<!-- ServiceConditionReady&#45;&gt;ServiceConditionRoutesReady -->
<g id="edge2" class="edge"><title>ServiceConditionReady&#45;&gt;ServiceConditionRoutesReady</title>
<path fill="none" stroke="black" d="M382.487,-815.496C368.82,-805.832 350.601,-792.95 335.157,-782.03"/>
<polygon fill="black" stroke="black" points="337.095,-779.114 326.909,-776.198 333.053,-784.829 337.095,-779.114"/>
</g>
<!-- ConfigurationConditionReady -->
<g id="node8" class="node"><title>ConfigurationConditionReady</title>
<g id="a_node8"><a xlink:href="https://godoc.org/github.com/knative/serving/pkg/apis/serving/v1alpha1#ConfigurationConditionReady" xlink:title="Ready">
<ellipse fill="white" stroke="white" cx="668" cy="-676" rx="39.7935" ry="18"/>
<text text-anchor="middle" x="668" y="-672.3" font-family="Times,serif" font-size="14.00">Ready</text>
</a>
</g>
</g>
<!-- ServiceConditionConfigurationsReady&#45;&gt;ConfigurationConditionReady -->
<g id="edge19" class="edge"><title>ServiceConditionConfigurationsReady&#45;&gt;ConfigurationConditionReady</title>
<path fill="none" stroke="black" d="M535.194,-741.803C563.416,-728.032 603.829,-708.312 632.65,-694.249"/>
<polygon fill="black" stroke="black" points="634.493,-697.244 641.946,-689.713 631.424,-690.953 634.493,-697.244"/>
</g>
<!-- RouteConditionReady -->
<g id="node4" class="node"><title>RouteConditionReady</title>
<g id="a_node4"><a xlink:href="https://godoc.org/github.com/knative/serving/pkg/apis/serving/v1alpha1#RouteConditionReady" xlink:title="Ready">
<ellipse fill="white" stroke="white" cx="227" cy="-676" rx="39.7935" ry="18"/>
<text text-anchor="middle" x="227" y="-672.3" font-family="Times,serif" font-size="14.00">Ready</text>
</a>
</g>
</g>
<!-- ServiceConditionRoutesReady&#45;&gt;RouteConditionReady -->
<g id="edge20" class="edge"><title>ServiceConditionRoutesReady&#45;&gt;RouteConditionReady</title>
<path fill="none" stroke="black" d="M288.046,-741.217C276.778,-729.363 261.531,-713.325 249.095,-700.243"/>
<polygon fill="black" stroke="black" points="251.575,-697.771 242.148,-692.935 246.501,-702.594 251.575,-697.771"/>
</g>
<!-- RouteConditionAllTrafficAssigned -->
<g id="node5" class="node"><title>RouteConditionAllTrafficAssigned</title>
<g id="a_node5"><a xlink:href="https://godoc.org/github.com/knative/serving/pkg/apis/serving/v1alpha1#RouteConditionAllTrafficAssigned" xlink:title="AllTrafficAssigned">
<ellipse fill="white" stroke="white" cx="250" cy="-593" rx="96.6831" ry="18"/>
<text text-anchor="middle" x="250" y="-589.3" font-family="Times,serif" font-size="14.00">AllTrafficAssigned</text>
</a>
</g>
</g>
<!-- RouteConditionReady&#45;&gt;RouteConditionAllTrafficAssigned -->
<g id="edge3" class="edge"><title>RouteConditionReady&#45;&gt;RouteConditionAllTrafficAssigned</title>
<path fill="none" stroke="black" d="M231.878,-657.822C234.927,-647.083 238.919,-633.025 242.38,-620.837"/>
<polygon fill="black" stroke="black" points="245.765,-621.729 245.129,-611.153 239.031,-619.817 245.765,-621.729"/>
</g>
<!-- RouteConditionIngressReady -->
<g id="node6" class="node"><title>RouteConditionIngressReady</title>
<g id="a_node6"><a xlink:href="https://godoc.org/github.com/knative/serving/pkg/apis/serving/v1alpha1#RouteConditionIngressReady" xlink:title="IngressReady">
<ellipse fill="white" stroke="white" cx="440" cy="-593" rx="74.9875" ry="18"/>
<text text-anchor="middle" x="440" y="-589.3" font-family="Times,serif" font-size="14.00">IngressReady</text>
</a>
</g>
</g>
<!-- RouteConditionReady&#45;&gt;RouteConditionIngressReady -->
<g id="edge4" class="edge"><title>RouteConditionReady&#45;&gt;RouteConditionIngressReady</title>
<path fill="none" stroke="black" d="M249.694,-661.2C257.735,-656.92 267.02,-652.638 276,-650 310.284,-639.929 321.964,-652.88 356,-642 374.724,-636.015 393.883,-625.47 409.167,-615.786"/>
<polygon fill="black" stroke="black" points="411.226,-618.622 417.686,-610.224 407.399,-612.761 411.226,-618.622"/>
</g>
<!-- IngressConditionReady -->
<g id="node13" class="node"><title>IngressConditionReady</title>
<g id="a_node13"><a xlink:href="https://godoc.org/github.com/knative/serving/pkg/apis/networking/v1alpha1#IngressConditionReady" xlink:title="Ready">
<ellipse fill="white" stroke="white" cx="344" cy="-510" rx="39.7935" ry="18"/>
<text text-anchor="middle" x="344" y="-506.3" font-family="Times,serif" font-size="14.00">Ready</text>
</a>
</g>
</g>
<!-- RouteConditionIngressReady&#45;&gt;IngressConditionReady -->
<g id="edge22" class="edge"><title>RouteConditionIngressReady&#45;&gt;IngressConditionReady</title>
<path fill="none" stroke="black" d="M420.573,-575.608C406.016,-563.326 385.948,-546.393 370.008,-532.944"/>
<polygon fill="black" stroke="black" points="371.999,-530.045 362.099,-526.271 367.485,-535.395 371.999,-530.045"/>
</g>
<!-- RouteConditionCertificateProvisioned -->
<g id="node7" class="node"><title>RouteConditionCertificateProvisioned</title>
<g id="a_node7"><a xlink:href="https://godoc.org/github.com/knative/serving/pkg/apis/serving/v1alpha1#RouteConditionCertificateProvisioned" xlink:title="CertificateProvisioned">
<ellipse fill="white" stroke="black" stroke-dasharray="5,2" cx="400" cy="-676" rx="115.08" ry="18"/>
<text text-anchor="middle" x="400" y="-672.3" font-family="Times,serif" font-size="14.00">CertificateProvisioned</text>
</a>
</g>
</g>
<!-- CertificateConditionReady -->
<g id="node19" class="node"><title>CertificateConditionReady</title>
<g id="a_node19"><a xlink:href="https://godoc.org/github.com/knative/serving/pkg/apis/networking/v1alpha1#CertificateConditionReady" xlink:title="Ready">
<ellipse fill="white" stroke="white" cx="579" cy="-593" rx="39.7935" ry="18"/>
<text text-anchor="middle" x="579" y="-589.3" font-family="Times,serif" font-size="14.00">Ready</text>
</a>
</g>
</g>
<!-- RouteConditionCertificateProvisioned&#45;&gt;CertificateConditionReady -->
<g id="edge21" class="edge"><title>RouteConditionCertificateProvisioned&#45;&gt;CertificateConditionReady</title>
<path fill="none" stroke="black" d="M474.199,-662.218C492.144,-657.395 510.805,-650.844 527,-642 538.625,-635.652 549.682,-626.137 558.586,-617.249"/>
<polygon fill="black" stroke="black" points="561.13,-619.654 565.525,-610.014 556.078,-614.809 561.13,-619.654"/>
</g>
<!-- RevisionConditionReady -->
<g id="node9" class="node"><title>RevisionConditionReady</title>
<g id="a_node9"><a xlink:href="https://godoc.org/github.com/knative/serving/pkg/apis/serving/v1alpha1#RevisionConditionReady" xlink:title="Ready">
<ellipse fill="white" stroke="white" cx="834" cy="-593" rx="39.7935" ry="18"/>
<text text-anchor="middle" x="834" y="-589.3" font-family="Times,serif" font-size="14.00">Ready</text>
</a>
</g>
</g>
<!-- ConfigurationConditionReady&#45;&gt;RevisionConditionReady -->
<g id="edge23" class="edge"><title>ConfigurationConditionReady&#45;&gt;RevisionConditionReady</title>
<path fill="none" stroke="black" d="M693.938,-662.344C722.117,-648.594 767.305,-626.544 798.704,-611.223"/>
<polygon fill="black" stroke="black" points="800.519,-614.232 807.971,-606.701 797.449,-607.941 800.519,-614.232"/>
</g>
<!-- RevisionConditionDeploymentReady -->
<g id="node10" class="node"><title>RevisionConditionDeploymentReady</title>
<ellipse fill="white" stroke="white" cx="834" cy="-510" rx="95.5831" ry="18"/>
<text text-anchor="middle" x="834" y="-506.3" font-family="Times,serif" font-size="14.00">DeploymentReady</text>
</g>
<!-- RevisionConditionReady&#45;&gt;RevisionConditionDeploymentReady -->
<g id="edge5" class="edge"><title>RevisionConditionReady&#45;&gt;RevisionConditionDeploymentReady</title>
<path fill="none" stroke="black" d="M834,-574.822C834,-564.19 834,-550.306 834,-538.204"/>
<polygon fill="black" stroke="black" points="837.5,-538.153 834,-528.153 830.5,-538.153 837.5,-538.153"/>
</g>
<!-- RevisionConditionAutoscalerReady -->
<g id="node11" class="node"><title>RevisionConditionAutoscalerReady</title>
<ellipse fill="white" stroke="white" cx="1037" cy="-510" rx="89.8845" ry="18"/>
<text text-anchor="middle" x="1037" y="-506.3" font-family="Times,serif" font-size="14.00">AutoscalerReady</text>
</g>
<!-- RevisionConditionReady&#45;&gt;RevisionConditionAutoscalerReady -->
<g id="edge6" class="edge"><title>RevisionConditionReady&#45;&gt;RevisionConditionAutoscalerReady</title>
<path fill="none" stroke="black" d="M867.08,-582.994C887.98,-576.965 915.399,-568.426 939,-559 958.926,-551.042 980.403,-540.73 998.158,-531.705"/>
<polygon fill="black" stroke="black" points="999.781,-534.806 1007.08,-527.122 996.581,-528.58 999.781,-534.806"/>
</g>
<!-- DeploymentStatusReady -->
<g id="node30" class="node"><title>DeploymentStatusReady</title>
<ellipse fill="white" stroke="white" cx="735" cy="-427" rx="39.7935" ry="18"/>
<text text-anchor="middle" x="735" y="-423.3" font-family="Times,serif" font-size="14.00">Ready</text>
</g>
<!-- RevisionConditionDeploymentReady&#45;&gt;DeploymentStatusReady -->
<g id="edge24" class="edge"><title>RevisionConditionDeploymentReady&#45;&gt;DeploymentStatusReady</title>
<path fill="none" stroke="black" d="M813.487,-492.217C798.44,-479.905 777.874,-463.079 761.569,-449.739"/>
<polygon fill="black" stroke="black" points="763.439,-446.746 753.483,-443.123 759.007,-452.164 763.439,-446.746"/>
</g>
<!-- PodAutoscalerConditionReady -->
<g id="node16" class="node"><title>PodAutoscalerConditionReady</title>
<g id="a_node16"><a xlink:href="https://godoc.org/github.com/knative/serving/pkg/apis/autoscaling/v1alpha1#PodAutoscalerConditionReady" xlink:title="Ready">
<ellipse fill="white" stroke="white" cx="1156" cy="-427" rx="39.7935" ry="18"/>
<text text-anchor="middle" x="1156" y="-423.3" font-family="Times,serif" font-size="14.00">Ready</text>
</a>
</g>
</g>
<!-- RevisionConditionAutoscalerReady&#45;&gt;PodAutoscalerConditionReady -->
<g id="edge25" class="edge"><title>RevisionConditionAutoscalerReady&#45;&gt;PodAutoscalerConditionReady</title>
<path fill="none" stroke="black" d="M1061.08,-492.608C1079.89,-479.803 1106.13,-461.942 1126.26,-448.244"/>
<polygon fill="black" stroke="black" points="1128.45,-450.987 1134.75,-442.467 1124.51,-445.2 1128.45,-450.987"/>
</g>
<!-- RevisionConditionActive -->
<g id="node12" class="node"><title>RevisionConditionActive</title>
<g id="a_node12"><a xlink:href="https://godoc.org/github.com/knative/serving/pkg/apis/serving/v1alpha1#RevisionConditionActive" xlink:title="Active">
<ellipse fill="white" stroke="black" stroke-dasharray="5,2" cx="1087" cy="-593" rx="40.0939" ry="18"/>
<text text-anchor="middle" x="1087" y="-589.3" font-family="Times,serif" font-size="14.00">Active</text>
</a>
</g>
</g>
<!-- PodAutoscalerConditionActive -->
<g id="node17" class="node"><title>PodAutoscalerConditionActive</title>
<g id="a_node17"><a xlink:href="https://godoc.org/github.com/knative/serving/pkg/apis/autoscaling/v1alpha1#PodAutoscalerConditionActive" xlink:title="Active">
<ellipse fill="white" stroke="black" stroke-dasharray="5,2" cx="1254" cy="-427" rx="40.0939" ry="18"/>
<text text-anchor="middle" x="1254" y="-423.3" font-family="Times,serif" font-size="14.00">Active</text>
</a>
</g>
</g>
<!-- RevisionConditionActive&#45;&gt;PodAutoscalerConditionActive -->
<g id="edge26" class="edge"><title>RevisionConditionActive&#45;&gt;PodAutoscalerConditionActive</title>
<path fill="none" stroke="black" d="M1110.29,-577.989C1118.72,-572.492 1128.1,-565.86 1136,-559 1174.54,-525.532 1212.94,-480.083 1235.03,-452.461"/>
<polygon fill="black" stroke="black" points="1237.87,-454.505 1241.34,-444.494 1232.39,-450.158 1237.87,-454.505"/>
</g>
<!-- IngressConditionNetworkConfigured -->
<g id="node14" class="node"><title>IngressConditionNetworkConfigured</title>
<g id="a_node14"><a xlink:href="https://godoc.org/github.com/knative/serving/pkg/apis/networking/v1alpha1#IngressConditionNetworkConfigured" xlink:title="NetworkConfigured">
<ellipse fill="white" stroke="white" cx="119" cy="-427" rx="103.182" ry="18"/>
<text text-anchor="middle" x="119" y="-423.3" font-family="Times,serif" font-size="14.00">NetworkConfigured</text>
</a>
</g>
</g>
<!-- IngressConditionReady&#45;&gt;IngressConditionNetworkConfigured -->
<g id="edge7" class="edge"><title>IngressConditionReady&#45;&gt;IngressConditionNetworkConfigured</title>
<path fill="none" stroke="black" d="M310.035,-500.233C287.418,-494.114 257.162,-485.387 231,-476 208.138,-467.797 183.254,-457.296 162.761,-448.21"/>
<polygon fill="black" stroke="black" points="163.937,-444.902 153.38,-444.013 161.079,-451.292 163.937,-444.902"/>
</g>
<!-- IngressConditionLoadBalancerReady -->
<g id="node15" class="node"><title>IngressConditionLoadBalancerReady</title>
<g id="a_node15"><a xlink:href="https://godoc.org/github.com/knative/serving/pkg/apis/networking/v1alpha1#IngressConditionLoadBalancerReady" xlink:title="LoadBalancerReady">
<ellipse fill="white" stroke="white" cx="344" cy="-427" rx="103.982" ry="18"/>
<text text-anchor="middle" x="344" y="-423.3" font-family="Times,serif" font-size="14.00">LoadBalancerReady</text>
</a>
</g>
</g>
<!-- IngressConditionReady&#45;&gt;IngressConditionLoadBalancerReady -->
<g id="edge8" class="edge"><title>IngressConditionReady&#45;&gt;IngressConditionLoadBalancerReady</title>
<path fill="none" stroke="black" d="M344,-491.822C344,-481.19 344,-467.306 344,-455.204"/>
<polygon fill="black" stroke="black" points="347.5,-455.153 344,-445.153 340.5,-455.153 347.5,-455.153"/>
</g>
<!-- PodAutoscalerConditionPodsReady -->
<g id="node18" class="node"><title>PodAutoscalerConditionPodsReady</title>
<ellipse fill="white" stroke="white" cx="1178" cy="-344" rx="61.99" ry="18"/>
<text text-anchor="middle" x="1178" y="-340.3" font-family="Times,serif" font-size="14.00">PodsReady</text>
</g>
<!-- PodAutoscalerConditionReady&#45;&gt;PodAutoscalerConditionPodsReady -->
<g id="edge9" class="edge"><title>PodAutoscalerConditionReady&#45;&gt;PodAutoscalerConditionPodsReady</title>
<path fill="none" stroke="black" d="M1160.67,-408.822C1163.58,-398.083 1167.4,-384.025 1170.71,-371.837"/>
<polygon fill="black" stroke="black" points="1174.1,-372.721 1173.34,-362.153 1167.34,-370.886 1174.1,-372.721"/>
</g>
<!-- ServerlessServiceConditionReady -->
<g id="node20" class="node"><title>ServerlessServiceConditionReady</title>
<g id="a_node20"><a xlink:href="https://godoc.org/github.com/knative/serving/pkg/apis/networking/v1alpha1#ServerlessServiceConditionReady" xlink:title="Ready">
<ellipse fill="white" stroke="white" cx="1019" cy="-344" rx="39.7935" ry="18"/>
<text text-anchor="middle" x="1019" y="-340.3" font-family="Times,serif" font-size="14.00">Ready</text>
</a>
</g>
</g>
<!-- PodAutoscalerConditionActive&#45;&gt;ServerlessServiceConditionReady -->
<g id="edge27" class="edge"><title>PodAutoscalerConditionActive&#45;&gt;ServerlessServiceConditionReady</title>
<path fill="none" stroke="black" d="M1231.34,-412.094C1223.3,-407.805 1214.01,-403.545 1205,-401 1161.67,-388.755 1147.06,-406.159 1104,-393 1084.08,-386.914 1063.7,-375.611 1047.89,-365.502"/>
<polygon fill="black" stroke="black" points="1049.42,-362.32 1039.15,-359.736 1045.57,-368.163 1049.42,-362.32"/>
</g>
<!-- PodStatusReady -->
<g id="node33" class="node"><title>PodStatusReady</title>
<ellipse fill="white" stroke="white" cx="1178" cy="-178" rx="39.7935" ry="18"/>
<text text-anchor="middle" x="1178" y="-174.3" font-family="Times,serif" font-size="14.00">Ready</text>
</g>
<!-- PodAutoscalerConditionPodsReady&#45;&gt;PodStatusReady -->
<g id="edge28" class="edge"><title>PodAutoscalerConditionPodsReady&#45;&gt;PodStatusReady</title>
<path fill="none" stroke="black" d="M1178,-325.759C1178,-297.263 1178,-240.121 1178,-206.157"/>
<polygon fill="black" stroke="black" points="1181.5,-206.01 1178,-196.01 1174.5,-206.01 1181.5,-206.01"/>
</g>
<!-- ServerlessServiceConditionEndspointsPopulated -->
<g id="node21" class="node"><title>ServerlessServiceConditionEndspointsPopulated</title>
<g id="a_node21"><a xlink:href="https://godoc.org/github.com/knative/serving/pkg/apis/networking/v1alpha1#ServerlessServiceConditionEndspointsPopulated" xlink:title="EndpointsPopulated">
<ellipse fill="white" stroke="white" cx="987" cy="-261" rx="104.782" ry="18"/>
<text text-anchor="middle" x="987" y="-257.3" font-family="Times,serif" font-size="14.00">EndpointsPopulated</text>
</a>
</g>
</g>
<!-- ServerlessServiceConditionReady&#45;&gt;ServerlessServiceConditionEndspointsPopulated -->
<g id="edge10" class="edge"><title>ServerlessServiceConditionReady&#45;&gt;ServerlessServiceConditionEndspointsPopulated</title>
<path fill="none" stroke="black" d="M1012.37,-326.217C1008.06,-315.321 1002.36,-300.888 997.456,-288.466"/>
<polygon fill="black" stroke="black" points="1000.66,-287.055 993.732,-279.04 994.151,-289.627 1000.66,-287.055"/>
</g>
<!-- PodReady -->
<g id="node22" class="node"><title>PodReady</title>
<g id="a_node22"><a xlink:href="https://godoc.org/k8s.io/api/core/v1#PodReady" xlink:title="Ready">
<ellipse fill="white" stroke="white" cx="805" cy="-178" rx="39.7935" ry="18"/>
<text text-anchor="middle" x="805" y="-174.3" font-family="Times,serif" font-size="14.00">Ready</text>
</a>
</g>
</g>
<!-- PodInitialized -->
<g id="node24" class="node"><title>PodInitialized</title>
<g id="a_node24"><a xlink:href="https://godoc.org/k8s.io/api/core/v1#PodInitialized" xlink:title="Initialized">
<ellipse fill="white" stroke="white" cx="733" cy="-106" rx="57.6901" ry="18"/>
<text text-anchor="middle" x="733" y="-102.3" font-family="Times,serif" font-size="14.00">Initialized</text>
</a>
</g>
</g>
<!-- PodReady&#45;&gt;PodInitialized -->
<g id="edge12" class="edge"><title>PodReady&#45;&gt;PodInitialized</title>
<path fill="none" stroke="black" d="M789.021,-161.465C779.686,-152.389 767.719,-140.754 757.243,-130.57"/>
<polygon fill="black" stroke="black" points="759.547,-127.929 749.938,-123.467 754.668,-132.947 759.547,-127.929"/>
</g>
<!-- ContainersReady -->
<g id="node25" class="node"><title>ContainersReady</title>
<g id="a_node25"><a xlink:href="https://godoc.org/k8s.io/api/core/v1#ContainersReady" xlink:title="ContainersReady">
<ellipse fill="white" stroke="white" cx="900" cy="-106" rx="90.9839" ry="18"/>
<text text-anchor="middle" x="900" y="-102.3" font-family="Times,serif" font-size="14.00">ContainersReady</text>
</a>
</g>
</g>
<!-- PodReady&#45;&gt;ContainersReady -->
<g id="edge11" class="edge"><title>PodReady&#45;&gt;ContainersReady</title>
<path fill="none" stroke="black" d="M825.147,-162.155C837.986,-152.694 854.871,-140.253 869.353,-129.582"/>
<polygon fill="black" stroke="black" points="871.58,-132.289 877.554,-123.539 867.427,-126.653 871.58,-132.289"/>
</g>
<!-- PodScheduled -->
<g id="node23" class="node"><title>PodScheduled</title>
<g id="a_node23"><a xlink:href="https://godoc.org/k8s.io/api/core/v1#PodScheduled" xlink:title="Scheduled">
<ellipse fill="white" stroke="white" cx="737" cy="-34" rx="59.2899" ry="18"/>
<text text-anchor="middle" x="737" y="-30.3" font-family="Times,serif" font-size="14.00">Scheduled</text>
</a>
</g>
</g>
<!-- PodInitialized&#45;&gt;PodScheduled -->
<g id="edge13" class="edge"><title>PodInitialized&#45;&gt;PodScheduled</title>
<path fill="none" stroke="black" d="M733.989,-87.6966C734.43,-79.9827 734.959,-70.7125 735.451,-62.1124"/>
<polygon fill="black" stroke="black" points="738.946,-62.2878 736.023,-52.1043 731.958,-61.8883 738.946,-62.2878"/>
</g>
<!-- ContainerStatus -->
<g id="node26" class="node"><title>ContainerStatus</title>
<g id="a_node26"><a xlink:href="https://godoc.org/k8s.io/api/core/v1#ContainerStatus" xlink:title="ContainerStatus">
<ellipse fill="white" stroke="white" cx="902" cy="-34" rx="87.1846" ry="18"/>
<text text-anchor="middle" x="902" y="-30.3" font-family="Times,serif" font-size="14.00">ContainerStatus</text>
</a>
</g>
</g>
<!-- ContainersReady&#45;&gt;ContainerStatus -->
<g id="edge14" class="edge"><title>ContainersReady&#45;&gt;ContainerStatus</title>
<path fill="none" stroke="black" d="M900.494,-87.6966C900.715,-79.9827 900.98,-70.7125 901.225,-62.1124"/>
<polygon fill="black" stroke="black" points="904.724,-62.2002 901.511,-52.1043 897.727,-62.0003 904.724,-62.2002"/>
</g>
<!-- DeploymentAvailable -->
<g id="node27" class="node"><title>DeploymentAvailable</title>
<g id="a_node27"><a xlink:href="https://godoc.org/k8s.io/api/apps/v1#DeploymentAvailable" xlink:title="Available">
<ellipse fill="white" stroke="white" cx="805" cy="-261" rx="53.0913" ry="18"/>
<text text-anchor="middle" x="805" y="-257.3" font-family="Times,serif" font-size="14.00">Available</text>
</a>
</g>
</g>
<!-- DeploymentAvailable&#45;&gt;PodReady -->
<g id="edge29" class="edge"><title>DeploymentAvailable&#45;&gt;PodReady</title>
<path fill="none" stroke="black" d="M805,-242.822C805,-232.19 805,-218.306 805,-206.204"/>
<polygon fill="black" stroke="black" points="808.5,-206.153 805,-196.153 801.5,-206.153 808.5,-206.153"/>
</g>
<!-- DeploymentProgressing -->
<g id="node28" class="node"><title>DeploymentProgressing</title>
<g id="a_node28"><a xlink:href="https://godoc.org/k8s.io/api/apps/v1#DeploymentProgressing" xlink:title="Progressing">
<ellipse fill="white" stroke="white" cx="667" cy="-261" rx="66.8882" ry="18"/>
<text text-anchor="middle" x="667" y="-257.3" font-family="Times,serif" font-size="14.00">Progressing</text>
</a>
</g>
</g>
<!-- DeploymentReplicaFailure -->
<g id="node29" class="node"><title>DeploymentReplicaFailure</title>
<g id="a_node29"><a xlink:href="https://godoc.org/k8s.io/api/apps/v1#DeploymentReplicaFailure" xlink:title="ReplicaFailure">
<ellipse fill="white" stroke="white" cx="504" cy="-261" rx="77.9862" ry="18"/>
<text text-anchor="middle" x="504" y="-257.3" font-family="Times,serif" font-size="14.00">ReplicaFailure</text>
</a>
</g>
</g>
<!-- DeploymentStatusProgressing -->
<g id="node31" class="node"><title>DeploymentStatusProgressing</title>
<ellipse fill="white" stroke="white" cx="735" cy="-344" rx="66.8882" ry="18"/>
<text text-anchor="middle" x="735" y="-340.3" font-family="Times,serif" font-size="14.00">Progressing</text>
</g>
<!-- DeploymentStatusReady&#45;&gt;DeploymentStatusProgressing -->
<g id="edge15" class="edge"><title>DeploymentStatusReady&#45;&gt;DeploymentStatusProgressing</title>
<path fill="none" stroke="black" d="M735,-408.822C735,-398.19 735,-384.306 735,-372.204"/>
<polygon fill="black" stroke="black" points="738.5,-372.153 735,-362.153 731.5,-372.153 738.5,-372.153"/>
</g>
<!-- DeploymentStatusReplicaSetReady -->
<g id="node32" class="node"><title>DeploymentStatusReplicaSetReady</title>
<ellipse fill="white" stroke="white" cx="561" cy="-344" rx="89.0842" ry="18"/>
<text text-anchor="middle" x="561" y="-340.3" font-family="Times,serif" font-size="14.00">ReplicaSetReady</text>
</g>
<!-- DeploymentStatusReady&#45;&gt;DeploymentStatusReplicaSetReady -->
<g id="edge16" class="edge"><title>DeploymentStatusReady&#45;&gt;DeploymentStatusReplicaSetReady</title>
<path fill="none" stroke="black" d="M706.711,-414.082C692.35,-407.939 674.672,-400.236 659,-393 640.133,-384.289 619.443,-374.231 601.955,-365.579"/>
<polygon fill="black" stroke="black" points="603.115,-362.247 592.601,-360.935 600.002,-368.517 603.115,-362.247"/>
</g>
<!-- DeploymentStatusProgressing&#45;&gt;DeploymentProgressing -->
<g id="edge30" class="edge"><title>DeploymentStatusProgressing&#45;&gt;DeploymentProgressing</title>
<path fill="none" stroke="black" d="M720.91,-326.217C711.337,-314.813 698.512,-299.536 687.772,-286.744"/>
<polygon fill="black" stroke="black" points="690.182,-284.17 681.072,-278.762 684.821,-288.671 690.182,-284.17"/>
</g>
<!-- DeploymentStatusReplicaSetReady&#45;&gt;DeploymentReplicaFailure -->
<g id="edge31" class="edge"><title>DeploymentStatusReplicaSetReady&#45;&gt;DeploymentReplicaFailure</title>
<path fill="none" stroke="black" d="M548.912,-325.822C540.999,-314.578 530.527,-299.696 521.685,-287.131"/>
<polygon fill="black" stroke="black" points="524.493,-285.039 515.875,-278.876 518.768,-289.068 524.493,-285.039"/>
</g>
<!-- PodStatusContainerReady -->
<g id="node34" class="node"><title>PodStatusContainerReady</title>
<ellipse fill="white" stroke="white" cx="1276" cy="-106" rx="90.9839" ry="18"/>
<text text-anchor="middle" x="1276" y="-102.3" font-family="Times,serif" font-size="14.00">ContainersReady</text>
</g>
<!-- PodStatusReady&#45;&gt;PodStatusContainerReady -->
<g id="edge18" class="edge"><title>PodStatusReady&#45;&gt;PodStatusContainerReady</title>
<path fill="none" stroke="black" d="M1198.31,-162.496C1211.62,-152.989 1229.29,-140.367 1244.41,-129.562"/>
<polygon fill="black" stroke="black" points="1246.87,-132.108 1252.97,-123.448 1242.8,-126.412 1246.87,-132.108"/>
</g>
<!-- PodStatusPodScheduled -->
<g id="node35" class="node"><title>PodStatusPodScheduled</title>
<ellipse fill="white" stroke="white" cx="1091" cy="-106" rx="76.0865" ry="18"/>
<text text-anchor="middle" x="1091" y="-102.3" font-family="Times,serif" font-size="14.00">PodScheduled</text>
</g>
<!-- PodStatusReady&#45;&gt;PodStatusPodScheduled -->
<g id="edge17" class="edge"><title>PodStatusReady&#45;&gt;PodStatusPodScheduled</title>
<path fill="none" stroke="black" d="M1159.12,-161.811C1147.45,-152.421 1132.25,-140.194 1119.18,-129.671"/>
<polygon fill="black" stroke="black" points="1121.34,-126.922 1111.36,-123.38 1116.96,-132.376 1121.34,-126.922"/>
</g>
<!-- PodStatusContainerReady&#45;&gt;ContainerStatus -->
<g id="edge33" class="edge"><title>PodStatusContainerReady&#45;&gt;ContainerStatus</title>
<path fill="none" stroke="black" d="M1224.03,-91.1457C1208.63,-87.2739 1191.68,-83.2428 1176,-80 1111,-66.5618 1036.67,-54.5621 981.835,-46.3405"/>
<polygon fill="black" stroke="black" points="982.237,-42.8619 971.83,-44.8499 981.205,-49.7855 982.237,-42.8619"/>
</g>
<!-- PodStatusPodScheduled&#45;&gt;PodScheduled -->
<g id="edge32" class="edge"><title>PodStatusPodScheduled&#45;&gt;PodScheduled</title>
<path fill="none" stroke="black" d="M1046.98,-91.228C1033.01,-87.2018 1017.45,-83.0645 1003,-80 916.489,-61.6519 892.821,-68.8213 806,-52 800.907,-51.0133 795.626,-49.8921 790.356,-48.7072"/>
<polygon fill="black" stroke="black" points="790.819,-45.2217 780.286,-46.3688 789.235,-52.0402 790.819,-45.2217"/>
</g>
</g>
</svg>
