<?xml version="1.0" encoding="UTF-8" standalone="no"?>
<!DOCTYPE svg PUBLIC "-//W3C//DTD SVG 1.1//EN"
 "http://www.w3.org/Graphics/SVG/1.1/DTD/svg11.dtd">
<!-- Generated by graphviz version 2.38.0 (20140413.2041)
 -->
<!-- Title: lifecycle Pages: 1 -->
<svg width="1620pt" height="907pt"
 viewBox="0.00 0.00 1620.00 907.00" xmlns="http://www.w3.org/2000/svg" xmlns:xlink="http://www.w3.org/1999/xlink">
<g id="graph0" class="graph" transform="scale(1 1) rotate(0) translate(4 903)">
<title>lifecycle</title>
<polygon fill="white" stroke="none" points="-4,4 -4,-903 1616,-903 1616,4 -4,4"/>
<g id="clust1" class="cluster"><title>cluster_service</title>
<g id="a_clust1"><a xlink:href="https://godoc.org/github.com/knative/serving/pkg/apis/serving/v1alpha1#ServiceStatus" xlink:title="Service">
<polygon fill="lightgrey" stroke="lightgrey" points="500,-744 500,-891 894,-891 894,-744 500,-744"/>
<text text-anchor="middle" x="697" y="-875.8" font-family="Times,serif" font-size="14.00">Service</text>
</a>
</g>
</g>
<g id="clust2" class="cluster"><title>cluster_route</title>
<g id="a_clust2"><a xlink:href="https://godoc.org/github.com/knative/serving/pkg/apis/serving/v1alpha1#RouteStatus" xlink:title="Route">
<polygon fill="lightgrey" stroke="lightgrey" points="743,-578 743,-736 1121,-736 1121,-578 743,-578"/>
<text text-anchor="middle" x="932" y="-720.8" font-family="Times,serif" font-size="14.00">Route</text>
</a>
</g>
</g>
<g id="clust3" class="cluster"><title>cluster_configuration</title>
<g id="a_clust3"><a xlink:href="https://godoc.org/github.com/knative/serving/pkg/apis/serving/v1alpha1#ConfigurationStatus" xlink:title="Configuration">
<polygon fill="lightgrey" stroke="lightgrey" points="541,-661 541,-736 656,-736 656,-661 541,-661"/>
<text text-anchor="middle" x="598.5" y="-720.8" font-family="Times,serif" font-size="14.00">Configuration</text>
</a>
</g>
</g>
<g id="clust4" class="cluster"><title>cluster_revision</title>
<g id="a_clust4"><a xlink:href="https://godoc.org/github.com/knative/serving/pkg/apis/serving/v1alpha1#RevisionStatus" xlink:title="Revision">
<polygon fill="lightgrey" stroke="lightgrey" points="330,-495 330,-653 735,-653 735,-495 330,-495"/>
<text text-anchor="middle" x="532.5" y="-637.8" font-family="Times,serif" font-size="14.00">Revision</text>
</a>
</g>
</g>
<g id="clust5" class="cluster"><title>cluster_ingress</title>
<g id="a_clust5"><a xlink:href="https://godoc.org/github.com/knative/serving/pkg/apis/networking/v1alpha1#IngressStatus" xlink:title="Ingress">
<polygon fill="lightgrey" stroke="lightgrey" points="912,-412 912,-570 1360,-570 1360,-412 912,-412"/>
<text text-anchor="middle" x="1136" y="-554.8" font-family="Times,serif" font-size="14.00">Ingress</text>
</a>
</g>
</g>
<g id="clust6" class="cluster"><title>cluster_certificate</title>
<g id="a_clust6"><a xlink:href="https://godoc.org/github.com/knative/serving/pkg/apis/networking/v1alpha1#CertificateStatus" xlink:title="Certificate">
<polygon fill="lightgrey" stroke="lightgrey" points="1129,-578 1129,-653 1225,-653 1225,-578 1129,-578"/>
<text text-anchor="middle" x="1177" y="-637.8" font-family="Times,serif" font-size="14.00">Certificate</text>
</a>
</g>
</g>
<g id="clust7" class="cluster"><title>cluster_kpa</title>
<g id="a_clust7"><a xlink:href="https://godoc.org/github.com/knative/serving/pkg/apis/autoscaling/v1alpha1#PodAutoscalerStatus" xlink:title="PodAutoscaler">
<polygon fill="lightgrey" stroke="lightgrey" points="483,-257 483,-487 847,-487 847,-257 483,-257"/>
<text text-anchor="middle" x="665" y="-471.8" font-family="Times,serif" font-size="14.00">PodAutoscaler</text>
</a>
</g>
</g>
<g id="clust8" class="cluster"><title>cluster_decider</title>
<g id="a_clust8"><a xlink:href="https://godoc.org/github.com/knative/serving/pkg/autoscaler#DeciderStatus" xlink:title="Decider">
<polygon fill="linen" stroke="linen" points="1290,-91 1290,-166 1604,-166 1604,-91 1290,-91"/>
<text text-anchor="middle" x="1447" y="-150.8" font-family="Times,serif" font-size="14.00">Decider</text>
</a>
</g>
</g>
<g id="clust9" class="cluster"><title>cluster_metric</title>
<g id="a_clust9"><a xlink:href="https://godoc.org/github.com/knative/serving/pkg/apis/autoscaling/v1alpha1#MetricStatus" xlink:title="Metric">
<polygon fill="linen" stroke="linen" points="1221,-8 1221,-83 1488,-83 1488,-8 1221,-8"/>
<text text-anchor="middle" x="1354.5" y="-67.8" font-family="Times,serif" font-size="14.00">Metric</text>
</a>
</g>
</g>
<g id="clust10" class="cluster"><title>cluster_sks</title>
<g id="a_clust10"><a xlink:href="https://godoc.org/github.com/knative/serving/pkg/apis/networking/v1alpha1#ServerlessServiceStatus" xlink:title="ServerlessService">
<polygon fill="lightgrey" stroke="lightgrey" points="855,-174 855,-332 1469,-332 1469,-174 855,-174"/>
<text text-anchor="middle" x="1162" y="-316.8" font-family="Times,serif" font-size="14.00">ServerlessService</text>
</a>
</g>
</g>
<g id="clust11" class="cluster"><title>cluster_pods</title>
<g id="a_clust11"><a xlink:href="https://godoc.org/k8s.io/api/core/v1#PodStatus" xlink:title="Pod (approximate)">
<polygon fill="lightblue" stroke="lightblue" points="109,-8 109,-249 441,-249 441,-8 109,-8"/>
<text text-anchor="middle" x="275" y="-233.8" font-family="Times,serif" font-size="14.00">Pod (approximate)</text>
</a>
</g>
</g>
<g id="clust12" class="cluster"><title>cluster_deployment</title>
<g id="a_clust12"><a xlink:href="https://godoc.org/k8s.io/api/apps/v1#DeploymentStatus" xlink:title="Deployment (approximate)">
<polygon fill="lightblue" stroke="lightblue" points="8,-257 8,-332 456,-332 456,-257 8,-257"/>
<text text-anchor="middle" x="232" y="-316.8" font-family="Times,serif" font-size="14.00">Deployment (approximate)</text>
</a>
</g>
</g>
<g id="clust13" class="cluster"><title>cluster_endpoints</title>
<g id="a_clust13"><a xlink:href="https://godoc.org/k8s.io/api/apps/v1#Endpoints" xlink:title="Endpoints (approximate)">
<polygon fill="lightblue" stroke="lightblue" points="914,-91 914,-166 1108,-166 1108,-91 914,-91"/>
<text text-anchor="middle" x="1011" y="-150.8" font-family="Times,serif" font-size="14.00">Endpoints (approximate)</text>
</a>
</g>
</g>
<g id="clust14" class="cluster"><title>cluster_deploymentstatus</title>
<polygon fill="lightgrey" stroke="lightgrey" points="8,-340 8,-487 354,-487 354,-340 8,-340"/>
<text text-anchor="middle" x="181" y="-471.8" font-family="Times,serif" font-size="14.00">DeploymentStatus (reified)</text>
</g>
<g id="clust15" class="cluster"><title>cluster_podstatus</title>
<polygon fill="lightgrey" stroke="lightgrey" points="449,-91 449,-249 817,-249 817,-91 449,-91"/>
<text text-anchor="middle" x="633" y="-233.8" font-family="Times,serif" font-size="14.00">PodStatus (reified)</text>
</g>
<!-- ServiceConditionReady -->
<g id="node1" class="node"><title>ServiceConditionReady</title>
<g id="a_node1"><a xlink:href="https://godoc.org/github.com/knative/serving/pkg/apis/serving/v1alpha1#ServiceConditionReady" xlink:title="Ready">
<ellipse fill="white" stroke="white" cx="716" cy="-842" rx="39.7935" ry="18"/>
<text text-anchor="middle" x="716" y="-838.3" font-family="Times,serif" font-size="14.00">Ready</text>
</a>
</g>
</g>
<!-- ServiceConditionConfigurationsReady -->
<g id="node2" class="node"><title>ServiceConditionConfigurationsReady</title>
<g id="a_node2"><a xlink:href="https://godoc.org/github.com/knative/serving/pkg/apis/serving/v1alpha1#ServiceConditionConfigurationsReady" xlink:title="ConfigurationsReady">
<ellipse fill="white" stroke="white" cx="617" cy="-770" rx="108.581" ry="18"/>
<text text-anchor="middle" x="617" y="-766.3" font-family="Times,serif" font-size="14.00">ConfigurationsReady</text>
</a>
</g>
</g>
<!-- ServiceConditionReady&#45;&gt;ServiceConditionConfigurationsReady -->
<g id="edge1" class="edge"><title>ServiceConditionReady&#45;&gt;ServiceConditionConfigurationsReady</title>
<path fill="none" stroke="black" d="M695.487,-826.496C682.011,-816.968 664.11,-804.31 648.807,-793.49"/>
<polygon fill="black" stroke="black" points="650.802,-790.614 640.617,-787.699 646.761,-796.33 650.802,-790.614"/>
</g>
<!-- ServiceConditionRoutesReady -->
<g id="node3" class="node"><title>ServiceConditionRoutesReady</title>
<g id="a_node3"><a xlink:href="https://godoc.org/github.com/knative/serving/pkg/apis/serving/v1alpha1#ServiceConditionRoutesReady" xlink:title="RoutesReady">
<ellipse fill="white" stroke="white" cx="815" cy="-770" rx="71.4873" ry="18"/>
<text text-anchor="middle" x="815" y="-766.3" font-family="Times,serif" font-size="14.00">RoutesReady</text>
</a>
</g>
</g>
<!-- ServiceConditionReady&#45;&gt;ServiceConditionRoutesReady -->
<g id="edge2" class="edge"><title>ServiceConditionReady&#45;&gt;ServiceConditionRoutesReady</title>
<path fill="none" stroke="black" d="M736.513,-826.496C750.18,-816.832 768.399,-803.95 783.843,-793.03"/>
<polygon fill="black" stroke="black" points="785.947,-795.829 792.091,-787.198 781.905,-790.114 785.947,-795.829"/>
</g>
<!-- ConfigurationConditionReady -->
<g id="node8" class="node"><title>ConfigurationConditionReady</title>
<g id="a_node8"><a xlink:href="https://godoc.org/github.com/knative/serving/pkg/apis/serving/v1alpha1#ConfigurationConditionReady" xlink:title="Ready">
<ellipse fill="white" stroke="white" cx="598" cy="-687" rx="39.7935" ry="18"/>
<text text-anchor="middle" x="598" y="-683.3" font-family="Times,serif" font-size="14.00">Ready</text>
</a>
</g>
</g>
<!-- ServiceConditionConfigurationsReady&#45;&gt;ConfigurationConditionReady -->
<g id="edge23" class="edge"><title>ServiceConditionConfigurationsReady&#45;&gt;ConfigurationConditionReady</title>
<path fill="none" stroke="black" d="M612.971,-751.822C610.477,-741.19 607.22,-727.306 604.381,-715.204"/>
<polygon fill="black" stroke="black" points="607.715,-714.09 602.024,-705.153 600.9,-715.688 607.715,-714.09"/>
</g>
<!-- RouteConditionReady -->
<g id="node4" class="node"><title>RouteConditionReady</title>
<g id="a_node4"><a xlink:href="https://godoc.org/github.com/knative/serving/pkg/apis/serving/v1alpha1#RouteConditionReady" xlink:title="Ready">
<ellipse fill="white" stroke="white" cx="825" cy="-687" rx="39.7935" ry="18"/>
<text text-anchor="middle" x="825" y="-683.3" font-family="Times,serif" font-size="14.00">Ready</text>
</a>
</g>
</g>
<!-- ServiceConditionRoutesReady&#45;&gt;RouteConditionReady -->
<g id="edge24" class="edge"><title>ServiceConditionRoutesReady&#45;&gt;RouteConditionReady</title>
<path fill="none" stroke="black" d="M817.121,-751.822C818.433,-741.19 820.147,-727.306 821.642,-715.204"/>
<polygon fill="black" stroke="black" points="825.131,-715.507 822.882,-705.153 818.183,-714.649 825.131,-715.507"/>
</g>
<!-- RouteConditionAllTrafficAssigned -->
<g id="node5" class="node"><title>RouteConditionAllTrafficAssigned</title>
<g id="a_node5"><a xlink:href="https://godoc.org/github.com/knative/serving/pkg/apis/serving/v1alpha1#RouteConditionAllTrafficAssigned" xlink:title="AllTrafficAssigned">
<ellipse fill="white" stroke="white" cx="848" cy="-604" rx="96.6831" ry="18"/>
<text text-anchor="middle" x="848" y="-600.3" font-family="Times,serif" font-size="14.00">AllTrafficAssigned</text>
</a>
</g>
</g>
<!-- RouteConditionReady&#45;&gt;RouteConditionAllTrafficAssigned -->
<g id="edge3" class="edge"><title>RouteConditionReady&#45;&gt;RouteConditionAllTrafficAssigned</title>
<path fill="none" stroke="black" d="M829.878,-668.822C832.927,-658.083 836.919,-644.025 840.38,-631.837"/>
<polygon fill="black" stroke="black" points="843.765,-632.729 843.129,-622.153 837.031,-630.817 843.765,-632.729"/>
</g>
<!-- RouteConditionIngressReady -->
<g id="node6" class="node"><title>RouteConditionIngressReady</title>
<g id="a_node6"><a xlink:href="https://godoc.org/github.com/knative/serving/pkg/apis/serving/v1alpha1#RouteConditionIngressReady" xlink:title="IngressReady">
<ellipse fill="white" stroke="white" cx="1038" cy="-604" rx="74.9875" ry="18"/>
<text text-anchor="middle" x="1038" y="-600.3" font-family="Times,serif" font-size="14.00">IngressReady</text>
</a>
</g>
</g>
<!-- RouteConditionReady&#45;&gt;RouteConditionIngressReady -->
<g id="edge4" class="edge"><title>RouteConditionReady&#45;&gt;RouteConditionIngressReady</title>
<path fill="none" stroke="black" d="M847.694,-672.2C855.735,-667.92 865.02,-663.638 874,-661 908.284,-650.929 919.964,-663.88 954,-653 972.724,-647.015 991.883,-636.47 1007.17,-626.786"/>
<polygon fill="black" stroke="black" points="1009.23,-629.622 1015.69,-621.224 1005.4,-623.761 1009.23,-629.622"/>
</g>
<!-- IngressConditionReady -->
<g id="node13" class="node"><title>IngressConditionReady</title>
<g id="a_node13"><a xlink:href="https://godoc.org/github.com/knative/serving/pkg/apis/networking/v1alpha1#IngressConditionReady" xlink:title="Ready">
<ellipse fill="white" stroke="white" cx="1038" cy="-521" rx="39.7935" ry="18"/>
<text text-anchor="middle" x="1038" y="-517.3" font-family="Times,serif" font-size="14.00">Ready</text>
</a>
</g>
</g>
<!-- RouteConditionIngressReady&#45;&gt;IngressConditionReady -->
<g id="edge26" class="edge"><title>RouteConditionIngressReady&#45;&gt;IngressConditionReady</title>
<path fill="none" stroke="black" d="M1038,-585.822C1038,-575.19 1038,-561.306 1038,-549.204"/>
<polygon fill="black" stroke="black" points="1041.5,-549.153 1038,-539.153 1034.5,-549.153 1041.5,-549.153"/>
</g>
<!-- RouteConditionCertificateProvisioned -->
<g id="node7" class="node"><title>RouteConditionCertificateProvisioned</title>
<g id="a_node7"><a xlink:href="https://godoc.org/github.com/knative/serving/pkg/apis/serving/v1alpha1#RouteConditionCertificateProvisioned" xlink:title="CertificateProvisioned">
<ellipse fill="white" stroke="black" stroke-dasharray="5,2" cx="998" cy="-687" rx="115.08" ry="18"/>
<text text-anchor="middle" x="998" y="-683.3" font-family="Times,serif" font-size="14.00">CertificateProvisioned</text>
</a>
</g>
</g>
<!-- CertificateConditionReady -->
<g id="node16" class="node"><title>CertificateConditionReady</title>
<g id="a_node16"><a xlink:href="https://godoc.org/github.com/knative/serving/pkg/apis/networking/v1alpha1#CertificateConditionReady" xlink:title="Ready">
<ellipse fill="white" stroke="white" cx="1177" cy="-604" rx="39.7935" ry="18"/>
<text text-anchor="middle" x="1177" y="-600.3" font-family="Times,serif" font-size="14.00">Ready</text>
</a>
</g>
</g>
<!-- RouteConditionCertificateProvisioned&#45;&gt;CertificateConditionReady -->
<g id="edge25" class="edge"><title>RouteConditionCertificateProvisioned&#45;&gt;CertificateConditionReady</title>
<path fill="none" stroke="black" d="M1072.2,-673.218C1090.14,-668.395 1108.8,-661.844 1125,-653 1136.63,-646.652 1147.68,-637.137 1156.59,-628.249"/>
<polygon fill="black" stroke="black" points="1159.13,-630.654 1163.53,-621.014 1154.08,-625.809 1159.13,-630.654"/>
</g>
<!-- RevisionConditionReady -->
<g id="node9" class="node"><title>RevisionConditionReady</title>
<g id="a_node9"><a xlink:href="https://godoc.org/github.com/knative/serving/pkg/apis/serving/v1alpha1#RevisionConditionReady" xlink:title="Ready">
<ellipse fill="white" stroke="white" cx="589" cy="-604" rx="39.7935" ry="18"/>
<text text-anchor="middle" x="589" y="-600.3" font-family="Times,serif" font-size="14.00">Ready</text>
</a>
</g>
</g>
<!-- ConfigurationConditionReady&#45;&gt;RevisionConditionReady -->
<g id="edge27" class="edge"><title>ConfigurationConditionReady&#45;&gt;RevisionConditionReady</title>
<path fill="none" stroke="black" d="M596.091,-668.822C594.91,-658.19 593.367,-644.306 592.023,-632.204"/>
<polygon fill="black" stroke="black" points="595.489,-631.706 590.906,-622.153 588.532,-632.479 595.489,-631.706"/>
</g>
<!-- RevisionConditionDeploymentReady -->
<g id="node10" class="node"><title>RevisionConditionDeploymentReady</title>
<ellipse fill="white" stroke="white" cx="434" cy="-521" rx="95.5831" ry="18"/>
<text text-anchor="middle" x="434" y="-517.3" font-family="Times,serif" font-size="14.00">DeploymentReady</text>
</g>
<!-- RevisionConditionReady&#45;&gt;RevisionConditionDeploymentReady -->
<g id="edge5" class="edge"><title>RevisionConditionReady&#45;&gt;RevisionConditionDeploymentReady</title>
<path fill="none" stroke="black" d="M564.097,-589.986C539.695,-577.234 502.123,-557.6 473.618,-542.704"/>
<polygon fill="black" stroke="black" points="475.194,-539.578 464.71,-538.048 471.952,-545.782 475.194,-539.578"/>
</g>
<!-- RevisionConditionAutoscalerReady -->
<g id="node11" class="node"><title>RevisionConditionAutoscalerReady</title>
<ellipse fill="white" stroke="white" cx="637" cy="-521" rx="89.8845" ry="18"/>
<text text-anchor="middle" x="637" y="-517.3" font-family="Times,serif" font-size="14.00">AutoscalerReady</text>
</g>
<!-- RevisionConditionReady&#45;&gt;RevisionConditionAutoscalerReady -->
<g id="edge6" class="edge"><title>RevisionConditionReady&#45;&gt;RevisionConditionAutoscalerReady</title>
<path fill="none" stroke="black" d="M598.946,-586.217C605.53,-575.105 614.295,-560.315 621.752,-547.73"/>
<polygon fill="black" stroke="black" points="624.815,-549.428 626.902,-539.04 618.793,-545.859 624.815,-549.428"/>
</g>
<!-- DeploymentStatusReady -->
<g id="node39" class="node"><title>DeploymentStatusReady</title>
<ellipse fill="white" stroke="white" cx="257" cy="-438" rx="39.7935" ry="18"/>
<text text-anchor="middle" x="257" y="-434.3" font-family="Times,serif" font-size="14.00">Ready</text>
</g>
<!-- RevisionConditionDeploymentReady&#45;&gt;DeploymentStatusReady -->
<g id="edge28" class="edge"><title>RevisionConditionDeploymentReady&#45;&gt;DeploymentStatusReady</title>
<path fill="none" stroke="black" d="M399.452,-504.19C368.818,-490.171 324.236,-469.769 293.133,-455.535"/>
<polygon fill="black" stroke="black" points="294.492,-452.308 283.943,-451.33 291.579,-458.674 294.492,-452.308"/>
</g>
<!-- PodAutoscalerConditionReady -->
<g id="node17" class="node"><title>PodAutoscalerConditionReady</title>
<g id="a_node17"><a xlink:href="https://godoc.org/github.com/knative/serving/pkg/apis/autoscaling/v1alpha1#PodAutoscalerConditionReady" xlink:title="Ready">
<ellipse fill="white" stroke="white" cx="637" cy="-438" rx="39.7935" ry="18"/>
<text text-anchor="middle" x="637" y="-434.3" font-family="Times,serif" font-size="14.00">Ready</text>
</a>
</g>
</g>
<!-- RevisionConditionAutoscalerReady&#45;&gt;PodAutoscalerConditionReady -->
<g id="edge29" class="edge"><title>RevisionConditionAutoscalerReady&#45;&gt;PodAutoscalerConditionReady</title>
<path fill="none" stroke="black" d="M637,-502.822C637,-492.19 637,-478.306 637,-466.204"/>
<polygon fill="black" stroke="black" points="640.5,-466.153 637,-456.153 633.5,-466.153 640.5,-466.153"/>
</g>
<!-- RevisionConditionActive -->
<g id="node12" class="node"><title>RevisionConditionActive</title>
<g id="a_node12"><a xlink:href="https://godoc.org/github.com/knative/serving/pkg/apis/serving/v1alpha1#RevisionConditionActive" xlink:title="Active">
<ellipse fill="white" stroke="black" stroke-dasharray="5,2" cx="687" cy="-604" rx="40.0939" ry="18"/>
<text text-anchor="middle" x="687" y="-600.3" font-family="Times,serif" font-size="14.00">Active</text>
</a>
</g>
</g>
<!-- PodAutoscalerConditionActive -->
<g id="node21" class="node"><title>PodAutoscalerConditionActive</title>
<g id="a_node21"><a xlink:href="https://godoc.org/github.com/knative/serving/pkg/apis/autoscaling/v1alpha1#PodAutoscalerConditionActive" xlink:title="Active">
<ellipse fill="white" stroke="black" stroke-dasharray="5,2" cx="791" cy="-438" rx="40.0939" ry="18"/>
<text text-anchor="middle" x="791" y="-434.3" font-family="Times,serif" font-size="14.00">Active</text>
</a>
</g>
</g>
<!-- RevisionConditionActive&#45;&gt;PodAutoscalerConditionActive -->
<g id="edge30" class="edge"><title>RevisionConditionActive&#45;&gt;PodAutoscalerConditionActive</title>
<path fill="none" stroke="black" d="M712.41,-589.841C720.766,-584.558 729.554,-577.845 736,-570 761.549,-538.905 776.872,-494.235 784.626,-465.924"/>
<polygon fill="black" stroke="black" points="788.094,-466.496 787.233,-455.937 781.321,-464.728 788.094,-466.496"/>
</g>
<!-- IngressConditionNetworkConfigured -->
<g id="node14" class="node"><title>IngressConditionNetworkConfigured</title>
<g id="a_node14"><a xlink:href="https://godoc.org/github.com/knative/serving/pkg/apis/networking/v1alpha1#IngressConditionNetworkConfigured" xlink:title="NetworkConfigured">
<ellipse fill="white" stroke="white" cx="1249" cy="-438" rx="103.182" ry="18"/>
<text text-anchor="middle" x="1249" y="-434.3" font-family="Times,serif" font-size="14.00">NetworkConfigured</text>
</a>
</g>
</g>
<!-- IngressConditionReady&#45;&gt;IngressConditionNetworkConfigured -->
<g id="edge7" class="edge"><title>IngressConditionReady&#45;&gt;IngressConditionNetworkConfigured</title>
<path fill="none" stroke="black" d="M1069.89,-510.113C1089.41,-503.878 1114.82,-495.434 1137,-487 1159.45,-478.465 1184.01,-468.061 1204.4,-459.124"/>
<polygon fill="black" stroke="black" points="1206.01,-462.239 1213.75,-455.001 1203.18,-455.834 1206.01,-462.239"/>
</g>
<!-- IngressConditionLoadBalancerReady -->
<g id="node15" class="node"><title>IngressConditionLoadBalancerReady</title>
<g id="a_node15"><a xlink:href="https://godoc.org/github.com/knative/serving/pkg/apis/networking/v1alpha1#IngressConditionLoadBalancerReady" xlink:title="LoadBalancerReady">
<ellipse fill="white" stroke="white" cx="1024" cy="-438" rx="103.982" ry="18"/>
<text text-anchor="middle" x="1024" y="-434.3" font-family="Times,serif" font-size="14.00">LoadBalancerReady</text>
</a>
</g>
</g>
<!-- IngressConditionReady&#45;&gt;IngressConditionLoadBalancerReady -->
<g id="edge8" class="edge"><title>IngressConditionReady&#45;&gt;IngressConditionLoadBalancerReady</title>
<path fill="none" stroke="black" d="M1035.03,-502.822C1033.19,-492.19 1030.79,-478.306 1028.7,-466.204"/>
<polygon fill="black" stroke="black" points="1032.12,-465.411 1026.96,-456.153 1025.22,-466.603 1032.12,-465.411"/>
</g>
<!-- PodAutoscalerConditionSKSReady -->
<g id="node18" class="node"><title>PodAutoscalerConditionSKSReady</title>
<g id="a_node18"><a xlink:href="https://godoc.org/github.com/knative/serving/pkg/apis/autoscaling/v1alpha1#PodAutoscalerConditionReady" xlink:title="NetworkConfigured">
<ellipse fill="white" stroke="white" cx="736" cy="-366" rx="103.182" ry="18"/>
<text text-anchor="middle" x="736" y="-362.3" font-family="Times,serif" font-size="14.00">NetworkConfigured</text>
</a>
</g>
</g>
<!-- PodAutoscalerConditionReady&#45;&gt;PodAutoscalerConditionSKSReady -->
<g id="edge9" class="edge"><title>PodAutoscalerConditionReady&#45;&gt;PodAutoscalerConditionSKSReady</title>
<path fill="none" stroke="black" d="M657.513,-422.496C670.989,-412.968 688.89,-400.31 704.193,-389.49"/>
<polygon fill="black" stroke="black" points="706.239,-392.33 712.383,-383.699 702.198,-386.614 706.239,-392.33"/>
</g>
<!-- PodAutoscalerConditionPodsReady -->
<g id="node19" class="node"><title>PodAutoscalerConditionPodsReady</title>
<ellipse fill="white" stroke="white" cx="553" cy="-366" rx="61.99" ry="18"/>
<text text-anchor="middle" x="553" y="-362.3" font-family="Times,serif" font-size="14.00">PodsReady</text>
</g>
<!-- PodAutoscalerConditionReady&#45;&gt;PodAutoscalerConditionPodsReady -->
<g id="edge10" class="edge"><title>PodAutoscalerConditionReady&#45;&gt;PodAutoscalerConditionPodsReady</title>
<path fill="none" stroke="black" d="M618.773,-421.811C607.532,-412.443 592.903,-400.252 580.297,-389.747"/>
<polygon fill="black" stroke="black" points="582.283,-386.847 572.36,-383.134 577.802,-392.224 582.283,-386.847"/>
</g>
<!-- ServerlessServiceConditionReady -->
<g id="node26" class="node"><title>ServerlessServiceConditionReady</title>
<g id="a_node26"><a xlink:href="https://godoc.org/github.com/knative/serving/pkg/apis/networking/v1alpha1#ServerlessServiceConditionReady" xlink:title="Ready">
<ellipse fill="white" stroke="white" cx="1061" cy="-283" rx="39.7935" ry="18"/>
<text text-anchor="middle" x="1061" y="-279.3" font-family="Times,serif" font-size="14.00">Ready</text>
</a>
</g>
</g>
<!-- PodAutoscalerConditionSKSReady&#45;&gt;ServerlessServiceConditionReady -->
<g id="edge32" class="edge"><title>PodAutoscalerConditionSKSReady&#45;&gt;ServerlessServiceConditionReady</title>
<path fill="none" stroke="black" d="M792.611,-350.891C856.432,-334.985 958.852,-309.459 1016.98,-294.972"/>
<polygon fill="black" stroke="black" points="1018.09,-298.301 1026.95,-292.487 1016.4,-291.509 1018.09,-298.301"/>
</g>
<!-- PodAutoscalerMinScale -->
<g id="node20" class="node"><title>PodAutoscalerMinScale</title>
<g id="a_node20"><a xlink:href="https://godoc.org/github.com/knative/serving/pkg/apis/autoscaling#MinScaleAnnotationKey" xlink:title="Minscale">
<polygon fill="white" stroke="white" points="660,-301 578,-301 578,-265 660,-265 660,-301"/>
<text text-anchor="middle" x="619" y="-279.3" font-family="Times,serif" font-size="14.00">Minscale</text>
</a>
</g>
</g>
<!-- PodAutoscalerConditionPodsReady&#45;&gt;PodAutoscalerMinScale -->
<g id="edge11" class="edge"><title>PodAutoscalerConditionPodsReady&#45;&gt;PodAutoscalerMinScale</title>
<path fill="none" stroke="black" d="M566.675,-348.217C575.905,-336.889 588.249,-321.74 598.63,-309"/>
<polygon fill="black" stroke="black" points="601.512,-311.004 605.115,-301.04 596.085,-306.582 601.512,-311.004"/>
</g>
<!-- EndpointsSubsets -->
<g id="node38" class="node"><title>EndpointsSubsets</title>
<g id="a_node38"><a xlink:href="https://godoc.org/k8s.io/api/apps/v1#Endpoints.Subsets" xlink:title="Subsets">
<ellipse fill="white" stroke="white" cx="1011" cy="-117" rx="47.3916" ry="18"/>
<text text-anchor="middle" x="1011" y="-113.3" font-family="Times,serif" font-size="14.00">Subsets</text>
</a>
</g>
</g>
<!-- PodAutoscalerConditionPodsReady&#45;&gt;EndpointsSubsets -->
<g id="edge40" class="edge"><title>PodAutoscalerConditionPodsReady&#45;&gt;EndpointsSubsets</title>
<path fill="none" stroke="black" d="M588.766,-351.132C599.933,-347.148 612.373,-343.059 624,-340 643.645,-334.832 649.835,-338.734 669,-332 741.619,-306.486 769.915,-306.575 821,-249 844.827,-222.146 825.064,-198.824 851,-174 879.64,-146.589 922.439,-132.52 956.567,-125.341"/>
<polygon fill="black" stroke="black" points="957.26,-128.772 966.399,-123.411 955.911,-121.903 957.26,-128.772"/>
</g>
<!-- PodStatusReady -->
<g id="node42" class="node"><title>PodStatusReady</title>
<ellipse fill="white" stroke="white" cx="550" cy="-200" rx="39.7935" ry="18"/>
<text text-anchor="middle" x="550" y="-196.3" font-family="Times,serif" font-size="14.00">Ready</text>
</g>
<!-- PodAutoscalerConditionPodsReady&#45;&gt;PodStatusReady -->
<g id="edge33" class="edge"><title>PodAutoscalerConditionPodsReady&#45;&gt;PodStatusReady</title>
<path fill="none" stroke="black" d="M552.685,-347.759C552.163,-319.263 551.118,-262.121 550.497,-228.157"/>
<polygon fill="black" stroke="black" points="553.994,-227.944 550.311,-218.01 546.995,-228.072 553.994,-227.944"/>
</g>
<!-- ServerlessServiceConditionEndspointsPopulated -->
<g id="node27" class="node"><title>ServerlessServiceConditionEndspointsPopulated</title>
<g id="a_node27"><a xlink:href="https://godoc.org/github.com/knative/serving/pkg/apis/networking/v1alpha1#ServerlessServiceConditionEndspointsPopulated" xlink:title="EndpointsPopulated">
<ellipse fill="white" stroke="white" cx="1281" cy="-200" rx="104.782" ry="18"/>
<text text-anchor="middle" x="1281" y="-196.3" font-family="Times,serif" font-size="14.00">EndpointsPopulated</text>
</a>
</g>
</g>
<!-- PodAutoscalerConditionActive&#45;&gt;ServerlessServiceConditionEndspointsPopulated -->
<g id="edge31" class="edge"><title>PodAutoscalerConditionActive&#45;&gt;ServerlessServiceConditionEndspointsPopulated</title>
<path fill="none" stroke="black" d="M826.532,-429.435C887.141,-415.645 1013.33,-383.049 1110,-332 1166.4,-302.217 1223.55,-253.976 1255.41,-225.089"/>
<polygon fill="black" stroke="black" points="1257.94,-227.519 1262.95,-218.185 1253.21,-222.356 1257.94,-227.519"/>
</g>
<!-- DeciderDesiredScale -->
<g id="node22" class="node"><title>DeciderDesiredScale</title>
<g id="a_node22"><a xlink:href="https://godoc.org/github.com/knative/serving/pkg/autoscaler#DeciderStatus.DesiredScale" xlink:title="DesiredScale">
<polygon fill="white" stroke="white" points="1408,-135 1298,-135 1298,-99 1408,-99 1408,-135"/>
<text text-anchor="middle" x="1353" y="-113.3" font-family="Times,serif" font-size="14.00">DesiredScale</text>
</a>
</g>
</g>
<!-- MetricStableWindow -->
<g id="node24" class="node"><title>MetricStableWindow</title>
<g id="a_node24"><a xlink:href="https://godoc.org/github.com/knative/serving/pkg/apis/autoscaling/v1alpha1#MetricStableWindow" xlink:title="StableWindow">
<polygon fill="white" stroke="white" points="1479.5,-52 1360.5,-52 1360.5,-16 1479.5,-16 1479.5,-52"/>
<text text-anchor="middle" x="1420" y="-30.3" font-family="Times,serif" font-size="14.00">StableWindow</text>
</a>
</g>
</g>
<!-- DeciderDesiredScale&#45;&gt;MetricStableWindow -->
<g id="edge34" class="edge"><title>DeciderDesiredScale&#45;&gt;MetricStableWindow</title>
<path fill="none" stroke="black" d="M1367.21,-98.822C1376.54,-87.546 1388.89,-72.6111 1399.3,-60.0239"/>
<polygon fill="black" stroke="black" points="1402.13,-62.0896 1405.81,-52.1533 1396.74,-57.628 1402.13,-62.0896"/>
</g>
<!-- MetricPanicWindow -->
<g id="node25" class="node"><title>MetricPanicWindow</title>
<g id="a_node25"><a xlink:href="https://godoc.org/github.com/knative/serving/pkg/apis/autoscaling/v1alpha1#MetricPanicWindow" xlink:title="PanicWindow">
<polygon fill="white" stroke="white" points="1342.5,-52 1229.5,-52 1229.5,-16 1342.5,-16 1342.5,-52"/>
<text text-anchor="middle" x="1286" y="-30.3" font-family="Times,serif" font-size="14.00">PanicWindow</text>
</a>
</g>
</g>
<!-- DeciderDesiredScale&#45;&gt;MetricPanicWindow -->
<g id="edge35" class="edge"><title>DeciderDesiredScale&#45;&gt;MetricPanicWindow</title>
<path fill="none" stroke="black" d="M1338.79,-98.822C1329.46,-87.546 1317.11,-72.6111 1306.7,-60.0239"/>
<polygon fill="black" stroke="black" points="1309.26,-57.628 1300.19,-52.1533 1303.87,-62.0896 1309.26,-57.628"/>
</g>
<!-- DeciderExcessBurstCapacity -->
<g id="node23" class="node"><title>DeciderExcessBurstCapacity</title>
<g id="a_node23"><a xlink:href="https://godoc.org/github.com/knative/serving/pkg/autoscaler#DeciderStatus.ExcessBurstCapacity" xlink:title="ExcessBurstCapacity">
<polygon fill="white" stroke="white" points="1596,-135 1426,-135 1426,-99 1596,-99 1596,-135"/>
<text text-anchor="middle" x="1511" y="-113.3" font-family="Times,serif" font-size="14.00">ExcessBurstCapacity</text>
</a>
</g>
</g>
<!-- ServerlessServiceConditionReady&#45;&gt;ServerlessServiceConditionEndspointsPopulated -->
<g id="edge12" class="edge"><title>ServerlessServiceConditionReady&#45;&gt;ServerlessServiceConditionEndspointsPopulated</title>
<path fill="none" stroke="black" d="M1094.07,-272.752C1115.36,-266.565 1143.53,-257.943 1168,-249 1190.92,-240.624 1215.93,-230.142 1236.59,-221.111"/>
<polygon fill="black" stroke="black" points="1238.01,-224.311 1245.75,-217.077 1235.18,-217.904 1238.01,-224.311"/>
</g>
<!-- ServerlessServiceConditionActivatorEndspointsPopulated -->
<g id="node28" class="node"><title>ServerlessServiceConditionActivatorEndspointsPopulated</title>
<g id="a_node28"><a xlink:href="https://godoc.org/github.com/knative/serving/pkg/apis/networking/v1alpha1#ServerlessServiceConditionActivatorEndspointsPopulated" xlink:title="ActivatorEndpointsPopulated">
<ellipse fill="white" stroke="white" cx="1011" cy="-200" rx="147.574" ry="18"/>
<text text-anchor="middle" x="1011" y="-196.3" font-family="Times,serif" font-size="14.00">ActivatorEndpointsPopulated</text>
</a>
</g>
</g>
<!-- ServerlessServiceConditionReady&#45;&gt;ServerlessServiceConditionActivatorEndspointsPopulated -->
<g id="edge13" class="edge"><title>ServerlessServiceConditionReady&#45;&gt;ServerlessServiceConditionActivatorEndspointsPopulated</title>
<path fill="none" stroke="black" d="M1050.64,-265.217C1043.78,-254.105 1034.65,-239.315 1026.88,-226.73"/>
<polygon fill="black" stroke="black" points="1029.75,-224.711 1021.52,-218.04 1023.79,-228.388 1029.75,-224.711"/>
</g>
<!-- ServerlessServiceMode -->
<g id="node29" class="node"><title>ServerlessServiceMode</title>
<g id="a_node29"><a xlink:href="https://godoc.org/github.com/knative/serving/pkg/apis/networking/v1alpha1#ServerlessServiceSpec.Mode" xlink:title="Mode">
<polygon fill="white" stroke="white" points="1460.5,-218 1403.5,-218 1403.5,-182 1460.5,-182 1460.5,-218"/>
<text text-anchor="middle" x="1432" y="-196.3" font-family="Times,serif" font-size="14.00">Mode</text>
</a>
</g>
</g>
<!-- ServerlessServiceConditionReady&#45;&gt;ServerlessServiceMode -->
<g id="edge14" class="edge"><title>ServerlessServiceConditionReady&#45;&gt;ServerlessServiceMode</title>
<path fill="none" stroke="black" d="M1100.69,-281.962C1177.96,-281.264 1345.38,-276.515 1395,-249 1404.29,-243.85 1412,-235.299 1417.94,-226.829"/>
<polygon fill="black" stroke="black" points="1421.04,-228.488 1423.48,-218.179 1415.14,-224.714 1421.04,-228.488"/>
</g>
<!-- ServerlessServiceConditionEndspointsPopulated&#45;&gt;EndpointsSubsets -->
<g id="edge36" class="edge"><title>ServerlessServiceConditionEndspointsPopulated&#45;&gt;EndpointsSubsets</title>
<path fill="none" stroke="black" d="M1231.48,-184.143C1181.63,-169.188 1105.36,-146.309 1056.86,-131.758"/>
<polygon fill="black" stroke="black" points="1057.83,-128.395 1047.25,-128.874 1055.82,-135.1 1057.83,-128.395"/>
</g>
<!-- ServerlessServiceConditionActivatorEndspointsPopulated&#45;&gt;EndpointsSubsets -->
<g id="edge39" class="edge"><title>ServerlessServiceConditionActivatorEndspointsPopulated&#45;&gt;EndpointsSubsets</title>
<path fill="none" stroke="black" d="M1011,-181.822C1011,-171.19 1011,-157.306 1011,-145.204"/>
<polygon fill="black" stroke="black" points="1014.5,-145.153 1011,-135.153 1007.5,-145.153 1014.5,-145.153"/>
</g>
<!-- ServerlessServiceMode&#45;&gt;DeciderDesiredScale -->
<g id="edge38" class="edge"><title>ServerlessServiceMode&#45;&gt;DeciderDesiredScale</title>
<path fill="none" stroke="black" d="M1415.25,-181.822C1404.14,-170.439 1389.4,-155.326 1377.06,-142.665"/>
<polygon fill="black" stroke="black" points="1379.22,-139.868 1369.73,-135.153 1374.21,-144.756 1379.22,-139.868"/>
</g>
<!-- ServerlessServiceMode&#45;&gt;DeciderExcessBurstCapacity -->
<g id="edge37" class="edge"><title>ServerlessServiceMode&#45;&gt;DeciderExcessBurstCapacity</title>
<path fill="none" stroke="black" d="M1448.75,-181.822C1459.86,-170.439 1474.6,-155.326 1486.94,-142.665"/>
<polygon fill="black" stroke="black" points="1489.79,-144.756 1494.27,-135.153 1484.78,-139.868 1489.79,-144.756"/>
</g>
<!-- PodReady -->
<g id="node30" class="node"><title>PodReady</title>
<g id="a_node30"><a xlink:href="https://godoc.org/k8s.io/api/core/v1#PodReady" xlink:title="Ready">
<ellipse fill="white" stroke="white" cx="375" cy="-200" rx="39.7935" ry="18"/>
<text text-anchor="middle" x="375" y="-196.3" font-family="Times,serif" font-size="14.00">Ready</text>
</a>
</g>
</g>
<!-- PodInitialized -->
<g id="node32" class="node"><title>PodInitialized</title>
<g id="a_node32"><a xlink:href="https://godoc.org/k8s.io/api/core/v1#PodInitialized" xlink:title="Initialized">
<ellipse fill="white" stroke="white" cx="375" cy="-117" rx="57.6901" ry="18"/>
<text text-anchor="middle" x="375" y="-113.3" font-family="Times,serif" font-size="14.00">Initialized</text>
</a>
</g>
</g>
<!-- PodReady&#45;&gt;PodInitialized -->
<g id="edge16" class="edge"><title>PodReady&#45;&gt;PodInitialized</title>
<path fill="none" stroke="black" d="M375,-181.822C375,-171.19 375,-157.306 375,-145.204"/>
<polygon fill="black" stroke="black" points="378.5,-145.153 375,-135.153 371.5,-145.153 378.5,-145.153"/>
</g>
<!-- ContainersReady -->
<g id="node33" class="node"><title>ContainersReady</title>
<g id="a_node33"><a xlink:href="https://godoc.org/k8s.io/api/core/v1#ContainersReady" xlink:title="ContainersReady">
<ellipse fill="white" stroke="white" cx="208" cy="-117" rx="90.9839" ry="18"/>
<text text-anchor="middle" x="208" y="-113.3" font-family="Times,serif" font-size="14.00">ContainersReady</text>
</a>
</g>
</g>
<!-- PodReady&#45;&gt;ContainersReady -->
<g id="edge15" class="edge"><title>PodReady&#45;&gt;ContainersReady</title>
<path fill="none" stroke="black" d="M348.906,-186.344C322.469,-173.521 281.151,-153.481 250.08,-138.41"/>
<polygon fill="black" stroke="black" points="251.32,-135.121 240.795,-133.906 248.265,-141.42 251.32,-135.121"/>
</g>
<!-- PodScheduled -->
<g id="node31" class="node"><title>PodScheduled</title>
<g id="a_node31"><a xlink:href="https://godoc.org/k8s.io/api/core/v1#PodScheduled" xlink:title="Scheduled">
<ellipse fill="white" stroke="white" cx="374" cy="-34" rx="59.2899" ry="18"/>
<text text-anchor="middle" x="374" y="-30.3" font-family="Times,serif" font-size="14.00">Scheduled</text>
</a>
</g>
</g>
<!-- PodInitialized&#45;&gt;PodScheduled -->
<g id="edge17" class="edge"><title>PodInitialized&#45;&gt;PodScheduled</title>
<path fill="none" stroke="black" d="M374.788,-98.822C374.657,-88.1903 374.485,-74.306 374.336,-62.2035"/>
<polygon fill="black" stroke="black" points="377.835,-62.1093 374.212,-52.1533 370.836,-62.1957 377.835,-62.1093"/>
</g>
<!-- ContainerStatus -->
<g id="node34" class="node"><title>ContainerStatus</title>
<g id="a_node34"><a xlink:href="https://godoc.org/k8s.io/api/core/v1#ContainerStatus" xlink:title="ContainerStatus">
<ellipse fill="white" stroke="white" cx="209" cy="-34" rx="87.1846" ry="18"/>
<text text-anchor="middle" x="209" y="-30.3" font-family="Times,serif" font-size="14.00">ContainerStatus</text>
</a>
</g>
</g>
<!-- ContainersReady&#45;&gt;ContainerStatus -->
<g id="edge18" class="edge"><title>ContainersReady&#45;&gt;ContainerStatus</title>
<path fill="none" stroke="black" d="M208.212,-98.822C208.343,-88.1903 208.515,-74.306 208.664,-62.2035"/>
<polygon fill="black" stroke="black" points="212.164,-62.1957 208.788,-52.1533 205.165,-62.1093 212.164,-62.1957"/>
</g>
<!-- DeploymentAvailable -->
<g id="node35" class="node"><title>DeploymentAvailable</title>
<g id="a_node35"><a xlink:href="https://godoc.org/k8s.io/api/apps/v1#DeploymentAvailable" xlink:title="Available">
<ellipse fill="white" stroke="white" cx="395" cy="-283" rx="53.0913" ry="18"/>
<text text-anchor="middle" x="395" y="-279.3" font-family="Times,serif" font-size="14.00">Available</text>
</a>
</g>
</g>
<!-- DeploymentAvailable&#45;&gt;PodReady -->
<g id="edge41" class="edge"><title>DeploymentAvailable&#45;&gt;PodReady</title>
<path fill="none" stroke="black" d="M390.759,-264.822C388.133,-254.19 384.705,-240.306 381.717,-228.204"/>
<polygon fill="black" stroke="black" points="385.031,-227.023 379.235,-218.153 378.235,-228.701 385.031,-227.023"/>
</g>
<!-- DeploymentProgressing -->
<g id="node36" class="node"><title>DeploymentProgressing</title>
<g id="a_node36"><a xlink:href="https://godoc.org/k8s.io/api/apps/v1#DeploymentProgressing" xlink:title="Progressing">
<ellipse fill="white" stroke="white" cx="83" cy="-283" rx="66.8882" ry="18"/>
<text text-anchor="middle" x="83" y="-279.3" font-family="Times,serif" font-size="14.00">Progressing</text>
</a>
</g>
</g>
<!-- DeploymentReplicaFailure -->
<g id="node37" class="node"><title>DeploymentReplicaFailure</title>
<g id="a_node37"><a xlink:href="https://godoc.org/k8s.io/api/apps/v1#DeploymentReplicaFailure" xlink:title="ReplicaFailure">
<ellipse fill="white" stroke="white" cx="246" cy="-283" rx="77.9862" ry="18"/>
<text text-anchor="middle" x="246" y="-279.3" font-family="Times,serif" font-size="14.00">ReplicaFailure</text>
</a>
</g>
</g>
<!-- DeploymentStatusProgressing -->
<g id="node40" class="node"><title>DeploymentStatusProgressing</title>
<ellipse fill="white" stroke="white" cx="83" cy="-366" rx="66.8882" ry="18"/>
<text text-anchor="middle" x="83" y="-362.3" font-family="Times,serif" font-size="14.00">Progressing</text>
</g>
<!-- DeploymentStatusReady&#45;&gt;DeploymentStatusProgressing -->
<g id="edge19" class="edge"><title>DeploymentStatusReady&#45;&gt;DeploymentStatusProgressing</title>
<path fill="none" stroke="black" d="M228.267,-425.441C201.062,-414.496 159.789,-397.892 128.18,-385.176"/>
<polygon fill="black" stroke="black" points="129.291,-381.85 118.707,-381.365 126.678,-388.344 129.291,-381.85"/>
</g>
<!-- DeploymentStatusReplicaSetReady -->
<g id="node41" class="node"><title>DeploymentStatusReplicaSetReady</title>
<ellipse fill="white" stroke="white" cx="257" cy="-366" rx="89.0842" ry="18"/>
<text text-anchor="middle" x="257" y="-362.3" font-family="Times,serif" font-size="14.00">ReplicaSetReady</text>
</g>
<!-- DeploymentStatusReady&#45;&gt;DeploymentStatusReplicaSetReady -->
<g id="edge20" class="edge"><title>DeploymentStatusReady&#45;&gt;DeploymentStatusReplicaSetReady</title>
<path fill="none" stroke="black" d="M257,-419.697C257,-411.983 257,-402.712 257,-394.112"/>
<polygon fill="black" stroke="black" points="260.5,-394.104 257,-384.104 253.5,-394.104 260.5,-394.104"/>
</g>
<!-- DeploymentStatusProgressing&#45;&gt;DeploymentProgressing -->
<g id="edge42" class="edge"><title>DeploymentStatusProgressing&#45;&gt;DeploymentProgressing</title>
<path fill="none" stroke="black" d="M83,-347.822C83,-337.19 83,-323.306 83,-311.204"/>
<polygon fill="black" stroke="black" points="86.5001,-311.153 83,-301.153 79.5001,-311.153 86.5001,-311.153"/>
</g>
<!-- DeploymentStatusReplicaSetReady&#45;&gt;DeploymentReplicaFailure -->
<g id="edge43" class="edge"><title>DeploymentStatusReplicaSetReady&#45;&gt;DeploymentReplicaFailure</title>
<path fill="none" stroke="black" d="M254.667,-347.822C253.223,-337.19 251.338,-323.306 249.694,-311.204"/>
<polygon fill="black" stroke="black" points="253.143,-310.591 248.329,-301.153 246.207,-311.533 253.143,-310.591"/>
</g>
<!-- PodStatusContainerReady -->
<g id="node43" class="node"><title>PodStatusContainerReady</title>
<ellipse fill="white" stroke="white" cx="548" cy="-117" rx="90.9839" ry="18"/>
<text text-anchor="middle" x="548" y="-113.3" font-family="Times,serif" font-size="14.00">ContainersReady</text>
</g>
<!-- PodStatusReady&#45;&gt;PodStatusContainerReady -->
<g id="edge22" class="edge"><title>PodStatusReady&#45;&gt;PodStatusContainerReady</title>
<path fill="none" stroke="black" d="M549.576,-181.822C549.313,-171.19 548.971,-157.306 548.672,-145.204"/>
<polygon fill="black" stroke="black" points="552.169,-145.064 548.424,-135.153 545.172,-145.237 552.169,-145.064"/>
</g>
<!-- PodStatusPodScheduled -->
<g id="node44" class="node"><title>PodStatusPodScheduled</title>
<ellipse fill="white" stroke="white" cx="733" cy="-117" rx="76.0865" ry="18"/>
<text text-anchor="middle" x="733" y="-113.3" font-family="Times,serif" font-size="14.00">PodScheduled</text>
</g>
<!-- PodStatusReady&#45;&gt;PodStatusPodScheduled -->
<g id="edge21" class="edge"><title>PodStatusReady&#45;&gt;PodStatusPodScheduled</title>
<path fill="none" stroke="black" d="M582.809,-189.657C602.13,-183.737 626.849,-175.431 648,-166 665.176,-158.341 683.433,-148.303 698.606,-139.387"/>
<polygon fill="black" stroke="black" points="700.822,-142.141 707.618,-134.013 697.236,-136.129 700.822,-142.141"/>
</g>
<!-- PodStatusContainerReady&#45;&gt;ContainerStatus -->
<g id="edge45" class="edge"><title>PodStatusContainerReady&#45;&gt;ContainerStatus</title>
<path fill="none" stroke="black" d="M497.804,-101.893C481.129,-97.7241 462.381,-93.5879 445,-91 383.795,-81.8873 365.824,-98.8186 306,-83 284.189,-77.2328 261.5,-66.3163 243.553,-56.3494"/>
<polygon fill="black" stroke="black" points="245.051,-53.1741 234.631,-51.2563 241.581,-59.2534 245.051,-53.1741"/>
</g>
<!-- PodStatusPodScheduled&#45;&gt;PodScheduled -->
<g id="edge44" class="edge"><title>PodStatusPodScheduled&#45;&gt;PodScheduled</title>
<path fill="none" stroke="black" d="M688.638,-102.183C675.606,-98.3336 661.285,-94.305 648,-91 574.813,-72.7927 489.563,-56.0633 433.835,-45.7216"/>
<polygon fill="black" stroke="black" points="434.251,-42.2395 423.782,-43.866 432.981,-49.1232 434.251,-42.2395"/>
</g>
</g>
</svg>
