<?xml version="1.0" encoding="UTF-8" standalone="no"?>
<!DOCTYPE svg PUBLIC "-//W3C//DTD SVG 1.1//EN"
 "http://www.w3.org/Graphics/SVG/1.1/DTD/svg11.dtd">
<!-- Generated by graphviz version 2.38.0 (20140413.2041)
 -->
<!-- Title: lifecycle Pages: 1 -->
<svg width="1522pt" height="907pt"
 viewBox="0.00 0.00 1522.00 907.00" xmlns="http://www.w3.org/2000/svg" xmlns:xlink="http://www.w3.org/1999/xlink">
<g id="graph0" class="graph" transform="scale(1 1) rotate(0) translate(4 903)">
<title>lifecycle</title>
<polygon fill="white" stroke="none" points="-4,4 -4,-903 1518,-903 1518,4 -4,4"/>
<g id="clust1" class="cluster"><title>cluster_service</title>
<g id="a_clust1"><a xlink:href="https://godoc.org/github.com/knative/serving/pkg/apis/serving/v1alpha1#ServiceStatus" xlink:title="Service">
<polygon fill="lightgrey" stroke="lightgrey" points="447,-744 447,-891 841,-891 841,-744 447,-744"/>
<text text-anchor="middle" x="644" y="-875.8" font-family="Times,serif" font-size="14.00">Service</text>
</a>
</g>
</g>
<g id="clust2" class="cluster"><title>cluster_route</title>
<g id="a_clust2"><a xlink:href="https://godoc.org/github.com/knative/serving/pkg/apis/serving/v1alpha1#RouteStatus" xlink:title="Route">
<polygon fill="lightgrey" stroke="lightgrey" points="221,-578 221,-736 599,-736 599,-578 221,-578"/>
<text text-anchor="middle" x="410" y="-720.8" font-family="Times,serif" font-size="14.00">Route</text>
</a>
</g>
</g>
<g id="clust3" class="cluster"><title>cluster_configuration</title>
<g id="a_clust3"><a xlink:href="https://godoc.org/github.com/knative/serving/pkg/apis/serving/v1alpha1#ConfigurationStatus" xlink:title="Configuration">
<polygon fill="lightgrey" stroke="lightgrey" points="686,-661 686,-736 801,-736 801,-661 686,-661"/>
<text text-anchor="middle" x="743.5" y="-720.8" font-family="Times,serif" font-size="14.00">Configuration</text>
</a>
</g>
</g>
<g id="clust4" class="cluster"><title>cluster_revision</title>
<g id="a_clust4"><a xlink:href="https://godoc.org/github.com/knative/serving/pkg/apis/serving/v1alpha1#RevisionStatus" xlink:title="Revision">
<polygon fill="lightgrey" stroke="lightgrey" points="607,-495 607,-653 1012,-653 1012,-495 607,-495"/>
<text text-anchor="middle" x="809.5" y="-637.8" font-family="Times,serif" font-size="14.00">Revision</text>
</a>
</g>
</g>
<g id="clust5" class="cluster"><title>cluster_ingress</title>
<g id="a_clust5"><a xlink:href="https://godoc.org/github.com/knative/serving/pkg/apis/networking/v1alpha1#IngressStatus" xlink:title="Ingress">
<polygon fill="lightgrey" stroke="lightgrey" points="8,-412 8,-570 456,-570 456,-412 8,-412"/>
<text text-anchor="middle" x="232" y="-554.8" font-family="Times,serif" font-size="14.00">Ingress</text>
</a>
</g>
</g>
<g id="clust6" class="cluster"><title>cluster_certificate</title>
<g id="a_clust6"><a xlink:href="https://godoc.org/github.com/knative/serving/pkg/apis/networking/v1alpha1#CertificateStatus" xlink:title="Certificate">
<polygon fill="lightgrey" stroke="lightgrey" points="117,-578 117,-653 213,-653 213,-578 117,-578"/>
<text text-anchor="middle" x="165" y="-637.8" font-family="Times,serif" font-size="14.00">Certificate</text>
</a>
</g>
</g>
<g id="clust7" class="cluster"><title>cluster_kpa</title>
<g id="a_clust7"><a xlink:href="https://godoc.org/github.com/knative/serving/pkg/apis/autoscaling/v1alpha1#PodAutoscalerStatus" xlink:title="PodAutoscaler">
<polygon fill="lightgrey" stroke="lightgrey" points="471,-340 471,-487 835,-487 835,-340 471,-340"/>
<text text-anchor="middle" x="653" y="-471.8" font-family="Times,serif" font-size="14.00">PodAutoscaler</text>
</a>
</g>
</g>
<g id="clust8" class="cluster"><title>cluster_decider</title>
<g id="a_clust8"><a xlink:href="https://godoc.org/github.com/knative/serving/pkg/autoscaler#DeciderStatus" xlink:title="Decider">
<polygon fill="linen" stroke="linen" points="62,-91 62,-166 376,-166 376,-91 62,-91"/>
<text text-anchor="middle" x="219" y="-150.8" font-family="Times,serif" font-size="14.00">Decider</text>
</a>
</g>
</g>
<g id="clust9" class="cluster"><title>cluster_metric</title>
<g id="a_clust9"><a xlink:href="https://godoc.org/github.com/knative/serving/pkg/apis/autoscaling/v1alpha1#MetricStatus" xlink:title="Metric">
<polygon fill="linen" stroke="linen" points="16,-8 16,-83 283,-83 283,-8 16,-8"/>
<text text-anchor="middle" x="149.5" y="-67.8" font-family="Times,serif" font-size="14.00">Metric</text>
</a>
</g>
</g>
<g id="clust10" class="cluster"><title>cluster_sks</title>
<g id="a_clust10"><a xlink:href="https://godoc.org/github.com/knative/serving/pkg/apis/networking/v1alpha1#ServerlessServiceStatus" xlink:title="ServerlessService">
<polygon fill="lightgrey" stroke="lightgrey" points="176,-174 176,-332 790,-332 790,-174 176,-174"/>
<text text-anchor="middle" x="483" y="-316.8" font-family="Times,serif" font-size="14.00">ServerlessService</text>
</a>
</g>
</g>
<g id="clust11" class="cluster"><title>cluster_pods</title>
<g id="a_clust11"><a xlink:href="https://godoc.org/k8s.io/api/core/v1#PodStatus" xlink:title="Pod (approximate)">
<polygon fill="lightblue" stroke="lightblue" points="1174,-8 1174,-249 1506,-249 1506,-8 1174,-8"/>
<text text-anchor="middle" x="1340" y="-233.8" font-family="Times,serif" font-size="14.00">Pod (approximate)</text>
</a>
</g>
</g>
<g id="clust12" class="cluster"><title>cluster_deployment</title>
<g id="a_clust12"><a xlink:href="https://godoc.org/k8s.io/api/apps/v1#DeploymentStatus" xlink:title="Deployment (approximate)">
<polygon fill="lightblue" stroke="lightblue" points="858,-257 858,-332 1306,-332 1306,-257 858,-257"/>
<text text-anchor="middle" x="1082" y="-316.8" font-family="Times,serif" font-size="14.00">Deployment (approximate)</text>
</a>
</g>
</g>
<g id="clust13" class="cluster"><title>cluster_endpoints</title>
<g id="a_clust13"><a xlink:href="https://godoc.org/k8s.io/api/apps/v1#Endpoints" xlink:title="Endpoints (approximate)">
<polygon fill="lightblue" stroke="lightblue" points="514,-91 514,-166 708,-166 708,-91 514,-91"/>
<text text-anchor="middle" x="611" y="-150.8" font-family="Times,serif" font-size="14.00">Endpoints (approximate)</text>
</a>
</g>
</g>
<g id="clust14" class="cluster"><title>cluster_deploymentstatus</title>
<polygon fill="lightgrey" stroke="lightgrey" points="847,-340 847,-487 1193,-487 1193,-340 847,-340"/>
<text text-anchor="middle" x="1020" y="-471.8" font-family="Times,serif" font-size="14.00">DeploymentStatus (reified)</text>
</g>
<g id="clust15" class="cluster"><title>cluster_podstatus</title>
<polygon fill="lightgrey" stroke="lightgrey" points="798,-91 798,-249 1166,-249 1166,-91 798,-91"/>
<text text-anchor="middle" x="982" y="-233.8" font-family="Times,serif" font-size="14.00">PodStatus (reified)</text>
</g>
<!-- ServiceConditionReady -->
<g id="node1" class="node"><title>ServiceConditionReady</title>
<g id="a_node1"><a xlink:href="https://godoc.org/github.com/knative/serving/pkg/apis/serving/v1alpha1#ServiceConditionReady" xlink:title="Ready">
<ellipse fill="white" stroke="white" cx="625" cy="-842" rx="39.7935" ry="18"/>
<text text-anchor="middle" x="625" y="-838.3" font-family="Times,serif" font-size="14.00">Ready</text>
</a>
</g>
</g>
<!-- ServiceConditionConfigurationsReady -->
<g id="node2" class="node"><title>ServiceConditionConfigurationsReady</title>
<g id="a_node2"><a xlink:href="https://godoc.org/github.com/knative/serving/pkg/apis/serving/v1alpha1#ServiceConditionConfigurationsReady" xlink:title="ConfigurationsReady">
<ellipse fill="white" stroke="white" cx="724" cy="-770" rx="108.581" ry="18"/>
<text text-anchor="middle" x="724" y="-766.3" font-family="Times,serif" font-size="14.00">ConfigurationsReady</text>
</a>
</g>
</g>
<!-- ServiceConditionReady&#45;&gt;ServiceConditionConfigurationsReady -->
<g id="edge1" class="edge"><title>ServiceConditionReady&#45;&gt;ServiceConditionConfigurationsReady</title>
<path fill="none" stroke="black" d="M645.513,-826.496C658.989,-816.968 676.89,-804.31 692.193,-793.49"/>
<polygon fill="black" stroke="black" points="694.239,-796.33 700.383,-787.699 690.198,-790.614 694.239,-796.33"/>
</g>
<!-- ServiceConditionRoutesReady -->
<g id="node3" class="node"><title>ServiceConditionRoutesReady</title>
<g id="a_node3"><a xlink:href="https://godoc.org/github.com/knative/serving/pkg/apis/serving/v1alpha1#ServiceConditionRoutesReady" xlink:title="RoutesReady">
<ellipse fill="white" stroke="white" cx="526" cy="-770" rx="71.4873" ry="18"/>
<text text-anchor="middle" x="526" y="-766.3" font-family="Times,serif" font-size="14.00">RoutesReady</text>
</a>
</g>
</g>
<!-- ServiceConditionReady&#45;&gt;ServiceConditionRoutesReady -->
<g id="edge2" class="edge"><title>ServiceConditionReady&#45;&gt;ServiceConditionRoutesReady</title>
<path fill="none" stroke="black" d="M604.487,-826.496C590.82,-816.832 572.601,-803.95 557.157,-793.03"/>
<polygon fill="black" stroke="black" points="559.095,-790.114 548.909,-787.198 555.053,-795.829 559.095,-790.114"/>
</g>
<!-- ConfigurationConditionReady -->
<g id="node8" class="node"><title>ConfigurationConditionReady</title>
<g id="a_node8"><a xlink:href="https://godoc.org/github.com/knative/serving/pkg/apis/serving/v1alpha1#ConfigurationConditionReady" xlink:title="Ready">
<ellipse fill="white" stroke="white" cx="743" cy="-687" rx="39.7935" ry="18"/>
<text text-anchor="middle" x="743" y="-683.3" font-family="Times,serif" font-size="14.00">Ready</text>
</a>
</g>
</g>
<!-- ServiceConditionConfigurationsReady&#45;&gt;ConfigurationConditionReady -->
<g id="edge22" class="edge"><title>ServiceConditionConfigurationsReady&#45;&gt;ConfigurationConditionReady</title>
<path fill="none" stroke="black" d="M728.029,-751.822C730.523,-741.19 733.78,-727.306 736.619,-715.204"/>
<polygon fill="black" stroke="black" points="740.1,-715.688 738.976,-705.153 733.285,-714.09 740.1,-715.688"/>
</g>
<!-- RouteConditionReady -->
<g id="node4" class="node"><title>RouteConditionReady</title>
<g id="a_node4"><a xlink:href="https://godoc.org/github.com/knative/serving/pkg/apis/serving/v1alpha1#RouteConditionReady" xlink:title="Ready">
<ellipse fill="white" stroke="white" cx="517" cy="-687" rx="39.7935" ry="18"/>
<text text-anchor="middle" x="517" y="-683.3" font-family="Times,serif" font-size="14.00">Ready</text>
</a>
</g>
</g>
<!-- ServiceConditionRoutesReady&#45;&gt;RouteConditionReady -->
<g id="edge23" class="edge"><title>ServiceConditionRoutesReady&#45;&gt;RouteConditionReady</title>
<path fill="none" stroke="black" d="M524.091,-751.822C522.91,-741.19 521.367,-727.306 520.023,-715.204"/>
<polygon fill="black" stroke="black" points="523.489,-714.706 518.906,-705.153 516.532,-715.479 523.489,-714.706"/>
</g>
<!-- RouteConditionAllTrafficAssigned -->
<g id="node5" class="node"><title>RouteConditionAllTrafficAssigned</title>
<g id="a_node5"><a xlink:href="https://godoc.org/github.com/knative/serving/pkg/apis/serving/v1alpha1#RouteConditionAllTrafficAssigned" xlink:title="AllTrafficAssigned">
<ellipse fill="white" stroke="white" cx="494" cy="-604" rx="96.6831" ry="18"/>
<text text-anchor="middle" x="494" y="-600.3" font-family="Times,serif" font-size="14.00">AllTrafficAssigned</text>
</a>
</g>
</g>
<!-- RouteConditionReady&#45;&gt;RouteConditionAllTrafficAssigned -->
<g id="edge3" class="edge"><title>RouteConditionReady&#45;&gt;RouteConditionAllTrafficAssigned</title>
<path fill="none" stroke="black" d="M512.122,-668.822C509.073,-658.083 505.081,-644.025 501.62,-631.837"/>
<polygon fill="black" stroke="black" points="504.969,-630.817 498.871,-622.153 498.235,-632.729 504.969,-630.817"/>
</g>
<!-- RouteConditionIngressReady -->
<g id="node6" class="node"><title>RouteConditionIngressReady</title>
<g id="a_node6"><a xlink:href="https://godoc.org/github.com/knative/serving/pkg/apis/serving/v1alpha1#RouteConditionIngressReady" xlink:title="IngressReady">
<ellipse fill="white" stroke="white" cx="304" cy="-604" rx="74.9875" ry="18"/>
<text text-anchor="middle" x="304" y="-600.3" font-family="Times,serif" font-size="14.00">IngressReady</text>
</a>
</g>
</g>
<!-- RouteConditionReady&#45;&gt;RouteConditionIngressReady -->
<g id="edge4" class="edge"><title>RouteConditionReady&#45;&gt;RouteConditionIngressReady</title>
<path fill="none" stroke="black" d="M494.306,-672.2C486.265,-667.92 476.98,-663.638 468,-661 433.716,-650.929 422.036,-663.88 388,-653 369.276,-647.015 350.117,-636.47 334.833,-626.786"/>
<polygon fill="black" stroke="black" points="336.601,-623.761 326.314,-621.224 332.774,-629.622 336.601,-623.761"/>
</g>
<!-- IngressConditionReady -->
<g id="node13" class="node"><title>IngressConditionReady</title>
<g id="a_node13"><a xlink:href="https://godoc.org/github.com/knative/serving/pkg/apis/networking/v1alpha1#IngressConditionReady" xlink:title="Ready">
<ellipse fill="white" stroke="white" cx="304" cy="-521" rx="39.7935" ry="18"/>
<text text-anchor="middle" x="304" y="-517.3" font-family="Times,serif" font-size="14.00">Ready</text>
</a>
</g>
</g>
<!-- RouteConditionIngressReady&#45;&gt;IngressConditionReady -->
<g id="edge25" class="edge"><title>RouteConditionIngressReady&#45;&gt;IngressConditionReady</title>
<path fill="none" stroke="black" d="M304,-585.822C304,-575.19 304,-561.306 304,-549.204"/>
<polygon fill="black" stroke="black" points="307.5,-549.153 304,-539.153 300.5,-549.153 307.5,-549.153"/>
</g>
<!-- RouteConditionCertificateProvisioned -->
<g id="node7" class="node"><title>RouteConditionCertificateProvisioned</title>
<g id="a_node7"><a xlink:href="https://godoc.org/github.com/knative/serving/pkg/apis/serving/v1alpha1#RouteConditionCertificateProvisioned" xlink:title="CertificateProvisioned">
<ellipse fill="white" stroke="black" stroke-dasharray="5,2" cx="344" cy="-687" rx="115.08" ry="18"/>
<text text-anchor="middle" x="344" y="-683.3" font-family="Times,serif" font-size="14.00">CertificateProvisioned</text>
</a>
</g>
</g>
<!-- CertificateConditionReady -->
<g id="node16" class="node"><title>CertificateConditionReady</title>
<g id="a_node16"><a xlink:href="https://godoc.org/github.com/knative/serving/pkg/apis/networking/v1alpha1#CertificateConditionReady" xlink:title="Ready">
<ellipse fill="white" stroke="white" cx="165" cy="-604" rx="39.7935" ry="18"/>
<text text-anchor="middle" x="165" y="-600.3" font-family="Times,serif" font-size="14.00">Ready</text>
</a>
</g>
</g>
<!-- RouteConditionCertificateProvisioned&#45;&gt;CertificateConditionReady -->
<g id="edge24" class="edge"><title>RouteConditionCertificateProvisioned&#45;&gt;CertificateConditionReady</title>
<path fill="none" stroke="black" d="M269.801,-673.218C251.856,-668.395 233.195,-661.844 217,-653 205.375,-646.652 194.318,-637.137 185.414,-628.249"/>
<polygon fill="black" stroke="black" points="187.922,-625.809 178.475,-621.014 182.87,-630.654 187.922,-625.809"/>
</g>
<!-- RevisionConditionReady -->
<g id="node9" class="node"><title>RevisionConditionReady</title>
<g id="a_node9"><a xlink:href="https://godoc.org/github.com/knative/serving/pkg/apis/serving/v1alpha1#RevisionConditionReady" xlink:title="Ready">
<ellipse fill="white" stroke="white" cx="753" cy="-604" rx="39.7935" ry="18"/>
<text text-anchor="middle" x="753" y="-600.3" font-family="Times,serif" font-size="14.00">Ready</text>
</a>
</g>
</g>
<!-- ConfigurationConditionReady&#45;&gt;RevisionConditionReady -->
<g id="edge26" class="edge"><title>ConfigurationConditionReady&#45;&gt;RevisionConditionReady</title>
<path fill="none" stroke="black" d="M745.121,-668.822C746.433,-658.19 748.147,-644.306 749.642,-632.204"/>
<polygon fill="black" stroke="black" points="753.131,-632.507 750.882,-622.153 746.183,-631.649 753.131,-632.507"/>
</g>
<!-- RevisionConditionDeploymentReady -->
<g id="node10" class="node"><title>RevisionConditionDeploymentReady</title>
<ellipse fill="white" stroke="white" cx="908" cy="-521" rx="95.5831" ry="18"/>
<text text-anchor="middle" x="908" y="-517.3" font-family="Times,serif" font-size="14.00">DeploymentReady</text>
</g>
<!-- RevisionConditionReady&#45;&gt;RevisionConditionDeploymentReady -->
<g id="edge5" class="edge"><title>RevisionConditionReady&#45;&gt;RevisionConditionDeploymentReady</title>
<path fill="none" stroke="black" d="M777.903,-589.986C802.305,-577.234 839.877,-557.6 868.382,-542.704"/>
<polygon fill="black" stroke="black" points="870.048,-545.782 877.29,-538.048 866.806,-539.578 870.048,-545.782"/>
</g>
<!-- RevisionConditionAutoscalerReady -->
<g id="node11" class="node"><title>RevisionConditionAutoscalerReady</title>
<ellipse fill="white" stroke="white" cx="705" cy="-521" rx="89.8845" ry="18"/>
<text text-anchor="middle" x="705" y="-517.3" font-family="Times,serif" font-size="14.00">AutoscalerReady</text>
</g>
<!-- RevisionConditionReady&#45;&gt;RevisionConditionAutoscalerReady -->
<g id="edge6" class="edge"><title>RevisionConditionReady&#45;&gt;RevisionConditionAutoscalerReady</title>
<path fill="none" stroke="black" d="M743.054,-586.217C736.47,-575.105 727.705,-560.315 720.248,-547.73"/>
<polygon fill="black" stroke="black" points="723.207,-545.859 715.098,-539.04 717.185,-549.428 723.207,-545.859"/>
</g>
<!-- DeploymentStatusReady -->
<g id="node38" class="node"><title>DeploymentStatusReady</title>
<ellipse fill="white" stroke="white" cx="922" cy="-438" rx="39.7935" ry="18"/>
<text text-anchor="middle" x="922" y="-434.3" font-family="Times,serif" font-size="14.00">Ready</text>
</g>
<!-- RevisionConditionDeploymentReady&#45;&gt;DeploymentStatusReady -->
<g id="edge27" class="edge"><title>RevisionConditionDeploymentReady&#45;&gt;DeploymentStatusReady</title>
<path fill="none" stroke="black" d="M910.969,-502.822C912.807,-492.19 915.206,-478.306 917.298,-466.204"/>
<polygon fill="black" stroke="black" points="920.781,-466.603 919.035,-456.153 913.883,-465.411 920.781,-466.603"/>
</g>
<!-- PodAutoscalerConditionReady -->
<g id="node17" class="node"><title>PodAutoscalerConditionReady</title>
<g id="a_node17"><a xlink:href="https://godoc.org/github.com/knative/serving/pkg/apis/autoscaling/v1alpha1#PodAutoscalerConditionReady" xlink:title="Ready">
<ellipse fill="white" stroke="white" cx="705" cy="-438" rx="39.7935" ry="18"/>
<text text-anchor="middle" x="705" y="-434.3" font-family="Times,serif" font-size="14.00">Ready</text>
</a>
</g>
</g>
<!-- RevisionConditionAutoscalerReady&#45;&gt;PodAutoscalerConditionReady -->
<g id="edge28" class="edge"><title>RevisionConditionAutoscalerReady&#45;&gt;PodAutoscalerConditionReady</title>
<path fill="none" stroke="black" d="M705,-502.822C705,-492.19 705,-478.306 705,-466.204"/>
<polygon fill="black" stroke="black" points="708.5,-466.153 705,-456.153 701.5,-466.153 708.5,-466.153"/>
</g>
<!-- RevisionConditionActive -->
<g id="node12" class="node"><title>RevisionConditionActive</title>
<g id="a_node12"><a xlink:href="https://godoc.org/github.com/knative/serving/pkg/apis/serving/v1alpha1#RevisionConditionActive" xlink:title="Active">
<ellipse fill="white" stroke="black" stroke-dasharray="5,2" cx="655" cy="-604" rx="40.0939" ry="18"/>
<text text-anchor="middle" x="655" y="-600.3" font-family="Times,serif" font-size="14.00">Active</text>
</a>
</g>
</g>
<!-- PodAutoscalerConditionActive -->
<g id="node20" class="node"><title>PodAutoscalerConditionActive</title>
<g id="a_node20"><a xlink:href="https://godoc.org/github.com/knative/serving/pkg/apis/autoscaling/v1alpha1#PodAutoscalerConditionActive" xlink:title="Active">
<ellipse fill="white" stroke="black" stroke-dasharray="5,2" cx="529" cy="-438" rx="40.0939" ry="18"/>
<text text-anchor="middle" x="529" y="-434.3" font-family="Times,serif" font-size="14.00">Active</text>
</a>
</g>
</g>
<!-- RevisionConditionActive&#45;&gt;PodAutoscalerConditionActive -->
<g id="edge29" class="edge"><title>RevisionConditionActive&#45;&gt;PodAutoscalerConditionActive</title>
<path fill="none" stroke="black" d="M630.417,-589.495C622.04,-584.141 613.027,-577.471 606,-570 576.252,-538.37 552.927,-493.26 540.062,-465.079"/>
<polygon fill="black" stroke="black" points="543.224,-463.575 535.955,-455.867 536.83,-466.426 543.224,-463.575"/>
</g>
<!-- IngressConditionNetworkConfigured -->
<g id="node14" class="node"><title>IngressConditionNetworkConfigured</title>
<g id="a_node14"><a xlink:href="https://godoc.org/github.com/knative/serving/pkg/apis/networking/v1alpha1#IngressConditionNetworkConfigured" xlink:title="NetworkConfigured">
<ellipse fill="white" stroke="white" cx="345" cy="-438" rx="103.182" ry="18"/>
<text text-anchor="middle" x="345" y="-434.3" font-family="Times,serif" font-size="14.00">NetworkConfigured</text>
</a>
</g>
</g>
<!-- IngressConditionReady&#45;&gt;IngressConditionNetworkConfigured -->
<g id="edge7" class="edge"><title>IngressConditionReady&#45;&gt;IngressConditionNetworkConfigured</title>
<path fill="none" stroke="black" d="M312.495,-503.217C318.065,-492.213 325.461,-477.602 331.79,-465.098"/>
<polygon fill="black" stroke="black" points="334.981,-466.543 336.375,-456.04 328.736,-463.382 334.981,-466.543"/>
</g>
<!-- IngressConditionLoadBalancerReady -->
<g id="node15" class="node"><title>IngressConditionLoadBalancerReady</title>
<g id="a_node15"><a xlink:href="https://godoc.org/github.com/knative/serving/pkg/apis/networking/v1alpha1#IngressConditionLoadBalancerReady" xlink:title="LoadBalancerReady">
<ellipse fill="white" stroke="white" cx="120" cy="-438" rx="103.982" ry="18"/>
<text text-anchor="middle" x="120" y="-434.3" font-family="Times,serif" font-size="14.00">LoadBalancerReady</text>
</a>
</g>
</g>
<!-- IngressConditionReady&#45;&gt;IngressConditionLoadBalancerReady -->
<g id="edge8" class="edge"><title>IngressConditionReady&#45;&gt;IngressConditionLoadBalancerReady</title>
<path fill="none" stroke="black" d="M276.453,-507.873C247.221,-495.005 200.541,-474.456 165.768,-459.148"/>
<polygon fill="black" stroke="black" points="166.863,-455.806 156.3,-454.98 164.042,-462.212 166.863,-455.806"/>
</g>
<!-- PodAutoscalerConditionSKSReady -->
<g id="node18" class="node"><title>PodAutoscalerConditionSKSReady</title>
<g id="a_node18"><a xlink:href="https://godoc.org/github.com/knative/serving/pkg/apis/autoscaling/v1alpha1#PodAutoscalerConditionReady" xlink:title="NetworkConfigured">
<ellipse fill="white" stroke="white" cx="582" cy="-366" rx="103.182" ry="18"/>
<text text-anchor="middle" x="582" y="-362.3" font-family="Times,serif" font-size="14.00">NetworkConfigured</text>
</a>
</g>
</g>
<!-- PodAutoscalerConditionReady&#45;&gt;PodAutoscalerConditionSKSReady -->
<g id="edge9" class="edge"><title>PodAutoscalerConditionReady&#45;&gt;PodAutoscalerConditionSKSReady</title>
<path fill="none" stroke="black" d="M681.284,-423.503C663.849,-413.581 639.8,-399.894 619.737,-388.477"/>
<polygon fill="black" stroke="black" points="621.26,-385.316 610.838,-383.412 617.798,-391.4 621.26,-385.316"/>
</g>
<!-- PodAutoscalerConditionPodsReady -->
<g id="node19" class="node"><title>PodAutoscalerConditionPodsReady</title>
<ellipse fill="white" stroke="white" cx="765" cy="-366" rx="61.99" ry="18"/>
<text text-anchor="middle" x="765" y="-362.3" font-family="Times,serif" font-size="14.00">PodsReady</text>
</g>
<!-- PodAutoscalerConditionReady&#45;&gt;PodAutoscalerConditionPodsReady -->
<g id="edge10" class="edge"><title>PodAutoscalerConditionReady&#45;&gt;PodAutoscalerConditionPodsReady</title>
<path fill="none" stroke="black" d="M718.916,-420.765C726.381,-412.056 735.731,-401.147 744.056,-391.435"/>
<polygon fill="black" stroke="black" points="746.892,-393.504 750.743,-383.633 741.577,-388.948 746.892,-393.504"/>
</g>
<!-- ServerlessServiceConditionReady -->
<g id="node25" class="node"><title>ServerlessServiceConditionReady</title>
<g id="a_node25"><a xlink:href="https://godoc.org/github.com/knative/serving/pkg/apis/networking/v1alpha1#ServerlessServiceConditionReady" xlink:title="Ready">
<ellipse fill="white" stroke="white" cx="547" cy="-283" rx="39.7935" ry="18"/>
<text text-anchor="middle" x="547" y="-279.3" font-family="Times,serif" font-size="14.00">Ready</text>
</a>
</g>
</g>
<!-- PodAutoscalerConditionSKSReady&#45;&gt;ServerlessServiceConditionReady -->
<g id="edge31" class="edge"><title>PodAutoscalerConditionSKSReady&#45;&gt;ServerlessServiceConditionReady</title>
<path fill="none" stroke="black" d="M574.577,-347.822C569.859,-336.902 563.658,-322.551 558.331,-310.224"/>
<polygon fill="black" stroke="black" points="561.471,-308.667 554.292,-300.876 555.046,-311.444 561.471,-308.667"/>
</g>
<!-- PodStatusReady -->
<g id="node41" class="node"><title>PodStatusReady</title>
<ellipse fill="white" stroke="white" cx="897" cy="-200" rx="39.7935" ry="18"/>
<text text-anchor="middle" x="897" y="-196.3" font-family="Times,serif" font-size="14.00">Ready</text>
</g>
<!-- PodAutoscalerConditionPodsReady&#45;&gt;PodStatusReady -->
<g id="edge32" class="edge"><title>PodAutoscalerConditionPodsReady&#45;&gt;PodStatusReady</title>
<path fill="none" stroke="black" d="M779.933,-348.365C784.507,-343.175 789.514,-337.395 794,-332 810.3,-312.396 852.978,-257.692 877.986,-225.511"/>
<polygon fill="black" stroke="black" points="880.866,-227.509 884.236,-217.464 875.337,-223.215 880.866,-227.509"/>
</g>
<!-- ServerlessServiceConditionEndspointsPopulated -->
<g id="node26" class="node"><title>ServerlessServiceConditionEndspointsPopulated</title>
<g id="a_node26"><a xlink:href="https://godoc.org/github.com/knative/serving/pkg/apis/networking/v1alpha1#ServerlessServiceConditionEndspointsPopulated" xlink:title="EndpointsPopulated">
<ellipse fill="white" stroke="white" cx="364" cy="-200" rx="104.782" ry="18"/>
<text text-anchor="middle" x="364" y="-196.3" font-family="Times,serif" font-size="14.00">EndpointsPopulated</text>
</a>
</g>
</g>
<!-- PodAutoscalerConditionActive&#45;&gt;ServerlessServiceConditionEndspointsPopulated -->
<g id="edge30" class="edge"><title>PodAutoscalerConditionActive&#45;&gt;ServerlessServiceConditionEndspointsPopulated</title>
<path fill="none" stroke="black" d="M509.496,-422.121C497.25,-412.174 481.63,-398.324 470,-384 428.68,-333.108 393.436,-264.189 375.891,-227.143"/>
<polygon fill="black" stroke="black" points="379.027,-225.587 371.62,-218.011 372.686,-228.552 379.027,-225.587"/>
</g>
<!-- DeciderDesiredScale -->
<g id="node21" class="node"><title>DeciderDesiredScale</title>
<g id="a_node21"><a xlink:href="https://godoc.org/github.com/knative/serving/pkg/autoscaler#DeciderStatus.DesiredScale" xlink:title="DesiredScale">
<polygon fill="white" stroke="white" points="180,-135 70,-135 70,-99 180,-99 180,-135"/>
<text text-anchor="middle" x="125" y="-113.3" font-family="Times,serif" font-size="14.00">DesiredScale</text>
</a>
</g>
</g>
<!-- MetricStableWindow -->
<g id="node23" class="node"><title>MetricStableWindow</title>
<g id="a_node23"><a xlink:href="https://godoc.org/github.com/knative/serving/pkg/apis/autoscaling/v1alpha1#MetricStableWindow" xlink:title="StableWindow">
<polygon fill="white" stroke="white" points="274.5,-52 155.5,-52 155.5,-16 274.5,-16 274.5,-52"/>
<text text-anchor="middle" x="215" y="-30.3" font-family="Times,serif" font-size="14.00">StableWindow</text>
</a>
</g>
</g>
<!-- DeciderDesiredScale&#45;&gt;MetricStableWindow -->
<g id="edge33" class="edge"><title>DeciderDesiredScale&#45;&gt;MetricStableWindow</title>
<path fill="none" stroke="black" d="M144.087,-98.822C156.974,-87.2238 174.161,-71.7547 188.388,-58.9508"/>
<polygon fill="black" stroke="black" points="190.849,-61.4445 195.941,-52.1533 186.166,-56.2414 190.849,-61.4445"/>
</g>
<!-- MetricPanicWindow -->
<g id="node24" class="node"><title>MetricPanicWindow</title>
<g id="a_node24"><a xlink:href="https://godoc.org/github.com/knative/serving/pkg/apis/autoscaling/v1alpha1#MetricPanicWindow" xlink:title="PanicWindow">
<polygon fill="white" stroke="white" points="137.5,-52 24.5,-52 24.5,-16 137.5,-16 137.5,-52"/>
<text text-anchor="middle" x="81" y="-30.3" font-family="Times,serif" font-size="14.00">PanicWindow</text>
</a>
</g>
</g>
<!-- DeciderDesiredScale&#45;&gt;MetricPanicWindow -->
<g id="edge34" class="edge"><title>DeciderDesiredScale&#45;&gt;MetricPanicWindow</title>
<path fill="none" stroke="black" d="M115.669,-98.822C109.719,-87.8682 101.893,-73.4616 95.1823,-61.1084"/>
<polygon fill="black" stroke="black" points="98.1667,-59.2698 90.3178,-52.1533 92.0156,-62.6112 98.1667,-59.2698"/>
</g>
<!-- DeciderExcessBurstCapacity -->
<g id="node22" class="node"><title>DeciderExcessBurstCapacity</title>
<g id="a_node22"><a xlink:href="https://godoc.org/github.com/knative/serving/pkg/autoscaler#DeciderStatus.ExcessBurstCapacity" xlink:title="ExcessBurstCapacity">
<polygon fill="white" stroke="white" points="368,-135 198,-135 198,-99 368,-99 368,-135"/>
<text text-anchor="middle" x="283" y="-113.3" font-family="Times,serif" font-size="14.00">ExcessBurstCapacity</text>
</a>
</g>
</g>
<!-- ServerlessServiceConditionReady&#45;&gt;ServerlessServiceConditionEndspointsPopulated -->
<g id="edge11" class="edge"><title>ServerlessServiceConditionReady&#45;&gt;ServerlessServiceConditionEndspointsPopulated</title>
<path fill="none" stroke="black" d="M519.603,-269.873C490.529,-257.005 444.103,-236.456 409.519,-221.148"/>
<polygon fill="black" stroke="black" points="410.664,-217.827 400.103,-216.98 407.831,-224.228 410.664,-217.827"/>
</g>
<!-- ServerlessServiceConditionActivatorEndspointsPopulated -->
<g id="node27" class="node"><title>ServerlessServiceConditionActivatorEndspointsPopulated</title>
<g id="a_node27"><a xlink:href="https://godoc.org/github.com/knative/serving/pkg/apis/networking/v1alpha1#ServerlessServiceConditionActivatorEndspointsPopulated" xlink:title="ActivatorEndpointsPopulated">
<ellipse fill="white" stroke="white" cx="634" cy="-200" rx="147.574" ry="18"/>
<text text-anchor="middle" x="634" y="-196.3" font-family="Times,serif" font-size="14.00">ActivatorEndpointsPopulated</text>
</a>
</g>
</g>
<!-- ServerlessServiceConditionReady&#45;&gt;ServerlessServiceConditionActivatorEndspointsPopulated -->
<g id="edge12" class="edge"><title>ServerlessServiceConditionReady&#45;&gt;ServerlessServiceConditionActivatorEndspointsPopulated</title>
<path fill="none" stroke="black" d="M563.774,-266.382C576.356,-254.668 593.809,-238.42 608.167,-225.051"/>
<polygon fill="black" stroke="black" points="610.841,-227.344 615.775,-217.968 606.071,-222.22 610.841,-227.344"/>
</g>
<!-- ServerlessServiceMode -->
<g id="node28" class="node"><title>ServerlessServiceMode</title>
<g id="a_node28"><a xlink:href="https://godoc.org/github.com/knative/serving/pkg/apis/networking/v1alpha1#ServerlessServiceSpec.Mode" xlink:title="Mode">
<polygon fill="white" stroke="white" points="241.5,-218 184.5,-218 184.5,-182 241.5,-182 241.5,-218"/>
<text text-anchor="middle" x="213" y="-196.3" font-family="Times,serif" font-size="14.00">Mode</text>
</a>
</g>
</g>
<!-- ServerlessServiceConditionReady&#45;&gt;ServerlessServiceMode -->
<g id="edge13" class="edge"><title>ServerlessServiceConditionReady&#45;&gt;ServerlessServiceMode</title>
<path fill="none" stroke="black" d="M507.357,-281.389C436.879,-279.687 293.126,-273.258 250,-249 240.743,-243.793 233.034,-235.23 227.091,-226.767"/>
<polygon fill="black" stroke="black" points="229.894,-224.654 221.547,-218.129 224.003,-228.435 229.894,-224.654"/>
</g>
<!-- EndpointsSubsets -->
<g id="node37" class="node"><title>EndpointsSubsets</title>
<g id="a_node37"><a xlink:href="https://godoc.org/k8s.io/api/apps/v1#Endpoints.Subsets" xlink:title="Subsets">
<ellipse fill="white" stroke="white" cx="611" cy="-117" rx="47.3916" ry="18"/>
<text text-anchor="middle" x="611" y="-113.3" font-family="Times,serif" font-size="14.00">Subsets</text>
</a>
</g>
</g>
<!-- ServerlessServiceConditionEndspointsPopulated&#45;&gt;EndpointsSubsets -->
<g id="edge35" class="edge"><title>ServerlessServiceConditionEndspointsPopulated&#45;&gt;EndpointsSubsets</title>
<path fill="none" stroke="black" d="M410.459,-183.765C455.281,-169.066 522.646,-146.974 566.72,-132.521"/>
<polygon fill="black" stroke="black" points="567.888,-135.821 576.3,-129.379 565.707,-129.17 567.888,-135.821"/>
</g>
<!-- ServerlessServiceConditionActivatorEndspointsPopulated&#45;&gt;EndpointsSubsets -->
<g id="edge38" class="edge"><title>ServerlessServiceConditionActivatorEndspointsPopulated&#45;&gt;EndpointsSubsets</title>
<path fill="none" stroke="black" d="M629.122,-181.822C626.073,-171.083 622.081,-157.025 618.62,-144.837"/>
<polygon fill="black" stroke="black" points="621.969,-143.817 615.871,-135.153 615.235,-145.729 621.969,-143.817"/>
</g>
<!-- ServerlessServiceMode&#45;&gt;DeciderDesiredScale -->
<g id="edge37" class="edge"><title>ServerlessServiceMode&#45;&gt;DeciderDesiredScale</title>
<path fill="none" stroke="black" d="M194.337,-181.822C181.737,-170.224 164.931,-154.755 151.021,-141.951"/>
<polygon fill="black" stroke="black" points="153.364,-139.35 143.636,-135.153 148.623,-144.501 153.364,-139.35"/>
</g>
<!-- ServerlessServiceMode&#45;&gt;DeciderExcessBurstCapacity -->
<g id="edge36" class="edge"><title>ServerlessServiceMode&#45;&gt;DeciderExcessBurstCapacity</title>
<path fill="none" stroke="black" d="M227.845,-181.822C237.59,-170.546 250.497,-155.611 261.374,-143.024"/>
<polygon fill="black" stroke="black" points="264.286,-145.008 268.176,-135.153 258.989,-140.431 264.286,-145.008"/>
</g>
<!-- PodReady -->
<g id="node29" class="node"><title>PodReady</title>
<g id="a_node29"><a xlink:href="https://godoc.org/k8s.io/api/core/v1#PodReady" xlink:title="Ready">
<ellipse fill="white" stroke="white" cx="1273" cy="-200" rx="39.7935" ry="18"/>
<text text-anchor="middle" x="1273" y="-196.3" font-family="Times,serif" font-size="14.00">Ready</text>
</a>
</g>
</g>
<!-- PodInitialized -->
<g id="node31" class="node"><title>PodInitialized</title>
<g id="a_node31"><a xlink:href="https://godoc.org/k8s.io/api/core/v1#PodInitialized" xlink:title="Initialized">
<ellipse fill="white" stroke="white" cx="1440" cy="-117" rx="57.6901" ry="18"/>
<text text-anchor="middle" x="1440" y="-113.3" font-family="Times,serif" font-size="14.00">Initialized</text>
</a>
</g>
</g>
<!-- PodReady&#45;&gt;PodInitialized -->
<g id="edge15" class="edge"><title>PodReady&#45;&gt;PodInitialized</title>
<path fill="none" stroke="black" d="M1306.89,-190.582C1326.75,-184.981 1351.98,-176.685 1373,-166 1386.86,-158.957 1401.02,-149.248 1412.73,-140.404"/>
<polygon fill="black" stroke="black" points="1415.02,-143.057 1420.79,-134.168 1410.74,-137.522 1415.02,-143.057"/>
</g>
<!-- ContainersReady -->
<g id="node32" class="node"><title>ContainersReady</title>
<g id="a_node32"><a xlink:href="https://godoc.org/k8s.io/api/core/v1#ContainersReady" xlink:title="ContainersReady">
<ellipse fill="white" stroke="white" cx="1273" cy="-117" rx="90.9839" ry="18"/>
<text text-anchor="middle" x="1273" y="-113.3" font-family="Times,serif" font-size="14.00">ContainersReady</text>
</a>
</g>
</g>
<!-- PodReady&#45;&gt;ContainersReady -->
<g id="edge14" class="edge"><title>PodReady&#45;&gt;ContainersReady</title>
<path fill="none" stroke="black" d="M1273,-181.822C1273,-171.19 1273,-157.306 1273,-145.204"/>
<polygon fill="black" stroke="black" points="1276.5,-145.153 1273,-135.153 1269.5,-145.153 1276.5,-145.153"/>
</g>
<!-- PodScheduled -->
<g id="node30" class="node"><title>PodScheduled</title>
<g id="a_node30"><a xlink:href="https://godoc.org/k8s.io/api/core/v1#PodScheduled" xlink:title="Scheduled">
<ellipse fill="white" stroke="white" cx="1437" cy="-34" rx="59.2899" ry="18"/>
<text text-anchor="middle" x="1437" y="-30.3" font-family="Times,serif" font-size="14.00">Scheduled</text>
</a>
</g>
</g>
<!-- PodInitialized&#45;&gt;PodScheduled -->
<g id="edge16" class="edge"><title>PodInitialized&#45;&gt;PodScheduled</title>
<path fill="none" stroke="black" d="M1439.36,-98.822C1438.97,-88.1903 1438.46,-74.306 1438.01,-62.2035"/>
<polygon fill="black" stroke="black" points="1441.5,-62.0168 1437.64,-52.1533 1434.51,-62.276 1441.5,-62.0168"/>
</g>
<!-- ContainerStatus -->
<g id="node33" class="node"><title>ContainerStatus</title>
<g id="a_node33"><a xlink:href="https://godoc.org/k8s.io/api/core/v1#ContainerStatus" xlink:title="ContainerStatus">
<ellipse fill="white" stroke="white" cx="1271" cy="-34" rx="87.1846" ry="18"/>
<text text-anchor="middle" x="1271" y="-30.3" font-family="Times,serif" font-size="14.00">ContainerStatus</text>
</a>
</g>
</g>
<!-- ContainersReady&#45;&gt;ContainerStatus -->
<g id="edge17" class="edge"><title>ContainersReady&#45;&gt;ContainerStatus</title>
<path fill="none" stroke="black" d="M1272.58,-98.822C1272.31,-88.1903 1271.97,-74.306 1271.67,-62.2035"/>
<polygon fill="black" stroke="black" points="1275.17,-62.0638 1271.42,-52.1533 1268.17,-62.2366 1275.17,-62.0638"/>
</g>
<!-- DeploymentAvailable -->
<g id="node34" class="node"><title>DeploymentAvailable</title>
<g id="a_node34"><a xlink:href="https://godoc.org/k8s.io/api/apps/v1#DeploymentAvailable" xlink:title="Available">
<ellipse fill="white" stroke="white" cx="1245" cy="-283" rx="53.0913" ry="18"/>
<text text-anchor="middle" x="1245" y="-279.3" font-family="Times,serif" font-size="14.00">Available</text>
</a>
</g>
</g>
<!-- DeploymentAvailable&#45;&gt;PodReady -->
<g id="edge39" class="edge"><title>DeploymentAvailable&#45;&gt;PodReady</title>
<path fill="none" stroke="black" d="M1250.94,-264.822C1254.68,-254.01 1259.58,-239.835 1263.81,-227.591"/>
<polygon fill="black" stroke="black" points="1267.21,-228.47 1267.17,-217.876 1260.59,-226.183 1267.21,-228.47"/>
</g>
<!-- DeploymentProgressing -->
<g id="node35" class="node"><title>DeploymentProgressing</title>
<g id="a_node35"><a xlink:href="https://godoc.org/k8s.io/api/apps/v1#DeploymentProgressing" xlink:title="Progressing">
<ellipse fill="white" stroke="white" cx="933" cy="-283" rx="66.8882" ry="18"/>
<text text-anchor="middle" x="933" y="-279.3" font-family="Times,serif" font-size="14.00">Progressing</text>
</a>
</g>
</g>
<!-- DeploymentReplicaFailure -->
<g id="node36" class="node"><title>DeploymentReplicaFailure</title>
<g id="a_node36"><a xlink:href="https://godoc.org/k8s.io/api/apps/v1#DeploymentReplicaFailure" xlink:title="ReplicaFailure">
<ellipse fill="white" stroke="white" cx="1096" cy="-283" rx="77.9862" ry="18"/>
<text text-anchor="middle" x="1096" y="-279.3" font-family="Times,serif" font-size="14.00">ReplicaFailure</text>
</a>
</g>
</g>
<!-- DeploymentStatusProgressing -->
<g id="node39" class="node"><title>DeploymentStatusProgressing</title>
<ellipse fill="white" stroke="white" cx="922" cy="-366" rx="66.8882" ry="18"/>
<text text-anchor="middle" x="922" y="-362.3" font-family="Times,serif" font-size="14.00">Progressing</text>
</g>
<!-- DeploymentStatusReady&#45;&gt;DeploymentStatusProgressing -->
<g id="edge18" class="edge"><title>DeploymentStatusReady&#45;&gt;DeploymentStatusProgressing</title>
<path fill="none" stroke="black" d="M922,-419.697C922,-411.983 922,-402.712 922,-394.112"/>
<polygon fill="black" stroke="black" points="925.5,-394.104 922,-384.104 918.5,-394.104 925.5,-394.104"/>
</g>
<!-- DeploymentStatusReplicaSetReady -->
<g id="node40" class="node"><title>DeploymentStatusReplicaSetReady</title>
<ellipse fill="white" stroke="white" cx="1096" cy="-366" rx="89.0842" ry="18"/>
<text text-anchor="middle" x="1096" y="-362.3" font-family="Times,serif" font-size="14.00">ReplicaSetReady</text>
</g>
<!-- DeploymentStatusReady&#45;&gt;DeploymentStatusReplicaSetReady -->
<g id="edge19" class="edge"><title>DeploymentStatusReady&#45;&gt;DeploymentStatusReplicaSetReady</title>
<path fill="none" stroke="black" d="M950.733,-425.441C977.238,-414.778 1017.1,-398.743 1048.36,-386.165"/>
<polygon fill="black" stroke="black" points="1049.79,-389.362 1057.76,-382.382 1047.18,-382.867 1049.79,-389.362"/>
</g>
<!-- DeploymentStatusProgressing&#45;&gt;DeploymentProgressing -->
<g id="edge40" class="edge"><title>DeploymentStatusProgressing&#45;&gt;DeploymentProgressing</title>
<path fill="none" stroke="black" d="M924.333,-347.822C925.777,-337.19 927.662,-323.306 929.306,-311.204"/>
<polygon fill="black" stroke="black" points="932.793,-311.533 930.671,-301.153 925.857,-310.591 932.793,-311.533"/>
</g>
<!-- DeploymentStatusReplicaSetReady&#45;&gt;DeploymentReplicaFailure -->
<g id="edge41" class="edge"><title>DeploymentStatusReplicaSetReady&#45;&gt;DeploymentReplicaFailure</title>
<path fill="none" stroke="black" d="M1096,-347.822C1096,-337.19 1096,-323.306 1096,-311.204"/>
<polygon fill="black" stroke="black" points="1099.5,-311.153 1096,-301.153 1092.5,-311.153 1099.5,-311.153"/>
</g>
<!-- PodStatusContainerReady -->
<g id="node42" class="node"><title>PodStatusContainerReady</title>
<ellipse fill="white" stroke="white" cx="897" cy="-117" rx="90.9839" ry="18"/>
<text text-anchor="middle" x="897" y="-113.3" font-family="Times,serif" font-size="14.00">ContainersReady</text>
</g>
<!-- PodStatusReady&#45;&gt;PodStatusContainerReady -->
<g id="edge21" class="edge"><title>PodStatusReady&#45;&gt;PodStatusContainerReady</title>
<path fill="none" stroke="black" d="M897,-181.822C897,-171.19 897,-157.306 897,-145.204"/>
<polygon fill="black" stroke="black" points="900.5,-145.153 897,-135.153 893.5,-145.153 900.5,-145.153"/>
</g>
<!-- PodStatusPodScheduled -->
<g id="node43" class="node"><title>PodStatusPodScheduled</title>
<ellipse fill="white" stroke="white" cx="1082" cy="-117" rx="76.0865" ry="18"/>
<text text-anchor="middle" x="1082" y="-113.3" font-family="Times,serif" font-size="14.00">PodScheduled</text>
</g>
<!-- PodStatusReady&#45;&gt;PodStatusPodScheduled -->
<g id="edge20" class="edge"><title>PodStatusReady&#45;&gt;PodStatusPodScheduled</title>
<path fill="none" stroke="black" d="M930.032,-189.873C949.817,-183.973 975.264,-175.613 997,-166 1014.2,-158.393 1032.46,-148.362 1047.63,-139.438"/>
<polygon fill="black" stroke="black" points="1049.85,-142.189 1056.64,-134.055 1046.26,-136.18 1049.85,-142.189"/>
</g>
<!-- PodStatusContainerReady&#45;&gt;ContainerStatus -->
<g id="edge43" class="edge"><title>PodStatusContainerReady&#45;&gt;ContainerStatus</title>
<path fill="none" stroke="black" d="M949.833,-102.337C965.028,-98.5311 981.643,-94.4872 997,-91 1065.42,-75.4634 1143.9,-59.6234 1199.29,-48.773"/>
<polygon fill="black" stroke="black" points="1200.21,-52.1592 1209.35,-46.8063 1198.87,-45.2891 1200.21,-52.1592"/>
</g>
<!-- PodStatusPodScheduled&#45;&gt;PodScheduled -->
<g id="edge42" class="edge"><title>PodStatusPodScheduled&#45;&gt;PodScheduled</title>
<path fill="none" stroke="black" d="M1124.07,-101.865C1138.47,-97.6134 1154.79,-93.4345 1170,-91 1213.26,-84.0762 1325.42,-96.8169 1367,-83 1383.02,-77.6764 1398.72,-67.5048 1411.18,-57.8904"/>
<polygon fill="black" stroke="black" points="1413.66,-60.3882 1419.25,-51.3897 1409.27,-54.9365 1413.66,-60.3882"/>
</g>
</g>
</svg>
