<?xml version="1.0" encoding="UTF-8" standalone="no"?>
<!DOCTYPE svg PUBLIC "-//W3C//DTD SVG 1.1//EN"
 "http://www.w3.org/Graphics/SVG/1.1/DTD/svg11.dtd">
<!-- Generated by graphviz version 2.38.0 (20140413.2041)
 -->
<!-- Title: ReconciliationGraph Pages: 1 -->
<svg width="896pt" height="1166pt"
 viewBox="0.00 0.00 896.14 1165.88" xmlns="http://www.w3.org/2000/svg" xmlns:xlink="http://www.w3.org/1999/xlink">
<g id="graph0" class="graph" transform="scale(1 1) rotate(0) translate(4 1161.88)">
<title>ReconciliationGraph</title>
<polygon fill="white" stroke="none" points="-4,4 -4,-1161.88 892.137,-1161.88 892.137,4 -4,4"/>
<!-- Service -->
<g id="node1" class="node"><title>Service</title>
<ellipse fill="none" stroke="black" cx="634.544" cy="-1139.88" rx="45.4919" ry="18"/>
<text text-anchor="middle" x="634.544" y="-1136.18" font-family="Times,serif" font-size="14.00">Service</text>
</g>
<!-- Configuration -->
<g id="node2" class="node"><title>Configuration</title>
<ellipse fill="none" stroke="black" cx="568.544" cy="-1067.88" rx="74.9875" ry="18"/>
<text text-anchor="middle" x="568.544" y="-1064.18" font-family="Times,serif" font-size="14.00">Configuration</text>
</g>
<!-- Service&#45;&gt;Configuration -->
<g id="edge1" class="edge"><title>Service&#45;&gt;Configuration</title>
<path fill="none" stroke="black" d="M619.236,-1122.65C610.943,-1113.85 600.533,-1102.81 591.308,-1093.03"/>
<polygon fill="black" stroke="black" points="593.633,-1090.39 584.227,-1085.52 588.54,-1095.19 593.633,-1090.39"/>
</g>
<!-- Route -->
<g id="node3" class="node"><title>Route</title>
<ellipse fill="none" stroke="black" cx="700.544" cy="-1067.88" rx="38.1938" ry="18"/>
<text text-anchor="middle" x="700.544" y="-1064.18" font-family="Times,serif" font-size="14.00">Route</text>
</g>
<!-- Service&#45;&gt;Route -->
<g id="edge2" class="edge"><title>Service&#45;&gt;Route</title>
<path fill="none" stroke="black" d="M649.851,-1122.65C658.469,-1113.51 669.373,-1101.94 678.858,-1091.88"/>
<polygon fill="black" stroke="black" points="681.46,-1094.23 685.773,-1084.55 676.367,-1089.42 681.46,-1094.23"/>
</g>
<!-- Revision -->
<g id="node4" class="node"><title>Revision</title>
<ellipse fill="none" stroke="black" cx="269.544" cy="-686.887" rx="50.0912" ry="18"/>
<text text-anchor="middle" x="269.544" y="-683.187" font-family="Times,serif" font-size="14.00">Revision</text>
</g>
<!-- Configuration&#45;&gt;Revision -->
<g id="edge20" class="edge"><title>Configuration&#45;&gt;Revision</title>
<path fill="none" stroke="black" d="M568.149,-1049.84C567.566,-1023.18 566.544,-970.003 566.544,-924.884 566.544,-924.884 566.544,-924.884 566.544,-850.884 566.544,-742.821 413.57,-705.913 327.195,-693.687"/>
<polygon fill="black" stroke="black" points="327.64,-690.215 317.262,-692.348 326.705,-697.153 327.64,-690.215"/>
</g>
<!-- ClusterIngress -->
<g id="node12" class="node"><title>ClusterIngress</title>
<ellipse fill="none" stroke="black" cx="807.544" cy="-779.884" rx="80.6858" ry="18"/>
<text text-anchor="middle" x="807.544" y="-776.184" font-family="Times,serif" font-size="14.00">ClusterIngress</text>
</g>
<!-- Route&#45;&gt;ClusterIngress -->
<g id="edge13" class="edge"><title>Route&#45;&gt;ClusterIngress</title>
<path fill="none" stroke="black" d="M726.708,-1054.54C742.958,-1045.52 762.9,-1031.76 774.544,-1013.88 816.347,-949.706 814.621,-854.572 810.702,-808.237"/>
<polygon fill="black" stroke="black" points="814.167,-807.701 809.739,-798.076 807.198,-808.362 814.167,-807.701"/>
</g>
<!-- PlaceholderService -->
<g id="node13" class="node"><title>PlaceholderService</title>
<ellipse fill="none" stroke="blue" cx="764.544" cy="-521.89" rx="100.983" ry="18"/>
<text text-anchor="middle" x="764.544" y="-518.19" font-family="Times,serif" font-size="14.00">PlaceholderService</text>
</g>
<!-- Route&#45;&gt;PlaceholderService -->
<g id="edge14" class="edge"><title>Route&#45;&gt;PlaceholderService</title>
<path fill="none" stroke="black" d="M678.252,-1053.1C664.515,-1043.59 647.493,-1029.82 636.544,-1013.88 612.901,-979.482 606.544,-966.626 606.544,-924.884 606.544,-924.884 606.544,-924.884 606.544,-685.887 606.544,-665.443 654.423,-590.423 669.544,-575.89 683.331,-562.64 701.073,-551.58 717.484,-543.051"/>
<polygon fill="black" stroke="black" points="719.054,-546.179 726.431,-538.575 715.922,-539.919 719.054,-546.179"/>
</g>
<!-- Certificate -->
<g id="node14" class="node"><title>Certificate</title>
<ellipse fill="none" stroke="black" cx="705.544" cy="-995.884" rx="60.3893" ry="18"/>
<text text-anchor="middle" x="705.544" y="-992.184" font-family="Times,serif" font-size="14.00">Certificate</text>
</g>
<!-- Route&#45;&gt;Certificate -->
<g id="edge15" class="edge"><title>Route&#45;&gt;Certificate</title>
<path fill="none" stroke="black" d="M701.78,-1049.58C702.331,-1041.87 702.993,-1032.6 703.607,-1024"/>
<polygon fill="black" stroke="black" points="707.101,-1024.21 704.322,-1013.99 700.118,-1023.71 707.101,-1024.21"/>
</g>
<!-- Deployment -->
<g id="node5" class="node"><title>Deployment</title>
<ellipse fill="none" stroke="blue" cx="463.544" cy="-377.89" rx="66.8882" ry="18"/>
<text text-anchor="middle" x="463.544" y="-374.19" font-family="Times,serif" font-size="14.00">Deployment</text>
</g>
<!-- Revision&#45;&gt;Deployment -->
<g id="edge3" class="edge"><title>Revision&#45;&gt;Deployment</title>
<path fill="none" stroke="black" d="M255.776,-669.278C221.177,-625.456 137.512,-505.064 197.544,-431.89 221.349,-402.874 318.649,-389.444 388.683,-383.44"/>
<polygon fill="black" stroke="black" points="389.127,-386.915 398.807,-382.607 388.553,-379.939 389.127,-386.915"/>
</g>
<!-- KPA -->
<g id="node6" class="node"><title>KPA</title>
<ellipse fill="none" stroke="black" cx="370.544" cy="-593.89" rx="29.795" ry="18"/>
<text text-anchor="middle" x="370.544" y="-590.19" font-family="Times,serif" font-size="14.00">KPA</text>
</g>
<!-- Revision&#45;&gt;KPA -->
<g id="edge4" class="edge"><title>Revision&#45;&gt;KPA</title>
<path fill="none" stroke="black" d="M287.601,-669.619C304.133,-654.723 328.711,-632.58 346.823,-616.262"/>
<polygon fill="black" stroke="black" points="349.551,-618.515 354.638,-609.221 344.865,-613.315 349.551,-618.515"/>
</g>
<!-- ImageCache -->
<g id="node7" class="node"><title>ImageCache</title>
<ellipse fill="none" stroke="black" cx="69.5438" cy="-593.89" rx="69.5877" ry="18"/>
<text text-anchor="middle" x="69.5438" y="-590.19" font-family="Times,serif" font-size="14.00">ImageCache</text>
</g>
<!-- Revision&#45;&gt;ImageCache -->
<g id="edge5" class="edge"><title>Revision&#45;&gt;ImageCache</title>
<path fill="none" stroke="black" d="M239.602,-672.264C205.647,-656.815 150.036,-631.513 111.704,-614.073"/>
<polygon fill="black" stroke="black" points="112.906,-610.774 102.355,-609.819 110.007,-617.146 112.906,-610.774"/>
</g>
<!-- ReplicaSet -->
<g id="node21" class="node"><title>ReplicaSet</title>
<ellipse fill="none" stroke="blue" cx="463.544" cy="-269.945" rx="60.3893" ry="18"/>
<text text-anchor="middle" x="463.544" y="-266.245" font-family="Times,serif" font-size="14.00">ReplicaSet</text>
</g>
<!-- Deployment&#45;&gt;ReplicaSet -->
<g id="edge24" class="edge"><title>Deployment&#45;&gt;ReplicaSet</title>
<path fill="none" stroke="black" d="M463.544,-359.868C463.544,-343.286 463.544,-317.804 463.544,-298.362"/>
<polygon fill="black" stroke="black" points="467.044,-298.277 463.544,-288.277 460.044,-298.277 467.044,-298.277"/>
</g>
<!-- KPA&#45;&gt;Deployment -->
<g id="edge8" class="edge"><title>KPA&#45;&gt;Deployment</title>
<path fill="none" stroke="black" stroke-dasharray="5,2" d="M388.442,-578.942C399.807,-569.171 413.946,-555.168 422.544,-539.89 446.692,-496.982 456.866,-439.711 460.965,-406.31"/>
<polygon fill="black" stroke="black" points="464.49,-406.283 462.133,-395.953 457.534,-405.498 464.49,-406.283"/>
</g>
<!-- SKS -->
<g id="node8" class="node"><title>SKS</title>
<ellipse fill="none" stroke="black" cx="585.544" cy="-521.89" rx="29.4969" ry="18"/>
<text text-anchor="middle" x="585.544" y="-518.19" font-family="Times,serif" font-size="14.00">SKS</text>
</g>
<!-- KPA&#45;&gt;SKS -->
<g id="edge6" class="edge"><title>KPA&#45;&gt;SKS</title>
<path fill="none" stroke="black" d="M396.478,-584.447C435.023,-571.897 507.507,-548.298 550.664,-534.247"/>
<polygon fill="black" stroke="black" points="551.76,-537.571 560.185,-531.147 549.593,-530.915 551.76,-537.571"/>
</g>
<!-- MetricsService -->
<g id="node9" class="node"><title>MetricsService</title>
<ellipse fill="none" stroke="blue" cx="315.544" cy="-521.89" rx="81.7856" ry="18"/>
<text text-anchor="middle" x="315.544" y="-518.19" font-family="Times,serif" font-size="14.00">MetricsService</text>
</g>
<!-- KPA&#45;&gt;MetricsService -->
<g id="edge7" class="edge"><title>KPA&#45;&gt;MetricsService</title>
<path fill="none" stroke="black" d="M358.338,-577.355C351.514,-568.67 342.847,-557.64 335.101,-547.781"/>
<polygon fill="black" stroke="black" points="337.801,-545.553 328.871,-539.852 332.297,-549.878 337.801,-545.553"/>
</g>
<!-- Metric -->
<g id="node10" class="node"><title>Metric</title>
<ellipse fill="none" stroke="black" cx="248.544" cy="-449.89" rx="42.4939" ry="18"/>
<text text-anchor="middle" x="248.544" y="-446.19" font-family="Times,serif" font-size="14.00">Metric</text>
</g>
<!-- KPA&#45;&gt;Metric -->
<g id="edge9" class="edge"><title>KPA&#45;&gt;Metric</title>
<path fill="none" stroke="black" d="M340.787,-591.647C306.276,-588.419 250.776,-577.32 224.544,-539.89 211.283,-520.97 220.613,-495.083 231.271,-476.106"/>
<polygon fill="black" stroke="black" points="234.35,-477.776 236.516,-467.405 228.355,-474.162 234.35,-477.776"/>
</g>
<!-- Decider -->
<g id="node11" class="node"><title>Decider</title>
<ellipse fill="none" stroke="black" cx="377.544" cy="-449.89" rx="47.3916" ry="18"/>
<text text-anchor="middle" x="377.544" y="-446.19" font-family="Times,serif" font-size="14.00">Decider</text>
</g>
<!-- KPA&#45;&gt;Decider -->
<g id="edge10" class="edge"><title>KPA&#45;&gt;Decider</title>
<path fill="none" stroke="black" d="M384.663,-577.51C392.792,-567.577 402.228,-553.925 406.544,-539.89 411.247,-524.597 410.507,-519.392 406.544,-503.89 404.101,-494.338 399.543,-484.655 394.751,-476.225"/>
<polygon fill="black" stroke="black" points="397.723,-474.376 389.549,-467.635 391.735,-478.002 397.723,-474.376"/>
</g>
<!-- PublicService -->
<g id="node18" class="node"><title>PublicService</title>
<ellipse fill="none" stroke="blue" cx="780.544" cy="-449.89" rx="74.9875" ry="18"/>
<text text-anchor="middle" x="780.544" y="-446.19" font-family="Times,serif" font-size="14.00">PublicService</text>
</g>
<!-- SKS&#45;&gt;PublicService -->
<g id="edge21" class="edge"><title>SKS&#45;&gt;PublicService</title>
<path fill="none" stroke="black" d="M610.241,-512.025C640.473,-501.172 692.404,-482.53 730.992,-468.678"/>
<polygon fill="black" stroke="black" points="732.265,-471.94 740.494,-465.267 729.9,-465.352 732.265,-471.94"/>
</g>
<!-- PublicEndpoints -->
<g id="node19" class="node"><title>PublicEndpoints</title>
<ellipse fill="none" stroke="blue" cx="677.544" cy="-377.89" rx="87.1846" ry="18"/>
<text text-anchor="middle" x="677.544" y="-374.19" font-family="Times,serif" font-size="14.00">PublicEndpoints</text>
</g>
<!-- SKS&#45;&gt;PublicEndpoints -->
<g id="edge22" class="edge"><title>SKS&#45;&gt;PublicEndpoints</title>
<path fill="none" stroke="black" d="M608.176,-510.19C624.688,-501.203 646.249,-486.797 658.544,-467.89 670.496,-449.51 675.073,-424.906 676.759,-406.226"/>
<polygon fill="black" stroke="black" points="680.268,-406.217 677.451,-396.004 673.284,-405.744 680.268,-406.217"/>
</g>
<!-- PrivateService -->
<g id="node20" class="node"><title>PrivateService</title>
<ellipse fill="none" stroke="blue" cx="570.544" cy="-449.89" rx="79.0865" ry="18"/>
<text text-anchor="middle" x="570.544" y="-446.19" font-family="Times,serif" font-size="14.00">PrivateService</text>
</g>
<!-- SKS&#45;&gt;PrivateService -->
<g id="edge23" class="edge"><title>SKS&#45;&gt;PrivateService</title>
<path fill="none" stroke="black" d="M581.913,-503.945C580.243,-496.151 578.22,-486.712 576.346,-477.969"/>
<polygon fill="black" stroke="black" points="579.763,-477.21 574.246,-468.166 572.919,-478.677 579.763,-477.21"/>
</g>
<!-- MetricsService&#45;&gt;Metric -->
<g id="edge12" class="edge"><title>MetricsService&#45;&gt;Metric</title>
<path fill="none" stroke="black" stroke-dasharray="5,2" d="M299.325,-503.945C290.768,-495.006 280.141,-483.902 270.822,-474.167"/>
<polygon fill="black" stroke="black" points="273.138,-471.524 263.695,-466.72 268.081,-476.364 273.138,-471.524"/>
</g>
<!-- MetricsService&#45;&gt;Decider -->
<g id="edge11" class="edge"><title>MetricsService&#45;&gt;Decider</title>
<path fill="none" stroke="black" stroke-dasharray="5,2" d="M330.552,-503.945C338.28,-495.221 347.833,-484.435 356.304,-474.871"/>
<polygon fill="black" stroke="black" points="359.09,-477.004 363.1,-467.197 353.85,-472.363 359.09,-477.004"/>
</g>
<!-- VirtualService -->
<g id="node17" class="node"><title>VirtualService</title>
<ellipse fill="none" stroke="green" cx="807.544" cy="-686.887" rx="77.1866" ry="18"/>
<text text-anchor="middle" x="807.544" y="-683.187" font-family="Times,serif" font-size="14.00">VirtualService</text>
</g>
<!-- ClusterIngress&#45;&gt;VirtualService -->
<g id="edge19" class="edge"><title>ClusterIngress&#45;&gt;VirtualService</title>
<path fill="none" stroke="black" d="M807.544,-761.768C807.544,-748.677 807.544,-730.366 807.544,-715.249"/>
<polygon fill="black" stroke="black" points="811.044,-714.926 807.544,-704.926 804.044,-714.926 811.044,-714.926"/>
</g>
<!-- PlaceholderService&#45;&gt;PublicService -->
<g id="edge32" class="edge"><title>PlaceholderService&#45;&gt;PublicService</title>
<path fill="none" stroke="black" stroke-dasharray="1,5" d="M768.499,-503.587C770.262,-495.873 772.381,-486.603 774.347,-478.003"/>
<polygon fill="black" stroke="black" points="777.818,-478.523 776.634,-467.995 770.994,-476.963 777.818,-478.523"/>
</g>
<!-- CertManager -->
<g id="node15" class="node"><title>CertManager</title>
<ellipse fill="none" stroke="orange" cx="707.544" cy="-923.884" rx="73.387" ry="18"/>
<text text-anchor="middle" x="707.544" y="-920.184" font-family="Times,serif" font-size="14.00">CertManager</text>
</g>
<!-- Certificate&#45;&gt;CertManager -->
<g id="edge16" class="edge"><title>Certificate&#45;&gt;CertManager</title>
<path fill="none" stroke="black" d="M706.038,-977.58C706.259,-969.866 706.523,-960.596 706.769,-951.996"/>
<polygon fill="black" stroke="black" points="710.268,-952.084 707.055,-941.988 703.271,-951.884 710.268,-952.084"/>
</g>
<!-- Secret -->
<g id="node16" class="node"><title>Secret</title>
<ellipse fill="none" stroke="blue" cx="723.544" cy="-851.884" rx="40.8928" ry="18"/>
<text text-anchor="middle" x="723.544" y="-848.184" font-family="Times,serif" font-size="14.00">Secret</text>
</g>
<!-- CertManager&#45;&gt;Secret -->
<g id="edge17" class="edge"><title>CertManager&#45;&gt;Secret</title>
<path fill="none" stroke="black" d="M711.499,-905.58C713.262,-897.866 715.381,-888.596 717.347,-879.996"/>
<polygon fill="black" stroke="black" points="720.818,-880.516 719.634,-869.988 713.994,-878.957 720.818,-880.516"/>
</g>
<!-- Secret&#45;&gt;ClusterIngress -->
<g id="edge18" class="edge"><title>Secret&#45;&gt;ClusterIngress</title>
<path fill="none" stroke="black" stroke-dasharray="5,2" d="M741.771,-835.695C752.853,-826.459 767.229,-814.479 779.713,-804.075"/>
<polygon fill="black" stroke="black" points="782.149,-806.602 787.59,-797.511 777.668,-801.224 782.149,-806.602"/>
</g>
<!-- IngressGateway -->
<g id="node25" class="node"><title>IngressGateway</title>
<ellipse fill="none" stroke="green" cx="764.544" cy="-593.89" rx="86.3847" ry="18"/>
<text text-anchor="middle" x="764.544" y="-590.19" font-family="Times,serif" font-size="14.00">IngressGateway</text>
</g>
<!-- VirtualService&#45;&gt;IngressGateway -->
<g id="edge28" class="edge"><title>VirtualService&#45;&gt;IngressGateway</title>
<path fill="none" stroke="black" stroke-dasharray="5,2" d="M799.456,-668.771C793.15,-655.426 784.28,-636.656 777.059,-621.375"/>
<polygon fill="black" stroke="black" points="780.033,-619.475 772.596,-611.929 773.704,-622.466 780.033,-619.475"/>
</g>
<!-- PublicService&#45;&gt;PublicEndpoints -->
<g id="edge33" class="edge"><title>PublicService&#45;&gt;PublicEndpoints</title>
<path fill="none" stroke="black" stroke-dasharray="1,5" d="M756.655,-432.655C742.844,-423.269 725.272,-411.327 710.199,-401.083"/>
<polygon fill="black" stroke="black" points="711.898,-398.006 701.66,-395.28 707.964,-403.796 711.898,-398.006"/>
</g>
<!-- Pod -->
<g id="node22" class="node"><title>Pod</title>
<ellipse fill="none" stroke="blue" cx="595.544" cy="-162" rx="27.8951" ry="18"/>
<text text-anchor="middle" x="595.544" y="-158.3" font-family="Times,serif" font-size="14.00">Pod</text>
</g>
<!-- PublicEndpoints&#45;&gt;Pod -->
<g id="edge34" class="edge"><title>PublicEndpoints&#45;&gt;Pod</title>
<path fill="none" stroke="black" stroke-dasharray="1,5" d="M679.463,-359.702C682.087,-328.88 683.905,-263.039 658.544,-216 650.718,-201.485 637.15,-189.288 624.605,-180.268"/>
<polygon fill="black" stroke="black" points="626.406,-177.261 616.166,-174.541 622.476,-183.053 626.406,-177.261"/>
</g>
<!-- Activator -->
<g id="node27" class="node"><title>Activator</title>
<ellipse fill="none" stroke="black" cx="595.544" cy="-269.945" rx="53.8905" ry="53.8905"/>
<text text-anchor="middle" x="595.544" y="-266.245" font-family="Times,serif" font-size="14.00">Activator</text>
</g>
<!-- PublicEndpoints&#45;&gt;Activator -->
<g id="edge35" class="edge"><title>PublicEndpoints&#45;&gt;Activator</title>
<path fill="none" stroke="black" stroke-dasharray="1,5" d="M664.369,-359.868C656.195,-349.307 645.226,-335.135 634.451,-321.213"/>
<polygon fill="black" stroke="black" points="637.04,-318.84 628.151,-313.074 631.504,-323.125 637.04,-318.84"/>
</g>
<!-- PrivateService&#45;&gt;Deployment -->
<g id="edge39" class="edge"><title>PrivateService&#45;&gt;Deployment</title>
<path fill="none" stroke="black" stroke-dasharray="1,5" d="M545.727,-432.655C531.038,-423.045 512.252,-410.756 496.351,-400.353"/>
<polygon fill="black" stroke="black" points="498.142,-397.342 487.857,-394.796 494.309,-403.2 498.142,-397.342"/>
</g>
<!-- PrivateService&#45;&gt;PublicEndpoints -->
<g id="edge29" class="edge"><title>PrivateService&#45;&gt;PublicEndpoints</title>
<path fill="none" stroke="black" stroke-dasharray="5,2" d="M595.361,-432.655C609.842,-423.182 628.303,-411.104 644.059,-400.797"/>
<polygon fill="black" stroke="black" points="646.039,-403.684 652.491,-395.28 642.206,-397.826 646.039,-403.684"/>
</g>
<!-- ReplicaSet&#45;&gt;Pod -->
<g id="edge25" class="edge"><title>ReplicaSet&#45;&gt;Pod</title>
<path fill="none" stroke="black" d="M483.592,-252.854C506.919,-234.132 545.45,-203.206 570.666,-182.967"/>
<polygon fill="black" stroke="black" points="573.059,-185.535 578.667,-176.546 568.677,-180.076 573.059,-185.535"/>
</g>
<!-- UserContainer -->
<g id="node23" class="node"><title>UserContainer</title>
<ellipse fill="none" stroke="blue" cx="547.544" cy="-18" rx="79.0865" ry="18"/>
<text text-anchor="middle" x="547.544" y="-14.3" font-family="Times,serif" font-size="14.00">UserContainer</text>
</g>
<!-- Pod&#45;&gt;UserContainer -->
<g id="edge26" class="edge"><title>Pod&#45;&gt;UserContainer</title>
<path fill="none" stroke="black" d="M571.961,-152.012C553.709,-143.652 529.72,-129.26 518.544,-108 507.887,-87.7268 517.753,-62.8008 528.776,-44.4897"/>
<polygon fill="black" stroke="black" points="531.72,-46.383 534.195,-36.0813 525.836,-42.5909 531.72,-46.383"/>
</g>
<!-- QueueProxy -->
<g id="node24" class="node"><title>QueueProxy</title>
<ellipse fill="none" stroke="blue" cx="595.544" cy="-90" rx="67.6881" ry="18"/>
<text text-anchor="middle" x="595.544" y="-86.3" font-family="Times,serif" font-size="14.00">QueueProxy</text>
</g>
<!-- Pod&#45;&gt;QueueProxy -->
<g id="edge27" class="edge"><title>Pod&#45;&gt;QueueProxy</title>
<path fill="none" stroke="black" d="M589.666,-144.055C588.848,-136.346 588.605,-127.027 588.939,-118.364"/>
<polygon fill="black" stroke="black" points="592.438,-118.491 589.631,-108.275 585.455,-118.012 592.438,-118.491"/>
</g>
<!-- Pod&#45;&gt;QueueProxy -->
<g id="edge37" class="edge"><title>Pod&#45;&gt;QueueProxy</title>
<path fill="none" stroke="black" stroke-dasharray="1,5" d="M601.422,-144.055C602.24,-136.346 602.482,-127.027 602.149,-118.364"/>
<polygon fill="black" stroke="black" points="605.633,-118.012 601.457,-108.275 598.65,-118.491 605.633,-118.012"/>
</g>
<!-- QueueProxy&#45;&gt;UserContainer -->
<g id="edge38" class="edge"><title>QueueProxy&#45;&gt;UserContainer</title>
<path fill="none" stroke="black" stroke-dasharray="1,5" d="M583.924,-72.055C578.289,-63.8373 571.401,-53.7911 565.139,-44.6599"/>
<polygon fill="black" stroke="black" points="567.932,-42.5432 559.39,-36.2753 562.159,-46.502 567.932,-42.5432"/>
</g>
<!-- IngressGateway&#45;&gt;PlaceholderService -->
<g id="edge31" class="edge"><title>IngressGateway&#45;&gt;PlaceholderService</title>
<path fill="none" stroke="black" stroke-dasharray="1,5" d="M764.544,-575.587C764.544,-567.873 764.544,-558.603 764.544,-550.003"/>
<polygon fill="black" stroke="black" points="768.044,-549.995 764.544,-539.995 761.044,-549.995 768.044,-549.995"/>
</g>
<!-- Client -->
<g id="node26" class="node"><title>Client</title>
<ellipse fill="none" stroke="black" cx="673.544" cy="-686.887" rx="38.9931" ry="38.9931"/>
<text text-anchor="middle" x="673.544" y="-683.187" font-family="Times,serif" font-size="14.00">Client</text>
</g>
<!-- Client&#45;&gt;IngressGateway -->
<g id="edge30" class="edge"><title>Client&#45;&gt;IngressGateway</title>
<path fill="none" stroke="black" stroke-dasharray="1,5" d="M700.847,-658.585C713.506,-645.926 728.416,-631.017 740.627,-618.807"/>
<polygon fill="black" stroke="black" points="743.24,-621.143 747.836,-611.597 738.29,-616.193 743.24,-621.143"/>
</g>
<!-- Activator&#45;&gt;Pod -->
<g id="edge36" class="edge"><title>Activator&#45;&gt;Pod</title>
<path fill="none" stroke="black" stroke-dasharray="1,5" d="M595.544,-215.973C595.544,-207.01 595.544,-198.048 595.544,-190.112"/>
<polygon fill="black" stroke="black" points="599.044,-190.022 595.544,-180.022 592.044,-190.022 599.044,-190.022"/>
</g>
</g>
</svg>
