<?xml version="1.0" encoding="UTF-8" standalone="no"?>
<!DOCTYPE svg PUBLIC "-//W3C//DTD SVG 1.1//EN"
 "http://www.w3.org/Graphics/SVG/1.1/DTD/svg11.dtd">
<!-- Generated by graphviz version 2.38.0 (20140413.2041)
 -->
<!-- Title: ReconciliationGraph Pages: 1 -->
<svg width="857pt" height="836pt"
 viewBox="0.00 0.00 856.77 836.00" xmlns="http://www.w3.org/2000/svg" xmlns:xlink="http://www.w3.org/1999/xlink">
<g id="graph0" class="graph" transform="scale(1 1) rotate(0) translate(4 832)">
<title>ReconciliationGraph</title>
<polygon fill="white" stroke="none" points="-4,4 -4,-832 852.77,-832 852.77,4 -4,4"/>
<!-- KSVC -->
<g id="node1" class="node"><title>KSVC</title>
<ellipse fill="none" stroke="black" cx="338.774" cy="-810" rx="37.8943" ry="18"/>
<text text-anchor="middle" x="338.774" y="-806.3" font-family="Times,serif" font-size="14.00">KSVC</text>
</g>
<!-- Configuration -->
<g id="node2" class="node"><title>Configuration</title>
<ellipse fill="none" stroke="black" cx="264.774" cy="-738" rx="74.9875" ry="18"/>
<text text-anchor="middle" x="264.774" y="-734.3" font-family="Times,serif" font-size="14.00">Configuration</text>
</g>
<!-- KSVC&#45;&gt;Configuration -->
<g id="edge1" class="edge"><title>KSVC&#45;&gt;Configuration</title>
<path fill="none" stroke="black" d="M322.351,-793.465C312.825,-784.454 300.632,-772.92 289.921,-762.788"/>
<polygon fill="black" stroke="black" points="292.113,-760.043 282.443,-755.714 287.302,-765.129 292.113,-760.043"/>
</g>
<!-- Route -->
<g id="node3" class="node"><title>Route</title>
<ellipse fill="none" stroke="black" cx="412.774" cy="-738" rx="38.1938" ry="18"/>
<text text-anchor="middle" x="412.774" y="-734.3" font-family="Times,serif" font-size="14.00">Route</text>
</g>
<!-- KSVC&#45;&gt;Route -->
<g id="edge2" class="edge"><title>KSVC&#45;&gt;Route</title>
<path fill="none" stroke="black" d="M355.197,-793.465C365.161,-784.04 378.043,-771.853 389.096,-761.398"/>
<polygon fill="black" stroke="black" points="391.537,-763.907 396.397,-754.492 386.727,-758.821 391.537,-763.907"/>
</g>
<!-- Revision -->
<g id="node4" class="node"><title>Revision</title>
<ellipse fill="none" stroke="black" cx="212.774" cy="-594" rx="50.0912" ry="18"/>
<text text-anchor="middle" x="212.774" y="-590.3" font-family="Times,serif" font-size="14.00">Revision</text>
</g>
<!-- Configuration&#45;&gt;Revision -->
<g id="edge16" class="edge"><title>Configuration&#45;&gt;Revision</title>
<path fill="none" stroke="black" d="M258.501,-719.871C249.561,-695.457 233.071,-650.426 222.528,-621.635"/>
<polygon fill="black" stroke="black" points="225.794,-620.376 219.068,-612.189 219.221,-622.783 225.794,-620.376"/>
</g>
<!-- ClusterIngress -->
<g id="node10" class="node"><title>ClusterIngress</title>
<ellipse fill="none" stroke="black" cx="615.774" cy="-666" rx="80.6858" ry="18"/>
<text text-anchor="middle" x="615.774" y="-662.3" font-family="Times,serif" font-size="14.00">ClusterIngress</text>
</g>
<!-- Route&#45;&gt;ClusterIngress -->
<g id="edge9" class="edge"><title>Route&#45;&gt;ClusterIngress</title>
<path fill="none" stroke="black" d="M442.727,-726.671C474.652,-715.663 525.791,-698.028 564.214,-684.779"/>
<polygon fill="black" stroke="black" points="565.376,-688.081 573.689,-681.512 563.094,-681.463 565.376,-688.081"/>
</g>
<!-- PlaceholderService -->
<g id="node11" class="node"><title>PlaceholderService</title>
<ellipse fill="none" stroke="blue" cx="525.774" cy="-450" rx="100.983" ry="18"/>
<text text-anchor="middle" x="525.774" y="-446.3" font-family="Times,serif" font-size="14.00">PlaceholderService</text>
</g>
<!-- Route&#45;&gt;PlaceholderService -->
<g id="edge10" class="edge"><title>Route&#45;&gt;PlaceholderService</title>
<path fill="none" stroke="black" d="M402.668,-720.5C397.067,-710.372 390.665,-696.906 387.774,-684 377.281,-637.161 370.891,-620.933 387.774,-576 405.308,-529.333 451.798,-493.529 485.993,-472.435"/>
<polygon fill="black" stroke="black" points="488.058,-475.278 494.836,-467.135 484.459,-469.274 488.058,-475.278"/>
</g>
<!-- Certificate -->
<g id="node12" class="node"><title>Certificate</title>
<ellipse fill="none" stroke="black" cx="456.774" cy="-666" rx="60.3893" ry="18"/>
<text text-anchor="middle" x="456.774" y="-662.3" font-family="Times,serif" font-size="14.00">Certificate</text>
</g>
<!-- Route&#45;&gt;Certificate -->
<g id="edge11" class="edge"><title>Route&#45;&gt;Certificate</title>
<path fill="none" stroke="black" d="M423.201,-720.411C428.439,-712.077 434.901,-701.797 440.753,-692.488"/>
<polygon fill="black" stroke="black" points="443.757,-694.285 446.116,-683.956 437.831,-690.56 443.757,-694.285"/>
</g>
<!-- Deployment -->
<g id="node5" class="node"><title>Deployment</title>
<ellipse fill="none" stroke="blue" cx="208.774" cy="-306" rx="66.8882" ry="18"/>
<text text-anchor="middle" x="208.774" y="-302.3" font-family="Times,serif" font-size="14.00">Deployment</text>
</g>
<!-- Revision&#45;&gt;Deployment -->
<g id="edge3" class="edge"><title>Revision&#45;&gt;Deployment</title>
<path fill="none" stroke="black" d="M174.065,-582.582C124.79,-566.961 41.9587,-532.207 7.77379,-468 -29.8038,-397.421 83.214,-346.881 154.758,-322.827"/>
<polygon fill="black" stroke="black" points="156.149,-326.054 164.558,-319.609 153.965,-319.403 156.149,-326.054"/>
</g>
<!-- KPA -->
<g id="node6" class="node"><title>KPA</title>
<ellipse fill="none" stroke="black" cx="153.774" cy="-522" rx="29.795" ry="18"/>
<text text-anchor="middle" x="153.774" y="-518.3" font-family="Times,serif" font-size="14.00">KPA</text>
</g>
<!-- Revision&#45;&gt;KPA -->
<g id="edge4" class="edge"><title>Revision&#45;&gt;KPA</title>
<path fill="none" stroke="black" d="M198.792,-576.411C191.231,-567.441 181.769,-556.215 173.474,-546.373"/>
<polygon fill="black" stroke="black" points="175.968,-543.901 166.847,-538.511 170.616,-548.413 175.968,-543.901"/>
</g>
<!-- ImageCache -->
<g id="node7" class="node"><title>ImageCache</title>
<ellipse fill="none" stroke="black" cx="270.774" cy="-522" rx="69.5877" ry="18"/>
<text text-anchor="middle" x="270.774" y="-518.3" font-family="Times,serif" font-size="14.00">ImageCache</text>
</g>
<!-- Revision&#45;&gt;ImageCache -->
<g id="edge5" class="edge"><title>Revision&#45;&gt;ImageCache</title>
<path fill="none" stroke="black" d="M226.519,-576.411C233.566,-567.906 242.294,-557.372 250.131,-547.914"/>
<polygon fill="black" stroke="black" points="253.039,-549.89 256.724,-539.956 247.649,-545.423 253.039,-549.89"/>
</g>
<!-- ReplicaSet -->
<g id="node19" class="node"><title>ReplicaSet</title>
<ellipse fill="none" stroke="blue" cx="208.774" cy="-234" rx="60.3893" ry="18"/>
<text text-anchor="middle" x="208.774" y="-230.3" font-family="Times,serif" font-size="14.00">ReplicaSet</text>
</g>
<!-- Deployment&#45;&gt;ReplicaSet -->
<g id="edge20" class="edge"><title>Deployment&#45;&gt;ReplicaSet</title>
<path fill="none" stroke="black" d="M208.774,-287.697C208.774,-279.983 208.774,-270.712 208.774,-262.112"/>
<polygon fill="black" stroke="black" points="212.274,-262.104 208.774,-252.104 205.274,-262.104 212.274,-262.104"/>
</g>
<!-- KPA&#45;&gt;Deployment -->
<g id="edge8" class="edge"><title>KPA&#45;&gt;Deployment</title>
<path fill="none" stroke="black" stroke-dasharray="5,2" d="M167.318,-505.425C175.231,-495.418 184.642,-481.757 189.774,-468 206.478,-423.222 209.382,-367.012 209.444,-334.236"/>
<polygon fill="black" stroke="black" points="212.942,-334.045 209.371,-324.07 205.943,-334.095 212.942,-334.045"/>
</g>
<!-- SKS -->
<g id="node8" class="node"><title>SKS</title>
<ellipse fill="none" stroke="black" cx="346.774" cy="-450" rx="29.4969" ry="18"/>
<text text-anchor="middle" x="346.774" y="-446.3" font-family="Times,serif" font-size="14.00">SKS</text>
</g>
<!-- KPA&#45;&gt;SKS -->
<g id="edge6" class="edge"><title>KPA&#45;&gt;SKS</title>
<path fill="none" stroke="black" d="M176.943,-510.232C181.808,-508.085 186.932,-505.906 191.774,-504 232.367,-488.018 279.966,-472.16 311.599,-462.015"/>
<polygon fill="black" stroke="black" points="312.815,-465.301 321.28,-458.929 310.689,-458.631 312.815,-465.301"/>
</g>
<!-- MetricsService -->
<g id="node9" class="node"><title>MetricsService</title>
<ellipse fill="none" stroke="blue" cx="98.7738" cy="-450" rx="81.7856" ry="18"/>
<text text-anchor="middle" x="98.7738" y="-446.3" font-family="Times,serif" font-size="14.00">MetricsService</text>
</g>
<!-- KPA&#45;&gt;MetricsService -->
<g id="edge7" class="edge"><title>KPA&#45;&gt;MetricsService</title>
<path fill="none" stroke="black" d="M141.568,-505.465C134.744,-496.78 126.077,-485.75 118.331,-475.891"/>
<polygon fill="black" stroke="black" points="121.031,-473.663 112.101,-467.962 115.527,-477.987 121.031,-473.663"/>
</g>
<!-- PublicService -->
<g id="node16" class="node"><title>PublicService</title>
<ellipse fill="none" stroke="blue" cx="525.774" cy="-378" rx="74.9875" ry="18"/>
<text text-anchor="middle" x="525.774" y="-374.3" font-family="Times,serif" font-size="14.00">PublicService</text>
</g>
<!-- SKS&#45;&gt;PublicService -->
<g id="edge17" class="edge"><title>SKS&#45;&gt;PublicService</title>
<path fill="none" stroke="black" d="M370.915,-439.559C398.478,-428.78 444.228,-410.889 478.872,-397.342"/>
<polygon fill="black" stroke="black" points="480.286,-400.547 488.324,-393.645 477.737,-394.027 480.286,-400.547"/>
</g>
<!-- PublicEndpoints -->
<g id="node17" class="node"><title>PublicEndpoints</title>
<ellipse fill="none" stroke="blue" cx="422.774" cy="-306" rx="87.1846" ry="18"/>
<text text-anchor="middle" x="422.774" y="-302.3" font-family="Times,serif" font-size="14.00">PublicEndpoints</text>
</g>
<!-- SKS&#45;&gt;PublicEndpoints -->
<g id="edge18" class="edge"><title>SKS&#45;&gt;PublicEndpoints</title>
<path fill="none" stroke="black" d="M365.801,-436.145C378.498,-426.558 394.506,-412.337 403.774,-396 414.527,-377.045 419.208,-352.68 421.239,-334.236"/>
<polygon fill="black" stroke="black" points="424.737,-334.422 422.154,-324.147 417.765,-333.79 424.737,-334.422"/>
</g>
<!-- PrivateService -->
<g id="node18" class="node"><title>PrivateService</title>
<ellipse fill="none" stroke="blue" cx="315.774" cy="-378" rx="79.0865" ry="18"/>
<text text-anchor="middle" x="315.774" y="-374.3" font-family="Times,serif" font-size="14.00">PrivateService</text>
</g>
<!-- SKS&#45;&gt;PrivateService -->
<g id="edge19" class="edge"><title>SKS&#45;&gt;PrivateService</title>
<path fill="none" stroke="black" d="M339.427,-432.411C335.851,-424.335 331.465,-414.431 327.445,-405.355"/>
<polygon fill="black" stroke="black" points="330.533,-403.682 323.283,-395.956 324.132,-406.517 330.533,-403.682"/>
</g>
<!-- Secret -->
<g id="node14" class="node"><title>Secret</title>
<ellipse fill="none" stroke="blue" cx="500.774" cy="-522" rx="40.8928" ry="18"/>
<text text-anchor="middle" x="500.774" y="-518.3" font-family="Times,serif" font-size="14.00">Secret</text>
</g>
<!-- ClusterIngress&#45;&gt;Secret -->
<g id="edge15" class="edge"><title>ClusterIngress&#45;&gt;Secret</title>
<path fill="none" stroke="black" d="M604.66,-648.068C592.402,-629.759 571.757,-599.976 551.774,-576 543.215,-565.731 533.128,-554.997 524.193,-545.897"/>
<polygon fill="black" stroke="black" points="526.551,-543.305 517.018,-538.682 521.588,-548.241 526.551,-543.305"/>
</g>
<!-- VirtualService -->
<g id="node15" class="node"><title>VirtualService</title>
<ellipse fill="none" stroke="green" cx="675.774" cy="-594" rx="77.1866" ry="18"/>
<text text-anchor="middle" x="675.774" y="-590.3" font-family="Times,serif" font-size="14.00">VirtualService</text>
</g>
<!-- ClusterIngress&#45;&gt;VirtualService -->
<g id="edge14" class="edge"><title>ClusterIngress&#45;&gt;VirtualService</title>
<path fill="none" stroke="black" d="M630.298,-648.055C637.668,-639.457 646.754,-628.857 654.862,-619.397"/>
<polygon fill="black" stroke="black" points="657.533,-621.659 661.383,-611.789 652.218,-617.104 657.533,-621.659"/>
</g>
<!-- PlaceholderService&#45;&gt;PublicService -->
<g id="edge28" class="edge"><title>PlaceholderService&#45;&gt;PublicService</title>
<path fill="none" stroke="black" stroke-dasharray="1,5" d="M525.774,-431.697C525.774,-423.983 525.774,-414.712 525.774,-406.112"/>
<polygon fill="black" stroke="black" points="529.274,-406.104 525.774,-396.104 522.274,-406.104 529.274,-406.104"/>
</g>
<!-- CertManager -->
<g id="node13" class="node"><title>CertManager</title>
<ellipse fill="none" stroke="orange" cx="469.774" cy="-594" rx="73.387" ry="18"/>
<text text-anchor="middle" x="469.774" y="-590.3" font-family="Times,serif" font-size="14.00">CertManager</text>
</g>
<!-- Certificate&#45;&gt;CertManager -->
<g id="edge12" class="edge"><title>Certificate&#45;&gt;CertManager</title>
<path fill="none" stroke="black" d="M459.987,-647.697C461.42,-639.983 463.141,-630.712 464.739,-622.112"/>
<polygon fill="black" stroke="black" points="468.212,-622.575 466.597,-612.104 461.33,-621.297 468.212,-622.575"/>
</g>
<!-- CertManager&#45;&gt;Secret -->
<g id="edge13" class="edge"><title>CertManager&#45;&gt;Secret</title>
<path fill="none" stroke="black" stroke-dasharray="5,2" d="M477.278,-576.055C480.857,-567.973 485.22,-558.121 489.21,-549.112"/>
<polygon fill="black" stroke="black" points="492.49,-550.35 493.339,-539.789 486.089,-547.515 492.49,-550.35"/>
</g>
<!-- IngressGateway -->
<g id="node23" class="node"><title>IngressGateway</title>
<ellipse fill="none" stroke="green" cx="675.774" cy="-522" rx="86.3847" ry="18"/>
<text text-anchor="middle" x="675.774" y="-518.3" font-family="Times,serif" font-size="14.00">IngressGateway</text>
</g>
<!-- VirtualService&#45;&gt;IngressGateway -->
<g id="edge24" class="edge"><title>VirtualService&#45;&gt;IngressGateway</title>
<path fill="none" stroke="black" stroke-dasharray="5,2" d="M675.774,-575.697C675.774,-567.983 675.774,-558.712 675.774,-550.112"/>
<polygon fill="black" stroke="black" points="679.274,-550.104 675.774,-540.104 672.274,-550.104 679.274,-550.104"/>
</g>
<!-- PublicService&#45;&gt;PublicEndpoints -->
<g id="edge29" class="edge"><title>PublicService&#45;&gt;PublicEndpoints</title>
<path fill="none" stroke="black" stroke-dasharray="1,5" d="M501.885,-360.765C488.074,-351.379 470.502,-339.437 455.429,-329.193"/>
<polygon fill="black" stroke="black" points="457.128,-326.116 446.89,-323.39 453.194,-331.906 457.128,-326.116"/>
</g>
<!-- Pod -->
<g id="node20" class="node"><title>Pod</title>
<ellipse fill="none" stroke="blue" cx="340.774" cy="-162" rx="27.8951" ry="18"/>
<text text-anchor="middle" x="340.774" y="-158.3" font-family="Times,serif" font-size="14.00">Pod</text>
</g>
<!-- PublicEndpoints&#45;&gt;Pod -->
<g id="edge30" class="edge"><title>PublicEndpoints&#45;&gt;Pod</title>
<path fill="none" stroke="black" stroke-dasharray="1,5" d="M422.366,-287.729C421.209,-268.861 417.196,-238.348 403.774,-216 395.283,-201.863 381.649,-189.704 369.233,-180.611"/>
<polygon fill="black" stroke="black" points="371.117,-177.658 360.91,-174.819 367.119,-183.403 371.117,-177.658"/>
</g>
<!-- Activator -->
<g id="node25" class="node"><title>Activator</title>
<ellipse fill="none" stroke="black" cx="340.774" cy="-234" rx="53.8905" ry="18"/>
<text text-anchor="middle" x="340.774" y="-230.3" font-family="Times,serif" font-size="14.00">Activator</text>
</g>
<!-- PublicEndpoints&#45;&gt;Activator -->
<g id="edge31" class="edge"><title>PublicEndpoints&#45;&gt;Activator</title>
<path fill="none" stroke="black" stroke-dasharray="1,5" d="M403.341,-288.411C392.566,-279.213 379.014,-267.644 367.28,-257.627"/>
<polygon fill="black" stroke="black" points="369.381,-254.819 359.503,-250.988 364.836,-260.143 369.381,-254.819"/>
</g>
<!-- PrivateService&#45;&gt;Deployment -->
<g id="edge35" class="edge"><title>PrivateService&#45;&gt;Deployment</title>
<path fill="none" stroke="black" stroke-dasharray="1,5" d="M290.957,-360.765C276.268,-351.155 257.482,-338.865 241.581,-328.462"/>
<polygon fill="black" stroke="black" points="243.372,-325.452 233.087,-322.906 239.539,-331.31 243.372,-325.452"/>
</g>
<!-- PrivateService&#45;&gt;PublicEndpoints -->
<g id="edge25" class="edge"><title>PrivateService&#45;&gt;PublicEndpoints</title>
<path fill="none" stroke="black" stroke-dasharray="5,2" d="M340.591,-360.765C355.072,-351.291 373.533,-339.214 389.289,-328.906"/>
<polygon fill="black" stroke="black" points="391.269,-331.793 397.721,-323.39 387.436,-325.936 391.269,-331.793"/>
</g>
<!-- ReplicaSet&#45;&gt;Pod -->
<g id="edge21" class="edge"><title>ReplicaSet&#45;&gt;Pod</title>
<path fill="none" stroke="black" d="M237.091,-217.983C258.832,-206.454 288.778,-190.573 310.899,-178.843"/>
<polygon fill="black" stroke="black" points="312.659,-181.871 319.853,-174.094 309.379,-175.687 312.659,-181.871"/>
</g>
<!-- UserContainer -->
<g id="node21" class="node"><title>UserContainer</title>
<ellipse fill="none" stroke="blue" cx="292.774" cy="-18" rx="79.0865" ry="18"/>
<text text-anchor="middle" x="292.774" y="-14.3" font-family="Times,serif" font-size="14.00">UserContainer</text>
</g>
<!-- Pod&#45;&gt;UserContainer -->
<g id="edge22" class="edge"><title>Pod&#45;&gt;UserContainer</title>
<path fill="none" stroke="black" d="M317.191,-152.012C298.939,-143.652 274.95,-129.26 263.774,-108 253.117,-87.7268 262.983,-62.8008 274.006,-44.4897"/>
<polygon fill="black" stroke="black" points="276.95,-46.383 279.425,-36.0813 271.066,-42.5909 276.95,-46.383"/>
</g>
<!-- QueueProxy -->
<g id="node22" class="node"><title>QueueProxy</title>
<ellipse fill="none" stroke="blue" cx="340.774" cy="-90" rx="67.6881" ry="18"/>
<text text-anchor="middle" x="340.774" y="-86.3" font-family="Times,serif" font-size="14.00">QueueProxy</text>
</g>
<!-- Pod&#45;&gt;QueueProxy -->
<g id="edge23" class="edge"><title>Pod&#45;&gt;QueueProxy</title>
<path fill="none" stroke="black" d="M334.896,-144.055C334.077,-136.346 333.835,-127.027 334.169,-118.364"/>
<polygon fill="black" stroke="black" points="337.668,-118.491 334.861,-108.275 330.684,-118.012 337.668,-118.491"/>
</g>
<!-- Pod&#45;&gt;QueueProxy -->
<g id="edge33" class="edge"><title>Pod&#45;&gt;QueueProxy</title>
<path fill="none" stroke="black" stroke-dasharray="1,5" d="M346.652,-144.055C347.47,-136.346 347.712,-127.027 347.379,-118.364"/>
<polygon fill="black" stroke="black" points="350.863,-118.012 346.687,-108.275 343.88,-118.491 350.863,-118.012"/>
</g>
<!-- QueueProxy&#45;&gt;UserContainer -->
<g id="edge34" class="edge"><title>QueueProxy&#45;&gt;UserContainer</title>
<path fill="none" stroke="black" stroke-dasharray="1,5" d="M329.154,-72.055C323.519,-63.8373 316.631,-53.7911 310.369,-44.6599"/>
<polygon fill="black" stroke="black" points="313.162,-42.5432 304.62,-36.2753 307.388,-46.502 313.162,-42.5432"/>
</g>
<!-- IngressGateway&#45;&gt;PlaceholderService -->
<g id="edge27" class="edge"><title>IngressGateway&#45;&gt;PlaceholderService</title>
<path fill="none" stroke="black" stroke-dasharray="1,5" d="M642.111,-505.291C620.626,-495.264 592.56,-482.167 569.378,-471.349"/>
<polygon fill="black" stroke="black" points="570.646,-468.078 560.104,-467.021 567.686,-474.421 570.646,-468.078"/>
</g>
<!-- Client -->
<g id="node24" class="node"><title>Client</title>
<ellipse fill="none" stroke="black" cx="809.774" cy="-594" rx="38.9931" ry="18"/>
<text text-anchor="middle" x="809.774" y="-590.3" font-family="Times,serif" font-size="14.00">Client</text>
</g>
<!-- Client&#45;&gt;IngressGateway -->
<g id="edge26" class="edge"><title>Client&#45;&gt;IngressGateway</title>
<path fill="none" stroke="black" stroke-dasharray="1,5" d="M784.883,-579.998C765.326,-569.781 737.718,-555.359 715.167,-543.579"/>
<polygon fill="black" stroke="black" points="716.653,-540.406 706.169,-538.878 713.412,-546.61 716.653,-540.406"/>
</g>
<!-- Activator&#45;&gt;Pod -->
<g id="edge32" class="edge"><title>Activator&#45;&gt;Pod</title>
<path fill="none" stroke="black" stroke-dasharray="1,5" d="M340.774,-215.697C340.774,-207.983 340.774,-198.712 340.774,-190.112"/>
<polygon fill="black" stroke="black" points="344.274,-190.104 340.774,-180.104 337.274,-190.104 344.274,-190.104"/>
</g>
</g>
</svg>
