<?xml version="1.0" encoding="UTF-8" standalone="no"?>
<!DOCTYPE svg PUBLIC "-//W3C//DTD SVG 1.1//EN"
 "http://www.w3.org/Graphics/SVG/1.1/DTD/svg11.dtd">
<!-- Generated by graphviz version 2.38.0 (20140413.2041)
 -->
<!-- Title: ReconciliationGraph Pages: 1 -->
<svg width="787pt" height="1166pt"
 viewBox="0.00 0.00 787.29 1165.88" xmlns="http://www.w3.org/2000/svg" xmlns:xlink="http://www.w3.org/1999/xlink">
<g id="graph0" class="graph" transform="scale(1 1) rotate(0) translate(4 1161.88)">
<title>ReconciliationGraph</title>
<polygon fill="white" stroke="none" points="-4,4 -4,-1161.88 783.287,-1161.88 783.287,4 -4,4"/>
<!-- Service -->
<g id="node1" class="node"><title>Service</title>
<ellipse fill="none" stroke="black" cx="494.544" cy="-1139.88" rx="45.4919" ry="18"/>
<text text-anchor="middle" x="494.544" y="-1136.18" font-family="Times,serif" font-size="14.00">Service</text>
</g>
<!-- Configuration -->
<g id="node2" class="node"><title>Configuration</title>
<ellipse fill="none" stroke="black" cx="428.544" cy="-1067.88" rx="74.9875" ry="18"/>
<text text-anchor="middle" x="428.544" y="-1064.18" font-family="Times,serif" font-size="14.00">Configuration</text>
</g>
<!-- Service&#45;&gt;Configuration -->
<g id="edge1" class="edge"><title>Service&#45;&gt;Configuration</title>
<path fill="none" stroke="black" d="M479.236,-1122.65C470.943,-1113.85 460.533,-1102.81 451.308,-1093.03"/>
<polygon fill="black" stroke="black" points="453.633,-1090.39 444.227,-1085.52 448.54,-1095.19 453.633,-1090.39"/>
</g>
<!-- Route -->
<g id="node3" class="node"><title>Route</title>
<ellipse fill="none" stroke="black" cx="560.544" cy="-1067.88" rx="38.1938" ry="18"/>
<text text-anchor="middle" x="560.544" y="-1064.18" font-family="Times,serif" font-size="14.00">Route</text>
</g>
<!-- Service&#45;&gt;Route -->
<g id="edge2" class="edge"><title>Service&#45;&gt;Route</title>
<path fill="none" stroke="black" d="M509.851,-1122.65C518.469,-1113.51 529.373,-1101.94 538.858,-1091.88"/>
<polygon fill="black" stroke="black" points="541.46,-1094.23 545.773,-1084.55 536.367,-1089.42 541.46,-1094.23"/>
</g>
<!-- Revision -->
<g id="node4" class="node"><title>Revision</title>
<ellipse fill="none" stroke="black" cx="277.544" cy="-686.887" rx="50.0912" ry="18"/>
<text text-anchor="middle" x="277.544" y="-683.187" font-family="Times,serif" font-size="14.00">Revision</text>
</g>
<!-- Configuration&#45;&gt;Revision -->
<g id="edge16" class="edge"><title>Configuration&#45;&gt;Revision</title>
<path fill="none" stroke="black" d="M428.149,-1049.84C427.566,-1023.18 426.544,-970.003 426.544,-924.884 426.544,-924.884 426.544,-924.884 426.544,-850.884 426.544,-784.347 358.07,-733.116 313.96,-707.015"/>
<polygon fill="black" stroke="black" points="315.633,-703.94 305.22,-701.982 312.139,-710.006 315.633,-703.94"/>
</g>
<!-- ClusterIngress -->
<g id="node10" class="node"><title>ClusterIngress</title>
<ellipse fill="none" stroke="black" cx="667.544" cy="-779.884" rx="80.6858" ry="18"/>
<text text-anchor="middle" x="667.544" y="-776.184" font-family="Times,serif" font-size="14.00">ClusterIngress</text>
</g>
<!-- Route&#45;&gt;ClusterIngress -->
<g id="edge9" class="edge"><title>Route&#45;&gt;ClusterIngress</title>
<path fill="none" stroke="black" d="M586.708,-1054.54C602.958,-1045.52 622.9,-1031.76 634.544,-1013.88 676.347,-949.706 674.621,-854.572 670.702,-808.237"/>
<polygon fill="black" stroke="black" points="674.167,-807.701 669.739,-798.076 667.198,-808.362 674.167,-807.701"/>
</g>
<!-- PlaceholderService -->
<g id="node11" class="node"><title>PlaceholderService</title>
<ellipse fill="none" stroke="blue" cx="645.544" cy="-521.89" rx="100.983" ry="18"/>
<text text-anchor="middle" x="645.544" y="-518.19" font-family="Times,serif" font-size="14.00">PlaceholderService</text>
</g>
<!-- Route&#45;&gt;PlaceholderService -->
<g id="edge10" class="edge"><title>Route&#45;&gt;PlaceholderService</title>
<path fill="none" stroke="black" d="M538.252,-1053.1C524.515,-1043.59 507.493,-1029.82 496.544,-1013.88 472.901,-979.482 466.544,-966.626 466.544,-924.884 466.544,-924.884 466.544,-924.884 466.544,-685.887 466.544,-615.509 543.125,-567.463 596.106,-542.645"/>
<polygon fill="black" stroke="black" points="597.722,-545.755 605.373,-538.426 594.821,-539.384 597.722,-545.755"/>
</g>
<!-- Certificate -->
<g id="node12" class="node"><title>Certificate</title>
<ellipse fill="none" stroke="black" cx="565.544" cy="-995.884" rx="60.3893" ry="18"/>
<text text-anchor="middle" x="565.544" y="-992.184" font-family="Times,serif" font-size="14.00">Certificate</text>
</g>
<!-- Route&#45;&gt;Certificate -->
<g id="edge11" class="edge"><title>Route&#45;&gt;Certificate</title>
<path fill="none" stroke="black" d="M561.78,-1049.58C562.331,-1041.87 562.993,-1032.6 563.607,-1024"/>
<polygon fill="black" stroke="black" points="567.101,-1024.21 564.322,-1013.99 560.118,-1023.71 567.101,-1024.21"/>
</g>
<!-- Deployment -->
<g id="node5" class="node"><title>Deployment</title>
<ellipse fill="none" stroke="blue" cx="387.544" cy="-377.89" rx="66.8882" ry="18"/>
<text text-anchor="middle" x="387.544" y="-374.19" font-family="Times,serif" font-size="14.00">Deployment</text>
</g>
<!-- Revision&#45;&gt;Deployment -->
<g id="edge3" class="edge"><title>Revision&#45;&gt;Deployment</title>
<path fill="none" stroke="black" d="M258.806,-670.068C223.397,-638.183 153.083,-564.104 186.544,-503.89 217.824,-447.603 286.123,-413.388 334.401,-395.314"/>
<polygon fill="black" stroke="black" points="335.867,-398.506 344.075,-391.807 333.481,-391.925 335.867,-398.506"/>
</g>
<!-- KPA -->
<g id="node6" class="node"><title>KPA</title>
<ellipse fill="none" stroke="black" cx="365.544" cy="-593.89" rx="29.795" ry="18"/>
<text text-anchor="middle" x="365.544" y="-590.19" font-family="Times,serif" font-size="14.00">KPA</text>
</g>
<!-- Revision&#45;&gt;KPA -->
<g id="edge4" class="edge"><title>Revision&#45;&gt;KPA</title>
<path fill="none" stroke="black" d="M293.276,-669.619C307.382,-655.033 328.208,-633.498 343.884,-617.288"/>
<polygon fill="black" stroke="black" points="346.678,-619.433 351.114,-609.812 341.646,-614.567 346.678,-619.433"/>
</g>
<!-- ImageCache -->
<g id="node7" class="node"><title>ImageCache</title>
<ellipse fill="none" stroke="black" cx="69.5438" cy="-593.89" rx="69.5877" ry="18"/>
<text text-anchor="middle" x="69.5438" y="-590.19" font-family="Times,serif" font-size="14.00">ImageCache</text>
</g>
<!-- Revision&#45;&gt;ImageCache -->
<g id="edge5" class="edge"><title>Revision&#45;&gt;ImageCache</title>
<path fill="none" stroke="black" d="M246.853,-672.46C211.387,-656.945 152.78,-631.305 112.727,-613.782"/>
<polygon fill="black" stroke="black" points="114.037,-610.535 103.473,-609.734 111.231,-616.948 114.037,-610.535"/>
</g>
<!-- ReplicaSet -->
<g id="node19" class="node"><title>ReplicaSet</title>
<ellipse fill="none" stroke="blue" cx="387.544" cy="-269.945" rx="60.3893" ry="18"/>
<text text-anchor="middle" x="387.544" y="-266.245" font-family="Times,serif" font-size="14.00">ReplicaSet</text>
</g>
<!-- Deployment&#45;&gt;ReplicaSet -->
<g id="edge20" class="edge"><title>Deployment&#45;&gt;ReplicaSet</title>
<path fill="none" stroke="black" d="M387.544,-359.868C387.544,-343.286 387.544,-317.804 387.544,-298.362"/>
<polygon fill="black" stroke="black" points="391.044,-298.277 387.544,-288.277 384.044,-298.277 391.044,-298.277"/>
</g>
<!-- KPA&#45;&gt;Deployment -->
<g id="edge8" class="edge"><title>KPA&#45;&gt;Deployment</title>
<path fill="none" stroke="black" stroke-dasharray="5,2" d="M367.307,-575.74C371.113,-538.722 380.123,-451.071 384.728,-406.277"/>
<polygon fill="black" stroke="black" points="388.231,-406.428 385.772,-396.123 381.268,-405.712 388.231,-406.428"/>
</g>
<!-- SKS -->
<g id="node8" class="node"><title>SKS</title>
<ellipse fill="none" stroke="black" cx="496.544" cy="-521.89" rx="29.4969" ry="18"/>
<text text-anchor="middle" x="496.544" y="-518.19" font-family="Times,serif" font-size="14.00">SKS</text>
</g>
<!-- KPA&#45;&gt;SKS -->
<g id="edge6" class="edge"><title>KPA&#45;&gt;SKS</title>
<path fill="none" stroke="black" d="M387.176,-581.331C408.604,-569.881 441.624,-552.237 465.777,-539.33"/>
<polygon fill="black" stroke="black" points="467.709,-542.267 474.88,-534.467 464.41,-536.093 467.709,-542.267"/>
</g>
<!-- MetricsService -->
<g id="node9" class="node"><title>MetricsService</title>
<ellipse fill="none" stroke="blue" cx="277.544" cy="-521.89" rx="81.7856" ry="18"/>
<text text-anchor="middle" x="277.544" y="-518.19" font-family="Times,serif" font-size="14.00">MetricsService</text>
</g>
<!-- KPA&#45;&gt;MetricsService -->
<g id="edge7" class="edge"><title>KPA&#45;&gt;MetricsService</title>
<path fill="none" stroke="black" d="M348.158,-579.061C336.183,-569.535 319.994,-556.658 306.138,-545.636"/>
<polygon fill="black" stroke="black" points="308.304,-542.887 298.299,-539.4 303.947,-548.365 308.304,-542.887"/>
</g>
<!-- PublicService -->
<g id="node16" class="node"><title>PublicService</title>
<ellipse fill="none" stroke="blue" cx="704.544" cy="-449.89" rx="74.9875" ry="18"/>
<text text-anchor="middle" x="704.544" y="-446.19" font-family="Times,serif" font-size="14.00">PublicService</text>
</g>
<!-- SKS&#45;&gt;PublicService -->
<g id="edge17" class="edge"><title>SKS&#45;&gt;PublicService</title>
<path fill="none" stroke="black" d="M519.474,-510.409C524.712,-508.151 530.285,-505.855 535.544,-503.89 572.482,-490.093 614.819,-476.82 647.878,-467.007"/>
<polygon fill="black" stroke="black" points="649.221,-470.261 657.824,-464.077 647.242,-463.546 649.221,-470.261"/>
</g>
<!-- PublicEndpoints -->
<g id="node17" class="node"><title>PublicEndpoints</title>
<ellipse fill="none" stroke="blue" cx="601.544" cy="-377.89" rx="87.1846" ry="18"/>
<text text-anchor="middle" x="601.544" y="-374.19" font-family="Times,serif" font-size="14.00">PublicEndpoints</text>
</g>
<!-- SKS&#45;&gt;PublicEndpoints -->
<g id="edge18" class="edge"><title>SKS&#45;&gt;PublicEndpoints</title>
<path fill="none" stroke="black" d="M518.669,-509.828C541.291,-498.088 574.253,-479.642 582.544,-467.89 595.242,-449.892 599.744,-425.102 601.212,-406.255"/>
<polygon fill="black" stroke="black" points="604.71,-406.385 601.756,-396.21 597.72,-406.006 604.71,-406.385"/>
</g>
<!-- PrivateService -->
<g id="node18" class="node"><title>PrivateService</title>
<ellipse fill="none" stroke="blue" cx="494.544" cy="-449.89" rx="79.0865" ry="18"/>
<text text-anchor="middle" x="494.544" y="-446.19" font-family="Times,serif" font-size="14.00">PrivateService</text>
</g>
<!-- SKS&#45;&gt;PrivateService -->
<g id="edge19" class="edge"><title>SKS&#45;&gt;PrivateService</title>
<path fill="none" stroke="black" d="M496.049,-503.587C495.829,-495.873 495.564,-486.603 495.318,-478.003"/>
<polygon fill="black" stroke="black" points="498.817,-477.891 495.033,-467.995 491.82,-478.091 498.817,-477.891"/>
</g>
<!-- VirtualService -->
<g id="node15" class="node"><title>VirtualService</title>
<ellipse fill="none" stroke="green" cx="667.544" cy="-686.887" rx="77.1866" ry="18"/>
<text text-anchor="middle" x="667.544" y="-683.187" font-family="Times,serif" font-size="14.00">VirtualService</text>
</g>
<!-- ClusterIngress&#45;&gt;VirtualService -->
<g id="edge15" class="edge"><title>ClusterIngress&#45;&gt;VirtualService</title>
<path fill="none" stroke="black" d="M667.544,-761.768C667.544,-748.677 667.544,-730.366 667.544,-715.249"/>
<polygon fill="black" stroke="black" points="671.044,-714.926 667.544,-704.926 664.044,-714.926 671.044,-714.926"/>
</g>
<!-- PlaceholderService&#45;&gt;PublicService -->
<g id="edge28" class="edge"><title>PlaceholderService&#45;&gt;PublicService</title>
<path fill="none" stroke="black" stroke-dasharray="1,5" d="M659.826,-503.945C667.001,-495.433 675.829,-484.959 683.741,-475.572"/>
<polygon fill="black" stroke="black" points="686.625,-477.581 690.393,-467.679 681.272,-473.07 686.625,-477.581"/>
</g>
<!-- CertManager -->
<g id="node13" class="node"><title>CertManager</title>
<ellipse fill="none" stroke="orange" cx="567.544" cy="-923.884" rx="73.387" ry="18"/>
<text text-anchor="middle" x="567.544" y="-920.184" font-family="Times,serif" font-size="14.00">CertManager</text>
</g>
<!-- Certificate&#45;&gt;CertManager -->
<g id="edge12" class="edge"><title>Certificate&#45;&gt;CertManager</title>
<path fill="none" stroke="black" d="M566.038,-977.58C566.259,-969.866 566.523,-960.596 566.769,-951.996"/>
<polygon fill="black" stroke="black" points="570.268,-952.084 567.055,-941.988 563.271,-951.884 570.268,-952.084"/>
</g>
<!-- Secret -->
<g id="node14" class="node"><title>Secret</title>
<ellipse fill="none" stroke="blue" cx="583.544" cy="-851.884" rx="40.8928" ry="18"/>
<text text-anchor="middle" x="583.544" y="-848.184" font-family="Times,serif" font-size="14.00">Secret</text>
</g>
<!-- CertManager&#45;&gt;Secret -->
<g id="edge13" class="edge"><title>CertManager&#45;&gt;Secret</title>
<path fill="none" stroke="black" d="M571.499,-905.58C573.262,-897.866 575.381,-888.596 577.347,-879.996"/>
<polygon fill="black" stroke="black" points="580.818,-880.516 579.634,-869.988 573.994,-878.957 580.818,-880.516"/>
</g>
<!-- Secret&#45;&gt;ClusterIngress -->
<g id="edge14" class="edge"><title>Secret&#45;&gt;ClusterIngress</title>
<path fill="none" stroke="black" stroke-dasharray="5,2" d="M601.771,-835.695C612.853,-826.459 627.229,-814.479 639.713,-804.075"/>
<polygon fill="black" stroke="black" points="642.149,-806.602 647.59,-797.511 637.668,-801.224 642.149,-806.602"/>
</g>
<!-- IngressGateway -->
<g id="node23" class="node"><title>IngressGateway</title>
<ellipse fill="none" stroke="green" cx="645.544" cy="-593.89" rx="86.3847" ry="18"/>
<text text-anchor="middle" x="645.544" y="-590.19" font-family="Times,serif" font-size="14.00">IngressGateway</text>
</g>
<!-- VirtualService&#45;&gt;IngressGateway -->
<g id="edge24" class="edge"><title>VirtualService&#45;&gt;IngressGateway</title>
<path fill="none" stroke="black" stroke-dasharray="5,2" d="M663.406,-668.771C660.21,-655.553 655.728,-637.013 652.053,-621.813"/>
<polygon fill="black" stroke="black" points="655.415,-620.827 649.663,-611.929 648.611,-622.472 655.415,-620.827"/>
</g>
<!-- PublicService&#45;&gt;PublicEndpoints -->
<g id="edge29" class="edge"><title>PublicService&#45;&gt;PublicEndpoints</title>
<path fill="none" stroke="black" stroke-dasharray="1,5" d="M680.655,-432.655C666.844,-423.269 649.272,-411.327 634.199,-401.083"/>
<polygon fill="black" stroke="black" points="635.898,-398.006 625.66,-395.28 631.964,-403.796 635.898,-398.006"/>
</g>
<!-- Pod -->
<g id="node20" class="node"><title>Pod</title>
<ellipse fill="none" stroke="blue" cx="519.544" cy="-162" rx="27.8951" ry="18"/>
<text text-anchor="middle" x="519.544" y="-158.3" font-family="Times,serif" font-size="14.00">Pod</text>
</g>
<!-- PublicEndpoints&#45;&gt;Pod -->
<g id="edge30" class="edge"><title>PublicEndpoints&#45;&gt;Pod</title>
<path fill="none" stroke="black" stroke-dasharray="1,5" d="M603.463,-359.702C606.087,-328.88 607.905,-263.039 582.544,-216 574.718,-201.485 561.15,-189.288 548.605,-180.268"/>
<polygon fill="black" stroke="black" points="550.406,-177.261 540.166,-174.541 546.476,-183.053 550.406,-177.261"/>
</g>
<!-- Activator -->
<g id="node25" class="node"><title>Activator</title>
<ellipse fill="none" stroke="black" cx="519.544" cy="-269.945" rx="53.8905" ry="53.8905"/>
<text text-anchor="middle" x="519.544" y="-266.245" font-family="Times,serif" font-size="14.00">Activator</text>
</g>
<!-- PublicEndpoints&#45;&gt;Activator -->
<g id="edge31" class="edge"><title>PublicEndpoints&#45;&gt;Activator</title>
<path fill="none" stroke="black" stroke-dasharray="1,5" d="M588.369,-359.868C580.195,-349.307 569.226,-335.135 558.451,-321.213"/>
<polygon fill="black" stroke="black" points="561.04,-318.84 552.151,-313.074 555.504,-323.125 561.04,-318.84"/>
</g>
<!-- PrivateService&#45;&gt;Deployment -->
<g id="edge35" class="edge"><title>PrivateService&#45;&gt;Deployment</title>
<path fill="none" stroke="black" stroke-dasharray="1,5" d="M469.727,-432.655C455.038,-423.045 436.252,-410.756 420.351,-400.353"/>
<polygon fill="black" stroke="black" points="422.142,-397.342 411.857,-394.796 418.309,-403.2 422.142,-397.342"/>
</g>
<!-- PrivateService&#45;&gt;PublicEndpoints -->
<g id="edge25" class="edge"><title>PrivateService&#45;&gt;PublicEndpoints</title>
<path fill="none" stroke="black" stroke-dasharray="5,2" d="M519.361,-432.655C533.842,-423.182 552.303,-411.104 568.059,-400.797"/>
<polygon fill="black" stroke="black" points="570.039,-403.684 576.491,-395.28 566.206,-397.826 570.039,-403.684"/>
</g>
<!-- ReplicaSet&#45;&gt;Pod -->
<g id="edge21" class="edge"><title>ReplicaSet&#45;&gt;Pod</title>
<path fill="none" stroke="black" d="M407.592,-252.854C430.919,-234.132 469.45,-203.206 494.666,-182.967"/>
<polygon fill="black" stroke="black" points="497.059,-185.535 502.667,-176.546 492.677,-180.076 497.059,-185.535"/>
</g>
<!-- UserContainer -->
<g id="node21" class="node"><title>UserContainer</title>
<ellipse fill="none" stroke="blue" cx="471.544" cy="-18" rx="79.0865" ry="18"/>
<text text-anchor="middle" x="471.544" y="-14.3" font-family="Times,serif" font-size="14.00">UserContainer</text>
</g>
<!-- Pod&#45;&gt;UserContainer -->
<g id="edge22" class="edge"><title>Pod&#45;&gt;UserContainer</title>
<path fill="none" stroke="black" d="M495.961,-152.012C477.709,-143.652 453.72,-129.26 442.544,-108 431.887,-87.7268 441.753,-62.8008 452.776,-44.4897"/>
<polygon fill="black" stroke="black" points="455.72,-46.383 458.195,-36.0813 449.836,-42.5909 455.72,-46.383"/>
</g>
<!-- QueueProxy -->
<g id="node22" class="node"><title>QueueProxy</title>
<ellipse fill="none" stroke="blue" cx="519.544" cy="-90" rx="67.6881" ry="18"/>
<text text-anchor="middle" x="519.544" y="-86.3" font-family="Times,serif" font-size="14.00">QueueProxy</text>
</g>
<!-- Pod&#45;&gt;QueueProxy -->
<g id="edge23" class="edge"><title>Pod&#45;&gt;QueueProxy</title>
<path fill="none" stroke="black" d="M513.666,-144.055C512.848,-136.346 512.605,-127.027 512.939,-118.364"/>
<polygon fill="black" stroke="black" points="516.438,-118.491 513.631,-108.275 509.455,-118.012 516.438,-118.491"/>
</g>
<!-- Pod&#45;&gt;QueueProxy -->
<g id="edge33" class="edge"><title>Pod&#45;&gt;QueueProxy</title>
<path fill="none" stroke="black" stroke-dasharray="1,5" d="M525.422,-144.055C526.24,-136.346 526.482,-127.027 526.149,-118.364"/>
<polygon fill="black" stroke="black" points="529.633,-118.012 525.457,-108.275 522.65,-118.491 529.633,-118.012"/>
</g>
<!-- QueueProxy&#45;&gt;UserContainer -->
<g id="edge34" class="edge"><title>QueueProxy&#45;&gt;UserContainer</title>
<path fill="none" stroke="black" stroke-dasharray="1,5" d="M507.924,-72.055C502.289,-63.8373 495.401,-53.7911 489.139,-44.6599"/>
<polygon fill="black" stroke="black" points="491.932,-42.5432 483.39,-36.2753 486.159,-46.502 491.932,-42.5432"/>
</g>
<!-- IngressGateway&#45;&gt;PlaceholderService -->
<g id="edge27" class="edge"><title>IngressGateway&#45;&gt;PlaceholderService</title>
<path fill="none" stroke="black" stroke-dasharray="1,5" d="M645.544,-575.587C645.544,-567.873 645.544,-558.603 645.544,-550.003"/>
<polygon fill="black" stroke="black" points="649.044,-549.995 645.544,-539.995 642.044,-549.995 649.044,-549.995"/>
</g>
<!-- Client -->
<g id="node24" class="node"><title>Client</title>
<ellipse fill="none" stroke="black" cx="533.544" cy="-686.887" rx="38.9931" ry="38.9931"/>
<text text-anchor="middle" x="533.544" y="-683.187" font-family="Times,serif" font-size="14.00">Client</text>
</g>
<!-- Client&#45;&gt;IngressGateway -->
<g id="edge26" class="edge"><title>Client&#45;&gt;IngressGateway</title>
<path fill="none" stroke="black" stroke-dasharray="1,5" d="M563.558,-661.502C580.111,-648.052 600.557,-631.441 616.89,-618.171"/>
<polygon fill="black" stroke="black" points="619.459,-620.593 625.014,-611.571 615.045,-615.16 619.459,-620.593"/>
</g>
<!-- Activator&#45;&gt;Pod -->
<g id="edge32" class="edge"><title>Activator&#45;&gt;Pod</title>
<path fill="none" stroke="black" stroke-dasharray="1,5" d="M519.544,-215.973C519.544,-207.01 519.544,-198.048 519.544,-190.112"/>
<polygon fill="black" stroke="black" points="523.044,-190.022 519.544,-180.022 516.044,-190.022 523.044,-190.022"/>
</g>
</g>
</svg>
