<?xml version="1.0" encoding="UTF-8" standalone="no"?>
<!DOCTYPE svg PUBLIC "-//W3C//DTD SVG 1.1//EN"
 "http://www.w3.org/Graphics/SVG/1.1/DTD/svg11.dtd">
<!-- Generated by graphviz version 2.38.0 (20140413.2041)
 -->
<!-- Title: lifecycle Pages: 1 -->
<svg width="846pt" height="412pt"
 viewBox="0.00 0.00 846.00 412.00" xmlns="http://www.w3.org/2000/svg" xmlns:xlink="http://www.w3.org/1999/xlink">
<g id="graph0" class="graph" transform="scale(1 1) rotate(0) translate(4 408)">
<title>lifecycle</title>
<polygon fill="white" stroke="none" points="-4,4 -4,-408 842,-408 842,4 -4,4"/>
<g id="clust1" class="cluster"><title>cluster_kpa</title>
<g id="a_clust1"><a xlink:href="https://godoc.org/github.com/knative/serving/pkg/apis/autoscaling/v1alpha1#PodAutoscalerStatus" xlink:title="PodAutoscaler">
<polygon fill="lightgrey" stroke="lightgrey" points="8,-91 8,-396 212,-396 212,-91 8,-91"/>
<text text-anchor="middle" x="110" y="-380.8" font-family="Times,serif" font-size="14.00">PodAutoscaler</text>
</a>
</g>
</g>
<g id="clust2" class="cluster"><title>cluster_decider</title>
<g id="a_clust2"><a xlink:href="https://godoc.org/github.com/knative/serving/pkg/autoscaler#DeciderStatus" xlink:title="Decider">
<polygon fill="linen" stroke="linen" points="433,-91 433,-166 830,-166 830,-91 433,-91"/>
<text text-anchor="middle" x="631.5" y="-150.8" font-family="Times,serif" font-size="14.00">Decider</text>
</a>
</g>
</g>
<g id="clust3" class="cluster"><title>cluster_metric</title>
<g id="a_clust3"><a xlink:href="https://godoc.org/github.com/knative/serving/pkg/apis/autoscaling/v1alpha1#MetricStatus" xlink:title="Metric">
<polygon fill="linen" stroke="linen" points="346,-8 346,-83 681,-83 681,-8 346,-8"/>
<text text-anchor="middle" x="513.5" y="-67.8" font-family="Times,serif" font-size="14.00">Metric</text>
</a>
</g>
</g>
<g id="clust4" class="cluster"><title>cluster_sks</title>
<g id="a_clust4"><a xlink:href="https://godoc.org/github.com/knative/serving/pkg/apis/networking/v1alpha1#ServerlessServiceStatus" xlink:title="ServerlessService">
<polygon fill="lightgrey" stroke="lightgrey" points="422,-174 422,-396 648,-396 648,-174 422,-174"/>
<text text-anchor="middle" x="535" y="-380.8" font-family="Times,serif" font-size="14.00">ServerlessService</text>
</a>
</g>
</g>
<g id="clust5" class="cluster"><title>cluster_endpoints</title>
<g id="a_clust5"><a xlink:href="https://godoc.org/k8s.io/api/apps/v1#Endpoints" xlink:title="Endpoints (approximate)">
<polygon fill="lightblue" stroke="lightblue" points="220,-174 220,-249 414,-249 414,-174 220,-174"/>
<text text-anchor="middle" x="317" y="-233.8" font-family="Times,serif" font-size="14.00">Endpoints (approximate)</text>
</a>
</g>
</g>
<!-- EnableScaleToZero -->
<g id="node1" class="node"><title>EnableScaleToZero</title>
<g id="a_node1"><a xlink:href="https://godoc.org/github.com/knative/serving/pkg/autoscaler#Config.EnableScaleToZero" xlink:title="EnableScaleToZero">
<ellipse fill="white" stroke="black" cx="322" cy="-117" rx="100.182" ry="18"/>
<text text-anchor="middle" x="322" y="-113.3" font-family="Times,serif" font-size="14.00">EnableScaleToZero</text>
</a>
</g>
</g>
<!-- PodAutoscalerConditionReady -->
<g id="node2" class="node"><title>PodAutoscalerConditionReady</title>
<g id="a_node2"><a xlink:href="https://godoc.org/github.com/knative/serving/pkg/apis/autoscaling/v1alpha1#PodAutoscalerConditionReady" xlink:title="Ready">
<ellipse fill="white" stroke="white" cx="164" cy="-347" rx="39.7935" ry="18"/>
<text text-anchor="middle" x="164" y="-343.3" font-family="Times,serif" font-size="14.00">Ready</text>
</a>
</g>
</g>
<!-- PodAutoscalerConditionActive -->
<g id="node3" class="node"><title>PodAutoscalerConditionActive</title>
<g id="a_node3"><a xlink:href="https://godoc.org/github.com/knative/serving/pkg/apis/autoscaling/v1alpha1#PodAutoscalerConditionActive" xlink:title="Active">
<ellipse fill="white" stroke="white" cx="164" cy="-275" rx="40.0939" ry="18"/>
<text text-anchor="middle" x="164" y="-271.3" font-family="Times,serif" font-size="14.00">Active</text>
</a>
</g>
</g>
<!-- PodAutoscalerConditionReady&#45;&gt;PodAutoscalerConditionActive -->
<g id="edge1" class="edge"><title>PodAutoscalerConditionReady&#45;&gt;PodAutoscalerConditionActive</title>
<path fill="none" stroke="black" d="M164,-328.697C164,-320.983 164,-311.712 164,-303.112"/>
<polygon fill="black" stroke="black" points="167.5,-303.104 164,-293.104 160.5,-303.104 167.5,-303.104"/>
</g>
<!-- PodAutoscalerDesiredScale -->
<g id="node6" class="node"><title>PodAutoscalerDesiredScale</title>
<polygon fill="white" stroke="white" points="204,-218 94,-218 94,-182 204,-182 204,-218"/>
<text text-anchor="middle" x="149" y="-196.3" font-family="Times,serif" font-size="14.00">DesiredScale</text>
</g>
<!-- PodAutoscalerConditionActive&#45;&gt;PodAutoscalerDesiredScale -->
<g id="edge7" class="edge"><title>PodAutoscalerConditionActive&#45;&gt;PodAutoscalerDesiredScale</title>
<path fill="none" stroke="black" d="M160.445,-256.7C158.689,-248.154 156.53,-237.645 154.562,-228.067"/>
<polygon fill="black" stroke="black" points="157.97,-227.267 152.529,-218.176 151.114,-228.676 157.97,-227.267"/>
</g>
<!-- ServerlessServiceConditionReady -->
<g id="node11" class="node"><title>ServerlessServiceConditionReady</title>
<g id="a_node11"><a xlink:href="https://godoc.org/github.com/knative/serving/pkg/apis/networking/v1alpha1#ServerlessServiceConditionReady" xlink:title="Ready">
<ellipse fill="white" stroke="white" cx="502" cy="-347" rx="39.7935" ry="18"/>
<text text-anchor="middle" x="502" y="-343.3" font-family="Times,serif" font-size="14.00">Ready</text>
</a>
</g>
</g>
<!-- PodAutoscalerConditionActive&#45;&gt;ServerlessServiceConditionReady -->
<g id="edge6" class="edge"><title>PodAutoscalerConditionActive&#45;&gt;ServerlessServiceConditionReady</title>
<path fill="none" stroke="black" d="M199.9,-283.435C261.898,-296.275 388.9,-322.577 456.81,-336.641"/>
<polygon fill="black" stroke="black" points="456.283,-340.106 466.785,-338.707 457.702,-333.252 456.283,-340.106"/>
</g>
<!-- EndpointsSubsets -->
<g id="node14" class="node"><title>EndpointsSubsets</title>
<g id="a_node14"><a xlink:href="https://godoc.org/k8s.io/api/apps/v1#Endpoints.Subsets" xlink:title="Subsets">
<ellipse fill="white" stroke="white" cx="317" cy="-200" rx="47.3916" ry="18"/>
<text text-anchor="middle" x="317" y="-196.3" font-family="Times,serif" font-size="14.00">Subsets</text>
</a>
</g>
</g>
<!-- PodAutoscalerConditionActive&#45;&gt;EndpointsSubsets -->
<g id="edge8" class="edge"><title>PodAutoscalerConditionActive&#45;&gt;EndpointsSubsets</title>
<path fill="none" stroke="black" d="M190.651,-261.284C215.158,-249.591 251.756,-232.13 279.264,-219.005"/>
<polygon fill="black" stroke="black" points="281.062,-222.025 288.58,-214.56 278.048,-215.707 281.062,-222.025"/>
</g>
<!-- PodAutoscalerMinScale -->
<g id="node4" class="node"><title>PodAutoscalerMinScale</title>
<g id="a_node4"><a xlink:href="https://godoc.org/github.com/knative/serving/pkg/apis/autoscaling#MinScaleAnnotationKey" xlink:title="MinScale">
<polygon fill="white" stroke="white" points="99.5,-135 16.5,-135 16.5,-99 99.5,-99 99.5,-135"/>
<text text-anchor="middle" x="58" y="-113.3" font-family="Times,serif" font-size="14.00">MinScale</text>
</a>
</g>
</g>
<!-- PodAutoscalerMaxScale -->
<g id="node5" class="node"><title>PodAutoscalerMaxScale</title>
<g id="a_node5"><a xlink:href="https://godoc.org/github.com/knative/serving/pkg/apis/autoscaling#MaxScaleAnnotationKey" xlink:title="MaxScale">
<polygon fill="white" stroke="white" points="204,-135 118,-135 118,-99 204,-99 204,-135"/>
<text text-anchor="middle" x="161" y="-113.3" font-family="Times,serif" font-size="14.00">MaxScale</text>
</a>
</g>
</g>
<!-- PodAutoscalerDesiredScale&#45;&gt;EnableScaleToZero -->
<g id="edge10" class="edge"><title>PodAutoscalerDesiredScale&#45;&gt;EnableScaleToZero</title>
<path fill="none" stroke="black" d="M185.689,-181.822C212.779,-169.138 249.756,-151.825 278.363,-138.431"/>
<polygon fill="black" stroke="black" points="280.145,-141.462 287.717,-134.051 277.177,-135.122 280.145,-141.462"/>
</g>
<!-- PodAutoscalerDesiredScale&#45;&gt;PodAutoscalerMinScale -->
<g id="edge2" class="edge"><title>PodAutoscalerDesiredScale&#45;&gt;PodAutoscalerMinScale</title>
<path fill="none" stroke="black" d="M127.609,-181.785C121.527,-176.775 114.943,-171.238 109,-166 100.429,-158.445 91.2782,-149.969 83.1287,-142.266"/>
<polygon fill="black" stroke="black" points="85.3308,-139.53 75.6735,-135.173 80.5057,-144.602 85.3308,-139.53"/>
</g>
<!-- PodAutoscalerDesiredScale&#45;&gt;PodAutoscalerMaxScale -->
<g id="edge3" class="edge"><title>PodAutoscalerDesiredScale&#45;&gt;PodAutoscalerMaxScale</title>
<path fill="none" stroke="black" d="M151.545,-181.822C153.12,-171.19 155.177,-157.306 156.97,-145.204"/>
<polygon fill="black" stroke="black" points="160.455,-145.558 158.459,-135.153 153.531,-144.532 160.455,-145.558"/>
</g>
<!-- DeciderDesiredScale -->
<g id="node7" class="node"><title>DeciderDesiredScale</title>
<g id="a_node7"><a xlink:href="https://godoc.org/github.com/knative/serving/pkg/autoscaler#DeciderStatus.DesiredScale" xlink:title="DesiredScale">
<ellipse fill="white" stroke="white" cx="512" cy="-117" rx="71.4873" ry="18"/>
<text text-anchor="middle" x="512" y="-113.3" font-family="Times,serif" font-size="14.00">DesiredScale</text>
</a>
</g>
</g>
<!-- PodAutoscalerDesiredScale&#45;&gt;DeciderDesiredScale -->
<g id="edge9" class="edge"><title>PodAutoscalerDesiredScale&#45;&gt;DeciderDesiredScale</title>
<path fill="none" stroke="black" d="M188.424,-181.915C197.337,-178.725 206.869,-175.824 216,-174 262.885,-164.634 385.132,-179.492 431,-166 449.311,-160.614 467.77,-150.155 482.432,-140.372"/>
<polygon fill="black" stroke="black" points="484.803,-142.987 491.035,-134.419 480.82,-137.231 484.803,-142.987"/>
</g>
<!-- MetricStableWindow -->
<g id="node9" class="node"><title>MetricStableWindow</title>
<g id="a_node9"><a xlink:href="https://godoc.org/github.com/knative/serving/pkg/apis/autoscaling/v1alpha1#MetricStableWindow" xlink:title="StableWindow">
<ellipse fill="white" stroke="white" cx="596" cy="-34" rx="77.1866" ry="18"/>
<text text-anchor="middle" x="596" y="-30.3" font-family="Times,serif" font-size="14.00">StableWindow</text>
</a>
</g>
</g>
<!-- DeciderDesiredScale&#45;&gt;MetricStableWindow -->
<g id="edge11" class="edge"><title>DeciderDesiredScale&#45;&gt;MetricStableWindow</title>
<path fill="none" stroke="black" d="M529.405,-99.2167C541.456,-87.5959 557.679,-71.9527 571.095,-59.0154"/>
<polygon fill="black" stroke="black" points="573.848,-61.2226 578.617,-51.7618 568.989,-56.1837 573.848,-61.2226"/>
</g>
<!-- MetricPanicWindow -->
<g id="node10" class="node"><title>MetricPanicWindow</title>
<g id="a_node10"><a xlink:href="https://godoc.org/github.com/knative/serving/pkg/apis/autoscaling/v1alpha1#MetricPanicWindow" xlink:title="PanicWindow">
<ellipse fill="white" stroke="white" cx="427" cy="-34" rx="73.387" ry="18"/>
<text text-anchor="middle" x="427" y="-30.3" font-family="Times,serif" font-size="14.00">PanicWindow</text>
</a>
</g>
</g>
<!-- DeciderDesiredScale&#45;&gt;MetricPanicWindow -->
<g id="edge12" class="edge"><title>DeciderDesiredScale&#45;&gt;MetricPanicWindow</title>
<path fill="none" stroke="black" d="M494.388,-99.2167C482.193,-87.5959 465.777,-71.9527 452.201,-59.0154"/>
<polygon fill="black" stroke="black" points="454.243,-56.1267 444.589,-51.7618 449.414,-61.1942 454.243,-56.1267"/>
</g>
<!-- DeciderExcessBurstCapacity -->
<g id="node8" class="node"><title>DeciderExcessBurstCapacity</title>
<g id="a_node8"><a xlink:href="https://godoc.org/github.com/knative/serving/pkg/autoscaler#DeciderStatus.ExcessBurstCapacity" xlink:title="ExcessBurstCapacity">
<ellipse fill="white" stroke="white" cx="712" cy="-117" rx="110.48" ry="18"/>
<text text-anchor="middle" x="712" y="-113.3" font-family="Times,serif" font-size="14.00">ExcessBurstCapacity</text>
</a>
</g>
</g>
<!-- ServerlessServiceConditionEndspointsPopulated -->
<g id="node12" class="node"><title>ServerlessServiceConditionEndspointsPopulated</title>
<g id="a_node12"><a xlink:href="https://godoc.org/github.com/knative/serving/pkg/apis/networking/v1alpha1#ServerlessServiceConditionEndspointsPopulated" xlink:title="EndpointsPopulated">
<ellipse fill="white" stroke="white" cx="535" cy="-275" rx="104.782" ry="18"/>
<text text-anchor="middle" x="535" y="-271.3" font-family="Times,serif" font-size="14.00">EndpointsPopulated</text>
</a>
</g>
</g>
<!-- ServerlessServiceConditionReady&#45;&gt;ServerlessServiceConditionEndspointsPopulated -->
<g id="edge4" class="edge"><title>ServerlessServiceConditionReady&#45;&gt;ServerlessServiceConditionEndspointsPopulated</title>
<path fill="none" stroke="black" d="M509.988,-329.055C513.743,-321.091 518.306,-311.411 522.503,-302.51"/>
<polygon fill="black" stroke="black" points="525.758,-303.813 526.856,-293.275 519.426,-300.828 525.758,-303.813"/>
</g>
<!-- ServerlessServiceMode -->
<g id="node13" class="node"><title>ServerlessServiceMode</title>
<g id="a_node13"><a xlink:href="https://godoc.org/github.com/knative/serving/pkg/apis/networking/v1alpha1#ServerlessServiceSpec.Mode" xlink:title="Mode">
<polygon fill="white" stroke="white" points="563.5,-218 506.5,-218 506.5,-182 563.5,-182 563.5,-218"/>
<text text-anchor="middle" x="535" y="-196.3" font-family="Times,serif" font-size="14.00">Mode</text>
</a>
</g>
</g>
<!-- ServerlessServiceConditionEndspointsPopulated&#45;&gt;ServerlessServiceMode -->
<g id="edge5" class="edge"><title>ServerlessServiceConditionEndspointsPopulated&#45;&gt;ServerlessServiceMode</title>
<path fill="none" stroke="black" d="M535,-256.7C535,-248.245 535,-237.869 535,-228.373"/>
<polygon fill="black" stroke="black" points="538.5,-228.176 535,-218.176 531.5,-228.176 538.5,-228.176"/>
</g>
<!-- ServerlessServiceConditionEndspointsPopulated&#45;&gt;EndpointsSubsets -->
<g id="edge13" class="edge"><title>ServerlessServiceConditionEndspointsPopulated&#45;&gt;EndpointsSubsets</title>
<path fill="none" stroke="black" d="M464.366,-261.686C448.903,-258.223 432.752,-254.005 418,-249 395.249,-241.281 370.892,-229.809 351.799,-220.015"/>
<polygon fill="black" stroke="black" points="353.364,-216.884 342.879,-215.366 350.129,-223.092 353.364,-216.884"/>
</g>
<!-- ServerlessServiceMode&#45;&gt;PodAutoscalerConditionActive -->
<g id="edge14" class="edge"><title>ServerlessServiceMode&#45;&gt;PodAutoscalerConditionActive</title>
<path fill="none" stroke="black" d="M506.464,-215.46C483.25,-226.541 449.321,-241.212 418,-249 348.806,-266.206 266.243,-271.659 214.456,-273.336"/>
<polygon fill="black" stroke="black" points="214.1,-269.845 204.206,-273.632 214.302,-276.842 214.1,-269.845"/>
</g>
<!-- ServerlessServiceMode&#45;&gt;DeciderExcessBurstCapacity -->
<g id="edge15" class="edge"><title>ServerlessServiceMode&#45;&gt;DeciderExcessBurstCapacity</title>
<path fill="none" stroke="black" d="M563.832,-185.806C591.917,-172.953 635.008,-153.234 667.493,-138.368"/>
<polygon fill="black" stroke="black" points="669.142,-141.462 676.778,-134.118 666.229,-135.097 669.142,-141.462"/>
</g>
</g>
</svg>
