<?xml version="1.0" encoding="UTF-8" standalone="no"?>
<!DOCTYPE svg PUBLIC "-//W3C//DTD SVG 1.1//EN"
 "http://www.w3.org/Graphics/SVG/1.1/DTD/svg11.dtd">
<!-- Generated by graphviz version 2.38.0 (20140413.2041)
 -->
<!-- Title: ReconciliationGraph Pages: 1 -->
<svg width="706pt" height="1238pt"
 viewBox="0.00 0.00 705.59 1237.88" xmlns="http://www.w3.org/2000/svg" xmlns:xlink="http://www.w3.org/1999/xlink">
<g id="graph0" class="graph" transform="scale(1 1) rotate(0) translate(4 1233.88)">
<title>ReconciliationGraph</title>
<polygon fill="white" stroke="none" points="-4,4 -4,-1233.88 701.593,-1233.88 701.593,4 -4,4"/>
<!-- Service -->
<g id="node1" class="node"><title>Service</title>
<ellipse fill="none" stroke="black" cx="422" cy="-1211.88" rx="45.4919" ry="18"/>
<text text-anchor="middle" x="422" y="-1208.18" font-family="Times,serif" font-size="14.00">Service</text>
</g>
<!-- Configuration -->
<g id="node2" class="node"><title>Configuration</title>
<ellipse fill="none" stroke="black" cx="371" cy="-1139.88" rx="74.9875" ry="18"/>
<text text-anchor="middle" x="371" y="-1136.18" font-family="Times,serif" font-size="14.00">Configuration</text>
</g>
<!-- Service&#45;&gt;Configuration -->
<g id="edge1" class="edge"><title>Service&#45;&gt;Configuration</title>
<path fill="none" stroke="black" d="M409.914,-1194.29C403.78,-1185.88 396.198,-1175.47 389.361,-1166.08"/>
<polygon fill="black" stroke="black" points="392.071,-1163.86 383.354,-1157.84 386.414,-1167.98 392.071,-1163.86"/>
</g>
<!-- Route -->
<g id="node3" class="node"><title>Route</title>
<ellipse fill="none" stroke="black" cx="412" cy="-1067.88" rx="38.1938" ry="18"/>
<text text-anchor="middle" x="412" y="-1064.18" font-family="Times,serif" font-size="14.00">Route</text>
</g>
<!-- Service&#45;&gt;Route -->
<g id="edge2" class="edge"><title>Service&#45;&gt;Route</title>
<path fill="none" stroke="black" d="M435.64,-1194.39C442.936,-1184.47 451.186,-1171.22 455,-1157.88 459.398,-1142.5 460.348,-1136.96 455,-1121.88 451.058,-1110.77 443.682,-1100.28 436.137,-1091.62"/>
<polygon fill="black" stroke="black" points="438.624,-1089.16 429.254,-1084.21 433.495,-1093.92 438.624,-1089.16"/>
</g>
<!-- Configuration&#45;&gt;Route -->
<g id="edge12" class="edge"><title>Configuration&#45;&gt;Route</title>
<path fill="none" stroke="black" stroke-dasharray="5,2" d="M375.219,-1121.58C379.365,-1112.99 385.347,-1102.47 391.364,-1093.09"/>
<polygon fill="black" stroke="black" points="394.426,-1094.81 397.085,-1084.55 388.611,-1090.91 394.426,-1094.81"/>
</g>
<!-- Revision -->
<g id="node4" class="node"><title>Revision</title>
<ellipse fill="none" stroke="black" cx="322" cy="-995.884" rx="50.0912" ry="18"/>
<text text-anchor="middle" x="322" y="-992.184" font-family="Times,serif" font-size="14.00">Revision</text>
</g>
<!-- Configuration&#45;&gt;Revision -->
<g id="edge20" class="edge"><title>Configuration&#45;&gt;Revision</title>
<path fill="none" stroke="black" d="M365.089,-1121.75C356.702,-1097.45 341.261,-1052.7 331.321,-1023.9"/>
<polygon fill="black" stroke="black" points="334.502,-1022.38 327.932,-1014.07 327.885,-1024.67 334.502,-1022.38"/>
</g>
<!-- Route&#45;&gt;Configuration -->
<g id="edge14" class="edge"><title>Route&#45;&gt;Configuration</title>
<path fill="none" stroke="black" stroke-dasharray="5,2" d="M407.794,-1086.16C403.807,-1094.42 398.117,-1104.48 392.329,-1113.59"/>
<polygon fill="black" stroke="black" points="389.404,-1111.67 386.803,-1121.94 395.241,-1115.53 389.404,-1111.67"/>
</g>
<!-- Route&#45;&gt;Revision -->
<g id="edge15" class="edge"><title>Route&#45;&gt;Revision</title>
<path fill="none" stroke="black" stroke-dasharray="5,2" d="M389.189,-1053.39C375.688,-1043.91 358.782,-1031 345.227,-1019.92"/>
<polygon fill="black" stroke="black" points="347.204,-1017.01 337.281,-1013.3 342.723,-1022.39 347.204,-1017.01"/>
</g>
<!-- ClusterIngress -->
<g id="node10" class="node"><title>ClusterIngress</title>
<ellipse fill="none" stroke="black" cx="617" cy="-779.884" rx="80.6858" ry="18"/>
<text text-anchor="middle" x="617" y="-776.184" font-family="Times,serif" font-size="14.00">ClusterIngress</text>
</g>
<!-- Route&#45;&gt;ClusterIngress -->
<g id="edge9" class="edge"><title>Route&#45;&gt;ClusterIngress</title>
<path fill="none" stroke="black" d="M450.197,-1065.13C488.333,-1061.29 546.02,-1049.52 580,-1013.88 633.737,-957.527 628.064,-856.368 621.586,-808.036"/>
<polygon fill="black" stroke="black" points="625.032,-807.41 620.128,-798.018 618.105,-808.418 625.032,-807.41"/>
</g>
<!-- PlaceholderService -->
<g id="node11" class="node"><title>PlaceholderService</title>
<ellipse fill="none" stroke="blue" cx="534" cy="-521.89" rx="100.983" ry="18"/>
<text text-anchor="middle" x="534" y="-518.19" font-family="Times,serif" font-size="14.00">PlaceholderService</text>
</g>
<!-- Route&#45;&gt;PlaceholderService -->
<g id="edge10" class="edge"><title>Route&#45;&gt;PlaceholderService</title>
<path fill="none" stroke="black" d="M412.79,-1049.84C413.956,-1023.19 416,-970.016 416,-924.884 416,-924.884 416,-924.884 416,-685.887 416,-635.942 409.413,-616.128 439,-575.89 449.475,-561.645 464.994,-550.73 480.468,-542.615"/>
<polygon fill="black" stroke="black" points="482.105,-545.711 489.534,-538.157 479.016,-539.429 482.105,-545.711"/>
</g>
<!-- Certificate -->
<g id="node12" class="node"><title>Certificate</title>
<ellipse fill="none" stroke="black" cx="511" cy="-995.884" rx="60.3893" ry="18"/>
<text text-anchor="middle" x="511" y="-992.184" font-family="Times,serif" font-size="14.00">Certificate</text>
</g>
<!-- Route&#45;&gt;Certificate -->
<g id="edge11" class="edge"><title>Route&#45;&gt;Certificate</title>
<path fill="none" stroke="black" d="M432.513,-1052.38C446.275,-1042.65 464.654,-1029.65 480.167,-1018.68"/>
<polygon fill="black" stroke="black" points="482.298,-1021.46 488.442,-1012.83 478.257,-1015.75 482.298,-1021.46"/>
</g>
<!-- Revision&#45;&gt;Route -->
<g id="edge13" class="edge"><title>Revision&#45;&gt;Route</title>
<path fill="none" stroke="black" stroke-dasharray="5,2" d="M346.749,-1011.75C360.089,-1021.2 376.309,-1033.63 389.317,-1044.3"/>
<polygon fill="black" stroke="black" points="387.421,-1047.27 397.338,-1051 391.909,-1041.9 387.421,-1047.27"/>
</g>
<!-- Deployment -->
<g id="node5" class="node"><title>Deployment</title>
<ellipse fill="none" stroke="blue" cx="220" cy="-377.89" rx="66.8882" ry="18"/>
<text text-anchor="middle" x="220" y="-374.19" font-family="Times,serif" font-size="14.00">Deployment</text>
</g>
<!-- Revision&#45;&gt;Deployment -->
<g id="edge3" class="edge"><title>Revision&#45;&gt;Deployment</title>
<path fill="none" stroke="black" d="M272.041,-994.704C181.597,-991.467 0,-970.343 0,-852.884 0,-852.884 0,-852.884 0,-520.89 0,-445.653 91.9516,-408.347 156.961,-391.373"/>
<polygon fill="black" stroke="black" points="157.897,-394.747 166.744,-388.918 156.193,-387.958 157.897,-394.747"/>
</g>
<!-- KPA -->
<g id="node6" class="node"><title>KPA</title>
<ellipse fill="none" stroke="black" cx="220" cy="-593.89" rx="29.795" ry="18"/>
<text text-anchor="middle" x="220" y="-590.19" font-family="Times,serif" font-size="14.00">KPA</text>
</g>
<!-- Revision&#45;&gt;KPA -->
<g id="edge4" class="edge"><title>Revision&#45;&gt;KPA</title>
<path fill="none" stroke="black" d="M289.854,-981.87C272.222,-973.116 251.472,-959.866 239,-941.884 215.948,-908.649 220,-893.33 220,-852.884 220,-852.884 220,-852.884 220,-778.884 220,-723.302 220,-658.277 220,-622.322"/>
<polygon fill="black" stroke="black" points="223.5,-622.14 220,-612.14 216.5,-622.14 223.5,-622.14"/>
</g>
<!-- ImageCache -->
<g id="node7" class="node"><title>ImageCache</title>
<ellipse fill="none" stroke="black" cx="318" cy="-923.884" rx="69.5877" ry="18"/>
<text text-anchor="middle" x="318" y="-920.184" font-family="Times,serif" font-size="14.00">ImageCache</text>
</g>
<!-- Revision&#45;&gt;ImageCache -->
<g id="edge5" class="edge"><title>Revision&#45;&gt;ImageCache</title>
<path fill="none" stroke="black" d="M321.011,-977.58C320.57,-969.866 320.041,-960.596 319.549,-951.996"/>
<polygon fill="black" stroke="black" points="323.042,-951.772 318.977,-941.988 316.054,-952.171 323.042,-951.772"/>
</g>
<!-- ReplicaSet -->
<g id="node19" class="node"><title>ReplicaSet</title>
<ellipse fill="none" stroke="blue" cx="220" cy="-269.945" rx="60.3893" ry="18"/>
<text text-anchor="middle" x="220" y="-266.245" font-family="Times,serif" font-size="14.00">ReplicaSet</text>
</g>
<!-- Deployment&#45;&gt;ReplicaSet -->
<g id="edge24" class="edge"><title>Deployment&#45;&gt;ReplicaSet</title>
<path fill="none" stroke="black" d="M220,-359.868C220,-343.286 220,-317.804 220,-298.362"/>
<polygon fill="black" stroke="black" points="223.5,-298.277 220,-288.277 216.5,-298.277 223.5,-298.277"/>
</g>
<!-- KPA&#45;&gt;Deployment -->
<g id="edge8" class="edge"><title>KPA&#45;&gt;Deployment</title>
<path fill="none" stroke="black" stroke-dasharray="5,2" d="M220,-575.74C220,-538.722 220,-451.071 220,-406.277"/>
<polygon fill="black" stroke="black" points="223.5,-406.123 220,-396.123 216.5,-406.123 223.5,-406.123"/>
</g>
<!-- SKS -->
<g id="node8" class="node"><title>SKS</title>
<ellipse fill="none" stroke="black" cx="355" cy="-521.89" rx="29.4969" ry="18"/>
<text text-anchor="middle" x="355" y="-518.19" font-family="Times,serif" font-size="14.00">SKS</text>
</g>
<!-- KPA&#45;&gt;SKS -->
<g id="edge6" class="edge"><title>KPA&#45;&gt;SKS</title>
<path fill="none" stroke="black" d="M241.991,-581.488C264.251,-569.946 298.871,-551.994 323.929,-539.001"/>
<polygon fill="black" stroke="black" points="325.752,-541.998 333.019,-534.288 322.53,-535.784 325.752,-541.998"/>
</g>
<!-- MetricsService -->
<g id="node9" class="node"><title>MetricsService</title>
<ellipse fill="none" stroke="blue" cx="110" cy="-521.89" rx="81.7856" ry="18"/>
<text text-anchor="middle" x="110" y="-518.19" font-family="Times,serif" font-size="14.00">MetricsService</text>
</g>
<!-- KPA&#45;&gt;MetricsService -->
<g id="edge7" class="edge"><title>KPA&#45;&gt;MetricsService</title>
<path fill="none" stroke="black" d="M200.08,-580.214C184.544,-570.327 162.598,-556.362 144.258,-544.691"/>
<polygon fill="black" stroke="black" points="145.904,-541.59 135.588,-539.174 142.146,-547.496 145.904,-541.59"/>
</g>
<!-- PublicService -->
<g id="node16" class="node"><title>PublicService</title>
<ellipse fill="none" stroke="blue" cx="537" cy="-449.89" rx="74.9875" ry="18"/>
<text text-anchor="middle" x="537" y="-446.19" font-family="Times,serif" font-size="14.00">PublicService</text>
</g>
<!-- SKS&#45;&gt;PublicService -->
<g id="edge21" class="edge"><title>SKS&#45;&gt;PublicService</title>
<path fill="none" stroke="black" d="M379.168,-511.595C407.186,-500.819 454.042,-482.797 489.44,-469.183"/>
<polygon fill="black" stroke="black" points="491.018,-472.326 499.095,-465.469 488.505,-465.792 491.018,-472.326"/>
</g>
<!-- PublicEndpoints -->
<g id="node17" class="node"><title>PublicEndpoints</title>
<ellipse fill="none" stroke="blue" cx="434" cy="-377.89" rx="87.1846" ry="18"/>
<text text-anchor="middle" x="434" y="-374.19" font-family="Times,serif" font-size="14.00">PublicEndpoints</text>
</g>
<!-- SKS&#45;&gt;PublicEndpoints -->
<g id="edge22" class="edge"><title>SKS&#45;&gt;PublicEndpoints</title>
<path fill="none" stroke="black" d="M374.747,-508.455C388.159,-498.967 405.183,-484.691 415,-467.89 425.994,-449.075 430.657,-424.698 432.619,-406.215"/>
<polygon fill="black" stroke="black" points="436.119,-406.364 433.49,-396.1 429.145,-405.763 436.119,-406.364"/>
</g>
<!-- PrivateService -->
<g id="node18" class="node"><title>PrivateService</title>
<ellipse fill="none" stroke="blue" cx="327" cy="-449.89" rx="79.0865" ry="18"/>
<text text-anchor="middle" x="327" y="-446.19" font-family="Times,serif" font-size="14.00">PrivateService</text>
</g>
<!-- SKS&#45;&gt;PrivateService -->
<g id="edge23" class="edge"><title>SKS&#45;&gt;PrivateService</title>
<path fill="none" stroke="black" d="M348.364,-504.301C345.134,-496.226 341.172,-486.322 337.542,-477.245"/>
<polygon fill="black" stroke="black" points="340.746,-475.832 333.782,-467.847 334.247,-478.431 340.746,-475.832"/>
</g>
<!-- VirtualService -->
<g id="node15" class="node"><title>VirtualService</title>
<ellipse fill="none" stroke="green" cx="617" cy="-686.887" rx="77.1866" ry="18"/>
<text text-anchor="middle" x="617" y="-683.187" font-family="Times,serif" font-size="14.00">VirtualService</text>
</g>
<!-- ClusterIngress&#45;&gt;VirtualService -->
<g id="edge19" class="edge"><title>ClusterIngress&#45;&gt;VirtualService</title>
<path fill="none" stroke="black" d="M617,-761.768C617,-748.677 617,-730.366 617,-715.249"/>
<polygon fill="black" stroke="black" points="620.5,-714.926 617,-704.926 613.5,-714.926 620.5,-714.926"/>
</g>
<!-- PlaceholderService&#45;&gt;PublicService -->
<g id="edge32" class="edge"><title>PlaceholderService&#45;&gt;PublicService</title>
<path fill="none" stroke="black" stroke-dasharray="1,5" d="M534.742,-503.587C535.072,-495.873 535.469,-486.603 535.838,-478.003"/>
<polygon fill="black" stroke="black" points="539.335,-478.135 536.267,-467.995 532.342,-477.836 539.335,-478.135"/>
</g>
<!-- CertManager -->
<g id="node13" class="node"><title>CertManager</title>
<ellipse fill="none" stroke="orange" cx="517" cy="-923.884" rx="73.387" ry="18"/>
<text text-anchor="middle" x="517" y="-920.184" font-family="Times,serif" font-size="14.00">CertManager</text>
</g>
<!-- Certificate&#45;&gt;CertManager -->
<g id="edge16" class="edge"><title>Certificate&#45;&gt;CertManager</title>
<path fill="none" stroke="black" d="M512.483,-977.58C513.144,-969.866 513.939,-960.596 514.676,-951.996"/>
<polygon fill="black" stroke="black" points="518.167,-952.25 515.534,-941.988 511.193,-951.652 518.167,-952.25"/>
</g>
<!-- Secret -->
<g id="node14" class="node"><title>Secret</title>
<ellipse fill="none" stroke="blue" cx="533" cy="-851.884" rx="40.8928" ry="18"/>
<text text-anchor="middle" x="533" y="-848.184" font-family="Times,serif" font-size="14.00">Secret</text>
</g>
<!-- CertManager&#45;&gt;Secret -->
<g id="edge17" class="edge"><title>CertManager&#45;&gt;Secret</title>
<path fill="none" stroke="black" d="M520.955,-905.58C522.718,-897.866 524.837,-888.596 526.803,-879.996"/>
<polygon fill="black" stroke="black" points="530.274,-880.516 529.09,-869.988 523.45,-878.957 530.274,-880.516"/>
</g>
<!-- Secret&#45;&gt;ClusterIngress -->
<g id="edge18" class="edge"><title>Secret&#45;&gt;ClusterIngress</title>
<path fill="none" stroke="black" stroke-dasharray="5,2" d="M551.227,-835.695C562.31,-826.459 576.686,-814.479 589.17,-804.075"/>
<polygon fill="black" stroke="black" points="591.605,-806.602 597.047,-797.511 587.124,-801.224 591.605,-806.602"/>
</g>
<!-- IngressGateway -->
<g id="node23" class="node"><title>IngressGateway</title>
<ellipse fill="none" stroke="green" cx="534" cy="-593.89" rx="86.3847" ry="18"/>
<text text-anchor="middle" x="534" y="-590.19" font-family="Times,serif" font-size="14.00">IngressGateway</text>
</g>
<!-- VirtualService&#45;&gt;IngressGateway -->
<g id="edge28" class="edge"><title>VirtualService&#45;&gt;IngressGateway</title>
<path fill="none" stroke="black" stroke-dasharray="5,2" d="M601.777,-669.197C589.103,-655.303 570.876,-635.32 556.516,-619.575"/>
<polygon fill="black" stroke="black" points="558.733,-616.813 549.408,-611.783 553.561,-621.53 558.733,-616.813"/>
</g>
<!-- PublicService&#45;&gt;PublicEndpoints -->
<g id="edge33" class="edge"><title>PublicService&#45;&gt;PublicEndpoints</title>
<path fill="none" stroke="black" stroke-dasharray="1,5" d="M513.111,-432.655C499.3,-423.269 481.729,-411.327 466.655,-401.083"/>
<polygon fill="black" stroke="black" points="468.355,-398.006 458.116,-395.28 464.42,-403.796 468.355,-398.006"/>
</g>
<!-- Pod -->
<g id="node20" class="node"><title>Pod</title>
<ellipse fill="none" stroke="blue" cx="352" cy="-162" rx="27.8951" ry="18"/>
<text text-anchor="middle" x="352" y="-158.3" font-family="Times,serif" font-size="14.00">Pod</text>
</g>
<!-- PublicEndpoints&#45;&gt;Pod -->
<g id="edge34" class="edge"><title>PublicEndpoints&#45;&gt;Pod</title>
<path fill="none" stroke="black" stroke-dasharray="1,5" d="M435.92,-359.702C438.543,-328.88 440.361,-263.039 415,-216 407.174,-201.485 393.606,-189.288 381.061,-180.268"/>
<polygon fill="black" stroke="black" points="382.862,-177.261 372.623,-174.541 378.932,-183.053 382.862,-177.261"/>
</g>
<!-- Activator -->
<g id="node25" class="node"><title>Activator</title>
<ellipse fill="none" stroke="black" cx="352" cy="-269.945" rx="53.8905" ry="53.8905"/>
<text text-anchor="middle" x="352" y="-266.245" font-family="Times,serif" font-size="14.00">Activator</text>
</g>
<!-- PublicEndpoints&#45;&gt;Activator -->
<g id="edge35" class="edge"><title>PublicEndpoints&#45;&gt;Activator</title>
<path fill="none" stroke="black" stroke-dasharray="1,5" d="M420.825,-359.868C412.651,-349.307 401.682,-335.135 390.907,-321.213"/>
<polygon fill="black" stroke="black" points="393.496,-318.84 384.607,-313.074 387.96,-323.125 393.496,-318.84"/>
</g>
<!-- PrivateService&#45;&gt;Deployment -->
<g id="edge39" class="edge"><title>PrivateService&#45;&gt;Deployment</title>
<path fill="none" stroke="black" stroke-dasharray="1,5" d="M302.183,-432.655C287.494,-423.045 268.709,-410.756 252.807,-400.353"/>
<polygon fill="black" stroke="black" points="254.598,-397.342 244.313,-394.796 250.766,-403.2 254.598,-397.342"/>
</g>
<!-- PrivateService&#45;&gt;PublicEndpoints -->
<g id="edge29" class="edge"><title>PrivateService&#45;&gt;PublicEndpoints</title>
<path fill="none" stroke="black" stroke-dasharray="5,2" d="M351.817,-432.655C366.298,-423.182 384.759,-411.104 400.515,-400.797"/>
<polygon fill="black" stroke="black" points="402.495,-403.684 408.947,-395.28 398.663,-397.826 402.495,-403.684"/>
</g>
<!-- ReplicaSet&#45;&gt;Pod -->
<g id="edge25" class="edge"><title>ReplicaSet&#45;&gt;Pod</title>
<path fill="none" stroke="black" d="M240.048,-252.854C263.375,-234.132 301.906,-203.206 327.123,-182.967"/>
<polygon fill="black" stroke="black" points="329.515,-185.535 335.123,-176.546 325.133,-180.076 329.515,-185.535"/>
</g>
<!-- UserContainer -->
<g id="node21" class="node"><title>UserContainer</title>
<ellipse fill="none" stroke="blue" cx="304" cy="-18" rx="79.0865" ry="18"/>
<text text-anchor="middle" x="304" y="-14.3" font-family="Times,serif" font-size="14.00">UserContainer</text>
</g>
<!-- Pod&#45;&gt;UserContainer -->
<g id="edge26" class="edge"><title>Pod&#45;&gt;UserContainer</title>
<path fill="none" stroke="black" d="M328.417,-152.012C310.165,-143.652 286.176,-129.26 275,-108 264.343,-87.7268 274.21,-62.8008 285.232,-44.4897"/>
<polygon fill="black" stroke="black" points="288.176,-46.383 290.651,-36.0813 282.292,-42.5909 288.176,-46.383"/>
</g>
<!-- QueueProxy -->
<g id="node22" class="node"><title>QueueProxy</title>
<ellipse fill="none" stroke="blue" cx="352" cy="-90" rx="67.6881" ry="18"/>
<text text-anchor="middle" x="352" y="-86.3" font-family="Times,serif" font-size="14.00">QueueProxy</text>
</g>
<!-- Pod&#45;&gt;QueueProxy -->
<g id="edge27" class="edge"><title>Pod&#45;&gt;QueueProxy</title>
<path fill="none" stroke="black" d="M346.122,-144.055C345.304,-136.346 345.061,-127.027 345.395,-118.364"/>
<polygon fill="black" stroke="black" points="348.894,-118.491 346.087,-108.275 341.911,-118.012 348.894,-118.491"/>
</g>
<!-- Pod&#45;&gt;QueueProxy -->
<g id="edge37" class="edge"><title>Pod&#45;&gt;QueueProxy</title>
<path fill="none" stroke="black" stroke-dasharray="1,5" d="M357.878,-144.055C358.696,-136.346 358.939,-127.027 358.605,-118.364"/>
<polygon fill="black" stroke="black" points="362.089,-118.012 357.913,-108.275 355.106,-118.491 362.089,-118.012"/>
</g>
<!-- QueueProxy&#45;&gt;UserContainer -->
<g id="edge38" class="edge"><title>QueueProxy&#45;&gt;UserContainer</title>
<path fill="none" stroke="black" stroke-dasharray="1,5" d="M340.381,-72.055C334.746,-63.8373 327.857,-53.7911 321.595,-44.6599"/>
<polygon fill="black" stroke="black" points="324.388,-42.5432 315.846,-36.2753 318.615,-46.502 324.388,-42.5432"/>
</g>
<!-- IngressGateway&#45;&gt;PlaceholderService -->
<g id="edge31" class="edge"><title>IngressGateway&#45;&gt;PlaceholderService</title>
<path fill="none" stroke="black" stroke-dasharray="1,5" d="M534,-575.587C534,-567.873 534,-558.603 534,-550.003"/>
<polygon fill="black" stroke="black" points="537.5,-549.995 534,-539.995 530.5,-549.995 537.5,-549.995"/>
</g>
<!-- Client -->
<g id="node24" class="node"><title>Client</title>
<ellipse fill="none" stroke="black" cx="483" cy="-686.887" rx="38.9931" ry="38.9931"/>
<text text-anchor="middle" x="483" y="-683.187" font-family="Times,serif" font-size="14.00">Client</text>
</g>
<!-- Client&#45;&gt;IngressGateway -->
<g id="edge30" class="edge"><title>Client&#45;&gt;IngressGateway</title>
<path fill="none" stroke="black" stroke-dasharray="1,5" d="M501.701,-652.52C507.561,-642.065 513.937,-630.687 519.465,-620.825"/>
<polygon fill="black" stroke="black" points="522.624,-622.347 524.46,-611.913 516.517,-618.925 522.624,-622.347"/>
</g>
<!-- Activator&#45;&gt;Pod -->
<g id="edge36" class="edge"><title>Activator&#45;&gt;Pod</title>
<path fill="none" stroke="black" stroke-dasharray="1,5" d="M352,-215.973C352,-207.01 352,-198.048 352,-190.112"/>
<polygon fill="black" stroke="black" points="355.5,-190.022 352,-180.022 348.5,-190.022 355.5,-190.022"/>
</g>
</g>
</svg>
