<?xml version="1.0" encoding="UTF-8" standalone="no"?>
<!DOCTYPE svg PUBLIC "-//W3C//DTD SVG 1.1//EN"
 "http://www.w3.org/Graphics/SVG/1.1/DTD/svg11.dtd">
<!-- Generated by graphviz version 2.38.0 (20140413.2041)
 -->
<!-- Title: TrafficGraph Pages: 1 -->
<svg width="728pt" height="836pt"
 viewBox="0.00 0.00 728.29 836.00" xmlns="http://www.w3.org/2000/svg" xmlns:xlink="http://www.w3.org/1999/xlink">
<g id="graph0" class="graph" transform="scale(1 1) rotate(0) translate(4 832)">
<title>TrafficGraph</title>
<polygon fill="white" stroke="none" points="-4,4 -4,-832 724.287,-832 724.287,4 -4,4"/>
<!-- KSVC -->
<g id="node1" class="node"><title>KSVC</title>
<ellipse fill="none" stroke="black" cx="347.343" cy="-810" rx="37.8943" ry="18"/>
<text text-anchor="middle" x="347.343" y="-806.3" font-family="Times,serif" font-size="14.00">KSVC</text>
</g>
<!-- Configuration -->
<g id="node2" class="node"><title>Configuration</title>
<ellipse fill="none" stroke="black" cx="417.343" cy="-738" rx="74.9875" ry="18"/>
<text text-anchor="middle" x="417.343" y="-734.3" font-family="Times,serif" font-size="14.00">Configuration</text>
</g>
<!-- KSVC&#45;&gt;Configuration -->
<g id="edge1" class="edge"><title>KSVC&#45;&gt;Configuration</title>
<path fill="none" stroke="black" d="M362.878,-793.465C371.737,-784.606 383.035,-773.308 393.042,-763.301"/>
<polygon fill="black" stroke="black" points="395.785,-765.508 400.381,-755.962 390.835,-760.558 395.785,-765.508"/>
</g>
<!-- Route -->
<g id="node3" class="node"><title>Route</title>
<ellipse fill="none" stroke="black" cx="278.343" cy="-738" rx="38.1938" ry="18"/>
<text text-anchor="middle" x="278.343" y="-734.3" font-family="Times,serif" font-size="14.00">Route</text>
</g>
<!-- KSVC&#45;&gt;Route -->
<g id="edge2" class="edge"><title>KSVC&#45;&gt;Route</title>
<path fill="none" stroke="black" d="M332.03,-793.465C322.956,-784.26 311.287,-772.421 301.147,-762.134"/>
<polygon fill="black" stroke="black" points="303.605,-759.642 294.092,-754.977 298.619,-764.556 303.605,-759.642"/>
</g>
<!-- Revision -->
<g id="node4" class="node"><title>Revision</title>
<ellipse fill="none" stroke="black" cx="441.343" cy="-594" rx="50.0912" ry="18"/>
<text text-anchor="middle" x="441.343" y="-590.3" font-family="Times,serif" font-size="14.00">Revision</text>
</g>
<!-- Configuration&#45;&gt;Revision -->
<g id="edge11" class="edge"><title>Configuration&#45;&gt;Revision</title>
<path fill="none" stroke="black" d="M420.238,-719.871C424.328,-695.67 431.843,-651.211 436.713,-622.393"/>
<polygon fill="black" stroke="black" points="440.222,-622.633 438.438,-612.189 433.32,-621.466 440.222,-622.633"/>
</g>
<!-- ClusterIngress -->
<g id="node9" class="node"><title>ClusterIngress</title>
<ellipse fill="none" stroke="black" cx="123.343" cy="-666" rx="80.6858" ry="18"/>
<text text-anchor="middle" x="123.343" y="-662.3" font-family="Times,serif" font-size="14.00">ClusterIngress</text>
</g>
<!-- Route&#45;&gt;ClusterIngress -->
<g id="edge8" class="edge"><title>Route&#45;&gt;ClusterIngress</title>
<path fill="none" stroke="black" d="M251.698,-724.967C228.392,-714.441 194.101,-698.955 166.825,-686.637"/>
<polygon fill="black" stroke="black" points="168.053,-683.351 157.499,-682.425 165.172,-689.731 168.053,-683.351"/>
</g>
<!-- PlaceholderService -->
<g id="node10" class="node"><title>PlaceholderService</title>
<ellipse fill="none" stroke="blue" cx="120.343" cy="-450" rx="100.983" ry="18"/>
<text text-anchor="middle" x="120.343" y="-446.3" font-family="Times,serif" font-size="14.00">PlaceholderService</text>
</g>
<!-- Route&#45;&gt;PlaceholderService -->
<g id="edge9" class="edge"><title>Route&#45;&gt;PlaceholderService</title>
<path fill="none" stroke="black" d="M278.695,-719.541C278.779,-689.394 276.64,-626.006 259.343,-576 247.084,-540.558 242.382,-529.987 215.343,-504 201.556,-490.749 183.814,-479.69 167.403,-471.16"/>
<polygon fill="black" stroke="black" points="168.965,-468.028 158.456,-466.684 165.833,-474.289 168.965,-468.028"/>
</g>
<!-- Deployment -->
<g id="node5" class="node"><title>Deployment</title>
<ellipse fill="none" stroke="blue" cx="653.343" cy="-306" rx="66.8882" ry="18"/>
<text text-anchor="middle" x="653.343" y="-302.3" font-family="Times,serif" font-size="14.00">Deployment</text>
</g>
<!-- Revision&#45;&gt;Deployment -->
<g id="edge3" class="edge"><title>Revision&#45;&gt;Deployment</title>
<path fill="none" stroke="black" d="M476.759,-581.282C539.985,-557.999 668.981,-499.065 704.343,-396 709.536,-380.866 710.324,-374.84 704.343,-360 699.765,-348.641 691.46,-338.354 682.862,-329.931"/>
<polygon fill="black" stroke="black" points="685.058,-327.196 675.317,-323.028 680.333,-332.36 685.058,-327.196"/>
</g>
<!-- KPA -->
<g id="node6" class="node"><title>KPA</title>
<ellipse fill="none" stroke="black" cx="441.343" cy="-522" rx="29.795" ry="18"/>
<text text-anchor="middle" x="441.343" y="-518.3" font-family="Times,serif" font-size="14.00">KPA</text>
</g>
<!-- Revision&#45;&gt;KPA -->
<g id="edge4" class="edge"><title>Revision&#45;&gt;KPA</title>
<path fill="none" stroke="black" d="M441.343,-575.697C441.343,-567.983 441.343,-558.712 441.343,-550.112"/>
<polygon fill="black" stroke="black" points="444.843,-550.104 441.343,-540.104 437.843,-550.104 444.843,-550.104"/>
</g>
<!-- ReplicaSet -->
<g id="node15" class="node"><title>ReplicaSet</title>
<ellipse fill="none" stroke="blue" cx="592.343" cy="-234" rx="60.3893" ry="18"/>
<text text-anchor="middle" x="592.343" y="-230.3" font-family="Times,serif" font-size="14.00">ReplicaSet</text>
</g>
<!-- Deployment&#45;&gt;ReplicaSet -->
<g id="edge15" class="edge"><title>Deployment&#45;&gt;ReplicaSet</title>
<path fill="none" stroke="black" d="M638.887,-288.411C631.4,-279.82 622.111,-269.159 613.804,-259.627"/>
<polygon fill="black" stroke="black" points="616.328,-257.196 607.119,-251.956 611.05,-261.795 616.328,-257.196"/>
</g>
<!-- KPA&#45;&gt;Deployment -->
<g id="edge7" class="edge"><title>KPA&#45;&gt;Deployment</title>
<path fill="none" stroke="black" stroke-dasharray="5,2" d="M470.032,-516.372C524.047,-505.94 639.769,-475.022 688.343,-396 700.859,-375.638 688.232,-350.034 674.781,-331.522"/>
<polygon fill="black" stroke="black" points="677.514,-329.334 668.631,-323.56 671.974,-333.613 677.514,-329.334"/>
</g>
<!-- SKS -->
<g id="node7" class="node"><title>SKS</title>
<ellipse fill="none" stroke="black" cx="461.343" cy="-450" rx="29.4969" ry="18"/>
<text text-anchor="middle" x="461.343" y="-446.3" font-family="Times,serif" font-size="14.00">SKS</text>
</g>
<!-- KPA&#45;&gt;SKS -->
<g id="edge5" class="edge"><title>KPA&#45;&gt;SKS</title>
<path fill="none" stroke="black" d="M446.185,-504.055C448.445,-496.145 451.189,-486.54 453.718,-477.688"/>
<polygon fill="black" stroke="black" points="457.164,-478.366 456.546,-467.789 450.434,-476.443 457.164,-478.366"/>
</g>
<!-- MetricsService -->
<g id="node8" class="node"><title>MetricsService</title>
<ellipse fill="none" stroke="blue" cx="177.343" cy="-378" rx="81.7856" ry="18"/>
<text text-anchor="middle" x="177.343" y="-374.3" font-family="Times,serif" font-size="14.00">MetricsService</text>
</g>
<!-- KPA&#45;&gt;MetricsService -->
<g id="edge6" class="edge"><title>KPA&#45;&gt;MetricsService</title>
<path fill="none" stroke="black" d="M413.032,-516.044C378.326,-509.102 318.556,-494.284 273.343,-468 257.564,-458.827 223.795,-426.13 200.822,-403.039"/>
<polygon fill="black" stroke="black" points="203.3,-400.567 193.778,-395.921 198.324,-405.491 203.3,-400.567"/>
</g>
<!-- Activator -->
<g id="node21" class="node"><title>Activator</title>
<ellipse fill="none" stroke="black" cx="362.343" cy="-234" rx="53.8905" ry="18"/>
<text text-anchor="middle" x="362.343" y="-230.3" font-family="Times,serif" font-size="14.00">Activator</text>
</g>
<!-- KPA&#45;&gt;Activator -->
<g id="edge31" class="edge"><title>KPA&#45;&gt;Activator</title>
<path fill="none" stroke="red" stroke-dasharray="1,5" d="M420.12,-509.215C388.354,-490.2 329.682,-449.417 306.343,-396 285.874,-349.151 318.534,-292.213 341.938,-260.138"/>
<polygon fill="red" stroke="red" points="345.015,-261.871 348.242,-251.779 339.426,-257.656 345.015,-261.871"/>
</g>
<!-- PublicService -->
<g id="node12" class="node"><title>PublicService</title>
<ellipse fill="none" stroke="blue" cx="390.343" cy="-378" rx="74.9875" ry="18"/>
<text text-anchor="middle" x="390.343" y="-374.3" font-family="Times,serif" font-size="14.00">PublicService</text>
</g>
<!-- SKS&#45;&gt;PublicService -->
<g id="edge12" class="edge"><title>SKS&#45;&gt;PublicService</title>
<path fill="none" stroke="black" d="M446.286,-434.155C437.114,-425.112 425.181,-413.347 414.693,-403.007"/>
<polygon fill="black" stroke="black" points="416.95,-400.317 407.372,-395.789 412.036,-405.302 416.95,-400.317"/>
</g>
<!-- PublicEndpoints -->
<g id="node13" class="node"><title>PublicEndpoints</title>
<ellipse fill="none" stroke="blue" cx="444.343" cy="-306" rx="87.1846" ry="18"/>
<text text-anchor="middle" x="444.343" y="-302.3" font-family="Times,serif" font-size="14.00">PublicEndpoints</text>
</g>
<!-- SKS&#45;&gt;PublicEndpoints -->
<g id="edge13" class="edge"><title>SKS&#45;&gt;PublicEndpoints</title>
<path fill="none" stroke="black" d="M467.7,-432.374C473.696,-414.325 480.866,-384.765 474.343,-360 471.851,-350.539 467.241,-340.993 462.37,-332.66"/>
<polygon fill="black" stroke="black" points="465.329,-330.79 457.07,-324.155 459.388,-334.493 465.329,-330.79"/>
</g>
<!-- PrivateService -->
<g id="node14" class="node"><title>PrivateService</title>
<ellipse fill="none" stroke="blue" cx="600.343" cy="-378" rx="79.0865" ry="18"/>
<text text-anchor="middle" x="600.343" y="-374.3" font-family="Times,serif" font-size="14.00">PrivateService</text>
</g>
<!-- SKS&#45;&gt;PrivateService -->
<g id="edge14" class="edge"><title>SKS&#45;&gt;PrivateService</title>
<path fill="none" stroke="black" d="M483.368,-437.908C503.936,-427.551 535.129,-411.842 560.132,-399.25"/>
<polygon fill="black" stroke="black" points="562.019,-402.219 569.377,-394.595 558.871,-395.967 562.019,-402.219"/>
</g>
<!-- Pod -->
<g id="node16" class="node"><title>Pod</title>
<ellipse fill="none" stroke="blue" cx="362.343" cy="-162" rx="27.8951" ry="18"/>
<text text-anchor="middle" x="362.343" y="-158.3" font-family="Times,serif" font-size="14.00">Pod</text>
</g>
<!-- MetricsService&#45;&gt;Pod -->
<g id="edge34" class="edge"><title>MetricsService&#45;&gt;Pod</title>
<path fill="none" stroke="green" stroke-dasharray="1,5" d="M188.336,-360.046C208.473,-329.591 253.442,-264.301 299.343,-216 310.673,-204.078 324.546,-192.165 336.387,-182.662"/>
<polygon fill="green" stroke="green" points="338.896,-185.141 344.585,-176.203 334.564,-179.643 338.896,-185.141"/>
</g>
<!-- VirtualService -->
<g id="node11" class="node"><title>VirtualService</title>
<ellipse fill="none" stroke="green" cx="77.3431" cy="-594" rx="77.1866" ry="18"/>
<text text-anchor="middle" x="77.3431" y="-590.3" font-family="Times,serif" font-size="14.00">VirtualService</text>
</g>
<!-- ClusterIngress&#45;&gt;VirtualService -->
<g id="edge10" class="edge"><title>ClusterIngress&#45;&gt;VirtualService</title>
<path fill="none" stroke="black" d="M112.208,-648.055C106.808,-639.837 100.206,-629.791 94.2054,-620.66"/>
<polygon fill="black" stroke="black" points="97.1123,-618.71 88.6955,-612.275 91.2623,-622.555 97.1123,-618.71"/>
</g>
<!-- PlaceholderService&#45;&gt;PublicService -->
<g id="edge23" class="edge"><title>PlaceholderService&#45;&gt;PublicService</title>
<path fill="none" stroke="black" stroke-dasharray="1,5" d="M174.982,-434.834C220.346,-423.073 284.745,-406.377 331.29,-394.31"/>
<polygon fill="black" stroke="black" points="332.431,-397.63 341.233,-391.732 330.675,-390.854 332.431,-397.63"/>
</g>
<!-- IngressGateway -->
<g id="node19" class="node"><title>IngressGateway</title>
<ellipse fill="none" stroke="green" cx="120.343" cy="-522" rx="86.3847" ry="18"/>
<text text-anchor="middle" x="120.343" y="-518.3" font-family="Times,serif" font-size="14.00">IngressGateway</text>
</g>
<!-- VirtualService&#45;&gt;IngressGateway -->
<g id="edge19" class="edge"><title>VirtualService&#45;&gt;IngressGateway</title>
<path fill="none" stroke="black" stroke-dasharray="5,2" d="M87.7522,-576.055C92.7482,-567.922 98.8444,-557.998 104.407,-548.943"/>
<polygon fill="black" stroke="black" points="107.479,-550.628 109.731,-540.275 101.515,-546.964 107.479,-550.628"/>
</g>
<!-- PublicService&#45;&gt;PublicEndpoints -->
<g id="edge24" class="edge"><title>PublicService&#45;&gt;PublicEndpoints</title>
<path fill="none" stroke="black" stroke-dasharray="1,5" d="M403.415,-360.055C409.82,-351.753 417.664,-341.584 424.766,-332.378"/>
<polygon fill="black" stroke="black" points="427.68,-334.331 431.016,-324.275 422.137,-330.055 427.68,-334.331"/>
</g>
<!-- PublicEndpoints&#45;&gt;Pod -->
<g id="edge25" class="edge"><title>PublicEndpoints&#45;&gt;Pod</title>
<path fill="none" stroke="black" stroke-dasharray="1,5" d="M443.936,-287.729C442.779,-268.861 438.765,-238.348 425.343,-216 416.853,-201.863 403.219,-189.704 390.802,-180.611"/>
<polygon fill="black" stroke="black" points="392.686,-177.658 382.479,-174.819 388.688,-183.403 392.686,-177.658"/>
</g>
<!-- PublicEndpoints&#45;&gt;Activator -->
<g id="edge26" class="edge"><title>PublicEndpoints&#45;&gt;Activator</title>
<path fill="none" stroke="black" stroke-dasharray="1,5" d="M424.91,-288.411C414.136,-279.213 400.583,-267.644 388.849,-257.627"/>
<polygon fill="black" stroke="black" points="390.95,-254.819 381.072,-250.988 386.405,-260.143 390.95,-254.819"/>
</g>
<!-- PrivateService&#45;&gt;Deployment -->
<g id="edge30" class="edge"><title>PrivateService&#45;&gt;Deployment</title>
<path fill="none" stroke="black" stroke-dasharray="1,5" d="M613.173,-360.055C619.553,-351.629 627.388,-341.28 634.44,-331.966"/>
<polygon fill="black" stroke="black" points="637.385,-333.874 640.631,-323.789 631.805,-329.649 637.385,-333.874"/>
</g>
<!-- PrivateService&#45;&gt;PublicEndpoints -->
<g id="edge20" class="edge"><title>PrivateService&#45;&gt;PublicEndpoints</title>
<path fill="none" stroke="black" stroke-dasharray="5,2" d="M566.108,-361.638C543.204,-351.361 512.855,-337.743 488.186,-326.673"/>
<polygon fill="black" stroke="black" points="489.594,-323.469 479.037,-322.568 486.728,-329.855 489.594,-323.469"/>
</g>
<!-- ReplicaSet&#45;&gt;Pod -->
<g id="edge16" class="edge"><title>ReplicaSet&#45;&gt;Pod</title>
<path fill="none" stroke="black" d="M551.753,-220.647C507.791,-207.267 438.404,-186.149 396.937,-173.529"/>
<polygon fill="black" stroke="black" points="397.865,-170.153 387.279,-170.589 395.827,-176.849 397.865,-170.153"/>
</g>
<!-- UserContainer -->
<g id="node17" class="node"><title>UserContainer</title>
<ellipse fill="none" stroke="blue" cx="362.343" cy="-18" rx="79.0865" ry="18"/>
<text text-anchor="middle" x="362.343" y="-14.3" font-family="Times,serif" font-size="14.00">UserContainer</text>
</g>
<!-- Pod&#45;&gt;UserContainer -->
<g id="edge17" class="edge"><title>Pod&#45;&gt;UserContainer</title>
<path fill="none" stroke="black" d="M338.76,-152.012C320.508,-143.652 296.519,-129.26 285.343,-108 277.898,-93.8376 277.898,-86.1624 285.343,-72 292.46,-58.4611 304.774,-47.7075 317.493,-39.5233"/>
<polygon fill="black" stroke="black" points="319.51,-42.3951 326.304,-34.2651 315.923,-36.384 319.51,-42.3951"/>
</g>
<!-- QueueProxy -->
<g id="node18" class="node"><title>QueueProxy</title>
<ellipse fill="none" stroke="blue" cx="362.343" cy="-90" rx="67.6881" ry="18"/>
<text text-anchor="middle" x="362.343" y="-86.3" font-family="Times,serif" font-size="14.00">QueueProxy</text>
</g>
<!-- Pod&#45;&gt;QueueProxy -->
<g id="edge18" class="edge"><title>Pod&#45;&gt;QueueProxy</title>
<path fill="none" stroke="black" d="M356.465,-144.055C355.647,-136.346 355.405,-127.027 355.738,-118.364"/>
<polygon fill="black" stroke="black" points="359.237,-118.491 356.43,-108.275 352.254,-118.012 359.237,-118.491"/>
</g>
<!-- Pod&#45;&gt;QueueProxy -->
<g id="edge28" class="edge"><title>Pod&#45;&gt;QueueProxy</title>
<path fill="none" stroke="black" stroke-dasharray="1,5" d="M368.221,-144.055C369.039,-136.346 369.282,-127.027 368.948,-118.364"/>
<polygon fill="black" stroke="black" points="372.432,-118.012 368.256,-108.275 365.449,-118.491 372.432,-118.012"/>
</g>
<!-- QueueProxy&#45;&gt;UserContainer -->
<g id="edge29" class="edge"><title>QueueProxy&#45;&gt;UserContainer</title>
<path fill="none" stroke="black" stroke-dasharray="1,5" d="M356.465,-72.055C355.647,-64.3456 355.405,-55.0269 355.738,-46.3642"/>
<polygon fill="black" stroke="black" points="359.237,-46.4915 356.43,-36.2753 352.254,-46.0122 359.237,-46.4915"/>
</g>
<!-- QueueProxy&#45;&gt;UserContainer -->
<g id="edge33" class="edge"><title>QueueProxy&#45;&gt;UserContainer</title>
<path fill="none" stroke="red" stroke-dasharray="1,5" d="M368.221,-72.055C369.039,-64.3456 369.282,-55.0269 368.948,-46.3642"/>
<polygon fill="red" stroke="red" points="372.432,-46.0122 368.256,-36.2753 365.449,-46.4915 372.432,-46.0122"/>
</g>
<!-- IngressGateway&#45;&gt;PlaceholderService -->
<g id="edge22" class="edge"><title>IngressGateway&#45;&gt;PlaceholderService</title>
<path fill="none" stroke="black" stroke-dasharray="1,5" d="M120.343,-503.697C120.343,-495.983 120.343,-486.712 120.343,-478.112"/>
<polygon fill="black" stroke="black" points="123.843,-478.104 120.343,-468.104 116.843,-478.104 123.843,-478.104"/>
</g>
<!-- Client -->
<g id="node20" class="node"><title>Client</title>
<ellipse fill="none" stroke="black" cx="211.343" cy="-594" rx="38.9931" ry="18"/>
<text text-anchor="middle" x="211.343" y="-590.3" font-family="Times,serif" font-size="14.00">Client</text>
</g>
<!-- Client&#45;&gt;IngressGateway -->
<g id="edge21" class="edge"><title>Client&#45;&gt;IngressGateway</title>
<path fill="none" stroke="black" stroke-dasharray="1,5" d="M192.044,-578.155C179.861,-568.783 163.874,-556.486 150.089,-545.882"/>
<polygon fill="black" stroke="black" points="151.904,-542.862 141.844,-539.539 147.636,-548.41 151.904,-542.862"/>
</g>
<!-- Activator&#45;&gt;Pod -->
<g id="edge27" class="edge"><title>Activator&#45;&gt;Pod</title>
<path fill="none" stroke="black" stroke-dasharray="1,5" d="M356.465,-216.055C355.635,-208.231 355.397,-198.748 355.753,-189.977"/>
<polygon fill="black" stroke="black" points="359.26,-190.013 356.482,-179.789 352.277,-189.514 359.26,-190.013"/>
</g>
<!-- Activator&#45;&gt;Pod -->
<g id="edge32" class="edge"><title>Activator&#45;&gt;Pod</title>
<path fill="none" stroke="red" stroke-dasharray="1,5" d="M368.221,-216.055C369.052,-208.231 369.289,-198.748 368.933,-189.977"/>
<polygon fill="red" stroke="red" points="372.409,-189.514 368.205,-179.789 365.427,-190.013 372.409,-189.514"/>
</g>
</g>
</svg>
