<?xml version="1.0" encoding="UTF-8" standalone="no"?>
<!DOCTYPE svg PUBLIC "-//W3C//DTD SVG 1.1//EN"
 "http://www.w3.org/Graphics/SVG/1.1/DTD/svg11.dtd">
<!-- Generated by graphviz version 2.38.0 (20140413.2041)
 -->
<!-- Title: TrafficGraph Pages: 1 -->
<svg width="771pt" height="950pt"
 viewBox="0.00 0.00 770.94 949.88" xmlns="http://www.w3.org/2000/svg" xmlns:xlink="http://www.w3.org/1999/xlink">
<g id="graph0" class="graph" transform="scale(1 1) rotate(0) translate(4 945.884)">
<title>TrafficGraph</title>
<polygon fill="white" stroke="none" points="-4,4 -4,-945.884 766.941,-945.884 766.941,4 -4,4"/>
<!-- Service -->
<g id="node1" class="node"><title>Service</title>
<ellipse fill="none" stroke="black" cx="349.997" cy="-923.884" rx="45.4919" ry="18"/>
<text text-anchor="middle" x="349.997" y="-920.184" font-family="Times,serif" font-size="14.00">Service</text>
</g>
<!-- Configuration -->
<g id="node2" class="node"><title>Configuration</title>
<ellipse fill="none" stroke="black" cx="417.997" cy="-851.884" rx="74.9875" ry="18"/>
<text text-anchor="middle" x="417.997" y="-848.184" font-family="Times,serif" font-size="14.00">Configuration</text>
</g>
<!-- Service&#45;&gt;Configuration -->
<g id="edge1" class="edge"><title>Service&#45;&gt;Configuration</title>
<path fill="none" stroke="black" d="M365.768,-906.648C374.397,-897.765 385.25,-886.593 394.824,-876.737"/>
<polygon fill="black" stroke="black" points="397.381,-879.128 401.838,-869.517 392.36,-874.251 397.381,-879.128"/>
</g>
<!-- Route -->
<g id="node3" class="node"><title>Route</title>
<ellipse fill="none" stroke="black" cx="281.997" cy="-851.884" rx="38.1938" ry="18"/>
<text text-anchor="middle" x="281.997" y="-848.184" font-family="Times,serif" font-size="14.00">Route</text>
</g>
<!-- Service&#45;&gt;Route -->
<g id="edge2" class="edge"><title>Service&#45;&gt;Route</title>
<path fill="none" stroke="black" d="M334.225,-906.648C325.346,-897.508 314.112,-885.943 304.34,-875.884"/>
<polygon fill="black" stroke="black" points="306.693,-873.283 297.215,-868.549 301.672,-878.161 306.693,-873.283"/>
</g>
<!-- Revision -->
<g id="node4" class="node"><title>Revision</title>
<ellipse fill="none" stroke="black" cx="446.997" cy="-686.887" rx="50.0912" ry="18"/>
<text text-anchor="middle" x="446.997" y="-683.187" font-family="Times,serif" font-size="14.00">Revision</text>
</g>
<!-- Configuration&#45;&gt;Revision -->
<g id="edge11" class="edge"><title>Configuration&#45;&gt;Revision</title>
<path fill="none" stroke="black" d="M421.045,-833.748C426.058,-805.574 436.083,-749.225 442.1,-715.407"/>
<polygon fill="black" stroke="black" points="445.596,-715.742 443.901,-705.283 438.704,-714.516 445.596,-715.742"/>
</g>
<!-- ClusterIngress -->
<g id="node9" class="node"><title>ClusterIngress</title>
<ellipse fill="none" stroke="black" cx="172.997" cy="-779.884" rx="80.6858" ry="18"/>
<text text-anchor="middle" x="172.997" y="-776.184" font-family="Times,serif" font-size="14.00">ClusterIngress</text>
</g>
<!-- Route&#45;&gt;ClusterIngress -->
<g id="edge8" class="edge"><title>Route&#45;&gt;ClusterIngress</title>
<path fill="none" stroke="black" d="M260.201,-836.886C244.964,-827.101 224.316,-813.841 206.936,-802.68"/>
<polygon fill="black" stroke="black" points="208.497,-799.523 198.192,-797.064 204.715,-805.413 208.497,-799.523"/>
</g>
<!-- PlaceholderService -->
<g id="node10" class="node"><title>PlaceholderService</title>
<ellipse fill="none" stroke="blue" cx="162.997" cy="-521.89" rx="100.983" ry="18"/>
<text text-anchor="middle" x="162.997" y="-518.19" font-family="Times,serif" font-size="14.00">PlaceholderService</text>
</g>
<!-- Route&#45;&gt;PlaceholderService -->
<g id="edge9" class="edge"><title>Route&#45;&gt;PlaceholderService</title>
<path fill="none" stroke="black" d="M285.62,-833.669C294.324,-787.567 311.903,-659.167 257.997,-575.89 248.648,-561.448 233.924,-550.573 218.833,-542.555"/>
<polygon fill="black" stroke="black" points="219.952,-539.205 209.435,-537.926 216.859,-545.485 219.952,-539.205"/>
</g>
<!-- Deployment -->
<g id="node5" class="node"><title>Deployment</title>
<ellipse fill="none" stroke="blue" cx="695.997" cy="-377.89" rx="66.8882" ry="18"/>
<text text-anchor="middle" x="695.997" y="-374.19" font-family="Times,serif" font-size="14.00">Deployment</text>
</g>
<!-- Revision&#45;&gt;Deployment -->
<g id="edge3" class="edge"><title>Revision&#45;&gt;Deployment</title>
<path fill="none" stroke="black" d="M477.11,-672.393C525.638,-649.707 622.608,-600.416 690.997,-539.89 731.486,-504.056 767.207,-482.04 746.997,-431.89 742.419,-420.531 734.113,-410.245 725.515,-401.821"/>
<polygon fill="black" stroke="black" points="727.711,-399.086 717.971,-394.918 722.986,-404.251 727.711,-399.086"/>
</g>
<!-- KPA -->
<g id="node6" class="node"><title>KPA</title>
<ellipse fill="none" stroke="black" cx="446.997" cy="-593.89" rx="29.795" ry="18"/>
<text text-anchor="middle" x="446.997" y="-590.19" font-family="Times,serif" font-size="14.00">KPA</text>
</g>
<!-- Revision&#45;&gt;KPA -->
<g id="edge4" class="edge"><title>Revision&#45;&gt;KPA</title>
<path fill="none" stroke="black" d="M446.997,-668.771C446.997,-655.68 446.997,-637.369 446.997,-622.252"/>
<polygon fill="black" stroke="black" points="450.497,-621.929 446.997,-611.929 443.497,-621.929 450.497,-621.929"/>
</g>
<!-- ReplicaSet -->
<g id="node15" class="node"><title>ReplicaSet</title>
<ellipse fill="none" stroke="blue" cx="613.997" cy="-269.945" rx="60.3893" ry="18"/>
<text text-anchor="middle" x="613.997" y="-266.245" font-family="Times,serif" font-size="14.00">ReplicaSet</text>
</g>
<!-- Deployment&#45;&gt;ReplicaSet -->
<g id="edge15" class="edge"><title>Deployment&#45;&gt;ReplicaSet</title>
<path fill="none" stroke="black" d="M682.822,-359.868C669.353,-342.467 648.3,-315.265 633.023,-295.527"/>
<polygon fill="black" stroke="black" points="635.757,-293.341 626.868,-287.576 630.221,-297.626 635.757,-293.341"/>
</g>
<!-- KPA&#45;&gt;Deployment -->
<g id="edge7" class="edge"><title>KPA&#45;&gt;Deployment</title>
<path fill="none" stroke="black" stroke-dasharray="5,2" d="M476.516,-590.139C536.783,-582.748 673.155,-556.545 730.997,-467.89 744.057,-447.873 731.362,-422.226 717.747,-403.61"/>
<polygon fill="black" stroke="black" points="720.418,-401.343 711.517,-395.597 714.892,-405.64 720.418,-401.343"/>
</g>
<!-- SKS -->
<g id="node7" class="node"><title>SKS</title>
<ellipse fill="none" stroke="black" cx="484.997" cy="-521.89" rx="29.4969" ry="18"/>
<text text-anchor="middle" x="484.997" y="-518.19" font-family="Times,serif" font-size="14.00">SKS</text>
</g>
<!-- KPA&#45;&gt;SKS -->
<g id="edge5" class="edge"><title>KPA&#45;&gt;SKS</title>
<path fill="none" stroke="black" d="M455.81,-576.655C460.348,-568.295 465.988,-557.906 471.096,-548.496"/>
<polygon fill="black" stroke="black" points="474.272,-549.982 475.967,-539.524 468.12,-546.643 474.272,-549.982"/>
</g>
<!-- MetricsService -->
<g id="node8" class="node"><title>MetricsService</title>
<ellipse fill="none" stroke="blue" cx="219.997" cy="-377.89" rx="81.7856" ry="18"/>
<text text-anchor="middle" x="219.997" y="-374.19" font-family="Times,serif" font-size="14.00">MetricsService</text>
</g>
<!-- KPA&#45;&gt;MetricsService -->
<g id="edge6" class="edge"><title>KPA&#45;&gt;MetricsService</title>
<path fill="none" stroke="black" d="M419.185,-587.165C390.614,-580.113 346.169,-565.761 315.997,-539.89 272.599,-502.681 243.558,-440.732 229.604,-405.513"/>
<polygon fill="black" stroke="black" points="232.77,-403.993 225.914,-395.915 226.236,-406.505 232.77,-403.993"/>
</g>
<!-- Activator -->
<g id="node21" class="node"><title>Activator</title>
<ellipse fill="none" stroke="black" cx="337.997" cy="-269.945" rx="53.8905" ry="53.8905"/>
<text text-anchor="middle" x="337.997" y="-266.245" font-family="Times,serif" font-size="14.00">Activator</text>
</g>
<!-- KPA&#45;&gt;Activator -->
<g id="edge31" class="edge"><title>KPA&#45;&gt;Activator</title>
<path fill="none" stroke="red" stroke-dasharray="1,5" d="M430.841,-578.662C407.838,-557.267 366.498,-514.339 348.997,-467.89 332.89,-425.145 330.582,-373.475 332.065,-333.787"/>
<polygon fill="red" stroke="red" points="335.565,-333.859 332.532,-323.708 328.573,-333.535 335.565,-333.859"/>
</g>
<!-- PublicService -->
<g id="node12" class="node"><title>PublicService</title>
<ellipse fill="none" stroke="blue" cx="432.997" cy="-449.89" rx="74.9875" ry="18"/>
<text text-anchor="middle" x="432.997" y="-446.19" font-family="Times,serif" font-size="14.00">PublicService</text>
</g>
<!-- SKS&#45;&gt;PublicService -->
<g id="edge12" class="edge"><title>SKS&#45;&gt;PublicService</title>
<path fill="none" stroke="black" d="M473.197,-505.006C466.8,-496.395 458.749,-485.558 451.536,-475.847"/>
<polygon fill="black" stroke="black" points="454.247,-473.628 445.475,-467.688 448.628,-477.802 454.247,-473.628"/>
</g>
<!-- PublicEndpoints -->
<g id="node13" class="node"><title>PublicEndpoints</title>
<ellipse fill="none" stroke="blue" cx="444.997" cy="-377.89" rx="87.1846" ry="18"/>
<text text-anchor="middle" x="444.997" y="-374.19" font-family="Times,serif" font-size="14.00">PublicEndpoints</text>
</g>
<!-- SKS&#45;&gt;PublicEndpoints -->
<g id="edge13" class="edge"><title>SKS&#45;&gt;PublicEndpoints</title>
<path fill="none" stroke="black" d="M497.91,-505.62C511.561,-487.509 529.517,-456.655 516.997,-431.89 510.459,-418.961 499.117,-408.414 487.343,-400.231"/>
<polygon fill="black" stroke="black" points="489.056,-397.171 478.755,-394.69 485.26,-403.052 489.056,-397.171"/>
</g>
<!-- PrivateService -->
<g id="node14" class="node"><title>PrivateService</title>
<ellipse fill="none" stroke="blue" cx="642.997" cy="-449.89" rx="79.0865" ry="18"/>
<text text-anchor="middle" x="642.997" y="-446.19" font-family="Times,serif" font-size="14.00">PrivateService</text>
</g>
<!-- SKS&#45;&gt;PrivateService -->
<g id="edge14" class="edge"><title>SKS&#45;&gt;PrivateService</title>
<path fill="none" stroke="black" d="M507.971,-510.712C531.835,-500.139 569.751,-483.341 599.338,-470.233"/>
<polygon fill="black" stroke="black" points="600.897,-473.37 608.622,-466.119 598.062,-466.97 600.897,-473.37"/>
</g>
<!-- Pod -->
<g id="node16" class="node"><title>Pod</title>
<ellipse fill="none" stroke="blue" cx="337.997" cy="-162" rx="27.8951" ry="18"/>
<text text-anchor="middle" x="337.997" y="-158.3" font-family="Times,serif" font-size="14.00">Pod</text>
</g>
<!-- MetricsService&#45;&gt;Pod -->
<g id="edge34" class="edge"><title>MetricsService&#45;&gt;Pod</title>
<path fill="none" stroke="green" stroke-dasharray="1,5" d="M222.76,-359.551C228.362,-328.487 243.309,-262.278 274.997,-216 284.313,-202.393 298.028,-190.286 310.285,-181.091"/>
<polygon fill="green" stroke="green" points="312.391,-183.887 318.466,-175.207 308.304,-178.204 312.391,-183.887"/>
</g>
<!-- MetricsService&#45;&gt;Activator -->
<g id="edge35" class="edge"><title>MetricsService&#45;&gt;Activator</title>
<path fill="none" stroke="green" stroke-dasharray="1,5" d="M238.434,-360.336C252.386,-347.809 272.204,-330.016 290.49,-313.598"/>
<polygon fill="green" stroke="green" points="293.109,-315.951 298.212,-306.666 288.432,-310.742 293.109,-315.951"/>
</g>
<!-- VirtualService -->
<g id="node11" class="node"><title>VirtualService</title>
<ellipse fill="none" stroke="green" cx="172.997" cy="-686.887" rx="77.1866" ry="18"/>
<text text-anchor="middle" x="172.997" y="-683.187" font-family="Times,serif" font-size="14.00">VirtualService</text>
</g>
<!-- ClusterIngress&#45;&gt;VirtualService -->
<g id="edge10" class="edge"><title>ClusterIngress&#45;&gt;VirtualService</title>
<path fill="none" stroke="black" d="M172.997,-761.768C172.997,-748.677 172.997,-730.366 172.997,-715.249"/>
<polygon fill="black" stroke="black" points="176.497,-714.926 172.997,-704.926 169.497,-714.926 176.497,-714.926"/>
</g>
<!-- PlaceholderService&#45;&gt;PublicService -->
<g id="edge23" class="edge"><title>PlaceholderService&#45;&gt;PublicService</title>
<path fill="none" stroke="black" stroke-dasharray="1,5" d="M217.635,-506.725C262.999,-494.964 327.398,-478.268 373.943,-466.2"/>
<polygon fill="black" stroke="black" points="375.085,-469.52 383.886,-463.623 373.328,-462.744 375.085,-469.52"/>
</g>
<!-- IngressGateway -->
<g id="node19" class="node"><title>IngressGateway</title>
<ellipse fill="none" stroke="green" cx="162.997" cy="-593.89" rx="86.3847" ry="18"/>
<text text-anchor="middle" x="162.997" y="-590.19" font-family="Times,serif" font-size="14.00">IngressGateway</text>
</g>
<!-- VirtualService&#45;&gt;IngressGateway -->
<g id="edge19" class="edge"><title>VirtualService&#45;&gt;IngressGateway</title>
<path fill="none" stroke="black" stroke-dasharray="5,2" d="M171.116,-668.771C169.677,-655.68 167.665,-637.369 166.003,-622.252"/>
<polygon fill="black" stroke="black" points="169.441,-621.487 164.869,-611.929 162.482,-622.252 169.441,-621.487"/>
</g>
<!-- PublicService&#45;&gt;PublicEndpoints -->
<g id="edge24" class="edge"><title>PublicService&#45;&gt;PublicEndpoints</title>
<path fill="none" stroke="black" stroke-dasharray="1,5" d="M435.963,-431.587C437.285,-423.873 438.874,-414.603 440.349,-406.003"/>
<polygon fill="black" stroke="black" points="443.824,-406.442 442.064,-395.995 436.925,-405.26 443.824,-406.442"/>
</g>
<!-- PublicEndpoints&#45;&gt;Pod -->
<g id="edge25" class="edge"><title>PublicEndpoints&#45;&gt;Pod</title>
<path fill="none" stroke="black" stroke-dasharray="1,5" d="M443.644,-359.564C440.523,-328.523 430.649,-262.346 400.997,-216 392.109,-202.109 378.436,-189.974 366.097,-180.833"/>
<polygon fill="black" stroke="black" points="368.028,-177.913 357.842,-174.999 363.988,-183.629 368.028,-177.913"/>
</g>
<!-- PublicEndpoints&#45;&gt;Activator -->
<g id="edge26" class="edge"><title>PublicEndpoints&#45;&gt;Activator</title>
<path fill="none" stroke="black" stroke-dasharray="1,5" d="M427.805,-359.868C415.715,-347.898 398.941,-331.289 383.159,-315.663"/>
<polygon fill="black" stroke="black" points="385.567,-313.121 375.998,-308.573 380.642,-318.096 385.567,-313.121"/>
</g>
<!-- PrivateService&#45;&gt;Deployment -->
<g id="edge30" class="edge"><title>PrivateService&#45;&gt;Deployment</title>
<path fill="none" stroke="black" stroke-dasharray="1,5" d="M655.826,-431.945C662.206,-423.519 670.042,-413.17 677.094,-403.857"/>
<polygon fill="black" stroke="black" points="680.039,-405.765 683.285,-395.679 674.458,-401.539 680.039,-405.765"/>
</g>
<!-- PrivateService&#45;&gt;PublicEndpoints -->
<g id="edge20" class="edge"><title>PrivateService&#45;&gt;PublicEndpoints</title>
<path fill="none" stroke="black" stroke-dasharray="5,2" d="M601.971,-434.386C571.351,-423.561 529.308,-408.698 496.439,-397.077"/>
<polygon fill="black" stroke="black" points="497.588,-393.771 486.993,-393.738 495.254,-400.371 497.588,-393.771"/>
</g>
<!-- ReplicaSet&#45;&gt;Pod -->
<g id="edge16" class="edge"><title>ReplicaSet&#45;&gt;Pod</title>
<path fill="none" stroke="black" d="M578.479,-255.312C524.726,-234.678 423.447,-195.801 371.136,-175.721"/>
<polygon fill="black" stroke="black" points="372.248,-172.399 361.658,-172.083 369.739,-178.934 372.248,-172.399"/>
</g>
<!-- UserContainer -->
<g id="node17" class="node"><title>UserContainer</title>
<ellipse fill="none" stroke="blue" cx="337.997" cy="-18" rx="79.0865" ry="18"/>
<text text-anchor="middle" x="337.997" y="-14.3" font-family="Times,serif" font-size="14.00">UserContainer</text>
</g>
<!-- Pod&#45;&gt;UserContainer -->
<g id="edge17" class="edge"><title>Pod&#45;&gt;UserContainer</title>
<path fill="none" stroke="black" d="M314.414,-152.012C296.162,-143.652 272.172,-129.26 260.997,-108 253.552,-93.8376 253.552,-86.1624 260.997,-72 268.114,-58.4611 280.427,-47.7075 293.146,-39.5233"/>
<polygon fill="black" stroke="black" points="295.164,-42.3951 301.958,-34.2651 291.577,-36.384 295.164,-42.3951"/>
</g>
<!-- QueueProxy -->
<g id="node18" class="node"><title>QueueProxy</title>
<ellipse fill="none" stroke="blue" cx="337.997" cy="-90" rx="67.6881" ry="18"/>
<text text-anchor="middle" x="337.997" y="-86.3" font-family="Times,serif" font-size="14.00">QueueProxy</text>
</g>
<!-- Pod&#45;&gt;QueueProxy -->
<g id="edge18" class="edge"><title>Pod&#45;&gt;QueueProxy</title>
<path fill="none" stroke="black" d="M332.118,-144.055C331.3,-136.346 331.058,-127.027 331.391,-118.364"/>
<polygon fill="black" stroke="black" points="334.891,-118.491 332.084,-108.275 327.907,-118.012 334.891,-118.491"/>
</g>
<!-- Pod&#45;&gt;QueueProxy -->
<g id="edge28" class="edge"><title>Pod&#45;&gt;QueueProxy</title>
<path fill="none" stroke="black" stroke-dasharray="1,5" d="M343.875,-144.055C344.693,-136.346 344.935,-127.027 344.602,-118.364"/>
<polygon fill="black" stroke="black" points="348.086,-118.012 343.909,-108.275 341.102,-118.491 348.086,-118.012"/>
</g>
<!-- QueueProxy&#45;&gt;UserContainer -->
<g id="edge29" class="edge"><title>QueueProxy&#45;&gt;UserContainer</title>
<path fill="none" stroke="black" stroke-dasharray="1,5" d="M332.118,-72.055C331.3,-64.3456 331.058,-55.0269 331.391,-46.3642"/>
<polygon fill="black" stroke="black" points="334.891,-46.4915 332.084,-36.2753 327.907,-46.0122 334.891,-46.4915"/>
</g>
<!-- QueueProxy&#45;&gt;UserContainer -->
<g id="edge33" class="edge"><title>QueueProxy&#45;&gt;UserContainer</title>
<path fill="none" stroke="red" stroke-dasharray="1,5" d="M343.875,-72.055C344.693,-64.3456 344.935,-55.0269 344.602,-46.3642"/>
<polygon fill="red" stroke="red" points="348.086,-46.0122 343.909,-36.2753 341.102,-46.4915 348.086,-46.0122"/>
</g>
<!-- IngressGateway&#45;&gt;PlaceholderService -->
<g id="edge22" class="edge"><title>IngressGateway&#45;&gt;PlaceholderService</title>
<path fill="none" stroke="black" stroke-dasharray="1,5" d="M162.997,-575.587C162.997,-567.873 162.997,-558.603 162.997,-550.003"/>
<polygon fill="black" stroke="black" points="166.497,-549.995 162.997,-539.995 159.497,-549.995 166.497,-549.995"/>
</g>
<!-- Client -->
<g id="node20" class="node"><title>Client</title>
<ellipse fill="none" stroke="black" cx="38.9965" cy="-686.887" rx="38.9931" ry="38.9931"/>
<text text-anchor="middle" x="38.9965" y="-683.187" font-family="Times,serif" font-size="14.00">Client</text>
</g>
<!-- Client&#45;&gt;IngressGateway -->
<g id="edge21" class="edge"><title>Client&#45;&gt;IngressGateway</title>
<path fill="none" stroke="black" stroke-dasharray="1,5" d="M68.9941,-661.687C74.9114,-657.043 81.1112,-652.266 86.9965,-647.89 100.975,-637.499 116.725,-626.416 130.248,-617.085"/>
<polygon fill="black" stroke="black" points="132.509,-619.778 138.771,-611.232 128.547,-614.008 132.509,-619.778"/>
</g>
<!-- Activator&#45;&gt;Pod -->
<g id="edge27" class="edge"><title>Activator&#45;&gt;Pod</title>
<path fill="none" stroke="black" stroke-dasharray="1,5" d="M331.247,-216.283C331.241,-207.286 331.494,-198.276 332.008,-190.294"/>
<polygon fill="black" stroke="black" points="335.511,-190.402 332.869,-180.142 328.536,-189.81 335.511,-190.402"/>
</g>
<!-- Activator&#45;&gt;Pod -->
<g id="edge32" class="edge"><title>Activator&#45;&gt;Pod</title>
<path fill="none" stroke="red" stroke-dasharray="1,5" d="M344.746,-216.283C344.752,-207.286 344.499,-198.276 343.985,-190.294"/>
<polygon fill="red" stroke="red" points="347.457,-189.81 343.125,-180.142 340.482,-190.402 347.457,-189.81"/>
</g>
</g>
</svg>
