<?xml version="1.0" encoding="UTF-8" standalone="no"?>
<!DOCTYPE svg PUBLIC "-//W3C//DTD SVG 1.1//EN"
 "http://www.w3.org/Graphics/SVG/1.1/DTD/svg11.dtd">
<!-- Generated by graphviz version 2.38.0 (20140413.2041)
 -->
<!-- Title: TrafficGraph Pages: 1 -->
<svg width="782pt" height="950pt"
 viewBox="0.00 0.00 781.69 949.88" xmlns="http://www.w3.org/2000/svg" xmlns:xlink="http://www.w3.org/1999/xlink">
<g id="graph0" class="graph" transform="scale(1 1) rotate(0) translate(4 945.884)">
<title>TrafficGraph</title>
<polygon fill="white" stroke="none" points="-4,4 -4,-945.884 777.685,-945.884 777.685,4 -4,4"/>
<!-- Service -->
<g id="node1" class="node"><title>Service</title>
<ellipse fill="none" stroke="black" cx="398.741" cy="-923.884" rx="45.4919" ry="18"/>
<text text-anchor="middle" x="398.741" y="-920.184" font-family="Times,serif" font-size="14.00">Service</text>
</g>
<!-- Configuration -->
<g id="node2" class="node"><title>Configuration</title>
<ellipse fill="none" stroke="black" cx="470.741" cy="-851.884" rx="74.9875" ry="18"/>
<text text-anchor="middle" x="470.741" y="-848.184" font-family="Times,serif" font-size="14.00">Configuration</text>
</g>
<!-- Service&#45;&gt;Configuration -->
<g id="edge1" class="edge"><title>Service&#45;&gt;Configuration</title>
<path fill="none" stroke="black" d="M415.079,-906.999C424.36,-897.976 436.157,-886.507 446.5,-876.452"/>
<polygon fill="black" stroke="black" points="448.986,-878.915 453.717,-869.435 444.107,-873.896 448.986,-878.915"/>
</g>
<!-- Route -->
<g id="node3" class="node"><title>Route</title>
<ellipse fill="none" stroke="black" cx="327.741" cy="-851.884" rx="38.1938" ry="18"/>
<text text-anchor="middle" x="327.741" y="-848.184" font-family="Times,serif" font-size="14.00">Route</text>
</g>
<!-- Service&#45;&gt;Route -->
<g id="edge2" class="edge"><title>Service&#45;&gt;Route</title>
<path fill="none" stroke="black" d="M382.63,-906.999C373.28,-897.781 361.341,-886.01 350.988,-875.803"/>
<polygon fill="black" stroke="black" points="353.367,-873.233 343.788,-868.705 348.452,-878.218 353.367,-873.233"/>
</g>
<!-- Revision -->
<g id="node4" class="node"><title>Revision</title>
<ellipse fill="none" stroke="black" cx="539.741" cy="-686.887" rx="50.0912" ry="18"/>
<text text-anchor="middle" x="539.741" y="-683.187" font-family="Times,serif" font-size="14.00">Revision</text>
</g>
<!-- Configuration&#45;&gt;Revision -->
<g id="edge15" class="edge"><title>Configuration&#45;&gt;Revision</title>
<path fill="none" stroke="black" d="M477.995,-833.748C490.088,-805.181 514.443,-747.649 528.684,-714.006"/>
<polygon fill="black" stroke="black" points="531.909,-715.366 532.584,-704.793 525.463,-712.637 531.909,-715.366"/>
</g>
<!-- ClusterIngress -->
<g id="node11" class="node"><title>ClusterIngress</title>
<ellipse fill="none" stroke="black" cx="218.741" cy="-779.884" rx="80.6858" ry="18"/>
<text text-anchor="middle" x="218.741" y="-776.184" font-family="Times,serif" font-size="14.00">ClusterIngress</text>
</g>
<!-- Route&#45;&gt;ClusterIngress -->
<g id="edge12" class="edge"><title>Route&#45;&gt;ClusterIngress</title>
<path fill="none" stroke="black" d="M305.945,-836.886C290.709,-827.101 270.06,-813.841 252.681,-802.68"/>
<polygon fill="black" stroke="black" points="254.242,-799.523 243.936,-797.064 250.459,-805.413 254.242,-799.523"/>
</g>
<!-- PlaceholderService -->
<g id="node12" class="node"><title>PlaceholderService</title>
<ellipse fill="none" stroke="blue" cx="100.741" cy="-521.89" rx="100.983" ry="18"/>
<text text-anchor="middle" x="100.741" y="-518.19" font-family="Times,serif" font-size="14.00">PlaceholderService</text>
</g>
<!-- Route&#45;&gt;PlaceholderService -->
<g id="edge13" class="edge"><title>Route&#45;&gt;PlaceholderService</title>
<path fill="none" stroke="black" d="M330.35,-833.846C335.098,-796.899 341.536,-707.913 304.741,-647.89 271.84,-594.22 206.395,-560.286 158.471,-541.531"/>
<polygon fill="black" stroke="black" points="159.423,-538.149 148.832,-537.869 156.937,-544.693 159.423,-538.149"/>
</g>
<!-- Deployment -->
<g id="node5" class="node"><title>Deployment</title>
<ellipse fill="none" stroke="blue" cx="706.741" cy="-377.89" rx="66.8882" ry="18"/>
<text text-anchor="middle" x="706.741" y="-374.19" font-family="Times,serif" font-size="14.00">Deployment</text>
</g>
<!-- Revision&#45;&gt;Deployment -->
<g id="edge3" class="edge"><title>Revision&#45;&gt;Deployment</title>
<path fill="none" stroke="black" d="M560.962,-670.536C593.582,-646.04 656.39,-595.202 695.741,-539.89 724.763,-499.098 737.128,-481.065 727.741,-431.89 726.034,-422.946 722.841,-413.586 719.452,-405.263"/>
<polygon fill="black" stroke="black" points="722.649,-403.839 715.459,-396.057 716.227,-406.624 722.649,-403.839"/>
</g>
<!-- KPA -->
<g id="node6" class="node"><title>KPA</title>
<ellipse fill="none" stroke="black" cx="539.741" cy="-593.89" rx="29.795" ry="18"/>
<text text-anchor="middle" x="539.741" y="-590.19" font-family="Times,serif" font-size="14.00">KPA</text>
</g>
<!-- Revision&#45;&gt;KPA -->
<g id="edge4" class="edge"><title>Revision&#45;&gt;KPA</title>
<path fill="none" stroke="black" d="M539.741,-668.771C539.741,-655.68 539.741,-637.369 539.741,-622.252"/>
<polygon fill="black" stroke="black" points="543.241,-621.929 539.741,-611.929 536.241,-621.929 543.241,-621.929"/>
</g>
<!-- ReplicaSet -->
<g id="node17" class="node"><title>ReplicaSet</title>
<ellipse fill="none" stroke="blue" cx="691.741" cy="-269.945" rx="60.3893" ry="18"/>
<text text-anchor="middle" x="691.741" y="-266.245" font-family="Times,serif" font-size="14.00">ReplicaSet</text>
</g>
<!-- Deployment&#45;&gt;ReplicaSet -->
<g id="edge19" class="edge"><title>Deployment&#45;&gt;ReplicaSet</title>
<path fill="none" stroke="black" d="M704.331,-359.868C701.983,-343.286 698.375,-317.804 695.623,-298.362"/>
<polygon fill="black" stroke="black" points="699.062,-297.687 694.195,-288.277 692.131,-298.669 699.062,-297.687"/>
</g>
<!-- KPA&#45;&gt;Deployment -->
<g id="edge7" class="edge"><title>KPA&#45;&gt;Deployment</title>
<path fill="none" stroke="black" stroke-dasharray="5,2" d="M567.14,-586.391C594.309,-578.851 635.936,-564.234 664.741,-539.89 693.744,-515.38 700.091,-504.34 710.741,-467.89 716.624,-447.756 715.151,-423.976 712.465,-406.065"/>
<polygon fill="black" stroke="black" points="715.881,-405.277 710.741,-396.012 708.982,-406.46 715.881,-405.277"/>
</g>
<!-- SKS -->
<g id="node7" class="node"><title>SKS</title>
<ellipse fill="none" stroke="black" cx="263.741" cy="-521.89" rx="29.4969" ry="18"/>
<text text-anchor="middle" x="263.741" y="-518.19" font-family="Times,serif" font-size="14.00">SKS</text>
</g>
<!-- KPA&#45;&gt;SKS -->
<g id="edge5" class="edge"><title>KPA&#45;&gt;SKS</title>
<path fill="none" stroke="black" d="M512.774,-586.051C462.974,-573.42 356.54,-546.426 300.302,-532.163"/>
<polygon fill="black" stroke="black" points="300.964,-528.72 290.411,-529.654 299.243,-535.506 300.964,-528.72"/>
</g>
<!-- MetricsService -->
<g id="node8" class="node"><title>MetricsService</title>
<ellipse fill="none" stroke="blue" cx="551.741" cy="-521.89" rx="81.7856" ry="18"/>
<text text-anchor="middle" x="551.741" y="-518.19" font-family="Times,serif" font-size="14.00">MetricsService</text>
</g>
<!-- KPA&#45;&gt;MetricsService -->
<g id="edge6" class="edge"><title>KPA&#45;&gt;MetricsService</title>
<path fill="none" stroke="black" d="M542.646,-575.945C543.968,-568.236 545.565,-558.917 547.05,-550.255"/>
<polygon fill="black" stroke="black" points="550.54,-550.613 548.78,-540.166 543.64,-549.431 550.54,-550.613"/>
</g>
<!-- Metric -->
<g id="node9" class="node"><title>Metric</title>
<ellipse fill="none" stroke="black" cx="659.741" cy="-449.89" rx="42.4939" ry="18"/>
<text text-anchor="middle" x="659.741" y="-446.19" font-family="Times,serif" font-size="14.00">Metric</text>
</g>
<!-- KPA&#45;&gt;Metric -->
<g id="edge8" class="edge"><title>KPA&#45;&gt;Metric</title>
<path fill="none" stroke="black" d="M566.932,-586.165C590.687,-578.833 624.192,-564.692 642.741,-539.89 655.955,-522.222 659.793,-497.2 660.562,-478.184"/>
<polygon fill="black" stroke="black" points="664.063,-478.104 660.711,-468.054 657.064,-478.001 664.063,-478.104"/>
</g>
<!-- Decider -->
<g id="node10" class="node"><title>Decider</title>
<ellipse fill="none" stroke="black" cx="476.741" cy="-449.89" rx="47.3916" ry="18"/>
<text text-anchor="middle" x="476.741" y="-446.19" font-family="Times,serif" font-size="14.00">Decider</text>
</g>
<!-- KPA&#45;&gt;Decider -->
<g id="edge9" class="edge"><title>KPA&#45;&gt;Decider</title>
<path fill="none" stroke="black" d="M514.803,-583.728C496.188,-575.414 472.088,-561.167 460.741,-539.89 450.346,-520.399 456.212,-495.446 463.604,-476.924"/>
<polygon fill="black" stroke="black" points="466.868,-478.196 467.652,-467.63 460.45,-475.401 466.868,-478.196"/>
</g>
<!-- Activator -->
<g id="node23" class="node"><title>Activator</title>
<ellipse fill="none" stroke="black" cx="454.741" cy="-269.945" rx="53.8905" ry="53.8905"/>
<text text-anchor="middle" x="454.741" y="-266.245" font-family="Times,serif" font-size="14.00">Activator</text>
</g>
<!-- KPA&#45;&gt;Activator -->
<g id="edge35" class="edge"><title>KPA&#45;&gt;Activator</title>
<path fill="none" stroke="red" stroke-dasharray="1,5" d="M515.238,-583.168C495.799,-574.383 469.099,-559.776 451.741,-539.89 428.83,-513.643 427.775,-502.013 420.741,-467.89 411.281,-421.995 421.265,-369.711 432.81,-330.553"/>
<polygon fill="red" stroke="red" points="436.187,-331.479 435.768,-320.892 429.494,-329.429 436.187,-331.479"/>
</g>
<!-- PublicService -->
<g id="node14" class="node"><title>PublicService</title>
<ellipse fill="none" stroke="blue" cx="84.7411" cy="-449.89" rx="74.9875" ry="18"/>
<text text-anchor="middle" x="84.7411" y="-446.19" font-family="Times,serif" font-size="14.00">PublicService</text>
</g>
<!-- SKS&#45;&gt;PublicService -->
<g id="edge16" class="edge"><title>SKS&#45;&gt;PublicService</title>
<path fill="none" stroke="black" d="M239.6,-511.45C212.036,-500.671 166.287,-482.78 131.643,-469.232"/>
<polygon fill="black" stroke="black" points="132.778,-465.918 122.19,-465.535 130.229,-472.437 132.778,-465.918"/>
</g>
<!-- PublicEndpoints -->
<g id="node15" class="node"><title>PublicEndpoints</title>
<ellipse fill="none" stroke="blue" cx="286.741" cy="-377.89" rx="87.1846" ry="18"/>
<text text-anchor="middle" x="286.741" y="-374.19" font-family="Times,serif" font-size="14.00">PublicEndpoints</text>
</g>
<!-- SKS&#45;&gt;PublicEndpoints -->
<g id="edge17" class="edge"><title>SKS&#45;&gt;PublicEndpoints</title>
<path fill="none" stroke="black" d="M243.607,-508.588C230.403,-499.255 214.243,-485.11 206.741,-467.89 200.351,-453.222 199.171,-445.986 206.741,-431.89 214.042,-418.295 226.533,-407.6 239.502,-399.485"/>
<polygon fill="black" stroke="black" points="241.599,-402.316 248.499,-394.276 238.091,-396.258 241.599,-402.316"/>
</g>
<!-- PrivateService -->
<g id="node16" class="node"><title>PrivateService</title>
<ellipse fill="none" stroke="blue" cx="294.741" cy="-449.89" rx="79.0865" ry="18"/>
<text text-anchor="middle" x="294.741" y="-446.19" font-family="Times,serif" font-size="14.00">PrivateService</text>
</g>
<!-- SKS&#45;&gt;PrivateService -->
<g id="edge18" class="edge"><title>SKS&#45;&gt;PrivateService</title>
<path fill="none" stroke="black" d="M271.088,-504.301C274.664,-496.226 279.05,-486.322 283.07,-477.245"/>
<polygon fill="black" stroke="black" points="286.383,-478.407 287.232,-467.847 279.982,-475.573 286.383,-478.407"/>
</g>
<!-- MetricsService&#45;&gt;Metric -->
<g id="edge11" class="edge"><title>MetricsService&#45;&gt;Metric</title>
<path fill="none" stroke="black" stroke-dasharray="5,2" d="M576.79,-504.655C592.247,-494.636 612.198,-481.705 628.66,-471.035"/>
<polygon fill="black" stroke="black" points="630.908,-473.749 637.396,-465.373 627.101,-467.875 630.908,-473.749"/>
</g>
<!-- MetricsService&#45;&gt;Decider -->
<g id="edge10" class="edge"><title>MetricsService&#45;&gt;Decider</title>
<path fill="none" stroke="black" stroke-dasharray="5,2" d="M533.967,-504.301C524.207,-495.192 511.955,-483.757 501.294,-473.807"/>
<polygon fill="black" stroke="black" points="503.57,-471.143 493.871,-466.879 498.794,-476.26 503.57,-471.143"/>
</g>
<!-- Pod -->
<g id="node18" class="node"><title>Pod</title>
<ellipse fill="none" stroke="blue" cx="454.741" cy="-162" rx="27.8951" ry="18"/>
<text text-anchor="middle" x="454.741" y="-158.3" font-family="Times,serif" font-size="14.00">Pod</text>
</g>
<!-- MetricsService&#45;&gt;Pod -->
<g id="edge38" class="edge"><title>MetricsService&#45;&gt;Pod</title>
<path fill="none" stroke="green" stroke-dasharray="1,5" d="M554.256,-503.636C560.491,-454.811 572.451,-312.942 517.741,-216 509.636,-201.638 496.04,-189.457 483.549,-180.407"/>
<polygon fill="green" stroke="green" points="485.386,-177.423 475.159,-174.654 481.427,-183.196 485.386,-177.423"/>
</g>
<!-- MetricsService&#45;&gt;Activator -->
<g id="edge39" class="edge"><title>MetricsService&#45;&gt;Activator</title>
<path fill="none" stroke="green" stroke-dasharray="1,5" d="M549.352,-503.831C546.521,-485.669 541.106,-456.247 532.741,-431.89 520.265,-395.563 501.634,-356.763 485.709,-326.363"/>
<polygon fill="green" stroke="green" points="488.635,-324.41 480.863,-317.21 482.449,-327.685 488.635,-324.41"/>
</g>
<!-- VirtualService -->
<g id="node13" class="node"><title>VirtualService</title>
<ellipse fill="none" stroke="green" cx="218.741" cy="-686.887" rx="77.1866" ry="18"/>
<text text-anchor="middle" x="218.741" y="-683.187" font-family="Times,serif" font-size="14.00">VirtualService</text>
</g>
<!-- ClusterIngress&#45;&gt;VirtualService -->
<g id="edge14" class="edge"><title>ClusterIngress&#45;&gt;VirtualService</title>
<path fill="none" stroke="black" d="M218.741,-761.768C218.741,-748.677 218.741,-730.366 218.741,-715.249"/>
<polygon fill="black" stroke="black" points="222.241,-714.926 218.741,-704.926 215.241,-714.926 222.241,-714.926"/>
</g>
<!-- PlaceholderService&#45;&gt;PublicService -->
<g id="edge27" class="edge"><title>PlaceholderService&#45;&gt;PublicService</title>
<path fill="none" stroke="black" stroke-dasharray="1,5" d="M96.786,-503.587C95.0228,-495.873 92.9039,-486.603 90.9382,-478.003"/>
<polygon fill="black" stroke="black" points="94.291,-476.963 88.6506,-467.995 87.4669,-478.523 94.291,-476.963"/>
</g>
<!-- IngressGateway -->
<g id="node21" class="node"><title>IngressGateway</title>
<ellipse fill="none" stroke="green" cx="100.741" cy="-593.89" rx="86.3847" ry="18"/>
<text text-anchor="middle" x="100.741" y="-590.19" font-family="Times,serif" font-size="14.00">IngressGateway</text>
</g>
<!-- VirtualService&#45;&gt;IngressGateway -->
<g id="edge23" class="edge"><title>VirtualService&#45;&gt;IngressGateway</title>
<path fill="none" stroke="black" stroke-dasharray="5,2" d="M197.372,-669.408C178.61,-654.94 151.134,-633.751 130.272,-617.664"/>
<polygon fill="black" stroke="black" points="132.406,-614.889 122.35,-611.554 128.131,-620.432 132.406,-614.889"/>
</g>
<!-- PublicService&#45;&gt;PublicEndpoints -->
<g id="edge28" class="edge"><title>PublicService&#45;&gt;PublicEndpoints</title>
<path fill="none" stroke="black" stroke-dasharray="1,5" d="M125.619,-434.725C156.992,-423.853 200.533,-408.765 234.444,-397.013"/>
<polygon fill="black" stroke="black" points="235.881,-400.22 244.184,-393.638 233.589,-393.605 235.881,-400.22"/>
</g>
<!-- PublicEndpoints&#45;&gt;Pod -->
<g id="edge29" class="edge"><title>PublicEndpoints&#45;&gt;Pod</title>
<path fill="none" stroke="black" stroke-dasharray="1,5" d="M295.702,-359.783C312.238,-329.088 349.725,-263.443 391.741,-216 402.751,-203.568 416.744,-191.503 428.745,-182.033"/>
<polygon fill="black" stroke="black" points="430.892,-184.797 436.674,-175.919 426.617,-179.254 430.892,-184.797"/>
</g>
<!-- PublicEndpoints&#45;&gt;Activator -->
<g id="edge30" class="edge"><title>PublicEndpoints&#45;&gt;Activator</title>
<path fill="none" stroke="black" stroke-dasharray="1,5" d="M312.623,-360.569C336.079,-345.777 371.394,-323.506 400.952,-304.866"/>
<polygon fill="black" stroke="black" points="402.928,-307.758 409.52,-299.463 399.194,-301.837 402.928,-307.758"/>
</g>
<!-- PrivateService&#45;&gt;Deployment -->
<g id="edge34" class="edge"><title>PrivateService&#45;&gt;Deployment</title>
<path fill="none" stroke="black" stroke-dasharray="1,5" d="M356.422,-438.411C433.01,-425.398 563.085,-403.298 641.354,-390"/>
<polygon fill="black" stroke="black" points="642.301,-393.389 651.574,-388.264 641.129,-386.488 642.301,-393.389"/>
</g>
<!-- PrivateService&#45;&gt;PublicEndpoints -->
<g id="edge24" class="edge"><title>PrivateService&#45;&gt;PublicEndpoints</title>
<path fill="none" stroke="black" stroke-dasharray="5,2" d="M292.764,-431.587C291.882,-423.873 290.822,-414.603 289.84,-406.003"/>
<polygon fill="black" stroke="black" points="293.309,-405.533 288.696,-395.995 286.354,-406.328 293.309,-405.533"/>
</g>
<!-- ReplicaSet&#45;&gt;Pod -->
<g id="edge20" class="edge"><title>ReplicaSet&#45;&gt;Pod</title>
<path fill="none" stroke="black" d="M668.548,-253.237C651.202,-241.929 626.63,-226.823 603.741,-216 565.943,-198.127 520.388,-182.763 489.681,-173.248"/>
<polygon fill="black" stroke="black" points="490.456,-169.825 479.869,-170.25 488.41,-176.52 490.456,-169.825"/>
</g>
<!-- UserContainer -->
<g id="node19" class="node"><title>UserContainer</title>
<ellipse fill="none" stroke="blue" cx="454.741" cy="-18" rx="79.0865" ry="18"/>
<text text-anchor="middle" x="454.741" y="-14.3" font-family="Times,serif" font-size="14.00">UserContainer</text>
</g>
<!-- Pod&#45;&gt;UserContainer -->
<g id="edge21" class="edge"><title>Pod&#45;&gt;UserContainer</title>
<path fill="none" stroke="black" d="M431.158,-152.012C412.906,-143.652 388.917,-129.26 377.741,-108 370.296,-93.8376 370.296,-86.1624 377.741,-72 384.858,-58.4611 397.172,-47.7075 409.891,-39.5233"/>
<polygon fill="black" stroke="black" points="411.908,-42.3951 418.702,-34.2651 408.321,-36.384 411.908,-42.3951"/>
</g>
<!-- QueueProxy -->
<g id="node20" class="node"><title>QueueProxy</title>
<ellipse fill="none" stroke="blue" cx="454.741" cy="-90" rx="67.6881" ry="18"/>
<text text-anchor="middle" x="454.741" y="-86.3" font-family="Times,serif" font-size="14.00">QueueProxy</text>
</g>
<!-- Pod&#45;&gt;QueueProxy -->
<g id="edge22" class="edge"><title>Pod&#45;&gt;QueueProxy</title>
<path fill="none" stroke="black" d="M448.863,-144.055C448.045,-136.346 447.802,-127.027 448.136,-118.364"/>
<polygon fill="black" stroke="black" points="451.635,-118.491 448.828,-108.275 444.652,-118.012 451.635,-118.491"/>
</g>
<!-- Pod&#45;&gt;QueueProxy -->
<g id="edge32" class="edge"><title>Pod&#45;&gt;QueueProxy</title>
<path fill="none" stroke="black" stroke-dasharray="1,5" d="M460.619,-144.055C461.437,-136.346 461.68,-127.027 461.346,-118.364"/>
<polygon fill="black" stroke="black" points="464.83,-118.012 460.654,-108.275 457.847,-118.491 464.83,-118.012"/>
</g>
<!-- QueueProxy&#45;&gt;UserContainer -->
<g id="edge33" class="edge"><title>QueueProxy&#45;&gt;UserContainer</title>
<path fill="none" stroke="black" stroke-dasharray="1,5" d="M448.863,-72.055C448.045,-64.3456 447.802,-55.0269 448.136,-46.3642"/>
<polygon fill="black" stroke="black" points="451.635,-46.4915 448.828,-36.2753 444.652,-46.0122 451.635,-46.4915"/>
</g>
<!-- QueueProxy&#45;&gt;UserContainer -->
<g id="edge37" class="edge"><title>QueueProxy&#45;&gt;UserContainer</title>
<path fill="none" stroke="red" stroke-dasharray="1,5" d="M460.619,-72.055C461.437,-64.3456 461.68,-55.0269 461.346,-46.3642"/>
<polygon fill="red" stroke="red" points="464.83,-46.0122 460.654,-36.2753 457.847,-46.4915 464.83,-46.0122"/>
</g>
<!-- IngressGateway&#45;&gt;PlaceholderService -->
<g id="edge26" class="edge"><title>IngressGateway&#45;&gt;PlaceholderService</title>
<path fill="none" stroke="black" stroke-dasharray="1,5" d="M100.741,-575.587C100.741,-567.873 100.741,-558.603 100.741,-550.003"/>
<polygon fill="black" stroke="black" points="104.241,-549.995 100.741,-539.995 97.2412,-549.995 104.241,-549.995"/>
</g>
<!-- Client -->
<g id="node22" class="node"><title>Client</title>
<ellipse fill="none" stroke="black" cx="84.7411" cy="-686.887" rx="38.9931" ry="38.9931"/>
<text text-anchor="middle" x="84.7411" y="-683.187" font-family="Times,serif" font-size="14.00">Client</text>
</g>
<!-- Client&#45;&gt;IngressGateway -->
<g id="edge25" class="edge"><title>Client&#45;&gt;IngressGateway</title>
<path fill="none" stroke="black" stroke-dasharray="1,5" d="M91.3412,-648.35C92.8735,-639.635 94.4765,-630.519 95.9158,-622.333"/>
<polygon fill="black" stroke="black" points="99.4092,-622.675 97.6939,-612.22 92.515,-621.463 99.4092,-622.675"/>
</g>
<!-- Activator&#45;&gt;Pod -->
<g id="edge31" class="edge"><title>Activator&#45;&gt;Pod</title>
<path fill="none" stroke="black" stroke-dasharray="1,5" d="M447.991,-216.283C447.985,-207.286 448.239,-198.276 448.752,-190.294"/>
<polygon fill="black" stroke="black" points="452.256,-190.402 449.613,-180.142 445.281,-189.81 452.256,-190.402"/>
</g>
<!-- Activator&#45;&gt;Pod -->
<g id="edge36" class="edge"><title>Activator&#45;&gt;Pod</title>
<path fill="none" stroke="red" stroke-dasharray="1,5" d="M461.491,-216.283C461.497,-207.286 461.243,-198.276 460.73,-190.294"/>
<polygon fill="red" stroke="red" points="464.202,-189.81 459.869,-180.142 457.227,-190.402 464.202,-189.81"/>
</g>
</g>
</svg>
